<svg width="314" height="180" viewBox="0 0 314 180" fill="none" xmlns="http://www.w3.org/2000/svg">
<g clip-path="url(#clip0_1_8737)">
<rect width="314" height="180" rx="12" fill="white"/>
<g clip-path="url(#clip1_1_8737)">
<path d="M314 -19H0V294.999H314V-19Z" fill="#AFE3FB"/>
<g opacity="0.05">
<path d="M241.689 185.499C239.11 182.173 235.114 180.282 231.148 178.871C223.282 176.073 214.98 174.705 206.686 173.739C157.956 168.068 103.588 175.855 56.6365 190.081L51.9127 191.795C46.6614 193.255 44.3786 198.662 47.0771 202.972C50.4859 208.415 59.5994 209.535 65.34 208.749C72.0244 207.833 78.1995 206.679 84.6001 204.545C92.7804 201.819 98.9895 203.42 107.141 203.804C115.976 204.219 124.057 201.797 132.738 200.125C143.064 198.137 149.394 194.879 158.238 195.225C172.21 195.77 185.576 201.689 199.383 203.436C209.978 204.776 219.26 205.475 231.205 201.905C235.016 200.766 238.624 198.887 240.911 195.235C243.031 191.848 244.042 188.534 241.689 185.499Z" fill="#1D262D"/>
</g>
<path d="M173.149 152.28L174.351 149.68L161.744 143.856L160.543 146.456C159.386 148.961 160.478 151.929 162.983 153.086L166.519 154.72C169.024 155.877 171.993 154.785 173.149 152.28Z" fill="#FF8E99"/>
<path d="M161.328 144.765L173.934 150.589L203.054 87.5588L190.448 81.7349L161.328 144.765Z" fill="white"/>
<path d="M168.254 129.766L183.772 129.288L181.625 133.935L166.107 134.414L168.254 129.766Z" fill="#FF2B6E"/>
<path d="M163.471 140.12L178.989 139.641L176.842 144.288L161.324 144.767L163.471 140.12Z" fill="#FF2B6E"/>
<path d="M177.819 109.061L193.337 108.582L191.191 113.229L175.672 113.708L177.819 109.061Z" fill="#FF2B6E"/>
<path d="M173.037 119.414L188.555 118.935L186.408 123.582L170.89 124.061L173.037 119.414Z" fill="#FF2B6E"/>
<path d="M187.386 88.3547L202.904 87.8755L200.757 92.5227L185.239 93.0019L187.386 88.3547Z" fill="#FF2B6E"/>
<path d="M182.603 98.708L198.121 98.2282L195.973 102.876L180.456 103.355L182.603 98.708Z" fill="#FF2B6E"/>
<path d="M190.449 81.7318L190.443 81.7368L190.448 81.7393C190.212 82.3799 192.78 84.171 196.23 85.7654C199.681 87.3593 202.709 88.1544 203.044 87.559L203.049 87.5609V87.5534C203.05 87.5502 203.055 87.5477 203.057 87.5446L203.05 87.5125L202.687 72.813C202.677 72.4161 202.216 72.2032 201.907 72.4531L190.479 81.7054L190.451 81.7205C190.45 81.7236 190.451 81.728 190.449 81.7318Z" fill="#FFD9AB"/>
<path d="M202.784 76.6054L202.688 72.8098C202.678 72.4129 202.218 72.2 201.909 72.4493L198.917 74.8639L198.925 74.8715C199.994 75.8455 201.346 76.4534 202.784 76.6054Z" fill="#262424"/>
<path d="M259.797 64.5724L169.283 134.28C168.671 134.751 168.843 135.716 169.581 135.946L232.2 155.512C232.703 155.669 233.238 155.389 233.395 154.886L261.289 65.613C261.567 64.7231 260.535 64.0034 259.797 64.5724ZM198.178 128.944L236.86 96.9288C237.958 96.0201 239.565 97.0984 239.14 98.4592L226.586 138.638C226.35 139.393 225.547 139.814 224.792 139.578L198.664 131.414C197.58 131.075 197.304 129.668 198.178 128.944Z" fill="#D28D42"/>
<path d="M229.381 144.214C229.225 144.713 229.503 145.244 230.002 145.4L235.794 147.21L236.358 145.403L230.566 143.594C230.068 143.437 229.536 143.715 229.381 144.214Z" fill="#C67B2A"/>
<path d="M232.397 134.558C232.242 135.057 232.52 135.588 233.018 135.744L238.81 137.553L239.375 135.747L233.583 133.937C233.084 133.781 232.553 134.059 232.397 134.558Z" fill="#C67B2A"/>
<path d="M238.432 115.246C238.276 115.744 238.554 116.275 239.053 116.431L244.845 118.241L245.41 116.434L239.618 114.625C239.119 114.469 238.588 114.746 238.432 115.246Z" fill="#C67B2A"/>
<path d="M241.449 105.589C241.293 106.088 241.571 106.619 242.07 106.775L247.862 108.584L248.426 106.778L242.634 104.968C242.136 104.813 241.604 105.09 241.449 105.589Z" fill="#C67B2A"/>
<path d="M244.466 95.9327C244.31 96.4313 244.588 96.9626 245.087 97.1184L250.879 98.9282L251.443 97.1221L245.651 95.3122C245.153 95.1565 244.621 95.4341 244.466 95.9327Z" fill="#C67B2A"/>
<path d="M247.483 86.2765C247.327 86.7752 247.605 87.3058 248.104 87.4616L253.896 89.2715L254.46 87.4653L248.668 85.6554C248.17 85.5003 247.638 85.7779 247.483 86.2765Z" fill="#C67B2A"/>
<path d="M250.5 76.6205C250.344 77.1191 250.622 77.6497 251.121 77.8055L256.913 79.6154L257.478 77.8093L251.685 75.9994C251.187 75.8436 250.656 76.1218 250.5 76.6205Z" fill="#C67B2A"/>
<path d="M235.415 124.901C235.259 125.4 235.537 125.931 236.036 126.087L241.828 127.897L242.393 126.09L236.6 124.281C236.101 124.125 235.571 124.402 235.415 124.901Z" fill="#C67B2A"/>
<path d="M230.215 149.774C230.059 150.273 230.337 150.804 230.836 150.96L234.285 152.038L234.849 150.232L231.4 149.154C230.901 148.998 230.37 149.276 230.215 149.774Z" fill="#DB892E"/>
<path d="M233.232 140.118C233.076 140.617 233.354 141.147 233.853 141.303L237.302 142.381L237.866 140.575L234.417 139.497C233.919 139.341 233.388 139.619 233.232 140.118Z" fill="#DB892E"/>
<path d="M236.249 130.462C236.094 130.961 236.371 131.491 236.87 131.648L240.319 132.725L240.884 130.919L237.435 129.842C236.936 129.685 236.405 129.963 236.249 130.462Z" fill="#DB892E"/>
<path d="M242.284 111.149C242.128 111.648 242.406 112.178 242.905 112.335L246.354 113.412L246.919 111.606L243.47 110.529C242.97 110.373 242.44 110.65 242.284 111.149Z" fill="#DB892E"/>
<path d="M245.301 101.493C245.145 101.992 245.423 102.522 245.922 102.678L249.371 103.756L249.935 101.95L246.486 100.872C245.987 100.716 245.456 100.994 245.301 101.493Z" fill="#DB892E"/>
<path d="M248.318 91.8369C248.162 92.3355 248.44 92.8662 248.939 93.0225L252.388 94.1002L252.952 92.2934L249.503 91.2158C249.004 91.06 248.473 91.3383 248.318 91.8369Z" fill="#DB892E"/>
<path d="M251.335 82.1808C251.179 82.6794 251.457 83.2101 251.956 83.3664L255.405 84.4441L255.969 82.638L252.52 81.5603C252.022 81.404 251.491 81.6822 251.335 82.1808Z" fill="#DB892E"/>
<path d="M254.352 72.5246C254.197 73.0239 254.474 73.5539 254.973 73.7103L258.422 74.7879L258.987 72.9818L255.538 71.9041C255.039 71.7478 254.508 72.026 254.352 72.5246Z" fill="#DB892E"/>
<path d="M239.266 120.805C239.111 121.304 239.388 121.835 239.888 121.991L243.337 123.069L243.901 121.263L240.452 120.185C239.953 120.029 239.422 120.307 239.266 120.805Z" fill="#DB892E"/>
<g opacity="0.2">
<path d="M259.669 70.7971L258.04 76.0126L177.005 138.266L173.338 137.12L259.669 70.7971Z" fill="white"/>
</g>
<path d="M60.0763 69.0807L80.8066 62.6783C81.1564 62.5702 81.5275 62.7662 81.6355 63.116L111.886 161.061C111.994 161.411 111.798 161.782 111.449 161.89L90.7183 168.292C90.3685 168.4 89.9974 168.204 89.8893 167.854L59.6386 69.9097C59.5306 69.5599 59.7265 69.1887 60.0763 69.0807Z" fill="#D28D42"/>
<g opacity="0.2">
<path d="M103.424 164.372L106.106 163.543L75.4536 64.3382L72.7716 65.1669L103.424 164.372Z" fill="white"/>
</g>
<path d="M89.4151 145.09C89.5526 145.536 89.3027 146.009 88.8568 146.147L83.6783 147.747L83.1797 146.131L88.3582 144.532C88.8041 144.394 89.2776 144.644 89.4151 145.09Z" fill="#C67B2A"/>
<path d="M86.7491 136.458C86.8866 136.904 86.6367 137.377 86.1908 137.515L81.0123 139.114L80.5137 137.499L85.6922 135.899C86.1374 135.762 86.6109 136.012 86.7491 136.458Z" fill="#C67B2A"/>
<path d="M84.0829 127.825C84.2205 128.271 83.9705 128.744 83.5246 128.882L78.3461 130.481L77.8481 128.867L83.0266 127.267C83.4719 127.129 83.9454 127.379 84.0829 127.825Z" fill="#C67B2A"/>
<path d="M92.0816 153.723C92.2191 154.168 91.9692 154.642 91.5233 154.78L86.3448 156.38L85.8462 154.764L91.0247 153.165C91.4706 153.027 91.9434 153.277 92.0816 153.723Z" fill="#C67B2A"/>
<path d="M78.7496 110.558C78.8871 111.005 78.6372 111.478 78.1913 111.615L73.0128 113.215L72.5142 111.6L77.6926 110C78.1392 109.863 78.612 110.112 78.7496 110.558Z" fill="#C67B2A"/>
<path d="M76.084 101.926C76.2216 102.372 75.9716 102.845 75.5258 102.983L70.3473 104.583L69.8486 102.968L75.0271 101.368C75.473 101.23 75.9459 101.48 76.084 101.926Z" fill="#C67B2A"/>
<path d="M73.4175 93.2928C73.5551 93.7386 73.3051 94.2122 72.8592 94.3497L67.6808 95.9492L67.1821 94.334L72.3606 92.7345C72.8065 92.5969 73.28 92.8469 73.4175 93.2928Z" fill="#C67B2A"/>
<path d="M70.751 84.6602C70.8886 85.1061 70.6386 85.5796 70.1927 85.7171L65.0143 87.3166L64.5156 85.7014L69.6941 84.1019C70.14 83.9644 70.6135 84.2143 70.751 84.6602Z" fill="#C67B2A"/>
<path d="M68.0854 76.027C68.2229 76.4729 67.973 76.9464 67.5271 77.084L62.3486 78.6829L61.8506 77.0683L67.0291 75.4687C67.4743 75.3318 67.9472 75.5812 68.0854 76.027Z" fill="#C67B2A"/>
<path d="M81.4161 119.191C81.5536 119.637 81.3037 120.111 80.8578 120.248L75.6793 121.848L75.1807 120.233L80.3592 118.633C80.805 118.496 81.2779 118.746 81.4161 119.191Z" fill="#C67B2A"/>
<path d="M94.7476 162.356C94.8852 162.802 94.6352 163.275 94.1893 163.413L89.0108 165.012L88.5122 163.397L93.6907 161.798C94.1366 161.66 94.6101 161.91 94.7476 162.356Z" fill="#C67B2A"/>
<path d="M85.9871 141.421C86.1252 141.867 85.8753 142.339 85.4294 142.478L82.3459 143.43L81.8467 141.815L84.9302 140.863C85.376 140.725 85.8489 140.975 85.9871 141.421Z" fill="#DB892E"/>
<path d="M83.3206 132.788C83.4581 133.234 83.2088 133.707 82.7629 133.845L79.6794 134.797L79.1802 133.183L82.2637 132.23C82.7102 132.092 83.183 132.342 83.3206 132.788Z" fill="#DB892E"/>
<path d="M80.6546 124.155C80.7927 124.601 80.5428 125.074 80.0969 125.212L77.0134 126.164L76.5142 124.55L79.5976 123.598C80.0435 123.459 80.5164 123.709 80.6546 124.155Z" fill="#DB892E"/>
<path d="M88.6526 150.054C88.7901 150.5 88.5408 150.973 88.0949 151.111L85.0115 152.063L84.5122 150.448L87.5963 149.496C88.0422 149.357 88.5151 149.608 88.6526 150.054Z" fill="#DB892E"/>
<path d="M75.3217 106.89C75.4592 107.335 75.2093 107.808 74.7634 107.946L71.6799 108.898L71.1807 107.284L74.2641 106.331C74.7113 106.194 75.1835 106.444 75.3217 106.89Z" fill="#DB892E"/>
<path d="M72.6551 98.2564C72.7926 98.7022 72.5433 99.1751 72.0974 99.3133L69.0139 100.265L68.5146 98.6507L71.5981 97.6987C72.0446 97.5605 72.5175 97.8105 72.6551 98.2564Z" fill="#DB892E"/>
<path d="M69.989 89.6239C70.1266 90.0698 69.8772 90.5426 69.4314 90.6808L66.3479 91.6329L65.8486 90.0183L68.9327 89.0656C69.378 88.9274 69.8509 89.178 69.989 89.6239Z" fill="#DB892E"/>
<path d="M67.323 80.9909C67.4612 81.4368 67.2112 81.9103 66.7654 82.0478L63.6819 82.9999L63.1826 81.3853L66.2661 80.4333C66.7126 80.2951 67.1855 80.545 67.323 80.9909Z" fill="#DB892E"/>
<path d="M64.657 72.3583C64.7952 72.8042 64.5452 73.2771 64.0993 73.4152L61.0159 74.3673L60.5166 72.7527L63.6007 71.8C64.046 71.6619 64.5188 71.9124 64.657 72.3583Z" fill="#DB892E"/>
<path d="M77.9881 115.523C78.1256 115.969 77.8756 116.441 77.4298 116.579L74.3469 117.532L73.8477 115.917L76.9305 114.964C77.3776 114.826 77.8505 115.077 77.9881 115.523Z" fill="#DB892E"/>
<path d="M91.3191 158.687C91.4566 159.133 91.2067 159.606 90.7608 159.743L87.6773 160.695L87.1787 159.081L90.2616 158.128C90.7081 157.991 91.1816 158.241 91.3191 158.687Z" fill="#DB892E"/>
<path d="M110.921 110.285L100.03 99.0841C98.2418 97.2447 98.2826 94.3025 100.123 92.5133L108.95 83.9298C110.791 82.1406 113.732 82.1821 115.521 84.0221L126.411 95.2225L110.921 110.285Z" fill="#FF8E99"/>
<path d="M121.812 121.486L110.921 110.286L126.411 95.2238L137.302 106.424C139.091 108.264 139.05 111.206 137.21 112.995L128.383 121.578C126.543 123.367 123.601 123.326 121.812 121.486Z" fill="#2A8FEB"/>
<g opacity="0.2">
<path d="M125.674 119.462C124.384 119.885 123.168 119.015 122.217 118.231C120.578 116.882 101.552 96.8718 99.1137 93.966C98.3701 95.6484 98.669 97.6844 100.03 99.0842L110.921 110.285L121.811 121.486C123.601 123.326 126.543 123.367 128.382 121.578L137.209 112.994C138.644 111.6 138.98 109.505 138.212 107.776C136.499 109.652 126.949 119.043 125.674 119.462Z" fill="#2C67EA"/>
</g>
<path d="M291.481 69.2509C290.846 69.7828 290.509 70.6444 290.083 71.3415C289.572 72.1799 288.949 72.8311 289.244 73.8824C289.461 74.6523 290.243 74.9864 290.978 74.8344C292.064 74.6102 292.402 73.5307 292.771 72.617C293.1 71.805 293.534 70.8818 293.4 69.9857C293.25 68.989 292.254 68.6034 291.481 69.2509Z" fill="#1586BA"/>
<path d="M285.777 73.618C286.697 74.8357 287.806 76.1979 289.419 76.321C290.312 76.3888 291.029 75.1278 290.465 74.4081C289.604 73.3103 288.243 72.9511 287.084 72.2377C286.285 71.7454 285.189 72.84 285.777 73.618Z" fill="#1586BA"/>
<path d="M294.685 74.8949C294.227 74.79 293.771 74.6782 293.313 74.5709C293.113 74.5238 292.914 74.4704 292.717 74.4101C292.683 74.3994 292.306 74.2788 292.487 74.3391C292.606 74.3856 292.56 74.3686 292.35 74.2883C292.245 74.2317 292.134 74.2022 292.016 74.1984C291.202 74.0961 290.293 74.4779 290.125 75.3734C289.961 76.2464 290.452 77.0213 291.3 77.265C291.847 77.422 292.482 77.3372 293.039 77.2625C293.645 77.1814 294.173 77.0565 294.736 76.8235C295.152 76.6508 295.467 76.3154 295.454 75.8388C295.443 75.3986 295.116 74.9941 294.685 74.8949Z" fill="#1586BA"/>
<path d="M282.945 76.2996C283.288 76.9785 283.847 77.5794 284.345 78.1528C284.862 78.7475 285.359 79.3849 285.942 79.9137C287.373 81.2124 289.384 79.0948 288.008 77.7333C287.449 77.1807 286.784 76.7159 286.163 76.2336C285.561 75.7652 284.937 75.242 284.238 74.9356C283.34 74.5418 282.504 75.4229 282.945 76.2996Z" fill="#1586BA"/>
<path d="M293.579 78.875C292.761 78.7312 291.943 78.5843 291.125 78.4436C290.168 78.2791 289.19 77.945 288.306 78.4876C287.319 79.0942 287.488 80.3772 288.373 80.9594C289.139 81.4643 290.131 81.161 290.985 81.0429C291.788 80.9324 292.59 80.8187 293.392 80.7063C293.856 80.6416 294.233 80.3659 294.283 79.8711C294.328 79.4358 294.037 78.9554 293.579 78.875Z" fill="#1586BA"/>
<path d="M280.137 79.1087C280.492 80.3145 281.201 81.2414 281.99 82.201C282.798 83.1838 283.601 84.1522 284.819 84.5993C286.105 85.0716 286.964 83.3973 286.422 82.3944C285.932 81.4876 284.955 80.8257 284.215 80.1254C283.454 79.4064 282.745 78.6653 281.913 78.0254C281.112 77.4087 279.813 78.0047 280.137 79.1087Z" fill="#1586BA"/>
<path d="M293.655 84.4504C292.883 83.8262 291.914 83.6779 290.962 83.4801C289.972 83.2741 288.977 83.0619 287.979 82.8999C285.698 82.5293 285.302 85.8879 287.655 86.0901C288.659 86.1761 289.674 86.2132 290.681 86.2546C291.653 86.2948 292.594 86.3702 293.493 85.9557C294.033 85.7064 294.101 84.8115 293.655 84.4504Z" fill="#1586BA"/>
<path d="M277.16 82.854C277.785 85.1663 279.788 88.1455 282.01 89.1729C283.223 89.7337 284.815 88.3923 283.941 87.135C283.233 86.1158 282.215 85.4237 281.327 84.5684C280.418 83.6923 279.556 82.7773 278.557 82.0018C277.917 81.5056 276.926 81.9905 277.16 82.854Z" fill="#1586BA"/>
<path d="M292.648 88.7546C290.307 88.1216 287.89 88.1178 285.513 87.7071C283.104 87.2914 282.831 91.1021 285.182 90.9652C287.61 90.8233 290.03 91.0877 292.448 90.7234C293.52 90.5614 293.815 89.0699 292.648 88.7546Z" fill="#1586BA"/>
<path d="M272.496 86.4292C273.279 87.9728 274.781 89.1365 276.036 90.2977C277.341 91.5053 278.587 92.8053 280.042 93.8277C281.705 94.9958 283.103 92.4455 281.98 91.1355C280.858 89.8254 279.407 88.7409 278.119 87.5916C276.926 86.5272 275.689 85.2398 274.184 84.6482C273.018 84.1891 271.9 85.2511 272.496 86.4292Z" fill="#1586BA"/>
<path d="M291.755 92.8368C290.301 92.5083 288.783 92.4468 287.31 92.1962C285.904 91.9569 284.297 91.2743 282.906 91.675C281.432 92.0989 281.515 93.8717 282.6 94.6329C283.755 95.443 285.849 95.2301 287.226 95.2602C288.751 95.2941 290.314 95.3368 291.814 95.031C292.959 94.7986 292.81 93.0748 291.755 92.8368Z" fill="#1586BA"/>
<path d="M268.573 90.6958C269.347 92.3726 271.015 93.6738 272.412 94.8306C273.885 96.0514 275.407 97.4946 277.108 98.3756C278.957 99.3321 280.476 96.9727 279.166 95.517C277.876 94.0826 276.014 92.9328 274.442 91.8149C272.992 90.7844 271.397 89.5767 269.616 89.2602C268.747 89.1057 268.226 89.9466 268.573 90.6958Z" fill="#1586BA"/>
<path d="M290.266 99.2926C288.942 98.5992 287.342 98.4083 285.904 98.0271C284.334 97.6108 282.833 97.0701 281.296 96.5501C278.952 95.7582 278.131 99.4665 280.425 100.279C281.989 100.833 283.7 101.168 285.346 101.362C286.867 101.541 288.603 101.752 290.067 101.215C290.892 100.912 291.113 99.7365 290.266 99.2926Z" fill="#1586BA"/>
<path d="M263.805 97.0721C264.69 98.9994 266.873 100.363 268.554 101.561C270.433 102.901 272.447 104.508 274.586 105.385C276.552 106.191 278.707 103.784 276.909 102.158C275.204 100.615 273.05 99.4993 271.121 98.254C269.357 97.1148 267.259 95.4782 265.122 95.2597C264.038 95.1492 263.345 96.0723 263.805 97.0721Z" fill="#1586BA"/>
<path d="M289.559 106.675C287.735 105.556 285.496 104.974 283.469 104.32C281.416 103.657 279.183 102.516 277.029 102.452C274.809 102.387 274.634 105.22 276.135 106.25C277.917 107.474 280.814 107.796 282.916 108.2C285.018 108.603 287.23 108.954 289.358 108.619C290.349 108.463 290.253 107.101 289.559 106.675Z" fill="#1586BA"/>
<path d="M259.85 102.024C261.445 103.9 263.483 105.262 265.477 106.679C267.519 108.13 269.523 109.734 271.7 110.978C273.709 112.126 276.011 109.099 274.129 107.603C272.113 105.999 269.85 104.686 267.688 103.289C265.561 101.916 263.49 100.557 261.077 99.7448C259.677 99.2725 259.092 101.132 259.85 102.024Z" fill="#1586BA"/>
<path d="M287.682 112.493C285.891 111.272 283.311 110.79 281.257 110.137C278.97 109.409 276.699 108.61 274.403 107.914C271.743 107.109 270.838 111.229 273.428 112.09C275.796 112.878 278.275 113.448 280.722 113.936C282.838 114.357 285.329 114.949 287.47 114.542C288.533 114.34 288.39 112.975 287.682 112.493Z" fill="#1586BA"/>
<path d="M256.27 108.528C257.597 110.823 260.323 112.368 262.515 113.738C264.743 115.13 267.585 117.056 270.203 117.478C272.053 117.776 273.873 115.322 272.113 113.932C270.024 112.282 267.202 111.363 264.847 110.101C262.587 108.89 260.236 107.088 257.698 106.563C256.584 106.331 255.696 107.536 256.27 108.528Z" fill="#1586BA"/>
<path d="M286.528 117.807C284.624 116.624 281.959 116.362 279.799 115.837C277.376 115.249 274.957 114.683 272.547 114.039C269.967 113.35 269.079 117.298 271.608 118.058C274.06 118.796 276.61 119.39 279.155 119.686C281.39 119.945 284.217 120.383 286.348 119.539C287.123 119.233 287.255 118.258 286.528 117.807Z" fill="#1586BA"/>
<path d="M254.445 115.03C255.232 117.489 257.92 119.389 260.007 120.724C262.025 122.015 265.425 124.295 267.896 123.95C269.567 123.717 270.224 122.009 269.13 120.726C268.242 119.684 266.921 119.375 265.71 118.801C264.569 118.259 263.465 117.65 262.366 117.026C260.352 115.882 258.043 114.042 255.738 113.664C254.964 113.537 254.182 114.206 254.445 115.03Z" fill="#1586BA"/>
<path d="M283.765 123.233C281.622 122.375 279.342 121.985 277.09 121.516C274.92 121.065 272.266 120.167 270.06 120.483C268.23 120.746 267.039 123.444 269.14 124.389C271.189 125.312 273.734 125.254 275.964 125.426C278.347 125.609 280.8 125.938 283.185 125.693C284.342 125.574 285.091 123.764 283.765 123.233Z" fill="#1586BA"/>
<path d="M252.106 122.671C253.329 124.815 255.381 126.056 257.483 127.229C259.739 128.487 262.017 129.793 264.353 130.893C267.123 132.197 269.257 128.242 266.596 126.683C262.634 124.362 258.425 122.578 254.558 120.084C252.949 119.048 251.261 121.189 252.106 122.671Z" fill="#1586BA"/>
<path d="M283.245 129.553C281.574 128.042 277.718 128.511 275.607 128.407C274.134 128.333 272.66 128.259 271.19 128.142C269.655 128.02 267.975 127.586 266.455 127.81C264.684 128.072 263.314 130.907 265.525 131.759C268.328 132.839 272.066 132.593 275.037 132.45C277.225 132.344 281.793 132.435 283.271 130.508C283.489 130.224 283.54 129.818 283.245 129.553Z" fill="#1586BA"/>
<path d="M247.316 128.692C248.743 131.09 251.579 132.679 253.907 134.082C256.511 135.652 259.253 137.04 262.101 138.116C264.646 139.078 266.769 135.529 264.16 134.25C261.53 132.961 258.887 131.712 256.285 130.363C253.893 129.124 251.362 127.284 248.67 126.829C247.63 126.654 246.743 127.73 247.316 128.692Z" fill="#1586BA"/>
<path d="M283.628 139.624C282.182 137.511 278.487 136.793 276.152 136.108C273.066 135.202 269.957 134.342 266.846 133.525C263.963 132.769 262.903 137.284 265.792 138.036C268.903 138.845 272.032 139.616 275.165 140.334C277.518 140.874 281.033 142.008 283.317 140.884C283.745 140.673 283.891 140.007 283.628 139.624Z" fill="#1586BA"/>
<path d="M245.2 134.258C246.354 136.142 248.112 137.735 249.856 139.064C252.876 141.365 255.981 143.563 259.135 145.675C260.182 146.376 261.712 145.737 262.268 144.72C262.935 143.502 262.322 142.314 261.313 141.587C258.4 139.485 255.443 137.447 252.456 135.452C250.748 134.312 249.134 132.985 247.321 132.02C245.934 131.282 244.374 132.908 245.2 134.258Z" fill="#1586BA"/>
<path d="M282.774 146.63C280.284 144.927 277.013 144.361 274.141 143.578C272.601 143.157 271.07 142.705 269.553 142.207C268.07 141.72 266.551 140.897 265.005 140.732C262.425 140.455 261.12 143.519 263.397 145.01C264.853 145.964 266.821 146.294 268.491 146.752C270.027 147.175 271.575 147.562 273.132 147.897C276.142 148.545 279.609 149.237 282.606 148.258C283.392 148 283.397 147.056 282.774 146.63Z" fill="#1586BA"/>
<path d="M243.202 138.347C243.887 141.138 246.618 143.624 248.566 145.603C250.817 147.891 253.236 150.134 255.894 151.94C258.167 153.485 260.48 149.94 258.642 148.123C256.423 145.928 253.915 143.962 251.533 141.946C249.458 140.189 247.181 137.741 244.51 136.968C243.678 136.726 243.016 137.587 243.202 138.347Z" fill="#1586BA"/>
<path d="M278.032 152.203C276.265 150.372 272.911 149.872 270.538 149.304C267.628 148.607 264.652 147.946 261.698 147.473C258.73 146.998 257.626 151.366 260.623 152.073C263.646 152.786 266.806 153.301 269.892 153.656C272.376 153.942 275.582 154.583 277.903 153.401C278.362 153.167 278.35 152.533 278.032 152.203Z" fill="#1586BA"/>
<path d="M241.213 145.78C242.584 148.51 245.233 150.811 247.533 152.77C249.661 154.583 251.983 156.625 254.619 157.608C256.893 158.456 258.314 155.112 256.759 153.633C254.888 151.851 252.32 150.706 250.24 149.156C247.9 147.413 245.602 145.146 242.916 143.982C241.732 143.47 240.631 144.622 241.213 145.78Z" fill="#1586BA"/>
<path d="M274.112 158.429C272.447 156.458 268.516 156.179 266.15 155.532C264.646 155.121 263.149 154.673 261.655 154.226C260.202 153.792 258.727 153.016 257.196 153.212C255.297 153.456 254.201 155.661 255.696 157.129C256.969 158.38 258.831 158.668 260.514 159.11C262.027 159.507 263.55 159.804 265.096 160.045C267.62 160.438 271.78 161.438 273.969 159.753C274.434 159.395 274.49 158.877 274.112 158.429Z" fill="#1586BA"/>
<path d="M239.517 152.177C240.735 154.673 242.917 156.476 244.929 158.333C246.949 160.199 249.054 162.424 251.422 163.819C254.004 165.341 255.977 161.825 254.289 159.836C252.517 157.746 249.836 156.041 247.66 154.368C245.54 152.737 243.485 151.052 240.884 150.297C239.752 149.968 239.077 151.275 239.517 152.177Z" fill="#1586BA"/>
<path d="M269.791 165.78C268.11 164.02 264.535 163.706 262.284 163.082C260.936 162.708 259.59 162.302 258.268 161.843C256.829 161.344 255.544 160.673 254.004 160.592C251.98 160.486 250.99 163.343 252.459 164.628C254.608 166.507 258.459 167.177 261.204 167.701C263.572 168.153 267.496 168.983 269.612 167.431C270.175 167.019 270.29 166.302 269.791 165.78Z" fill="#1586BA"/>
<path d="M234.775 157.587C233.946 159.987 236.852 162.478 238.509 163.749C240.988 165.649 243.707 167.546 246.473 168.998C248.893 170.268 251.733 166.709 249.394 164.941C247.118 163.221 244.6 161.769 242.13 160.347C241.029 159.713 239.886 159.14 238.837 158.419C237.933 157.799 237.243 156.964 236.139 156.74C235.492 156.609 234.981 156.991 234.775 157.587Z" fill="#1586BA"/>
<path d="M265.713 171.334C263.634 169.691 260.407 169.425 257.93 168.592C255.258 167.694 252.504 165.792 249.706 165.575C247.613 165.413 247.153 168.088 248.259 169.353C250.123 171.484 254.234 172.328 256.908 172.966C259.526 173.591 262.973 174.486 265.506 173.257C266.18 172.929 266.301 171.797 265.713 171.334Z" fill="#1586BA"/>
<path d="M230.522 163.634C230.936 166.305 233.22 168.823 235.064 170.712C237.069 172.768 239.799 175.21 242.546 176.113C245.051 176.937 246.135 173.629 244.749 172.021C243.813 170.935 242.485 170.218 241.354 169.336C240.304 168.517 239.304 167.638 238.268 166.804C236.378 165.282 234.439 163.137 232.141 162.314C231.399 162.049 230.4 162.846 230.522 163.634Z" fill="#1586BA"/>
<path d="M259.432 178.767C257.396 177.212 254.933 176.245 252.578 175.27C250.28 174.319 247.637 172.441 245.128 172.505C242.837 172.563 242.29 175.13 243.538 176.659C245.045 178.505 248.594 179.238 250.807 179.983C253.211 180.793 255.927 181.515 258.477 181.26C259.582 181.149 260.514 179.594 259.432 178.767Z" fill="#1586BA"/>
<path d="M225.334 168.616C225.492 171.271 227.37 173.685 229.033 175.641C230.86 177.791 233 179.772 235.414 181.248C238.156 182.923 241.132 178.777 238.72 176.656C236.856 175.017 234.797 173.619 232.981 171.914C231.307 170.343 229.651 168.161 227.491 167.282C226.526 166.889 225.263 167.419 225.334 168.616Z" fill="#1586BA"/>
<path d="M251.866 188.661C250.878 186.323 249.081 184.581 247.273 182.847C245.512 181.157 243.281 178.667 240.832 178.176C238.648 177.738 236.945 180.061 238.049 182.005C239.227 184.08 242.065 185.431 244.004 186.765C245.995 188.136 247.863 189.675 250.191 190.429C251.139 190.736 252.267 189.612 251.866 188.661Z" fill="#1586BA"/>
<path d="M219.398 174.351C221.202 179.255 225.553 183.112 229.649 186.148C230.917 187.088 232.601 187.282 233.781 186.037C234.756 185.007 234.957 182.837 233.669 181.905C229.711 179.038 226.644 175.225 222.793 172.28C221.335 171.165 218.62 172.234 219.398 174.351Z" fill="#1586BA"/>
<path d="M216.653 177.435C215.454 179.592 217.281 183.127 218.203 185.114C219.177 187.213 220.963 191.381 223.588 191.677C225.172 191.856 226.966 190.899 226.823 189.038C226.707 187.518 225.787 186.691 224.981 185.506C224.26 184.446 223.585 183.36 222.898 182.278C221.787 180.53 220.249 177.234 218.027 176.812C217.478 176.707 216.928 176.94 216.653 177.435Z" fill="#1586BA"/>
<path d="M291.232 72.578C289.025 77.2591 286.93 81.9792 284.564 86.5855C282.294 91.006 279.869 95.3436 277.529 99.7271C275.142 104.2 272.846 108.724 270.915 113.416C269.007 118.053 267.567 122.835 266.208 127.657C263.451 137.447 260.336 146.902 255.386 155.836C250.721 164.254 244.939 172.008 238.186 178.867C230.376 186.801 221.343 193.433 211.465 198.562C210.462 199.083 211.374 200.576 212.371 200.062C229.735 191.098 244.388 177.175 254.549 160.505C259.719 152.024 263.488 142.893 266.218 133.36C267.619 128.464 268.878 123.526 270.563 118.716C272.331 113.672 274.598 108.816 277.009 104.051C279.659 98.8121 282.519 93.6819 285.23 88.4733C287.839 83.46 290.441 78.3148 291.939 72.843C292.052 72.4323 291.418 72.1849 291.232 72.578Z" fill="#0678AC"/>
<path d="M291.631 70.9258C292.473 71.7234 293.714 70.4165 292.871 69.617C292.029 68.8195 290.788 70.127 291.631 70.9258Z" fill="#40B3E6"/>
<path d="M283.592 76.8693C284.377 77.6128 285.533 76.3945 284.748 75.6497C283.963 74.9068 282.807 76.1251 283.592 76.8693Z" fill="#40B3E6"/>
<path d="M290.227 85.5991C290.857 85.692 291.453 85.8974 292.066 86.0625C292.863 86.2773 293.342 85.0546 292.58 84.6935C291.875 84.3594 291.137 84.269 290.363 84.2652C289.61 84.2608 289.457 85.4854 290.227 85.5991Z" fill="#40B3E6"/>
<path d="M278.13 84.0228C278.246 84.3029 278.363 84.583 278.48 84.8631C278.915 85.9074 280.448 85.184 279.875 84.2508C279.715 83.9895 279.555 83.7289 279.395 83.4677C278.997 82.8196 277.817 83.2736 278.13 84.0228Z" fill="#40B3E6"/>
<path d="M288.064 94.7828C288.43 94.8789 288.749 94.9241 289.117 94.8042C289.961 94.5291 289.93 93.3297 289.072 93.1004C288.701 93.0012 288.38 93.0634 288.022 93.1783C287.226 93.4339 287.255 94.57 288.064 94.7828Z" fill="#40B3E6"/>
<path d="M270.249 91.0583C270.32 91.8728 270.602 92.4832 271.308 92.9247C272.178 93.4692 272.957 92.2081 272.315 91.5242C272.057 91.2492 271.777 90.998 271.598 90.6626C271.26 90.0309 270.186 90.3398 270.249 91.0583Z" fill="#40B3E6"/>
<path d="M286.373 108.312C286.773 108.325 287.015 108.18 287.302 107.923C287.92 107.37 287.337 106.442 286.631 106.419C286.231 106.406 285.989 106.552 285.702 106.809C285.084 107.361 285.666 108.288 286.373 108.312Z" fill="#40B3E6"/>
<path d="M261.849 102.865C262.145 103.044 262.412 103.174 262.746 103.272C263.603 103.523 264.136 102.159 263.303 101.788C262.985 101.647 262.698 101.57 262.356 101.515C261.545 101.386 261.128 102.428 261.849 102.865Z" fill="#40B3E6"/>
<path d="M281.697 118.815C282.139 118.994 282.506 119.009 282.966 118.881C283.807 118.647 283.784 117.359 282.92 117.177C282.455 117.079 282.087 117.111 281.657 117.318C281.093 117.589 281.111 118.577 281.697 118.815Z" fill="#40B3E6"/>
<path d="M277.283 130.757C277.68 131.052 278.118 131.203 278.614 131.249C279.155 131.299 279.753 131.415 280.215 131.059C280.755 130.642 280.801 129.882 280.173 129.509C279.647 129.196 279.061 129.354 278.503 129.489C278.043 129.599 277.606 129.791 277.265 130.12C277.105 130.275 277.092 130.615 277.283 130.757Z" fill="#40B3E6"/>
<path d="M257.3 117.113C258.179 117.947 259.478 116.581 258.596 115.745C257.715 114.911 256.418 116.278 257.3 117.113Z" fill="#40B3E6"/>
<path d="M251.457 130.705C252.671 131.616 254.038 132.776 255.497 133.236C256.334 133.501 257.08 132.211 256.341 131.67C255.147 130.795 253.555 130.288 252.216 129.651C251.587 129.352 250.835 130.239 251.457 130.705Z" fill="#40B3E6"/>
<path d="M276.965 145.79C276.206 145.699 275.476 145.501 274.709 145.476C274.285 145.463 273.918 145.848 273.883 146.25C273.844 146.709 274.121 147.025 274.536 147.174C275.27 147.438 276.045 147.388 276.81 147.306C277.19 147.265 277.513 147.015 277.548 146.615C277.578 146.268 277.35 145.836 276.965 145.79Z" fill="#40B3E6"/>
<path d="M245.053 140.052C245.233 140.819 245.988 141.332 246.762 141.32C247.459 141.309 247.711 140.464 247.269 139.994C246.957 139.662 246.581 139.351 246.181 139.135C245.559 138.801 244.9 139.407 245.053 140.052Z" fill="#40B3E6"/>
<path d="M270.072 157.169C269.469 157.195 268.774 157.4 268.246 157.693C267.863 157.904 267.686 158.411 267.805 158.821C267.937 159.275 268.341 159.501 268.786 159.537C269.276 159.576 269.945 159.481 270.405 159.297C270.907 159.096 271.263 158.654 271.166 158.088C271.076 157.567 270.623 157.146 270.072 157.169Z" fill="#40B3E6"/>
<path d="M241.727 152.984C241.108 154.157 243.095 155.207 243.994 155.327C244.526 155.398 245.031 154.733 244.538 154.317C244.062 153.916 243.589 153.488 243.094 153.115C242.752 152.857 242.035 152.4 241.727 152.984Z" fill="#40B3E6"/>
<path d="M261.272 171.217C260.958 171.104 260.69 170.995 260.349 170.998C259.323 171.006 259.228 172.47 260.173 172.736C260.487 172.824 260.795 172.779 261.116 172.753C262.038 172.68 262.088 171.509 261.272 171.217Z" fill="#40B3E6"/>
<path d="M232.624 165.307C232.619 165.352 232.614 165.398 232.609 165.444C232.561 165.906 232.692 166.288 233.105 166.536C233.139 166.557 233.174 166.578 233.208 166.599C233.737 166.917 234.308 166.527 234.48 166.022C234.494 165.979 234.509 165.935 234.524 165.892C234.633 165.572 234.474 165.176 234.243 164.954C234.207 164.92 234.172 164.887 234.138 164.853C233.686 164.419 232.698 164.597 232.624 165.307Z" fill="#40B3E6"/>
<path d="M256.071 178.387C255.587 178.009 254.972 177.87 254.379 177.739C253.78 177.606 253.203 177.473 252.587 177.462C251.695 177.447 251.301 178.86 252.174 179.217C252.75 179.453 253.316 179.568 253.925 179.683C254.506 179.794 255.154 179.939 255.732 179.785C256.301 179.634 256.572 178.779 256.071 178.387Z" fill="#40B3E6"/>
<path d="M220.961 175.247C221.581 176.628 223.216 177.631 224.544 178.218C225.272 178.541 225.959 177.661 225.374 177.065C224.377 176.049 223.359 174.742 222.116 174.028C221.297 173.557 220.639 174.529 220.961 175.247Z" fill="#40B3E6"/>
<path d="M22.5184 69.2509C23.1539 69.7828 23.4911 70.6444 23.9163 71.3415C24.4275 72.1799 25.0511 72.8311 24.7553 73.8824C24.5387 74.6523 23.7568 74.9864 23.0214 74.8344C21.9356 74.6102 21.5977 73.5307 21.2285 72.617C20.9 71.805 20.4654 70.8818 20.6005 69.9857C20.7493 68.989 21.7459 68.6034 22.5184 69.2509Z" fill="#1586BA"/>
<path d="M28.2229 73.618C27.3035 74.8357 26.1938 76.1979 24.5805 76.321C23.6875 76.3888 22.9703 75.1278 23.5349 74.4081C24.3959 73.3103 25.7568 72.9511 26.9154 72.2377C27.7149 71.7454 28.8101 72.84 28.2229 73.618Z" fill="#1586BA"/>
<path d="M19.3152 74.8949C19.773 74.79 20.229 74.6782 20.6861 74.5709C20.8865 74.5238 21.0849 74.4704 21.2821 74.4101C21.3166 74.3994 21.6928 74.2788 21.5126 74.3391C21.3939 74.3856 21.4391 74.3686 21.6501 74.2883C21.755 74.2317 21.8661 74.2022 21.9836 74.1984C22.7981 74.0961 23.7068 74.4779 23.8751 75.3734C24.039 76.2464 23.5479 77.0213 22.7001 77.265C22.1531 77.422 21.5182 77.3372 20.9606 77.2625C20.3552 77.1814 19.8264 77.0565 19.2637 76.8235C18.8474 76.6508 18.5327 76.3154 18.5453 75.8388C18.5566 75.3986 18.8838 74.9941 19.3152 74.8949Z" fill="#1586BA"/>
<path d="M31.0538 76.2996C30.7115 76.9785 30.1519 77.5794 29.6539 78.1528C29.1371 78.7475 28.6397 79.3849 28.0569 79.9137C26.6263 81.2124 24.6149 79.0948 25.9914 77.7333C26.5497 77.1807 27.2154 76.7159 27.8359 76.2336C28.4381 75.7652 29.0617 75.242 29.7613 74.9356C30.6594 74.5418 31.4959 75.4229 31.0538 76.2996Z" fill="#1586BA"/>
<path d="M20.421 78.875C21.2387 78.7312 22.0564 78.5843 22.8753 78.4436C23.8317 78.2791 24.8095 77.945 25.6931 78.4876C26.6803 79.0942 26.5108 80.3772 25.6265 80.9594C24.8604 81.4643 23.8681 81.161 23.0141 81.0429C22.2115 80.9324 21.4095 80.8187 20.6069 80.7063C20.1435 80.6416 19.766 80.3659 19.7158 79.8711C19.6718 79.4358 19.9626 78.9554 20.421 78.875Z" fill="#1586BA"/>
<path d="M33.8625 79.1087C33.5076 80.3145 32.7986 81.2414 32.0105 82.201C31.2022 83.1838 30.3984 84.1522 29.1813 84.5993C27.8958 85.0716 27.0367 83.3973 27.5787 82.3944C28.0685 81.4876 29.0444 80.8257 29.7855 80.1254C30.546 79.4064 31.2556 78.6653 32.0871 78.0254C32.8872 77.4087 34.1871 78.0047 33.8625 79.1087Z" fill="#1586BA"/>
<path d="M20.3453 84.4504C21.1171 83.8262 22.0855 83.6779 23.0375 83.4801C24.0279 83.2741 25.0226 83.0619 26.0205 82.8999C28.3014 82.5293 28.6983 85.8879 26.3446 86.0901C25.3404 86.1761 24.3262 86.2132 23.3188 86.2546C22.3473 86.2948 21.4066 86.3702 20.5073 85.9557C19.9672 85.7064 19.8988 84.8115 20.3453 84.4504Z" fill="#1586BA"/>
<path d="M36.8398 82.854C36.2143 85.1663 34.2116 88.1455 31.9897 89.1729C30.7771 89.7337 29.1851 88.3923 30.0586 87.135C30.7664 86.1158 31.7844 85.4237 32.6724 84.5684C33.5817 83.6923 34.4433 82.7773 35.4431 82.0018C36.083 81.5056 37.0734 81.9905 36.8398 82.854Z" fill="#1586BA"/>
<path d="M21.3514 88.7546C23.6926 88.1216 26.1092 88.1178 28.4861 87.7071C30.8952 87.2914 31.1677 91.1021 28.8171 90.9652C26.3886 90.8233 23.9689 91.0877 21.5511 90.7234C20.4798 90.5614 20.184 89.0699 21.3514 88.7546Z" fill="#1586BA"/>
<path d="M41.5032 86.4292C40.7207 87.9728 39.2185 89.1365 37.9638 90.2977C36.6582 91.5053 35.4129 92.8053 33.9571 93.8277C32.2948 94.9958 30.8969 92.4455 32.0191 91.1355C33.1414 89.8254 34.5927 88.7409 35.8807 87.5916C37.0739 86.5272 38.3111 85.2398 39.8151 84.6482C40.982 84.1891 42.0998 85.2511 41.5032 86.4292Z" fill="#1586BA"/>
<path d="M22.2445 92.8368C23.699 92.5083 25.2168 92.4468 26.6895 92.1962C28.0956 91.9569 29.7033 91.2743 31.0943 91.675C32.5682 92.0989 32.4847 93.8717 31.4001 94.6329C30.2452 95.443 28.1508 95.2301 26.7743 95.2602C25.2482 95.2941 23.6864 95.3368 22.1855 95.031C21.0413 94.7986 21.1901 93.0748 22.2445 92.8368Z" fill="#1586BA"/>
<path d="M45.4267 90.6958C44.6517 92.3726 42.9838 93.6738 41.5871 94.8306C40.1138 96.0514 38.5922 97.4946 36.8909 98.3756C35.0427 99.3321 33.5236 96.9727 34.833 95.517C36.1235 94.0826 37.9855 92.9328 39.5574 91.8149C41.0068 90.7844 42.6026 89.5767 44.383 89.2602C45.2527 89.1057 45.7733 89.9466 45.4267 90.6958Z" fill="#1586BA"/>
<path d="M23.734 99.2926C25.0578 98.5992 26.6573 98.4083 28.0954 98.0271C29.6654 97.6108 31.167 97.0701 32.7037 96.5501C35.0468 95.7582 35.8688 99.4665 33.5747 100.279C32.0104 100.833 30.2997 101.168 28.6531 101.362C27.1321 101.541 25.3963 101.752 23.9324 101.215C23.1079 100.912 22.8862 99.7365 23.734 99.2926Z" fill="#1586BA"/>
<path d="M50.195 97.0721C49.3095 98.9994 47.1272 100.363 45.446 101.561C43.5671 102.901 41.5531 104.508 39.4141 105.385C37.4484 106.191 35.2932 103.784 37.0911 102.158C38.7961 100.615 40.9508 99.4993 42.8794 98.254C44.6434 97.1148 46.7416 95.4782 48.8787 95.2597C49.9613 95.1492 50.6547 96.0723 50.195 97.0721Z" fill="#1586BA"/>
<path d="M24.4402 106.675C26.2645 105.556 28.504 104.974 30.5305 104.32C32.5835 103.657 34.8166 102.516 36.9707 102.452C39.1907 102.387 39.3652 105.22 37.865 106.25C36.0821 107.474 33.1864 107.796 31.0832 108.2C28.9819 108.603 26.7695 108.954 24.6412 108.619C23.6508 108.463 23.7469 107.101 24.4402 106.675Z" fill="#1586BA"/>
<path d="M54.1486 102.024C52.5541 103.9 50.5163 105.262 48.5217 106.679C46.4795 108.13 44.4755 109.734 42.2989 110.978C40.2899 112.126 37.9883 109.099 39.8698 107.603C41.8863 105.999 44.149 104.686 46.3112 103.289C48.4382 101.916 50.5087 100.557 52.9215 99.7448C54.3226 99.2725 54.9079 101.132 54.1486 102.024Z" fill="#1586BA"/>
<path d="M26.3177 112.493C28.1082 111.272 30.6886 110.79 32.7422 110.137C35.0293 109.409 37.3008 108.61 39.5968 107.914C42.257 107.109 43.1613 111.229 40.5721 112.09C38.2033 112.878 35.7245 113.448 33.2779 113.936C31.1621 114.357 28.6708 114.949 26.53 114.542C25.4662 114.34 25.6087 112.975 26.3177 112.493Z" fill="#1586BA"/>
<path d="M57.7299 108.528C56.4029 110.823 53.6768 112.368 51.4851 113.738C49.2569 115.13 46.4152 117.056 43.7965 117.478C41.9464 117.776 40.1264 115.322 41.8867 113.932C43.9754 112.282 46.797 111.363 49.1527 110.101C51.4128 108.89 53.7634 107.088 56.3012 106.563C57.4165 106.331 58.3039 107.536 57.7299 108.528Z" fill="#1586BA"/>
<path d="M27.4715 117.807C29.375 116.624 32.0409 116.362 34.2006 115.837C36.6234 115.249 39.0424 114.683 41.4521 114.039C44.0325 113.35 44.9205 117.298 42.3909 118.058C39.9392 118.796 37.3895 119.39 34.8443 119.686C32.6092 119.945 29.7826 120.383 27.6511 119.539C26.8775 119.233 26.7449 118.258 27.4715 117.807Z" fill="#1586BA"/>
<path d="M59.5547 115.03C58.7678 117.489 56.08 119.389 53.9925 120.724C51.9747 122.015 48.5754 124.295 46.1042 123.95C44.4331 123.717 43.7756 122.009 44.8695 120.726C45.7582 119.684 47.0788 119.375 48.2896 118.801C49.4313 118.259 50.5354 117.65 51.6331 117.026C53.6477 115.882 55.9563 114.042 58.261 113.664C59.036 113.537 59.8185 114.206 59.5547 115.03Z" fill="#1586BA"/>
<path d="M30.2346 123.233C32.3779 122.375 34.6576 121.985 36.9096 121.516C39.0793 121.065 41.7339 120.167 43.9401 120.483C45.7694 120.746 46.9601 123.444 44.8601 124.389C42.8103 125.312 40.2656 125.254 38.0356 125.426C35.653 125.609 33.1994 125.938 30.8142 125.693C29.6581 125.574 28.9082 123.764 30.2346 123.233Z" fill="#1586BA"/>
<path d="M61.8928 122.671C60.6701 124.815 58.6185 126.056 56.5165 127.229C54.2608 128.487 51.9824 129.793 49.6462 130.893C46.8767 132.197 44.7422 128.242 47.4036 126.683C51.3651 124.362 55.5739 122.578 59.4418 120.084C61.0501 119.048 62.7375 121.189 61.8928 122.671Z" fill="#1586BA"/>
<path d="M30.7542 129.553C32.426 128.042 36.2819 128.511 38.3926 128.407C39.8652 128.333 41.3398 128.259 42.8093 128.142C44.3441 128.02 46.024 127.586 47.5444 127.81C49.3154 128.072 50.6857 130.907 48.4745 131.759C45.6711 132.839 41.9339 132.593 38.9628 132.45C36.7749 132.344 32.2068 132.435 30.7285 130.508C30.5099 130.224 30.4597 129.818 30.7542 129.553Z" fill="#1586BA"/>
<path d="M66.6844 128.692C65.2575 131.09 62.4209 132.679 60.0935 134.082C57.4886 135.652 54.7473 137.04 51.8993 138.116C49.3541 139.078 47.2314 135.529 49.8401 134.25C52.4702 132.961 55.1135 131.712 57.7146 130.363C60.1067 129.124 62.6382 127.284 65.3304 126.829C66.3697 126.654 67.2571 127.73 66.6844 128.692Z" fill="#1586BA"/>
<path d="M30.3714 139.624C31.8176 137.511 35.5122 136.793 37.8471 136.108C40.9337 135.202 44.0423 134.342 47.1534 133.525C50.0366 132.769 51.0966 137.284 48.2072 138.036C45.0967 138.845 41.968 139.616 38.8349 140.334C36.4818 140.874 32.9663 142.008 30.6829 140.884C30.2546 140.673 30.1089 140.007 30.3714 139.624Z" fill="#1586BA"/>
<path d="M68.799 134.258C67.6454 136.142 65.8876 137.735 64.1437 139.064C61.123 141.365 58.0188 143.563 54.8643 145.675C53.8175 146.376 52.2876 145.737 51.7312 144.72C51.0649 143.502 51.6772 142.314 52.6864 141.587C55.5997 139.485 58.5563 137.447 61.5437 135.452C63.2513 134.312 64.8652 132.985 66.6789 132.02C68.0655 131.282 69.6255 132.908 68.799 134.258Z" fill="#1586BA"/>
<path d="M31.2256 146.63C33.715 144.927 36.9875 144.361 39.8587 143.578C41.3992 143.157 42.9302 142.705 44.4475 142.207C45.9302 141.72 47.4493 140.897 48.9955 140.732C51.5753 140.455 52.8803 143.519 50.6031 145.01C49.1468 145.964 47.1786 146.294 45.5094 146.752C43.9727 147.175 42.4253 147.562 40.8679 147.897C37.8585 148.545 34.3907 149.237 31.3945 148.258C30.6082 148 30.6032 147.056 31.2256 146.63Z" fill="#1586BA"/>
<path d="M70.7976 138.347C70.1124 141.138 67.3812 143.624 65.4338 145.603C63.1824 147.891 60.764 150.134 58.1057 151.94C55.8323 153.485 53.52 149.94 55.3575 148.123C57.5769 145.928 60.0851 143.962 62.4671 141.946C64.542 140.189 66.8185 137.741 69.4901 136.968C70.3215 136.726 70.9841 137.587 70.7976 138.347Z" fill="#1586BA"/>
<path d="M35.968 152.203C37.7352 150.372 41.0894 149.872 43.462 149.304C46.3721 148.607 49.3482 147.946 52.3023 147.473C55.2696 146.998 56.3743 151.366 53.3768 152.073C50.3536 152.786 47.1935 153.301 44.1082 153.656C41.6238 153.942 38.4179 154.583 36.0974 153.401C35.6377 153.167 35.6496 152.533 35.968 152.203Z" fill="#1586BA"/>
<path d="M72.7875 145.78C71.4159 148.51 68.767 150.811 66.4673 152.77C64.3396 154.583 62.0173 156.625 59.381 157.608C57.1076 158.456 55.6864 155.112 57.2407 153.633C59.1122 151.851 61.6807 150.706 63.7606 149.156C66.0999 147.413 68.3984 145.146 71.0844 143.982C72.2681 143.47 73.3697 144.622 72.7875 145.78Z" fill="#1586BA"/>
<path d="M39.8876 158.429C41.5524 156.458 45.4831 156.179 47.8494 155.532C49.3534 155.121 50.8506 154.673 52.3446 154.226C53.7972 153.792 55.2723 153.016 56.8034 153.212C58.7025 153.456 59.7983 155.661 58.3031 157.129C57.0295 158.38 55.1681 158.668 53.485 159.11C51.9722 159.507 50.4487 159.804 48.9032 160.045C46.3792 160.438 42.2193 161.438 40.0301 159.753C39.5654 159.395 39.5089 158.877 39.8876 158.429Z" fill="#1586BA"/>
<path d="M74.4825 152.177C73.2648 154.673 71.0825 156.476 69.0704 158.333C67.0501 160.199 64.9444 162.424 62.5775 163.819C59.9958 165.341 58.0226 161.825 59.71 159.836C61.4829 157.746 64.1638 156.041 66.3392 154.368C68.4593 152.737 70.5141 151.052 73.1153 150.297C74.247 149.968 74.9221 151.275 74.4825 152.177Z" fill="#1586BA"/>
<path d="M44.2089 165.78C45.8894 164.02 49.4646 163.706 51.716 163.082C53.0637 162.708 54.4095 162.302 55.7314 161.843C57.1708 161.344 58.4557 160.673 59.9955 160.592C62.0196 160.486 63.0099 163.343 61.541 164.628C59.3914 166.507 55.5405 167.177 52.7955 167.701C50.4279 168.153 46.5042 168.983 44.3878 167.431C43.8245 167.019 43.7102 166.302 44.2089 165.78Z" fill="#1586BA"/>
<path d="M79.2247 157.587C80.0537 159.987 77.1473 162.478 75.49 163.749C73.0113 165.649 70.2927 167.546 67.5263 168.998C65.106 170.268 62.2662 166.709 64.6061 164.941C66.882 163.221 69.3997 161.769 71.8702 160.347C72.9711 159.713 74.1141 159.14 75.1628 158.419C76.0665 157.799 76.7573 156.964 77.8613 156.74C78.5082 156.609 79.0194 156.991 79.2247 157.587Z" fill="#1586BA"/>
<path d="M48.2854 171.334C50.3647 169.691 53.5914 169.425 56.0689 168.592C58.7404 167.694 61.4948 165.792 64.2932 165.575C66.3863 165.413 66.846 168.088 65.7401 169.353C63.8762 171.484 59.7646 172.328 57.0906 172.966C54.4725 173.591 51.026 174.486 48.4927 173.257C47.8195 172.929 47.6989 171.797 48.2854 171.334Z" fill="#1586BA"/>
<path d="M83.4775 163.634C83.0636 166.305 80.7796 168.823 78.9364 170.712C76.9306 172.768 74.2007 175.21 71.4544 176.113C68.9493 176.937 67.8648 173.629 69.2508 172.021C70.1865 170.935 71.5154 170.218 72.6458 169.336C73.6958 168.517 74.6955 167.638 75.7324 166.804C77.6227 165.282 79.5619 163.137 81.8598 162.314C82.6008 162.049 83.5993 162.846 83.4775 163.634Z" fill="#1586BA"/>
<path d="M54.5681 178.767C56.6041 177.212 59.0671 176.245 61.4221 175.27C63.7193 174.319 66.3632 172.441 68.8714 172.505C71.163 172.563 71.71 175.13 70.4622 176.659C68.955 178.505 65.4061 179.238 63.1931 179.983C60.7891 180.793 58.073 181.515 55.5227 181.26C54.4174 181.149 53.4861 179.594 54.5681 178.767Z" fill="#1586BA"/>
<path d="M88.6655 168.616C88.5079 171.271 86.6301 173.685 84.9672 175.641C83.1391 177.791 81.0001 179.772 78.5855 181.248C75.8436 182.923 72.8675 178.777 75.2797 176.656C77.1436 175.017 79.2028 173.619 81.019 171.914C82.6926 170.343 84.3486 168.161 86.5089 167.282C87.4735 166.889 88.7364 167.419 88.6655 168.616Z" fill="#1586BA"/>
<path d="M62.1346 188.661C63.1225 186.323 64.9198 184.581 66.7278 182.847C68.4887 181.157 70.7194 178.667 73.1686 178.176C75.3521 177.738 77.0553 180.061 75.9512 182.005C74.7737 184.08 71.9352 185.431 69.9965 186.765C68.0058 188.136 66.1369 189.675 63.8095 190.429C62.8612 190.736 61.7333 189.612 62.1346 188.661Z" fill="#1586BA"/>
<path d="M94.6015 174.351C92.7979 179.255 88.4465 183.112 84.3513 186.148C83.0834 187.088 81.3984 187.282 80.219 186.037C79.2438 185.007 79.0428 182.837 80.3302 181.905C84.2879 179.038 87.355 175.225 91.2065 172.28C92.6647 171.165 95.3802 172.234 94.6015 174.351Z" fill="#1586BA"/>
<path d="M97.3469 177.435C98.5458 179.592 96.7189 183.127 95.797 185.114C94.823 187.213 93.0369 191.381 90.4119 191.677C88.8281 191.856 87.0339 190.899 87.1764 189.038C87.2926 187.518 88.2126 186.691 89.0184 185.506C89.7393 184.446 90.415 183.36 91.1021 182.278C92.213 180.53 93.751 177.234 95.9728 176.812C96.5217 176.707 97.0712 176.94 97.3469 177.435Z" fill="#1586BA"/>
<path d="M22.7678 72.578C24.9752 77.2591 27.0702 81.9792 29.4359 86.5855C31.7061 91.006 34.1314 95.3436 36.4707 99.7271C38.8577 104.2 41.1537 108.724 43.0848 113.416C44.9933 118.053 46.4333 122.835 47.7917 127.657C50.5486 137.447 53.6635 146.902 58.614 155.836C63.2794 164.254 69.0614 172.008 75.8137 178.867C83.6241 186.801 92.6573 193.433 102.535 198.562C103.538 199.083 102.625 200.576 101.629 200.062C84.2653 191.098 69.6128 177.175 59.4511 160.505C54.2821 152.024 50.5122 142.893 47.7829 133.36C46.3812 128.464 45.1227 123.526 43.4371 118.716C41.6699 113.672 39.4022 108.816 36.992 104.051C34.3412 98.8121 31.4813 93.6819 28.7708 88.4733C26.1615 83.46 23.5597 78.3148 22.0613 72.843C21.9482 72.4323 22.5819 72.1849 22.7678 72.578Z" fill="#0678AC"/>
<path d="M22.3683 70.9258C21.5262 71.7234 20.2853 70.4165 21.1287 69.617C21.9702 68.8195 23.2117 70.127 22.3683 70.9258Z" fill="#40B3E6"/>
<path d="M30.4079 76.8693C29.6235 77.6128 28.4667 76.3945 29.2523 75.6497C30.0373 74.9068 31.1935 76.1251 30.4079 76.8693Z" fill="#40B3E6"/>
<path d="M23.7731 85.5991C23.1432 85.692 22.5466 85.8974 21.9343 86.0625C21.1368 86.2773 20.6576 85.0546 21.42 84.6935C22.1246 84.3594 22.8625 84.269 23.6375 84.2652C24.3898 84.2608 24.543 85.4854 23.7731 85.5991Z" fill="#40B3E6"/>
<path d="M35.8697 84.0228C35.7529 84.3029 35.6361 84.583 35.5193 84.8631C35.0841 85.9074 33.5517 85.184 34.1238 84.2508C34.284 83.9895 34.4441 83.7289 34.6043 83.4677C35.0018 82.8196 36.1818 83.2736 35.8697 84.0228Z" fill="#40B3E6"/>
<path d="M25.9351 94.7828C25.5696 94.8789 25.25 94.9241 24.882 94.8042C24.0379 94.5291 24.0693 93.3297 24.9278 93.1004C25.2983 93.0012 25.6199 93.0634 25.9778 93.1783C26.7735 93.4339 26.7434 94.57 25.9351 94.7828Z" fill="#40B3E6"/>
<path d="M43.751 91.0583C43.6801 91.8728 43.3981 92.4832 42.6922 92.9247C41.8218 93.4692 41.0431 92.2081 41.6843 91.5242C41.9418 91.2492 42.2225 90.998 42.4015 90.6626C42.7393 90.0309 43.8138 90.3398 43.751 91.0583Z" fill="#40B3E6"/>
<path d="M27.627 108.312C27.2264 108.325 26.9852 108.18 26.6982 107.923C26.0803 107.37 26.6624 106.442 27.3689 106.419C27.7696 106.406 28.0107 106.552 28.2977 106.809C28.9157 107.361 28.3335 108.288 27.627 108.312Z" fill="#40B3E6"/>
<path d="M52.1507 102.865C51.8555 103.044 51.588 103.174 51.2545 103.272C50.3967 103.523 49.8641 102.159 50.6975 101.788C51.0146 101.647 51.3016 101.57 51.6439 101.515C52.4546 101.386 52.8716 102.428 52.1507 102.865Z" fill="#40B3E6"/>
<path d="M32.302 118.815C31.8593 118.994 31.4932 119.009 31.0335 118.881C30.1919 118.647 30.2152 117.359 31.0793 117.177C31.5447 117.079 31.9127 117.111 32.3422 117.318C32.9062 117.589 32.8879 118.577 32.302 118.815Z" fill="#40B3E6"/>
<path d="M36.7163 130.757C36.3194 131.052 35.8811 131.203 35.385 131.249C34.8442 131.299 34.2458 131.415 33.7842 131.059C33.2441 130.642 33.1983 129.882 33.8263 129.509C34.3525 129.196 34.9378 129.354 35.4961 129.489C35.9564 129.599 36.3929 129.791 36.7333 130.12C36.894 130.275 36.9066 130.615 36.7163 130.757Z" fill="#40B3E6"/>
<path d="M56.7003 117.113C55.8199 117.947 54.5224 116.581 55.4041 115.745C56.2846 114.911 57.582 116.278 56.7003 117.113Z" fill="#40B3E6"/>
<path d="M62.5431 130.705C61.3286 131.616 59.962 132.776 58.5026 133.236C57.6654 133.501 56.92 132.211 57.6585 131.67C58.853 130.795 60.445 130.288 61.7839 129.651C62.4119 129.352 63.1642 130.239 62.5431 130.705Z" fill="#40B3E6"/>
<path d="M37.0352 145.79C37.7944 145.699 38.5235 145.501 39.2909 145.476C39.7148 145.463 40.0822 145.848 40.1168 146.25C40.1563 146.709 39.8794 147.025 39.4636 147.174C38.7295 147.438 37.9546 147.388 37.1896 147.306C36.8103 147.265 36.4869 147.015 36.4524 146.615C36.4222 146.268 36.6496 145.836 37.0352 145.79Z" fill="#40B3E6"/>
<path d="M68.9475 140.052C68.7666 140.819 68.0124 141.332 67.2381 141.32C66.541 141.309 66.2885 140.464 66.7306 139.994C67.0434 139.662 67.4189 139.351 67.819 139.135C68.4407 138.801 69.1001 139.407 68.9475 140.052Z" fill="#40B3E6"/>
<path d="M43.9273 157.169C44.5308 157.195 45.226 157.4 45.7541 157.693C46.1366 157.904 46.3137 158.411 46.1944 158.821C46.0625 159.275 45.6587 159.501 45.2134 159.537C44.7249 159.576 44.0548 159.481 43.5945 159.297C43.0927 159.096 42.7366 158.654 42.8339 158.088C42.9238 157.567 43.3765 157.146 43.9273 157.169Z" fill="#40B3E6"/>
<path d="M72.2728 152.984C72.8914 154.157 70.9044 155.207 70.0051 155.327C69.4732 155.398 68.9689 154.733 69.4613 154.317C69.9373 153.916 70.4108 153.488 70.9057 153.115C71.2486 152.857 71.9651 152.4 72.2728 152.984Z" fill="#40B3E6"/>
<path d="M52.7277 171.217C53.0417 171.104 53.3092 170.995 53.6502 170.998C54.6764 171.006 54.7712 172.47 53.8267 172.736C53.512 172.824 53.2049 172.779 52.8834 172.753C51.9621 172.68 51.9119 171.509 52.7277 171.217Z" fill="#40B3E6"/>
<path d="M81.3761 165.307C81.3811 165.352 81.3855 165.398 81.3905 165.444C81.4389 165.906 81.3076 166.288 80.895 166.536C80.8605 166.557 80.826 166.578 80.7914 166.599C80.2626 166.917 79.6918 166.527 79.5191 166.022C79.5047 165.979 79.4896 165.935 79.4751 165.892C79.3659 165.572 79.5254 165.176 79.7565 164.954C79.7916 164.92 79.8268 164.887 79.8614 164.853C80.3135 164.419 81.3007 164.597 81.3761 165.307Z" fill="#40B3E6"/>
<path d="M57.9293 178.387C58.4129 178.009 59.0277 177.87 59.6205 177.739C60.2196 177.606 60.7968 177.473 61.4128 177.462C62.3052 177.447 62.699 178.86 61.8261 179.217C61.2496 179.453 60.6831 179.568 60.0746 179.683C59.4937 179.794 58.8456 179.939 58.2678 179.785C57.6988 179.634 57.4282 178.779 57.9293 178.387Z" fill="#40B3E6"/>
<path d="M93.0383 175.247C92.4184 176.628 90.7837 177.631 89.4562 178.218C88.7277 178.541 88.0406 177.661 88.6259 177.065C89.6232 176.049 90.6412 174.742 91.8834 174.028C92.7029 173.557 93.3604 174.529 93.0383 175.247Z" fill="#40B3E6"/>
<path d="M157 193.363L223.681 200.001C224.604 200.092 225.506 199.471 225.612 198.667L237.225 110.605C237.372 109.489 236.499 108.627 235.369 108.776L157 119.146V193.363Z" fill="#FF2B6E"/>
<path d="M157 193.363L215.037 201.848L221.938 199.264L232.821 112.17L157 124.64V193.363Z" fill="#F0F1F7"/>
<path d="M157 193.363L215.037 201.848L224.56 117.002L232.821 112.17L157 122.426V193.363Z" fill="#E6E7ED"/>
<path d="M157 193.363L215.037 201.848L224.56 117.002L157 124.64V193.363Z" fill="white"/>
<path d="M157 193.363L90.3186 200.001C89.396 200.092 88.4936 199.471 88.3881 198.667L76.7745 110.605C76.6275 109.489 77.5011 108.627 78.6308 108.776L157 119.146V193.363Z" fill="#FF5B8F"/>
<path d="M157 193.363L98.963 201.848L92.0619 199.264L81.1787 112.17L157 124.64V193.363Z" fill="#F0F1F7"/>
<path d="M157 193.363L98.963 201.848L89.4401 117.002L81.1787 112.17L157 122.426V193.363Z" fill="#E6E7ED"/>
<path d="M157 193.363L98.9634 201.848L89.4404 117.002L157 124.64V193.363Z" fill="white"/>
<path d="M215.841 129.678L164.422 134.645C164.058 134.68 163.744 134.391 163.749 134.025L163.751 133.782C163.755 133.469 163.992 133.209 164.304 133.177L215.773 127.922C216.161 127.883 216.487 128.209 216.448 128.596L216.394 129.127C216.365 129.419 216.133 129.649 215.841 129.678Z" fill="#E6E7ED"/>
<path d="M215.083 137.06L164.337 140.804C163.978 140.831 163.673 140.544 163.677 140.184L163.68 139.969C163.684 139.65 163.929 139.388 164.246 139.363L215.04 135.341C215.422 135.311 215.739 135.635 215.7 136.016L215.65 136.508C215.62 136.805 215.382 137.038 215.083 137.06Z" fill="#E6E7ED"/>
<path d="M201.8 144.905L164.255 146.836C163.9 146.854 163.604 146.57 163.608 146.215L163.61 146.027C163.614 145.704 163.868 145.439 164.191 145.42L201.764 143.29C202.136 143.268 202.441 143.58 202.413 143.952L202.382 144.339C202.357 144.647 202.109 144.889 201.8 144.905Z" fill="#E6E7ED"/>
<path d="M187.456 158.339L164.093 158.527C163.749 158.53 163.469 158.25 163.473 157.905L163.474 157.773C163.478 157.439 163.748 157.169 164.081 157.165L187.457 156.858C187.813 156.853 188.099 157.151 188.079 157.506L188.065 157.758C188.047 158.082 187.781 158.337 187.456 158.339Z" fill="#E6E7ED"/>
<path d="M213.625 151.282L164.172 152.742C163.823 152.752 163.535 152.47 163.539 152.121L163.541 151.96C163.545 151.632 163.806 151.364 164.134 151.353L213.627 149.636C213.999 149.623 214.297 149.942 214.26 150.313L214.217 150.729C214.187 151.036 213.934 151.273 213.625 151.282Z" fill="#E6E7ED"/>
<path d="M212.235 164.821L164.014 164.196C163.675 164.191 163.403 163.913 163.407 163.574L163.409 163.468C163.412 163.13 163.69 162.858 164.028 162.861L212.283 163.247C212.644 163.251 212.926 163.564 212.889 163.924L212.855 164.268C212.823 164.585 212.554 164.826 212.235 164.821Z" fill="#E6E7ED"/>
<path d="M211.565 171.351L163.937 169.75C163.603 169.739 163.34 169.463 163.343 169.129L163.344 169.05C163.348 168.707 163.633 168.433 163.976 168.442L211.634 169.812C211.991 169.822 212.264 170.133 212.228 170.488L212.197 170.798C212.165 171.119 211.888 171.361 211.565 171.351Z" fill="#E6E7ED"/>
<path d="M199.193 177.096L163.862 175.194C163.533 175.176 163.276 174.902 163.28 174.573L163.28 174.521C163.285 174.172 163.578 173.896 163.925 173.913L199.272 175.648C199.619 175.665 199.883 175.965 199.855 176.31L199.838 176.53C199.812 176.863 199.526 177.114 199.193 177.096Z" fill="#E6E7ED"/>
<path d="M210.271 183.956L163.789 180.531C163.465 180.507 163.216 180.235 163.22 179.911V179.885C163.224 179.531 163.524 179.254 163.877 179.278L210.384 182.487C210.73 182.511 210.988 182.817 210.953 183.163L210.929 183.404C210.895 183.735 210.604 183.98 210.271 183.956Z" fill="#E6E7ED"/>
<path d="M150.108 179.187L103.689 183.312C103.347 183.342 103.096 183.646 103.13 183.988L103.161 184.292C103.195 184.63 103.495 184.876 103.833 184.844L150.221 180.443C150.54 180.413 150.783 180.143 150.78 179.822L150.779 179.795C150.775 179.435 150.466 179.156 150.108 179.187Z" fill="#E6E7ED"/>
<path d="M141.334 174.345L103.045 176.764C102.697 176.786 102.435 177.094 102.47 177.441L102.505 177.782C102.538 178.114 102.829 178.358 103.161 178.335L141.418 175.683C141.748 175.661 142.001 175.382 141.992 175.051L141.989 174.943C141.98 174.594 141.682 174.322 141.334 174.345Z" fill="#E6E7ED"/>
<path d="M129.48 162.89L101.71 163.176C101.347 163.18 101.066 163.494 101.102 163.854L101.144 164.271C101.176 164.59 101.448 164.831 101.768 164.826L129.507 164.362C129.856 164.357 130.13 164.064 130.113 163.716L130.102 163.476C130.086 163.145 129.811 162.886 129.48 162.89Z" fill="#E6E7ED"/>
<path d="M150.014 168.291L102.386 170.053C102.03 170.066 101.759 170.377 101.795 170.732L101.833 171.11C101.866 171.436 102.146 171.679 102.473 171.665L150.064 169.606C150.397 169.591 150.658 169.315 150.654 168.983L150.653 168.9C150.649 168.554 150.36 168.279 150.014 168.291Z" fill="#E6E7ED"/>
<path d="M149.916 156.951L101.017 156.124C100.647 156.118 100.355 156.435 100.392 156.802L100.438 157.258C100.47 157.571 100.731 157.81 101.045 157.813L149.901 158.322C150.247 158.325 150.528 158.043 150.524 157.698L150.522 157.561C150.519 157.226 150.25 156.956 149.916 156.951Z" fill="#E6E7ED"/>
<path d="M149.708 132.825L98.0561 126.036C97.6617 125.984 97.3219 126.314 97.3621 126.709L97.4243 127.327C97.4532 127.613 97.6761 127.841 97.9619 127.877L149.555 134.293C149.925 134.339 150.252 134.047 150.247 133.674L150.244 133.429C150.24 133.122 150.012 132.865 149.708 132.825Z" fill="#E6E7ED"/>
<path d="M149.866 151.105L100.305 148.891C99.9295 148.874 99.6261 149.195 99.6638 149.569L99.7134 150.063C99.7442 150.37 99.996 150.606 100.304 150.618L149.817 152.501C150.169 152.514 150.461 152.23 150.456 151.877L150.455 151.713C150.451 151.387 150.192 151.12 149.866 151.105Z" fill="#E6E7ED"/>
<path d="M140.593 144.465L99.5755 141.471C99.1937 141.443 98.8784 141.767 98.9167 142.148L98.9707 142.683C99.0009 142.983 99.2433 143.217 99.5435 143.237L140.514 145.951C140.877 145.975 141.182 145.681 141.171 145.318L141.164 145.065C141.156 144.747 140.909 144.489 140.593 144.465Z" fill="#E6E7ED"/>
<path d="M149.761 139.046L98.8255 133.855C98.4374 133.815 98.1102 134.142 98.1491 134.53L98.2069 135.106C98.2364 135.399 98.4688 135.63 98.7621 135.658L149.643 140.491C150.008 140.526 150.322 140.237 150.318 139.87L150.315 139.652C150.312 139.339 150.073 139.078 149.761 139.046Z" fill="#E6E7ED"/>
<path d="M157 193.028C157.175 193.028 157.317 192.885 157.317 192.71L157.358 125.608C157.358 125.432 157.215 125.29 157.04 125.29H156.959C156.783 125.29 156.64 125.432 156.641 125.608L156.681 192.71C156.682 192.885 156.824 193.028 157 193.028Z" fill="#E6E7ED"/>
<path d="M62.6698 177.297C72.6899 176.124 80.4438 172.02 79.9887 168.13C79.5335 164.239 71.0416 162.035 61.0215 163.208C51.0013 164.38 43.2474 168.484 43.7026 172.375C44.1578 176.265 52.6497 178.469 62.6698 177.297Z" fill="#874D84"/>
<path d="M46.2852 175.472C49.6117 177.313 55.7849 178.105 62.6822 177.298C69.5796 176.491 75.403 174.294 78.2146 171.734C74.888 169.893 68.7148 169.1 61.8175 169.908C54.9202 170.716 49.0967 172.912 46.2852 175.472Z" fill="#D8D8D8"/>
<path d="M48.7163 155.98L55.6764 154.861L61.1991 189.219C61.2386 189.463 61.0716 189.694 60.8267 189.733L54.7539 190.709C54.509 190.749 54.2785 190.582 54.2389 190.337L48.7163 155.98Z" fill="#A149CA"/>
<g opacity="0.2">
<path d="M48.7163 155.979L51.4205 155.545L57.0141 190.346L54.7533 190.709C54.5084 190.748 54.2779 190.581 54.2383 190.336L48.7163 155.979Z" fill="#A149CA"/>
</g>
<path d="M48.7158 155.976L48.7171 155.977L48.7164 155.979L48.7202 155.978L50.1219 157.003C50.1665 157.036 50.2293 157.023 50.2582 156.976L51.0959 155.597L51.1022 155.596L52.3243 156.638C52.3683 156.675 52.4361 156.665 52.4662 156.615L53.3002 155.243L53.3065 155.242L54.5349 156.29C54.5769 156.326 54.6404 156.318 54.6724 156.273L55.6797 154.879L55.642 154.867L55.6772 154.862L50.949 147.654L48.7183 155.977L48.7158 155.976Z" fill="#FFD9AB"/>
<path d="M52.6766 150.287L50.9484 147.652L50.127 150.718L52.6766 150.287Z" fill="#A149CA"/>
<path d="M41.5615 160.521L48.3433 158.598L57.838 192.075C57.9059 192.314 57.7671 192.563 57.5284 192.63L51.6108 194.308C51.3721 194.376 51.1234 194.238 51.0556 193.999L41.5615 160.521Z" fill="#93D5F7"/>
<g opacity="0.4">
<path d="M41.5615 160.521L44.1966 159.774L53.8138 193.684L51.6114 194.309C51.3728 194.377 51.1241 194.238 51.0563 194L41.5615 160.521Z" fill="#93D5F7"/>
</g>
<path d="M41.5605 160.519L41.5618 160.519V160.522L41.5656 160.521L43.0772 161.375C43.1255 161.402 43.1864 161.382 43.209 161.331L43.8804 159.864L43.8867 159.862L45.2218 160.754C45.2701 160.786 45.3355 160.768 45.3599 160.715L46.0275 159.255L46.0338 159.253L47.3758 160.15C47.4217 160.181 47.4838 160.166 47.5108 160.117L48.3486 158.615L48.3097 158.608L48.3436 158.598L42.8059 151.991L41.5618 160.518L41.5605 160.519Z" fill="#FFD9AB"/>
<path d="M44.8294 154.405L42.806 151.991L42.3481 155.131L44.8294 154.405Z" fill="#93D5F7"/>
<path d="M63.8486 151.172L70.8885 150.802L72.716 185.552C72.7292 185.8 72.5389 186.012 72.2908 186.024L66.149 186.347C65.9009 186.36 65.6899 186.17 65.6767 185.922L63.8486 151.172Z" fill="#08D192"/>
<g opacity="0.2">
<path d="M63.8486 151.172L66.5842 151.029L68.4349 186.227L66.1484 186.347C65.9003 186.361 65.6893 186.17 65.6761 185.922L63.8486 151.172Z" fill="#08D192"/>
</g>
<path d="M63.8486 151.17L63.8493 151.17L63.8486 151.172L63.8524 151.171L65.1367 152.34C65.1775 152.377 65.2415 152.372 65.2748 152.328L66.2551 151.046L66.2614 151.045L67.3654 152.211C67.405 152.253 67.4735 152.25 67.5086 152.204L68.4839 150.928H68.4902L69.5999 152.101C69.6375 152.141 69.7016 152.14 69.7386 152.099L70.8891 150.82L70.8527 150.805L70.8879 150.803L66.9547 143.131L63.8493 151.169L63.8486 151.17Z" fill="#FFD9AB"/>
<path d="M68.3926 145.934L66.9551 143.131L65.8115 146.091L68.3926 145.934Z" fill="#08D192"/>
<path d="M72.1673 156.007L79.2065 156.384L77.347 191.133C77.3338 191.381 77.1222 191.57 76.8741 191.557L70.7323 191.228C70.4842 191.215 70.2946 191.003 70.3078 190.755L72.1673 156.007Z" fill="#FF2B6E"/>
<g opacity="0.2">
<path d="M72.1676 156.007L74.9026 156.154L73.0192 191.35L70.7333 191.228C70.4852 191.215 70.2956 191.003 70.3088 190.755L72.1676 156.007Z" fill="#FF2B6E"/>
</g>
<path d="M72.1671 156.004L72.1678 156.005L72.1665 156.007H72.1703L73.3239 157.304C73.361 157.346 73.425 157.346 73.4627 157.306L74.573 156.135H74.5793L75.5533 157.411C75.5885 157.457 75.6563 157.461 75.6965 157.419L76.8011 156.253L76.8074 156.254L77.7865 157.537C77.8198 157.581 77.8838 157.587 77.9246 157.55L79.2039 156.4L79.1693 156.38L79.2045 156.382L76.1053 148.338L72.1671 156.002V156.004Z" fill="#FFD9AB"/>
<path d="M77.2402 151.279L76.1073 148.339L74.6572 151.162L77.2402 151.279Z" fill="#FF2B6E"/>
<path d="M55.6465 152.212L62.6254 151.216L67.5427 185.665C67.5779 185.91 67.407 186.138 67.1615 186.173L61.0724 187.042C60.8262 187.078 60.5989 186.907 60.5637 186.661L55.6465 152.212Z" fill="#FFCB24"/>
<g opacity="0.4">
<path d="M55.6465 152.211L58.3582 151.825L63.3382 186.718L61.0718 187.042C60.8256 187.077 60.5983 186.906 60.5631 186.66L55.6465 152.211Z" fill="#FFCB24"/>
</g>
<path d="M55.6465 152.208L55.6477 152.209L55.6471 152.211L55.6509 152.21L57.0344 153.26C57.0783 153.293 57.1418 153.282 57.1713 153.235L58.0335 151.871L58.0398 151.869L59.243 152.933C59.2864 152.971 59.3542 152.961 59.385 152.912L60.2428 151.555L60.2491 151.554L61.4586 152.623C61.5001 152.659 61.5635 152.653 61.5962 152.609L62.628 151.232L62.5903 151.219L62.6254 151.214L58.0247 143.924L55.6477 152.207L55.6465 152.208Z" fill="#FFD9AB"/>
<path d="M59.706 146.589L58.0248 143.925L57.1494 146.975L59.706 146.589Z" fill="#FFCB24"/>
<path d="M62.6825 177.298C52.6621 178.472 44.1697 176.268 43.7144 172.377L47.1225 201.495C47.5778 205.386 56.0703 207.589 66.0906 206.416C76.111 205.243 83.8649 201.139 83.4096 197.248L80.0014 168.13C80.4568 172.021 72.7028 176.125 62.6825 177.298Z" fill="#EB98E7"/>
<path d="M193.744 181.92C192.19 182.917 190.567 183.799 188.824 184.417C188.385 184.572 187.942 184.714 187.495 184.842C187.186 184.931 186.745 184.97 186.401 185.08C186.38 184.049 186.445 183.003 186.563 181.983C186.637 181.333 186.748 180.712 186.832 180.088C187.127 179.989 187.404 179.856 187.571 179.753C188.486 179.192 188.391 178.885 188.153 178.716C187.838 178.49 187.517 178.631 187.228 178.821C187.199 178.839 187.165 178.807 187.181 178.777C187.463 178.262 187.552 178.103 187.823 177.543C187.909 177.367 187.93 177.131 187.888 177.035C187.725 176.675 187.314 176.765 187.067 177.09C186.962 177.228 186.75 177.543 186.592 177.779C186.568 177.762 186.545 177.747 186.519 177.734C186.644 177.377 186.83 176.85 186.862 176.743C186.961 176.423 186.933 176.198 186.725 176.091C186.611 176.034 186.463 176.027 186.359 176.099C186.201 176.206 186.058 176.458 185.887 176.832C185.783 177.058 185.655 177.344 185.569 177.535C185.553 177.57 185.501 177.555 185.506 177.517C185.535 177.286 185.573 176.942 185.559 176.817C185.526 176.538 185.37 176.319 185.101 176.416C184.948 176.472 184.793 176.746 184.68 177.032C184.458 177.594 184.217 178.558 184.507 179.198C184.066 180.029 183.86 181.004 183.686 181.962C183.426 183.399 183.188 185.115 183.576 186.559C184.184 188.828 186.757 188.14 188.456 187.675C190.871 187.013 193.219 185.979 195.302 184.587C196.943 183.491 195.429 180.84 193.744 181.92Z" fill="#FFD9AB"/>
<path d="M213.525 177.382C213.274 174.082 211.908 170.971 211.23 167.749C211.229 167.743 211.224 167.738 211.222 167.732C210.992 166.656 210.599 165.615 210.049 164.655C208.992 162.812 207.432 161.616 205.436 160.917C201.248 159.45 196.197 160.039 193.061 163.379C190.397 166.215 190.05 170.108 191.467 173.533C191.065 176.055 190.864 178.743 191.983 181.074C193.35 183.92 196.442 184.985 199.351 185.488C202.77 186.079 206.485 186.201 209.738 184.808C211.12 184.216 212.387 183.291 213.019 181.888C213.648 180.494 213.639 178.877 213.525 177.382Z" fill="#322A2D"/>
<path d="M210.464 171.487C210.295 171.015 209.914 170.599 209.425 170.488C208.773 170.339 208.099 170.77 207.757 171.346C207.415 171.921 207.008 173.193 206.951 173.86C206.832 174.499 207.336 175.151 207.965 175.307C208.596 175.463 209.28 175.188 209.729 174.719C210.178 174.249 210.417 173.613 210.53 172.973C210.616 172.48 210.633 171.96 210.464 171.487Z" fill="#FFD9AB"/>
<path d="M193.122 171.445L193.308 171.641C193.111 171.247 192.906 170.843 192.579 170.547C192.253 170.251 191.773 170.083 191.362 170.242C190.918 170.415 190.687 170.904 190.565 171.366C190.327 172.27 190.36 173.285 190.857 174.077C191.354 174.869 192.381 175.356 193.266 175.052C193.393 175.009 193.519 174.946 193.599 174.837C193.716 174.676 193.7 174.457 193.674 174.258C193.541 173.25 193.501 172.39 193.122 171.445Z" fill="#FFD9AB"/>
<path d="M206.883 165.669C205.41 163.026 200.972 161.5 197.898 162.5C196.087 162.948 194.637 164.296 193.775 165.841C192.914 167.387 192.9 169.056 192.667 170.772C192.331 173.241 192.355 175.319 193.645 177.316C195.09 179.556 198.882 180.487 201.672 180.219C203.532 180.041 205.2 179.447 206.352 178.068C207.098 177.175 207.827 175.77 207.984 174.659C208.404 171.681 208.355 168.312 206.883 165.669Z" fill="#FFD9AB"/>
<path d="M198.758 178.475C199.905 178.511 201.318 178.36 202.465 178.397C202.465 180.264 202.422 180.526 202.465 182.088C201.205 182.569 199.871 182.824 198.641 182.437C198.64 181.105 198.732 178.473 198.758 178.475Z" fill="#FFD9AB"/>
<path d="M209.734 172.438C209.299 171.784 208.939 171.108 208.681 170.364C208.459 169.723 208.502 169.092 208.418 168.433C208.299 167.493 208.008 166.58 207.615 165.721C206.691 163.701 205.234 162.144 203.098 161.438C200.828 160.686 198.122 160.856 195.985 161.943C193.804 163.052 193.059 165.29 192.796 167.58C192.635 169.257 192.63 170.947 192.181 172.583C192.133 172.759 192.326 172.893 192.48 172.812C194.491 171.759 194.378 169.419 195.061 167.534C195.316 166.832 195.686 166.182 196.204 165.641C196.942 164.87 197.577 164.719 198.608 164.817C200.173 164.966 201.351 165.6 202.501 166.651C202.621 166.761 202.862 166.693 202.848 166.507C202.817 166.101 202.557 165.718 202.26 165.375C203.998 166.233 205.016 167.772 206.033 169.464C206.893 170.897 207.842 172.218 209.505 172.737C209.669 172.788 209.833 172.586 209.734 172.438Z" fill="#322A2D"/>
<path d="M184.156 166.728L180.96 168.954L186.653 177.127L189.849 174.9L184.156 166.728Z" fill="#E6E7ED"/>
<path d="M160.79 136.605C151.965 142.752 149.794 154.89 155.942 163.716C162.089 172.541 174.227 174.712 183.052 168.565C191.878 162.417 194.049 150.279 187.901 141.454C181.754 132.628 169.616 130.458 160.79 136.605ZM182.093 167.187C174.028 172.805 162.936 170.822 157.319 162.757C151.701 154.692 153.685 143.6 161.749 137.983C169.814 132.365 180.906 134.349 186.523 142.413C192.141 150.478 190.158 161.569 182.093 167.187Z" fill="#1D262D"/>
<path d="M207.357 199.112L203.282 201.951C203.067 202.101 202.771 202.048 202.621 201.833L183.629 174.568C183.479 174.353 183.532 174.057 183.747 173.907L187.823 171.068C188.037 170.919 188.333 170.971 188.483 171.186L207.475 198.451C207.625 198.667 207.573 198.962 207.357 199.112Z" fill="#1D262D"/>
<g opacity="0.3">
<path d="M180.607 168.121C189.189 163.329 192.26 152.488 187.468 143.907C182.675 135.326 171.834 132.254 163.253 137.047C154.672 141.839 151.601 152.68 156.393 161.261C161.185 169.842 172.026 172.914 180.607 168.121Z" fill="#93D5F7"/>
</g>
<path d="M104.868 190.038C105.098 187.266 105.604 182.917 106.46 181.521C107.628 179.612 110.084 179.836 112.102 179.836C114.12 179.836 116.33 179.688 117.232 181.202C118.133 182.716 118.72 188.286 118.913 190.038C119.697 197.156 119.866 198.996 119.866 198.996C118.669 200.113 105.337 200.255 104.223 199.227C104.223 199.227 104.393 195.768 104.868 190.038Z" fill="#0678AC"/>
<path d="M109.025 179.953C110.021 179.783 111.114 179.836 112.102 179.836C112.948 179.836 113.826 179.813 114.629 179.895C114.637 182.399 110.086 182.264 109.025 179.953Z" fill="#FFD9AB"/>
<path d="M121.236 185.117C121.109 184.138 120.758 183.22 120.097 182.141C119.063 180.452 118.035 179.81 116.768 180.058C116.233 180.163 115.889 180.354 115.716 180.642C115.456 181.077 115.628 181.634 115.809 182.224C115.849 182.353 115.889 182.483 115.925 182.613C116.201 183.621 116.434 184.316 116.66 184.988C116.803 185.415 116.938 185.819 117.083 186.295L117.115 186.402L117.217 186.356C118.28 185.885 119.678 185.484 121.155 185.227L121.248 185.21L121.236 185.117Z" fill="#1586BA"/>
<path d="M114.022 176.423H110.161V180.757H114.022V176.423Z" fill="#FFD9AB"/>
<path d="M101.357 168.7C101.536 168.2 101.94 167.758 102.459 167.639C103.151 167.482 103.867 167.939 104.23 168.549C104.592 169.16 105.025 170.509 105.086 171.217C105.212 171.894 104.678 172.586 104.009 172.751C103.34 172.917 102.613 172.625 102.137 172.128C101.661 171.63 101.408 170.955 101.288 170.276C101.195 169.752 101.178 169.201 101.357 168.7Z" fill="#FFD9AB"/>
<path d="M119.76 168.654L119.563 168.862C119.772 168.445 119.99 168.016 120.336 167.702C120.683 167.388 121.192 167.209 121.628 167.379C122.1 167.563 122.345 168.081 122.474 168.57C122.727 169.53 122.691 170.607 122.164 171.447C121.637 172.287 120.546 172.804 119.608 172.481C119.473 172.435 119.338 172.369 119.255 172.254C119.13 172.083 119.147 171.85 119.174 171.64C119.315 170.569 119.358 169.657 119.76 168.654Z" fill="#FFD9AB"/>
<path d="M105.157 162.528C106.72 159.724 111.43 158.105 114.692 159.166C116.613 159.641 118.153 161.071 119.067 162.71C119.981 164.35 119.995 166.121 120.243 167.942C120.599 170.56 120.574 172.765 119.205 174.883C117.671 177.259 113.647 178.246 110.686 177.963C108.713 177.774 106.942 177.143 105.72 175.681C104.928 174.734 104.156 173.243 103.989 172.065C103.542 168.906 103.595 165.331 105.157 162.528Z" fill="#FFD9AB"/>
<path d="M124.413 161.995C124.055 161.228 123.261 160.838 122.429 160.552C123.059 160.54 123.678 160.444 124.062 160.146C124.606 159.722 124.288 159.15 123.843 158.812C122.941 158.127 121.541 157.76 120.468 157.482C119.966 157.352 119.458 157.257 118.948 157.18C119.754 157.004 120.332 156.689 119.865 156.11C119.59 155.768 118.87 155.738 118.485 155.688C117.457 155.555 116.409 155.546 115.372 155.564C110.978 155.642 106.31 156.392 104.133 160.684C103.307 162.453 103.037 164.587 103.015 166.522C103.01 167.014 102.966 169.483 104.091 168.905C104.61 168.639 104.817 167.716 104.969 167.224C105.299 166.158 105.523 165.063 105.839 163.993C106.018 163.387 106.224 162.592 106.68 162.138C107.379 161.442 108.614 161.49 109.526 161.498C111.337 161.515 113.273 161.426 115.056 161.762C116.924 162.113 118.485 163.448 119.066 165.27C119.556 166.807 119.105 168.499 120.026 169.909C120.08 169.992 120.172 170.031 120.269 170.008C121.148 169.799 121.01 167.599 121.024 166.904C121.038 166.256 120.94 165.611 120.95 164.966C120.974 163.428 122.485 163.619 123.533 163.469C124.362 163.35 124.785 162.795 124.413 161.995Z" fill="#322A2D"/>
<path d="M109.367 186.906C109.318 184.505 109.114 182.083 108.668 179.722C108.653 179.644 108.607 179.601 108.552 179.581C108.55 179.58 108.548 179.58 108.546 179.579C108.526 179.573 108.507 179.569 108.486 179.569C108.477 179.568 108.47 179.564 108.46 179.564C107.536 179.584 106.837 180.212 105.953 180.395C105.841 180.418 105.77 180.555 105.802 180.66C106.558 183.115 106.617 185.795 106.752 188.342C106.794 189.156 106.516 193.747 108.401 192.814C109.121 192.459 109.148 191.32 109.229 190.631C109.375 189.396 109.392 188.147 109.367 186.906Z" fill="#FF2B6E"/>
<path d="M108.657 16.6792C108.599 16.1447 107.767 15.9199 107.638 16.541C107.284 18.2379 107.218 20.005 107.009 21.7251C106.772 23.6669 106.47 25.6043 106.104 27.526C105.516 30.612 104.716 33.6396 103.798 36.6383C103.717 36.6332 103.637 36.6263 103.553 36.6263C101.421 36.6263 100.416 38.3791 100.538 40.0301C98.2894 41.8092 96.3533 44.1347 95.3183 46.6015C95.1551 46.9908 95.7799 47.3519 96.0386 47.021C97.2607 45.456 98.3924 43.8772 99.8519 42.5132C100.227 42.1621 100.613 41.835 101.007 41.5254C101.118 41.7075 101.248 41.877 101.397 42.0315C100.022 44.725 98.6323 47.4041 96.9919 49.965C96.7194 50.3902 97.3763 50.7557 97.6601 50.3557C99.3959 47.9052 101.142 45.397 102.654 42.7713C102.701 42.7845 102.748 42.7977 102.796 42.809C102.273 45.5427 101.392 48.1256 99.9454 50.6753C99.7759 50.9742 100.207 51.3423 100.44 51.0565C102.341 48.7191 103.764 45.8165 104.373 42.7927C104.544 42.7506 104.706 42.6978 104.856 42.6313C105.179 45.1596 104.916 47.725 104.027 50.1911C103.882 50.593 104.536 50.8738 104.723 50.4844C106.084 47.6314 106.573 44.519 106.146 41.4519C106.929 40.0759 106.651 38.0814 105.314 37.1476C106.298 34.0515 107.075 30.8864 107.653 27.6918C108.287 24.1769 109.043 20.2531 108.657 16.6792Z" fill="#FFEB47"/>
<path d="M176.98 39.3675L88.8887 20.8987C87.5505 20.618 87.2182 18.8602 88.3618 18.1104L140.651 -16.1671C140.993 -16.3907 141.409 -16.4698 141.808 -16.3857L229.9 2.08316C231.238 2.36387 231.57 4.12165 230.427 4.87085L178.138 39.1484C177.796 39.3725 177.38 39.451 176.98 39.3675Z" fill="#1D262D"/>
<path d="M188.48 50.6389C188.48 33.3324 174.388 19.3167 157.054 19.4404C139.988 19.5623 126.09 33.5579 126.082 50.6232C126.078 58.7803 129.204 66.2057 134.326 71.7667C140.176 78.1176 143.572 86.3149 144.067 94.8947C144.138 96.1249 145.167 97.0814 146.399 97.0814H168.165C169.395 97.0814 170.424 96.128 170.497 94.9003C171.009 86.2421 174.554 78.0404 180.412 71.5739C185.426 66.0387 188.48 58.6955 188.48 50.6389Z" fill="#FFEB47"/>
<path d="M168.01 57.832C166.019 57.2681 163.908 58.4374 162.869 60.1211C161.881 61.72 161.673 63.6919 161.592 65.6004C160.001 65.6349 158.396 65.7103 156.793 65.7273C155.59 65.6933 154.391 65.6375 153.208 65.6061C153.144 65.6004 153.079 65.5941 153.015 65.5878C152.795 61.9819 151.895 58.1875 148.059 57.7284C145.844 57.4634 144.134 59.1025 143.977 61.2666C143.808 63.6065 145.524 65.4779 147.531 66.4036C148.659 66.9236 149.871 67.2357 151.106 67.4298C151.213 69.4067 151.282 71.3862 151.305 73.3656C151.363 78.453 151.223 83.5424 151.138 88.6285C151.091 91.4709 151.088 94.3151 151.081 97.158C151.078 98.5792 151.101 100.001 151.113 101.423C151.125 102.776 151.046 104.242 151.483 105.534C151.533 105.68 151.719 105.671 151.772 105.534C152.286 104.195 152.249 102.651 152.32 101.229C152.398 99.6788 152.485 98.1283 152.541 96.5771C152.648 93.6048 152.768 90.6331 152.842 87.6602C152.989 81.7431 153.218 75.8173 153.102 69.8978C153.09 69.2485 153.093 68.5043 153.084 67.7111C155.798 67.7582 158.605 67.9347 161.34 67.713C161.401 67.7124 161.461 67.7117 161.522 67.7111C161.296 73.711 161.522 79.7222 161.671 85.7209C161.755 89.0819 161.872 92.4411 161.993 95.8009C162.051 97.4174 162.131 99.032 162.212 100.647C162.292 102.246 162.211 104.026 162.79 105.533C162.843 105.67 163.029 105.679 163.079 105.533C163.459 104.41 163.426 103.183 163.444 102.004C163.463 100.712 163.466 99.4188 163.476 98.127C163.496 95.6075 163.457 93.0867 163.444 90.5672C163.415 85.4753 163.234 80.3854 163.244 75.2936C163.249 72.7879 163.295 70.2815 163.422 67.7789C163.427 67.6734 163.43 67.5604 163.435 67.4517C164.198 67.3205 164.953 67.149 165.694 66.9179C167.742 66.2811 169.875 64.9379 170.446 62.7336C170.956 60.7635 170.094 58.4224 168.01 57.832ZM146.198 62.4359C145.501 60.4966 147.276 59.1182 148.988 60.1833C150.651 61.2182 150.864 63.474 150.988 65.314C150.953 65.3071 150.916 65.304 150.88 65.2971C149.144 64.9617 146.865 64.2916 146.198 62.4359ZM165.02 64.9755C164.524 65.1225 164.023 65.2412 163.517 65.3404C163.605 63.8395 163.827 62.3109 164.606 61.1366C165.494 59.7977 168.063 58.9511 168.468 61.1535C168.849 63.2196 166.695 64.48 165.02 64.9755Z" fill="white"/>
<path d="M157.281 115.792C152.71 115.792 149.004 114.057 149.004 109.486V106.849H165.557V109.486C165.557 114.057 161.852 115.792 157.281 115.792Z" fill="#2D3A44"/>
<path d="M165.169 112.709H149.393C146.486 112.709 144.13 110.352 144.13 107.446V95.3676C144.13 95.3676 149.578 96.3529 157.281 96.3529C164.983 96.3529 170.432 95.3676 170.432 95.3676V107.446C170.432 110.352 168.076 112.709 165.169 112.709Z" fill="#C2CDCF"/>
<path d="M157.359 101.267C151.077 101.267 145.543 100.482 145.488 100.474C145.218 100.435 145.032 100.186 145.07 99.9161C145.108 99.6467 145.358 99.4602 145.628 99.4985C145.682 99.5061 151.151 100.282 157.359 100.282C163.565 100.282 168.879 99.5067 168.933 99.4985C169.203 99.459 169.452 99.6449 169.492 99.9136C169.532 100.183 169.346 100.433 169.077 100.473C169.023 100.481 163.641 101.267 157.359 101.267Z" fill="white"/>
<path d="M157.359 105.18C151.077 105.18 145.543 104.395 145.488 104.387C145.218 104.348 145.032 104.099 145.07 103.829C145.108 103.56 145.358 103.373 145.628 103.412C145.682 103.419 151.151 104.195 157.359 104.195C163.565 104.195 168.879 103.42 168.933 103.412C169.203 103.372 169.452 103.558 169.492 103.827C169.532 104.096 169.346 104.346 169.077 104.386C169.023 104.394 163.641 105.18 157.359 105.18Z" fill="white"/>
<path d="M157.359 109.093C151.077 109.093 145.543 108.308 145.488 108.3C145.218 108.261 145.032 108.012 145.07 107.742C145.108 107.473 145.358 107.286 145.628 107.325C145.682 107.332 151.151 108.108 157.359 108.108C163.565 108.108 168.879 107.333 168.933 107.325C169.203 107.285 169.452 107.471 169.492 107.74C169.532 108.009 169.346 108.259 169.077 108.299C169.023 108.307 163.641 109.093 157.359 109.093Z" fill="white"/>
<path d="M157.382 1.49918C141.299 1.49918 128.261 6.72854 128.261 13.18V39.4454C128.261 34.8303 141.299 31.0893 157.382 31.0893C173.465 31.0893 186.502 34.8303 186.502 39.4454V13.1794C186.502 6.72854 173.465 1.49918 157.382 1.49918Z" fill="#2D3A44"/>
</g>
</g>
<defs>
<clipPath id="clip0_1_8737">
<rect width="314" height="180" rx="12" fill="white"/>
</clipPath>
<clipPath id="clip1_1_8737">
<rect width="314" height="181" fill="white"/>
</clipPath>
</defs>
</svg>
