<svg width="221" height="111" viewBox="0 0 221 111" fill="none" xmlns="http://www.w3.org/2000/svg">
<path d="M138.152 74.5891H41.3095C38.6735 74.5891 36.5366 72.4522 36.5366 69.8162V5.72145C36.5366 3.08549 38.6735 0.948608 41.3095 0.948608H138.152C140.788 0.948608 142.925 3.08549 142.925 5.72145V69.8159C142.925 72.4522 140.788 74.5891 138.152 74.5891Z" fill="url(#paint0_linear_1_7492)"/>
<path d="M137.069 71.6427H42.3926C40.7068 71.6427 39.3402 70.2761 39.3402 68.5904V6.94692C39.3402 5.26116 40.7068 3.89453 42.3926 3.89453H137.069C138.755 3.89453 140.121 5.26116 140.121 6.94692V68.5904C140.121 70.2761 138.755 71.6427 137.069 71.6427Z" fill="white"/>
<path opacity="0.38" d="M64.6273 19.6499V12.933H50.6769V31.3986H61.4876V34.69H75.438V19.6499H64.6273Z" fill="url(#paint1_linear_1_7492)"/>
<path opacity="0.13" d="M78.6916 37.4891H50.677V55.9548H78.6916V37.4891Z" fill="url(#paint2_linear_1_7492)"/>
<path opacity="0.2" d="M106.062 44.9895H85.608V55.9544H106.062V44.9895Z" fill="url(#paint3_linear_1_7492)"/>
<path opacity="0.38" d="M78.6916 57.7578H50.677V60.7558H78.6916V57.7578Z" fill="url(#paint4_linear_1_7492)"/>
<path opacity="0.38" d="M78.6916 62.4187H50.677V65.4167H78.6916V62.4187Z" fill="url(#paint5_linear_1_7492)"/>
<path opacity="0.2" d="M132.093 35.8749V55.3115L109.926 55.3523L132.093 35.8749Z" fill="url(#paint6_linear_1_7492)"/>
<path opacity="0.48" d="M58.265 15.403C58.265 15.7894 57.9516 16.1028 57.5653 16.1028C57.1789 16.1028 56.8655 15.7894 56.8655 15.403C56.8655 15.0163 57.1789 14.7032 57.5653 14.7032C57.9516 14.7029 58.265 15.0163 58.265 15.403Z" fill="url(#paint7_linear_1_7492)"/>
<path opacity="0.48" d="M69.1627 21.532C69.1627 21.9188 68.8493 22.2318 68.463 22.2318C68.0766 22.2318 67.7632 21.9184 67.7632 21.532C67.7632 21.1457 68.0766 20.8323 68.463 20.8323C68.8493 20.8323 69.1627 21.1457 69.1627 21.532Z" fill="url(#paint8_linear_1_7492)"/>
<path opacity="0.34" d="M61.4534 31.5407V19.7883L64.6274 19.7919" stroke="url(#paint9_linear_1_7492)" stroke-width="0.357758" stroke-miterlimit="10"/>
<path d="M120.503 23.8344C120.503 24.8887 119.648 25.7434 118.594 25.7434C117.539 25.7434 116.685 24.8887 116.685 23.8344C116.685 22.7801 117.539 21.9254 118.594 21.9254C119.648 21.9254 120.503 22.7801 120.503 23.8344Z" fill="url(#paint10_linear_1_7492)"/>
<path opacity="0.38" d="M124.379 23.7406C128.267 20.1123 130.378 16.7915 129.392 15.5111C128.529 14.3921 125.56 15.1634 121.824 17.267C121.209 13.024 120.006 10.2013 118.594 10.2013C117.159 10.2013 115.941 13.1177 115.336 17.4763C114.289 16.9243 113.285 16.4603 112.354 16.1011C109.834 15.1305 108.122 15.0468 107.533 15.865C106.943 16.6831 107.565 18.2802 109.283 20.3627C110.22 21.4989 111.424 22.7114 112.812 23.9281C111.464 25.1888 110.3 26.4399 109.4 27.6058C107.75 29.7427 107.181 31.3594 107.797 32.158C108.064 32.505 108.534 32.6699 109.167 32.6699C110.574 32.6699 112.788 31.8489 115.364 30.3989C115.979 34.6437 117.181 37.4678 118.594 37.4678C120.029 37.4678 121.246 34.5528 121.852 30.196C124.476 31.5827 126.732 32.3626 128.178 32.3626C128.874 32.3626 129.383 32.1826 129.655 31.8041C130.6 30.4922 128.383 27.2417 124.379 23.7406ZM128.037 15.24C128.577 15.24 128.976 15.3755 129.196 15.6614C130.078 16.8062 127.906 20.0851 124.185 23.5725C123.572 23.0423 122.918 22.5071 122.229 21.9726C122.173 20.3888 122.047 18.8995 121.861 17.5468C124.444 16.0903 126.687 15.24 128.037 15.24ZM120.683 26.5447C120.008 27.0656 119.331 27.5586 118.662 28.0226C117.977 27.5804 117.285 27.1096 116.593 26.6109C116.118 26.2685 115.655 25.9215 115.202 25.572C115.182 25.0014 115.171 24.4222 115.171 23.834C115.171 23.2691 115.182 22.7124 115.2 22.1636C115.625 21.8141 116.059 21.4667 116.504 21.1236C117.181 20.602 117.858 20.1108 118.529 19.6457C119.215 20.0908 119.906 20.5612 120.594 21.0575C121.071 21.4009 121.534 21.7486 121.985 22.0982C122.005 22.6681 122.016 23.2469 122.016 23.834C122.016 24.3982 122.006 24.9545 121.987 25.5026C121.564 25.8521 121.13 26.2002 120.683 26.5447ZM121.976 25.8339C121.92 27.2306 121.806 28.5618 121.644 29.7921C120.755 29.3134 119.83 28.77 118.888 28.1686C119.529 27.7196 120.179 27.2449 120.834 26.7404C121.224 26.4388 121.605 26.1365 121.976 25.8339ZM118.44 28.1758C117.458 28.8483 116.494 29.4544 115.569 29.9853C115.397 28.7192 115.274 27.3411 115.214 25.8925C115.617 26.2013 116.029 26.5082 116.449 26.8113C117.119 27.2942 117.784 27.7479 118.44 28.1758ZM114.948 25.3752C114.333 24.8937 113.744 24.4078 113.182 23.922C113.741 23.4054 114.33 22.8877 114.946 22.3744C114.932 22.8534 114.926 23.3403 114.926 23.8347C114.925 24.3563 114.933 24.8697 114.948 25.3752ZM115.211 21.8356C115.268 20.4364 115.382 19.1027 115.544 17.8709C116.441 18.3553 117.364 18.8987 118.301 19.4987C117.659 19.9477 117.008 20.4239 116.354 20.9287C115.965 21.2281 115.585 21.5311 115.211 21.8356ZM118.748 19.4955C119.729 18.8236 120.695 18.2136 121.619 17.6831C121.791 18.9492 121.913 20.3273 121.973 21.7758C121.573 21.4689 121.161 21.1626 120.738 20.8578C120.075 20.3795 119.409 19.9266 118.748 19.4955ZM122.24 22.296C122.855 22.7786 123.441 23.2641 123.998 23.7471C123.443 24.2605 122.858 24.7774 122.243 25.2922C122.256 24.8139 122.263 24.3277 122.263 23.8344C122.262 23.3131 122.254 22.8004 122.24 22.296ZM118.594 10.4478C119.858 10.4478 120.988 13.2963 121.58 17.4065C120.602 17.9675 119.574 18.6161 118.52 19.3452C117.52 18.7016 116.534 18.122 115.579 17.609C116.162 13.3896 117.309 10.4478 118.594 10.4478ZM109.473 20.2056C107.857 18.2469 107.222 16.7171 107.733 16.0088C108.243 15.3008 109.895 15.4178 112.265 16.3308C113.211 16.6953 114.234 17.1715 115.3 17.7375C115.126 19.0597 115.008 20.509 114.956 22.0459C114.27 22.6141 113.613 23.1875 112.994 23.76C111.607 22.5464 110.406 21.3372 109.473 20.2056ZM107.992 32.0073C107.458 31.3158 108.043 29.7663 109.595 27.7565C110.491 26.5952 111.652 25.3477 112.999 24.0905C113.619 24.6275 114.274 25.1649 114.959 25.6961C115.014 27.281 115.141 28.7707 115.326 30.1241C111.71 32.1644 108.764 33.0083 107.992 32.0073ZM118.594 37.2209C117.329 37.2209 116.2 34.3728 115.607 30.2626C116.585 29.7023 117.613 29.0498 118.666 28.3214C119.678 28.9739 120.666 29.561 121.607 30.0676C121.024 34.2827 119.878 37.2209 118.594 37.2209ZM129.455 31.66C128.705 32.7021 125.65 31.9136 121.889 29.923C122.062 28.6029 122.179 27.1565 122.231 25.6232C122.924 25.0511 123.578 24.4798 124.191 23.9149C128.022 27.2806 130.3 30.4872 129.455 31.66Z" fill="url(#paint11_linear_1_7492)"/>
<path d="M129.002 16.7322C129.724 16.7322 130.309 16.1471 130.309 15.4253C130.309 14.7035 129.724 14.1184 129.002 14.1184C128.28 14.1184 127.695 14.7035 127.695 15.4253C127.695 16.1471 128.28 16.7322 129.002 16.7322Z" fill="url(#paint12_linear_1_7492)"/>
<path d="M108.937 15.9351C108.937 16.657 108.352 17.242 107.63 17.242C106.908 17.242 106.323 16.6567 106.323 15.9351C106.323 15.2131 106.908 14.6282 107.63 14.6282C108.352 14.6278 108.937 15.2131 108.937 15.9351Z" fill="url(#paint13_linear_1_7492)"/>
<path d="M118.594 38.6511C119.315 38.6511 119.901 38.066 119.901 37.3442C119.901 36.6225 119.315 36.0374 118.594 36.0374C117.872 36.0374 117.287 36.6225 117.287 37.3442C117.287 38.066 117.872 38.6511 118.594 38.6511Z" fill="url(#paint14_linear_1_7492)"/>
<path opacity="0.38" d="M83.8147 15.7016C83.7732 15.7599 83.7181 15.8279 83.6487 15.9062C83.5796 15.9846 83.5016 16.059 83.4154 16.1298C83.3292 16.2006 83.2365 16.2607 83.1378 16.3098C83.039 16.3588 82.9399 16.3835 82.8412 16.3835C82.7217 16.3835 82.6222 16.3459 82.5425 16.27C82.4627 16.1946 82.394 16.0847 82.336 15.9405C82.2928 15.9903 82.2391 16.0411 82.1758 16.0926C82.1124 16.1441 82.043 16.191 81.9679 16.2325C81.8928 16.2743 81.8141 16.3087 81.7329 16.3352C81.6513 16.362 81.5697 16.3752 81.4882 16.3752C81.4019 16.3752 81.3179 16.3577 81.2359 16.3223C81.154 16.2869 81.0817 16.2361 81.0188 16.1699C80.9558 16.1037 80.9057 16.0228 80.8678 15.9277C80.8299 15.8325 80.8113 15.7252 80.8113 15.6053C80.8113 15.4708 80.8302 15.3331 80.8682 15.1918C80.9061 15.0501 80.9647 14.897 81.0445 14.7324C81.124 14.5675 81.2095 14.4251 81.3007 14.3052C81.3919 14.1854 81.4921 14.0802 81.6005 13.9908C81.7089 13.9013 81.8234 13.8301 81.9436 13.7772C82.0638 13.7246 82.1861 13.6981 82.311 13.6981C82.3525 13.6981 82.3851 13.7064 82.4087 13.7228C82.4323 13.7393 82.4516 13.7579 82.467 13.7786C82.4824 13.7994 82.497 13.8201 82.5117 13.8398C82.5264 13.8598 82.5443 13.8741 82.5657 13.8834C82.5875 13.8924 82.6097 13.8985 82.6323 13.901C82.6548 13.9038 82.6781 13.9049 82.7017 13.9049C82.7217 13.9049 82.7417 13.9046 82.7625 13.9035C82.7832 13.9024 82.8036 13.902 82.8237 13.902C82.8509 13.902 82.8762 13.9049 82.8995 13.9103C82.9231 13.9156 82.9435 13.9275 82.9618 13.9457C82.9796 13.9639 82.9936 13.9893 83.0036 14.0219C83.0136 14.0548 83.0183 14.0992 83.0183 14.1557C83.0183 14.2416 83.0093 14.3371 82.9915 14.4415C82.9736 14.5464 82.9528 14.6537 82.9299 14.7635C82.9067 14.8734 82.8802 14.9986 82.8505 15.1395C82.8208 15.2805 82.8061 15.3989 82.8061 15.4951C82.8061 15.5774 82.8136 15.6418 82.829 15.6883C82.8444 15.7348 82.877 15.7581 82.9274 15.7581C82.9653 15.7581 83.0047 15.7488 83.0462 15.7302C83.0877 15.7116 83.1292 15.6869 83.1714 15.6565C83.2136 15.6261 83.2558 15.5921 83.298 15.5535C83.3403 15.5152 83.3803 15.4755 83.4179 15.4343C83.5059 15.3381 83.595 15.2293 83.6848 15.1084L83.8147 15.7016ZM81.5014 15.4905C81.5014 15.537 81.5046 15.5817 81.5107 15.6254C81.5171 15.669 81.5282 15.708 81.5447 15.7424C81.5608 15.7767 81.5826 15.8042 81.6094 15.8257C81.6363 15.8468 81.6706 15.8576 81.7121 15.8576C81.7786 15.8576 81.8391 15.8286 81.8931 15.7706C81.9472 15.7127 81.994 15.6429 82.0337 15.5617C82.0734 15.4801 82.1053 15.396 82.1296 15.3095C82.1539 15.2225 82.1697 15.1499 82.1768 15.0923L82.3779 14.2158C82.3042 14.2158 82.2323 14.234 82.1622 14.2705C82.0921 14.307 82.0259 14.3564 81.964 14.419C81.9021 14.4813 81.8448 14.5528 81.7926 14.6329C81.7404 14.7131 81.6892 14.8118 81.6388 14.9295C81.5883 15.0472 81.5529 15.1506 81.5322 15.2397C81.5118 15.3284 81.5014 15.4121 81.5014 15.4905ZM86.2549 15.2483H85.651C85.5934 15.2483 85.5426 15.2411 85.4986 15.2268C85.4546 15.2125 85.4181 15.1932 85.3895 15.1689C85.3609 15.1445 85.3391 15.117 85.3247 15.0866C85.3104 15.0562 85.3033 15.0247 85.3033 14.9921C85.3033 14.9599 85.3108 14.9277 85.3262 14.8963C85.3416 14.8648 85.3637 14.8369 85.3934 14.8125C85.4231 14.7882 85.4603 14.7685 85.5054 14.7532C85.5505 14.7378 85.6024 14.7303 85.6618 14.7303H86.2549V14.1156C86.2549 14.0652 86.2635 14.0205 86.2807 13.9808C86.2978 13.9414 86.3207 13.9074 86.3494 13.8795C86.378 13.8516 86.4095 13.8305 86.4438 13.8162C86.4778 13.8019 86.5129 13.7947 86.549 13.7947C86.6066 13.7947 86.6581 13.8162 86.7039 13.8595C86.7497 13.9024 86.7726 13.9711 86.7726 14.0645V14.7306H87.4466C87.54 14.7306 87.6083 14.7535 87.6516 14.7993C87.6949 14.8451 87.7164 14.897 87.7164 14.9542C87.7164 14.9903 87.7092 15.0254 87.6949 15.0594C87.6806 15.0937 87.6595 15.1249 87.6316 15.1538C87.6037 15.1825 87.57 15.2057 87.5303 15.2225C87.491 15.2397 87.4459 15.2483 87.3954 15.2483H86.7726V15.8497C86.7726 15.9091 86.7651 15.9613 86.7497 16.006C86.7343 16.0511 86.7146 16.0883 86.6903 16.118C86.666 16.1477 86.6381 16.1702 86.6066 16.1853C86.5751 16.2006 86.5433 16.2082 86.5111 16.2082C86.4785 16.2082 86.4474 16.201 86.4166 16.1867C86.3862 16.1724 86.3587 16.1509 86.3343 16.1219C86.31 16.0933 86.2907 16.0568 86.2764 16.0128C86.2621 15.9688 86.2549 15.918 86.2549 15.8604V15.2483ZM90.8979 14.1918C90.9984 14.0684 91.0907 13.9689 91.1741 13.8938C91.2578 13.8187 91.3408 13.7811 91.4234 13.7811C91.5293 13.7811 91.6238 13.804 91.7064 13.8505C91.7891 13.8967 91.8592 13.9582 91.9168 14.0344C91.9744 14.111 92.0184 14.199 92.0488 14.2984C92.0792 14.3979 92.0946 14.502 92.0946 14.6104C92.0946 14.7027 92.091 14.7904 92.0839 14.8726C92.0767 14.9549 92.0635 15.0358 92.0449 15.1145C92.0259 15.1932 91.9998 15.2715 91.9665 15.3492C91.9333 15.4272 91.8896 15.5077 91.8359 15.591C91.9007 15.5531 91.9662 15.5159 92.0327 15.4798C92.0992 15.4436 92.1662 15.4036 92.2334 15.3603C92.3007 15.317 92.3686 15.2683 92.437 15.215C92.5053 15.1617 92.5754 15.0987 92.6473 15.0261L92.8548 15.474C92.7561 15.5645 92.6577 15.6429 92.5597 15.7098C92.4617 15.7767 92.3611 15.835 92.2577 15.8847C92.1543 15.9345 92.0466 15.977 91.9343 16.0132C91.822 16.0493 91.7028 16.0819 91.5769 16.1108C91.5465 16.1413 91.5043 16.172 91.4513 16.2024C91.398 16.2328 91.3454 16.2607 91.2932 16.2861C91.2338 16.3148 91.1698 16.3427 91.1015 16.3699H91.0338C90.753 16.3699 90.601 16.3663 90.5777 16.3591C90.3616 16.2997 90.2257 16.2532 90.1699 16.2189C90.0672 16.1523 89.9681 16.084 89.8729 16.0139C89.8783 15.8683 89.889 15.7037 89.9051 15.5202C89.9176 15.3603 89.9366 15.1653 89.9624 14.9353C89.9988 14.5954 90.0332 14.3467 90.0661 14.1883C90.0826 14.0104 90.1044 13.8137 90.1316 13.598C90.1609 13.433 90.1971 13.227 90.2411 12.9794C90.2847 12.7322 90.3434 12.5036 90.416 12.2943C90.489 12.085 90.5698 11.8982 90.6586 11.7348C90.7476 11.5713 90.8446 11.44 90.9498 11.3412C91.055 11.2425 91.1687 11.1927 91.2907 11.1927C91.4274 11.1927 91.5369 11.216 91.6195 11.2629C91.7021 11.3097 91.7658 11.3731 91.8109 11.4528C91.856 11.533 91.8853 11.6267 91.9 11.7344C91.9143 11.8421 91.9214 11.9573 91.9214 12.0796C91.9214 12.2499 91.8896 12.4252 91.8256 12.6063C91.7619 12.7873 91.6785 12.9679 91.5762 13.1479C91.4739 13.3278 91.359 13.5039 91.2324 13.6759C91.1058 13.848 90.9795 14.0101 90.8535 14.1621L90.8979 14.1918ZM91.1401 14.3854C91.0771 14.3854 91.0142 14.3986 90.9512 14.4251C90.8882 14.4516 90.8299 14.4927 90.7759 14.5485C90.7219 14.6043 90.6743 14.6759 90.6328 14.7635C90.5519 14.9335 90.5215 15.0376 90.5412 15.0759C90.5412 15.0794 90.5287 15.1875 90.5036 15.3996C90.4936 15.4798 90.4854 15.5513 90.479 15.6139C90.47 15.6862 90.4622 15.7542 90.4554 15.8175C90.5147 15.8354 90.5741 15.8508 90.6332 15.8633C90.6854 15.874 90.7401 15.8751 90.7977 15.8661C90.8553 15.8572 90.9101 15.8525 90.9623 15.8525C91.0235 15.8525 91.0793 15.8343 91.1294 15.7982C91.1798 15.762 91.2245 15.7134 91.2642 15.6529C91.304 15.5921 91.3379 15.523 91.3666 15.4451C91.3952 15.3671 91.4188 15.2862 91.4367 15.2018C91.4546 15.1177 91.4682 15.0343 91.4771 14.9521C91.486 14.8698 91.4907 14.7939 91.4907 14.7252C91.4907 14.6798 91.4857 14.6369 91.476 14.5961C91.466 14.5553 91.4481 14.5195 91.422 14.4888C91.3959 14.458 91.3598 14.4333 91.314 14.414C91.2685 14.395 91.2106 14.3854 91.1401 14.3854ZM91.4048 11.9265C91.4048 11.9194 91.4034 11.904 91.4009 11.8807C91.398 11.8575 91.392 11.8331 91.3823 11.8077C91.3726 11.7827 91.3587 11.7602 91.3408 11.7405C91.3229 11.7208 91.2989 11.7108 91.2685 11.7108C91.2328 11.7108 91.1959 11.7365 91.1576 11.7877C91.1193 11.8389 91.0814 11.9083 91.0442 11.9952C91.0067 12.0825 90.9705 12.183 90.9347 12.2975C90.899 12.4116 90.8646 12.5315 90.8306 12.6563C90.7966 12.7816 90.7662 12.9089 90.7394 13.0391C90.7122 13.1694 90.6868 13.2921 90.6628 13.4073C90.6389 13.5225 90.6167 13.628 90.597 13.7239C90.577 13.8198 90.5609 13.8978 90.5484 13.9575C90.5967 13.8638 90.6507 13.7665 90.7104 13.6656C90.7702 13.5647 90.8303 13.4599 90.8911 13.3511C90.9519 13.2423 91.0113 13.1311 91.0693 13.017C91.1272 12.9028 91.1798 12.7858 91.227 12.6664C91.2743 12.5469 91.3136 12.4256 91.3447 12.3025C91.3759 12.1794 91.3959 12.0542 91.4048 11.9265ZM95.474 15.3399C95.4411 15.3399 95.4078 15.3345 95.3749 15.3238C95.342 15.313 95.3123 15.2959 95.2858 15.2726C95.2597 15.2494 95.2382 15.2193 95.2218 15.1825C95.2053 15.1456 95.1971 15.1013 95.1971 15.049C95.1971 14.9807 95.2107 14.926 95.2375 14.8845C95.2643 14.843 95.3008 14.8115 95.347 14.79C95.3931 14.7685 95.4468 14.7546 95.5073 14.7481C95.5681 14.7417 95.6314 14.7378 95.6976 14.736C95.757 14.736 95.8332 14.736 95.9262 14.736C96.0192 14.736 96.1226 14.736 96.2364 14.736C96.3501 14.736 96.47 14.736 96.5963 14.736C96.7225 14.736 96.8481 14.736 96.9737 14.736C97.0993 14.736 97.2209 14.736 97.3386 14.736C97.4563 14.736 97.5629 14.7353 97.6581 14.7335C97.6924 14.7335 97.7207 14.7381 97.7429 14.7471C97.7651 14.756 97.7822 14.7689 97.7947 14.7854C97.8073 14.8018 97.8159 14.8201 97.8205 14.8397C97.8252 14.8598 97.8277 14.8805 97.8277 14.9023C97.8277 14.9649 97.8198 15.0225 97.804 15.0755C97.7883 15.1281 97.7608 15.1742 97.7214 15.2139C97.6821 15.2533 97.6298 15.2841 97.5644 15.3066C97.4989 15.3288 97.4173 15.3402 97.3193 15.3402H95.474V15.3399ZM95.474 16.1752C95.4411 16.1752 95.4078 16.1699 95.3749 16.1591C95.342 16.1484 95.3123 16.1312 95.2858 16.108C95.2597 16.0847 95.2382 16.0547 95.2218 16.0178C95.2053 15.981 95.1971 15.9366 95.1971 15.8844C95.1971 15.8161 95.2107 15.7613 95.2375 15.7198C95.2643 15.6783 95.3008 15.6468 95.347 15.6254C95.3931 15.6039 95.4468 15.5899 95.5073 15.5835C95.5681 15.5771 95.6314 15.5731 95.6976 15.5713C95.757 15.5713 95.8332 15.5713 95.9262 15.5713C96.0192 15.5713 96.1226 15.5713 96.2364 15.5713C96.3501 15.5713 96.47 15.5713 96.5963 15.5713C96.7225 15.5713 96.8481 15.5713 96.9737 15.5713C97.0993 15.5713 97.2209 15.5713 97.3386 15.5713C97.4563 15.5713 97.5629 15.5703 97.6581 15.5685C97.6924 15.5685 97.7207 15.5731 97.7429 15.5821C97.7651 15.5914 97.7822 15.6039 97.7947 15.6204C97.8073 15.6368 97.8159 15.6551 97.8205 15.6747C97.8252 15.6948 97.8277 15.7155 97.8277 15.7373C97.8277 15.8 97.8198 15.8576 97.804 15.9105C97.7883 15.9631 97.7608 16.0092 97.7214 16.0486C97.6821 16.0879 97.6298 16.1187 97.5644 16.1413C97.4989 16.1634 97.4173 16.1749 97.3193 16.1749H95.474V16.1752ZM101.021 16.3699C100.855 16.3699 100.709 16.3394 100.583 16.2783C100.457 16.2171 100.352 16.1355 100.266 16.0329C100.181 15.9305 100.117 15.8118 100.074 15.6769C100.03 15.542 100.009 15.4018 100.009 15.2562C100.009 15.1521 100.026 15.0268 100.063 14.8812C100.099 14.7356 100.138 14.6086 100.181 14.4999C100.223 14.3911 100.275 14.2874 100.338 14.1886C100.4 14.0899 100.472 14.0029 100.554 13.9285C100.637 13.8538 100.728 13.7947 100.83 13.7507C100.931 13.7067 101.042 13.6845 101.163 13.6845C101.272 13.6845 101.373 13.7003 101.466 13.7318C101.558 13.7632 101.638 13.8069 101.704 13.8627C101.77 13.9185 101.821 13.9843 101.859 14.0609C101.896 14.1375 101.915 14.2194 101.915 14.3077C101.915 14.3689 101.906 14.429 101.888 14.4884C101.871 14.5478 101.837 14.6176 101.786 14.6973C101.735 14.7771 101.686 14.8319 101.639 14.8605C101.591 14.8891 101.537 14.9038 101.477 14.9038C101.386 14.9038 101.327 14.8812 101.301 14.8365C101.257 14.7664 101.244 14.7045 101.26 14.6505C101.265 14.6219 101.281 14.5553 101.308 14.4508C101.312 14.4365 101.313 14.404 101.311 14.3539C101.311 14.311 101.306 14.2748 101.297 14.2462C101.288 14.2176 101.269 14.2029 101.238 14.2029C101.165 14.2029 101.102 14.2205 101.05 14.2555C100.998 14.2906 100.954 14.3364 100.918 14.3929C100.881 14.4494 100.845 14.5296 100.809 14.6329C100.773 14.7363 100.747 14.8229 100.732 14.893C100.717 14.9632 100.708 15.0301 100.704 15.0937C100.7 15.1574 100.699 15.2111 100.699 15.2544C100.699 15.3191 100.704 15.3864 100.716 15.4565C100.728 15.5266 100.751 15.591 100.786 15.6493C100.821 15.7077 100.866 15.7563 100.921 15.7949C100.977 15.8336 101.048 15.8529 101.136 15.8529C101.222 15.8529 101.317 15.8264 101.422 15.7735C101.526 15.7205 101.631 15.6536 101.736 15.5728C101.841 15.4919 101.941 15.4028 102.036 15.3059C102.131 15.2089 102.213 15.117 102.282 15.0308L102.468 15.3435C102.333 15.5359 102.187 15.7073 102.031 15.8583C101.964 15.923 101.892 15.986 101.814 16.0472C101.735 16.1083 101.654 16.1627 101.568 16.2103C101.483 16.2579 101.394 16.2965 101.301 16.3262C101.21 16.3552 101.116 16.3699 101.021 16.3699Z" fill="url(#paint15_linear_1_7492)"/>
<path opacity="0.38" d="M81.8234 24.6811C81.657 24.6811 81.511 24.6507 81.3851 24.5896C81.2592 24.5284 81.154 24.4468 81.0689 24.3441C80.9837 24.2418 80.9193 24.123 80.876 23.9882C80.8327 23.8533 80.8109 23.713 80.8109 23.5674C80.8109 23.4633 80.8288 23.3381 80.8653 23.1925C80.9014 23.0469 80.9408 22.9199 80.983 22.8111C81.0252 22.7024 81.0778 22.5986 81.14 22.4999C81.2023 22.4011 81.2746 22.3142 81.3569 22.2398C81.4391 22.1654 81.5307 22.106 81.632 22.062C81.7332 22.018 81.8441 21.9958 81.9654 21.9958C82.0745 21.9958 82.1754 22.0116 82.2681 22.043C82.3607 22.0745 82.4401 22.1182 82.506 22.174C82.5722 22.2298 82.6237 22.2956 82.6609 22.3722C82.6981 22.4487 82.717 22.5307 82.717 22.619C82.717 22.6802 82.7085 22.7403 82.6906 22.7997C82.6734 22.8591 82.6391 22.9288 82.5886 23.0086C82.5378 23.0888 82.4888 23.1431 82.4412 23.1718C82.3936 23.2004 82.3396 23.215 82.2792 23.215C82.1883 23.215 82.1296 23.1925 82.1031 23.1474C82.0598 23.0773 82.0459 23.0154 82.062 22.9614C82.0674 22.9328 82.0835 22.8662 82.1103 22.7618C82.1139 22.7475 82.1149 22.7149 82.1131 22.6648C82.1131 22.6215 82.1089 22.5858 82.0996 22.5571C82.0906 22.5285 82.0709 22.5142 82.0405 22.5142C81.9672 22.5142 81.9046 22.5317 81.8527 22.5668C81.8008 22.6019 81.7565 22.6476 81.72 22.7042C81.6831 22.7607 81.647 22.8408 81.6112 22.9442C81.5754 23.0476 81.5497 23.1342 81.5347 23.2043C81.5193 23.2744 81.51 23.3413 81.5064 23.405C81.5028 23.4687 81.501 23.5224 81.501 23.5653C81.501 23.63 81.5068 23.6973 81.5186 23.7674C81.5304 23.8375 81.5536 23.9019 81.5883 23.9603C81.6234 24.0186 81.6685 24.0672 81.7239 24.1059C81.7794 24.1445 81.8509 24.1638 81.9386 24.1638C82.0248 24.1638 82.1199 24.1373 82.2244 24.0844C82.3289 24.0314 82.4333 23.9646 82.5385 23.8837C82.6437 23.8028 82.7439 23.7138 82.839 23.6168C82.9342 23.5199 83.0161 23.4279 83.0845 23.3417L83.2705 23.6544C83.1356 23.8468 82.99 24.0186 82.8337 24.1695C82.7671 24.2343 82.6949 24.2973 82.6165 24.3584C82.5382 24.4196 82.4566 24.474 82.3711 24.5216C82.2856 24.5692 82.1969 24.6078 82.1042 24.6375C82.0123 24.6665 81.9185 24.6811 81.8234 24.6811ZM85.6725 23.5596H85.0686C85.011 23.5596 84.9602 23.5524 84.9162 23.5381C84.8722 23.5238 84.8357 23.5045 84.8071 23.4801C84.7784 23.4558 84.7566 23.4286 84.7423 23.3979C84.728 23.3675 84.7208 23.336 84.7208 23.3034C84.7208 23.2712 84.7284 23.239 84.7437 23.2075C84.7591 23.1761 84.7813 23.1481 84.811 23.1238C84.8407 23.0995 84.8779 23.0798 84.923 23.0644C84.9681 23.049 85.0199 23.0415 85.0793 23.0415H85.6725V22.4269C85.6725 22.3765 85.6811 22.3317 85.6982 22.292C85.7154 22.2523 85.7383 22.2187 85.7669 22.1908C85.7955 22.1629 85.827 22.1418 85.8614 22.1275C85.8954 22.1132 85.9304 22.106 85.9666 22.106C86.0242 22.106 86.0757 22.1275 86.1215 22.1708C86.1673 22.214 86.1902 22.2824 86.1902 22.3757V23.0415H86.8642C86.9575 23.0415 87.0259 23.0644 87.0692 23.1102C87.1124 23.156 87.1339 23.2079 87.1339 23.2651C87.1339 23.3009 87.1268 23.336 87.1125 23.3703C87.0981 23.4043 87.077 23.4358 87.0491 23.4648C87.0212 23.4934 86.9876 23.5163 86.9479 23.5335C86.9082 23.5506 86.8635 23.5592 86.813 23.5592H86.1902V24.1606C86.1902 24.22 86.1826 24.2722 86.1673 24.3169C86.1519 24.362 86.1322 24.3992 86.1079 24.4289C86.0835 24.4586 86.0556 24.4812 86.0242 24.4962C85.9927 24.5116 85.9608 24.5191 85.9286 24.5191C85.8961 24.5191 85.865 24.5119 85.8342 24.4976C85.8038 24.4833 85.7762 24.4615 85.7519 24.4329C85.7276 24.4042 85.7083 24.3677 85.6939 24.3237C85.6796 24.2797 85.6725 24.2289 85.6725 24.1713V23.5596ZM92.4971 24.1202C92.3694 24.225 92.2438 24.3187 92.1196 24.4007C92.0674 24.435 92.0127 24.469 91.9551 24.5023C91.8975 24.5355 91.8409 24.5652 91.7851 24.591C91.7293 24.6167 91.6753 24.6379 91.6227 24.654C91.5701 24.6701 91.5218 24.6783 91.4782 24.6783C91.4524 24.6783 91.4141 24.6726 91.3637 24.6611C91.3133 24.6497 91.2578 24.6264 91.198 24.591C91.1379 24.5556 91.0782 24.5044 91.0184 24.4379C90.9583 24.371 90.9068 24.2822 90.8625 24.1717C90.7956 24.2404 90.7251 24.3059 90.6503 24.3677C90.5755 24.4296 90.4979 24.4837 90.4178 24.5294C90.3376 24.5752 90.2564 24.6121 90.1745 24.6396C90.0926 24.6672 90.0099 24.6811 89.9269 24.6811C89.8099 24.6811 89.7091 24.6568 89.6236 24.6082C89.5381 24.5595 89.4672 24.4951 89.4107 24.4142C89.3542 24.3334 89.3119 24.2422 89.284 24.1395C89.2561 24.0372 89.2422 23.9313 89.2422 23.8218C89.2422 23.7052 89.2572 23.5871 89.2866 23.4673C89.3162 23.3478 89.3592 23.2319 89.4161 23.1199C89.4726 23.0075 89.5355 22.8906 89.605 22.7682C89.674 22.6459 89.7659 22.5346 89.8801 22.4341C89.9942 22.3335 90.1115 22.258 90.2317 22.2069C90.3523 22.1557 90.4807 22.1239 90.6174 22.111C90.6228 21.8774 90.6475 21.6717 90.6918 21.4939C90.7362 21.3161 90.7838 21.1243 90.8346 20.9197C90.8854 20.7147 90.9512 20.5258 91.0317 20.3533C91.1122 20.1809 91.2002 20.0317 91.2961 19.9058C91.3919 19.7799 91.4943 19.6815 91.6027 19.6106C91.7111 19.5398 91.823 19.504 91.939 19.504C92.0234 19.504 92.0953 19.5262 92.1547 19.5702C92.2141 19.6142 92.262 19.6729 92.2989 19.7459C92.3357 19.8189 92.3622 19.9033 92.3783 19.9999C92.3944 20.0961 92.4026 20.1956 92.4026 20.2983C92.4026 20.3623 92.4019 20.4281 92.4008 20.4961C92.3958 20.7544 92.3557 20.9944 92.2813 21.2166C92.2069 21.4391 92.1332 21.6588 92.0606 21.876C91.9876 22.0931 91.9 22.3081 91.7973 22.5206C91.6402 22.8458 91.5401 23.0669 91.4971 23.1832C91.4878 23.2086 91.4785 23.2394 91.4692 23.2759C91.4599 23.3124 91.451 23.3517 91.4428 23.3946C91.4345 23.4372 91.4274 23.4809 91.4216 23.5252C91.4163 23.5699 91.4134 23.6129 91.4134 23.6547C91.4134 23.7073 91.4163 23.7574 91.4227 23.8046C91.4288 23.8519 91.4388 23.8941 91.4531 23.9313C91.4671 23.9685 91.486 23.9982 91.5097 24.02C91.5333 24.0418 91.5626 24.0526 91.5977 24.0526C91.6317 24.0526 91.6692 24.0458 91.7096 24.0322C91.7501 24.0186 91.7926 24 91.8377 23.9764C91.8828 23.9527 91.9282 23.9259 91.974 23.8962C92.0198 23.8662 92.0645 23.8358 92.1075 23.805C92.2062 23.7324 92.3096 23.6501 92.4176 23.5578L92.4971 24.1202ZM90.6281 22.5278C90.5094 22.5858 90.4038 22.6627 90.3115 22.7575C90.2189 22.8526 90.1416 22.9782 90.0797 23.1338C90.0178 23.2898 89.9706 23.424 89.938 23.5363C89.9058 23.6486 89.8894 23.7499 89.8894 23.8408C89.8894 23.869 89.8933 23.8969 89.9015 23.9252C89.9098 23.9535 89.9244 23.9785 89.9459 24.001C89.9674 24.0236 89.9981 24.0418 90.0375 24.0558C90.0772 24.0697 90.1284 24.0769 90.1913 24.0769C90.2235 24.0769 90.2557 24.0697 90.2872 24.0554C90.3187 24.0411 90.3487 24.0225 90.3773 23.9993C90.406 23.9764 90.4335 23.9499 90.4596 23.9205C90.4858 23.8909 90.5097 23.8604 90.5312 23.8282C90.5816 23.7549 90.6274 23.6719 90.6689 23.5796C90.6632 23.5542 90.6589 23.5138 90.6553 23.4587C90.6518 23.4032 90.6489 23.3192 90.6471 23.2057C90.6453 23.0927 90.6435 22.9997 90.6417 22.9271C90.6399 22.8544 90.6385 22.7886 90.6374 22.7285C90.6364 22.6688 90.6353 22.6197 90.6335 22.5818C90.6317 22.5443 90.6299 22.526 90.6281 22.5278ZM91.9003 20.6886C91.9114 20.5626 91.9171 20.4628 91.9171 20.3891C91.9171 20.2922 91.9086 20.2246 91.891 20.1866C91.8739 20.1487 91.8485 20.1301 91.8155 20.1301C91.7569 20.1301 91.7043 20.1666 91.6563 20.2392C91.6088 20.3118 91.5705 20.4059 91.5419 20.5208C91.5129 20.6356 91.4817 20.7605 91.4478 20.8957C91.4138 21.0306 91.3891 21.163 91.3733 21.2921C91.3576 21.4213 91.3451 21.5382 91.3358 21.642C91.3265 21.7457 91.3197 21.8194 91.3158 21.8631C91.3079 21.9522 91.3014 22.0384 91.2964 22.1214C91.2918 22.2044 91.2882 22.2799 91.2864 22.3482C91.2843 22.4165 91.2836 22.4763 91.2836 22.5271C91.2836 22.5782 91.2836 22.6172 91.2836 22.6448V22.672C91.3834 22.4326 91.4757 22.194 91.5597 21.9561C91.5948 21.8549 91.6295 21.7493 91.6638 21.6395C91.6982 21.5296 91.7322 21.4202 91.7658 21.3121C91.7994 21.2037 91.8281 21.0968 91.8513 20.9905C91.8746 20.8846 91.891 20.7837 91.9003 20.6886ZM100.792 24.6811C100.624 24.6811 100.477 24.65 100.351 24.5878C100.225 24.5255 100.121 24.4418 100.036 24.3366C99.9524 24.2314 99.8894 24.1098 99.8476 23.9717C99.8057 23.8336 99.7846 23.6887 99.7846 23.5367C99.7846 23.4372 99.8032 23.3188 99.8408 23.1814C99.8783 23.044 99.9173 22.922 99.9574 22.8154C99.9975 22.7092 100.048 22.6076 100.109 22.5106C100.17 22.414 100.24 22.3289 100.322 22.2552C100.403 22.1815 100.494 22.1232 100.595 22.0795C100.696 22.0362 100.808 22.0144 100.932 22.0144C101.032 22.0144 101.126 22.0305 101.213 22.0631C101.299 22.0953 101.374 22.1407 101.438 22.199C101.502 22.2573 101.552 22.3278 101.588 22.4104C101.624 22.4931 101.642 22.5854 101.642 22.6877C101.642 22.7968 101.606 22.9188 101.533 23.0544C101.46 23.19 101.374 23.3056 101.277 23.4025C101.18 23.4995 101.064 23.5853 100.93 23.6608C100.796 23.7363 100.65 23.7953 100.493 23.8375C100.52 23.8851 100.547 23.9245 100.573 23.9563C100.599 23.9878 100.626 24.0125 100.653 24.03C100.68 24.0476 100.708 24.0601 100.738 24.0669C100.768 24.074 100.8 24.0772 100.834 24.0772C100.942 24.0772 101.055 24.0561 101.175 24.0139C101.294 23.9717 101.411 23.9188 101.524 23.8554C101.637 23.7921 101.744 23.7234 101.845 23.6486C101.945 23.5739 102.031 23.503 102.101 23.4365L102.449 23.79C102.291 23.9585 102.123 24.1073 101.945 24.2368C101.867 24.2923 101.784 24.347 101.695 24.4007C101.606 24.4543 101.513 24.5023 101.415 24.5438C101.317 24.5853 101.215 24.6185 101.11 24.6436C101.006 24.669 100.9 24.6811 100.792 24.6811ZM100.432 23.3971C100.497 23.3971 100.567 23.381 100.644 23.3485C100.721 23.3159 100.792 23.2741 100.858 23.2233C100.924 23.1725 100.988 23.1038 101.051 23.0179C101.115 22.9317 101.146 22.8605 101.146 22.8043C101.146 22.7253 101.131 22.6602 101.101 22.609C101.072 22.5582 101.035 22.5324 100.992 22.5324C100.914 22.5324 100.848 22.5464 100.793 22.5747C100.738 22.6029 100.692 22.6391 100.655 22.6841C100.618 22.7289 100.588 22.78 100.566 22.8369C100.543 22.8941 100.517 22.965 100.487 23.049C100.458 23.1335 100.441 23.2029 100.437 23.2573C100.434 23.312 100.432 23.3585 100.432 23.3971ZM95.474 23.1882C95.4411 23.1882 95.4078 23.1828 95.3749 23.1721C95.342 23.1614 95.3123 23.1442 95.2858 23.121C95.2597 23.0977 95.2382 23.0677 95.2218 23.0304C95.2053 22.9936 95.1971 22.9492 95.1971 22.897C95.1971 22.8287 95.2107 22.7739 95.2375 22.7324C95.2643 22.6909 95.3008 22.6598 95.347 22.638C95.3931 22.6162 95.4468 22.6026 95.5072 22.5961C95.5681 22.5897 95.6314 22.5858 95.6976 22.584C95.757 22.584 95.8332 22.584 95.9262 22.584C96.0192 22.584 96.1226 22.584 96.2364 22.584C96.3501 22.584 96.47 22.584 96.5962 22.584C96.7225 22.584 96.8481 22.584 96.9737 22.584C97.0993 22.584 97.2209 22.584 97.3386 22.584C97.4563 22.584 97.5629 22.5829 97.6581 22.5815C97.6924 22.5815 97.7207 22.5861 97.7429 22.5951C97.765 22.6044 97.7822 22.6169 97.7947 22.6333C97.8073 22.6498 97.8158 22.668 97.8205 22.6877C97.8251 22.7077 97.8277 22.7285 97.8277 22.7503C97.8277 22.8129 97.8198 22.8705 97.804 22.9235C97.7883 22.9761 97.7608 23.0222 97.7214 23.0619C97.6821 23.1013 97.6298 23.132 97.5644 23.1546C97.4989 23.1768 97.4173 23.1882 97.3193 23.1882H95.474ZM95.474 24.0236C95.4411 24.0236 95.4078 24.0182 95.3749 24.0075C95.342 23.9967 95.3123 23.9796 95.2858 23.9563C95.2597 23.9331 95.2382 23.903 95.2218 23.8662C95.2053 23.8293 95.1971 23.785 95.1971 23.7327C95.1971 23.6644 95.2107 23.6097 95.2375 23.5682C95.2643 23.5267 95.3008 23.4952 95.347 23.4737C95.3931 23.4522 95.4468 23.4383 95.5072 23.4319C95.5681 23.4254 95.6314 23.4215 95.6976 23.4197C95.757 23.4197 95.8332 23.4197 95.9262 23.4197C96.0192 23.4197 96.1226 23.4197 96.2364 23.4197C96.3501 23.4197 96.47 23.4197 96.5962 23.4197C96.7225 23.4197 96.8481 23.4197 96.9737 23.4197C97.0993 23.4197 97.2209 23.4197 97.3386 23.4197C97.4563 23.4197 97.5629 23.4186 97.6581 23.4168C97.6924 23.4168 97.7207 23.4215 97.7429 23.4304C97.765 23.4397 97.7822 23.4522 97.7947 23.4687C97.8073 23.4852 97.8158 23.5034 97.8205 23.5231C97.8251 23.5431 97.8277 23.5639 97.8277 23.5857C97.8277 23.6483 97.8198 23.7059 97.804 23.7588C97.7883 23.8114 97.7608 23.8576 97.7214 23.8969C97.6821 23.9363 97.6298 23.9671 97.5644 23.9896C97.4989 24.0118 97.4173 24.0232 97.3193 24.0232L95.474 24.0236Z" fill="url(#paint16_linear_1_7492)"/>
<path d="M54.6671 104.163H37.7512V100.523H54.6674C54.28 101.736 54.28 102.949 54.6671 104.163Z" fill="url(#paint17_linear_1_7492)"/>
<path d="M55.3382 99.9105C55.3382 100.249 55.1196 100.522 54.8502 100.522H37.7512V99.2983H54.8506C55.12 99.2987 55.3382 99.5727 55.3382 99.9105ZM37.7512 104.163V105.387H54.8506C55.12 105.387 55.3386 105.113 55.3386 104.775C55.3386 104.437 55.12 104.163 54.8506 104.163H37.7512V104.163Z" fill="url(#paint18_linear_1_7492)"/>
<path d="M39.2229 104.163H17.5307C16.8835 104.163 16.359 103.369 16.359 102.391V102.295C16.359 101.316 16.8835 100.523 17.5307 100.523H39.2229C38.8026 101.555 38.7282 102.736 39.2229 104.163Z" fill="white"/>
<path d="M17.563 104.163C16.8983 104.163 16.3595 103.348 16.3595 102.343C16.3595 101.337 16.8983 100.523 17.563 100.523H39.5368C39.7604 100.523 39.9414 100.249 39.9414 99.9108C39.9414 99.5728 39.7604 99.2991 39.5368 99.2991H17.2607C16.1491 99.2991 15.2479 100.662 15.2479 102.343C15.2479 104.024 16.1491 105.387 17.2607 105.387H39.5368C39.7604 105.387 39.9414 105.113 39.9414 104.775C39.9414 104.437 39.7604 104.163 39.5368 104.163H17.563V104.163Z" fill="url(#paint19_linear_1_7492)"/>
<path d="M35.1847 101.417H36.6114V103.431L35.8981 102.768L35.1847 103.431V101.417Z" fill="url(#paint20_linear_1_7492)"/>
<path d="M19.7321 102.782H21.1588V104.796L20.4454 104.133L19.7321 104.796V102.782Z" fill="url(#paint21_linear_1_7492)"/>
<path d="M54.6671 98.1565H37.7512V94.5164H54.6674C54.28 95.7295 54.28 96.943 54.6671 98.1565Z" fill="url(#paint22_linear_1_7492)"/>
<path d="M55.3382 93.9041C55.3382 94.2422 55.1196 94.5159 54.8502 94.5159H37.7512V93.292H54.8506C55.12 93.2923 55.3382 93.5664 55.3382 93.9041ZM37.7512 98.1564V99.3803H54.8506C55.12 99.3803 55.3386 99.1063 55.3386 98.7686C55.3386 98.4305 55.12 98.1568 54.8506 98.1568H37.7512V98.1564Z" fill="url(#paint23_linear_1_7492)"/>
<path d="M39.2229 98.1565H17.5307C16.8835 98.1565 16.359 97.363 16.359 96.3846V96.2883C16.359 95.3095 16.8835 94.5164 17.5307 94.5164H39.2229C38.8026 95.5485 38.7282 96.7298 39.2229 98.1565Z" fill="white"/>
<path d="M17.563 98.1564C16.8983 98.1564 16.3595 97.3415 16.3595 96.3362C16.3595 95.3309 16.8983 94.5163 17.563 94.5163H39.5368C39.7604 94.5163 39.9414 94.2422 39.9414 93.9045C39.9414 93.5664 39.7604 93.2927 39.5368 93.2927H17.2607C16.1491 93.2927 15.2479 94.6554 15.2479 96.3365C15.2479 98.0176 16.1491 99.3803 17.2607 99.3803H39.5368C39.7604 99.3803 39.9414 99.1063 39.9414 98.7686C39.9414 98.4305 39.7604 98.1568 39.5368 98.1568H17.563V98.1564Z" fill="url(#paint24_linear_1_7492)"/>
<path d="M32.92 96.4182H34.3468V98.432L33.6334 97.7691L32.92 98.432V96.4182Z" fill="url(#paint25_linear_1_7492)"/>
<path d="M24.1278 95.3293H25.5545V97.3432L24.8412 96.6802L24.1278 97.3432V95.3293Z" fill="url(#paint26_linear_1_7492)"/>
<path d="M54.6671 92.0687H37.7512V88.4285H54.6674C54.28 89.642 54.28 90.8555 54.6671 92.0687Z" fill="url(#paint27_linear_1_7492)"/>
<path d="M55.3382 87.8167C55.3382 88.1548 55.1196 88.4285 54.8502 88.4285H37.7512V87.2046H54.8506C55.12 87.2049 55.3382 87.4786 55.3382 87.8167ZM37.7512 92.0687V93.2926H54.8506C55.12 93.2926 55.3386 93.0185 55.3386 92.6808C55.3386 92.3427 55.12 92.069 54.8506 92.069H37.7512V92.0687Z" fill="url(#paint28_linear_1_7492)"/>
<path d="M39.2229 92.0687H17.5307C16.8835 92.0687 16.359 91.2752 16.359 90.2967V90.2004C16.359 89.2216 16.8835 88.4285 17.5307 88.4285H39.2229C38.8026 89.4606 38.7282 90.6419 39.2229 92.0687Z" fill="white"/>
<path d="M17.563 92.0688C16.8983 92.0688 16.3595 91.2538 16.3595 90.2485C16.3595 89.2432 16.8983 88.4286 17.563 88.4286H39.5368C39.7604 88.4286 39.9414 88.1546 39.9414 87.8168C39.9414 87.4788 39.7604 87.2051 39.5368 87.2051H17.2607C16.1491 87.2051 15.2479 88.5678 15.2479 90.2489C15.2479 91.93 16.1491 93.2927 17.2607 93.2927H39.5368C39.7604 93.2927 39.9414 93.0186 39.9414 92.6809C39.9414 92.3428 39.7604 92.0692 39.5368 92.0692H17.563V92.0688Z" fill="url(#paint29_linear_1_7492)"/>
<path d="M21.1587 89.3237H22.5858V91.3375L21.8724 90.6746L21.1587 91.3375V89.3237Z" fill="url(#paint30_linear_1_7492)"/>
<path d="M194.101 109.167C194.101 99.6643 189.579 86.7525 186.389 83.1624L151.807 90.1511L150.953 109.167H194.101Z" fill="url(#paint31_linear_1_7492)"/>
<path d="M142.569 28.776C140.876 24.0905 145.997 21.0417 149.41 20.7773C157.767 20.1298 164.288 26.8735 172.03 48.3536C177.809 64.3905 168.692 60.3707 168.692 60.3707L154.878 48.4359L142.569 28.776Z" fill="url(#paint32_linear_1_7492)"/>
<path d="M175.896 65.235L185.691 85.409L151.207 90.7073C151.207 90.7073 136.353 66.5265 135.845 66.5265H136.353C137.58 58.0298 141.533 52.463 148.742 48.2737C150.477 47.2684 152.398 46.3418 154.52 45.4725C157.382 44.299 160.333 43.3724 163.246 42.8C171.452 41.1794 179.341 42.3635 183.992 48.7424C188.435 54.8386 189.916 59.2676 189.916 59.2676L175.896 65.235Z" fill="url(#paint33_linear_1_7492)"/>
<g opacity="0.43">
<mask id="mask0_1_7492" style="mask-type:luminance" maskUnits="userSpaceOnUse" x="135" y="42" width="55" height="49">
<path d="M135.844 66.527C136.352 66.527 151.206 90.7078 151.206 90.7078L185.692 85.408L175.895 65.2344L189.918 59.2699C189.918 59.2699 188.437 54.8405 183.991 48.7425C177.689 40.0994 165.444 40.9935 154.519 45.4722C143.594 49.9513 137.877 55.9835 136.352 66.5273" fill="white"/>
</mask>
<g mask="url(#mask0_1_7492)">
<path d="M183.468 46.3662C183.468 48.2705 181.924 49.8142 180.02 49.8142C178.115 49.8142 176.572 48.2705 176.572 46.3662C176.572 44.4618 178.115 42.9181 180.02 42.9181C181.924 42.9184 183.468 44.4622 183.468 46.3662ZM167.353 44.626C165.448 44.626 163.905 46.1698 163.905 48.0741C163.905 49.9784 165.448 51.5222 167.353 51.5222C169.257 51.5222 170.801 49.9784 170.801 48.0741C170.801 46.1698 169.257 44.626 167.353 44.626ZM163.422 55.3094C161.518 55.3094 159.974 56.8531 159.974 58.7575C159.974 60.6618 161.518 62.2055 163.422 62.2055C165.327 62.2055 166.87 60.6618 166.87 58.7575C166.87 56.8531 165.327 55.3094 163.422 55.3094ZM151.061 53.4827C149.157 53.4827 147.613 55.0264 147.613 56.9307C147.613 58.8351 149.157 60.3788 151.061 60.3788C152.965 60.3788 154.509 58.8351 154.509 56.9307C154.509 55.0264 152.965 53.4827 151.061 53.4827ZM140.679 60.3785C138.774 60.3785 137.23 61.9222 137.23 63.8265C137.23 65.7309 138.774 67.2746 140.679 67.2746C142.583 67.2746 144.127 65.7309 144.127 63.8265C144.127 61.9222 142.583 60.3785 140.679 60.3785ZM152.971 68.7843C151.066 68.7843 149.523 70.3281 149.523 72.2324C149.523 74.1367 151.066 75.6805 152.971 75.6805C154.875 75.6805 156.419 74.1367 156.419 72.2324C156.419 70.3281 154.875 68.7843 152.971 68.7843ZM145.782 77.0331C143.877 77.0331 142.334 78.5769 142.334 80.4812C142.334 82.3856 143.877 83.9293 145.782 83.9293C147.686 83.9293 149.23 82.3856 149.23 80.4812C149.23 78.5769 147.686 77.0331 145.782 77.0331ZM170.137 68.3414C168.233 68.3414 166.689 69.8852 166.689 71.7895C166.689 73.6938 168.233 75.2376 170.137 75.2376C172.042 75.2376 173.585 73.6938 173.585 71.7895C173.585 69.8852 172.042 68.3414 170.137 68.3414ZM180.02 55.3094C178.116 55.3094 176.572 56.8531 176.572 58.7575C176.572 60.6618 178.116 62.2055 180.02 62.2055C181.924 62.2055 183.468 60.6618 183.468 58.7575C183.468 56.8531 181.924 55.3094 180.02 55.3094ZM158.918 81.9505C157.014 81.9505 155.47 83.4943 155.47 85.3986C155.47 87.3029 157.014 88.8467 158.918 88.8467C160.823 88.8467 162.367 87.3029 162.367 85.3986C162.367 83.4943 160.823 81.9505 158.918 81.9505ZM173.068 81.9505C171.164 81.9505 169.62 83.4943 169.62 85.3986C169.62 87.3029 171.164 88.8467 173.068 88.8467C174.973 88.8467 176.517 87.3029 176.517 85.3986C176.517 83.4943 174.973 81.9505 173.068 81.9505Z" fill="white"/>
</g>
</g>
<path opacity="0.4" d="M173.087 59.2693C171.597 59.5852 174.414 66.1039 174.867 67.2888C175.627 69.2743 177.038 72.2609 175.196 74.0325C174.818 74.3953 174.379 74.6876 173.968 75.0121C173.151 75.6582 172.327 76.2964 171.501 76.9311C169.856 78.1932 168.2 79.4397 166.553 80.6972C164.969 81.906 163.367 83.1013 161.872 84.4204C160.482 85.6468 159.153 86.9433 157.705 88.102C156.765 88.8533 155.76 89.5209 154.741 90.1649L185.691 85.4096L176.064 65.5819C175.592 64.8932 173.483 60.0095 173.087 59.2693Z" fill="url(#paint34_linear_1_7492)"/>
<path d="M150.219 50.6221C149.418 48.0746 152.398 46.3423 154.52 45.473C157.382 44.2995 160.303 42.2435 162.051 43.8412C166.477 47.8885 152.057 56.4672 150.219 50.6221Z" fill="url(#paint35_linear_1_7492)"/>
<path d="M157.734 38.7274L161.27 43.9382C161.624 47.6027 153.29 52.1179 152.091 50.1399L149.083 44.087L157.734 38.7274Z" fill="url(#paint36_linear_1_7492)"/>
<path opacity="0.5" d="M153.047 49.1267C154.969 48.4892 159.611 45.4103 159.778 41.7394L157.734 38.7278L149.083 44.0873L151.755 49.4634C152.191 49.3729 152.624 49.267 153.047 49.1267Z" fill="url(#paint37_linear_1_7492)"/>
<path d="M138.994 29.9531C143.638 21.9257 152.682 23.1807 155.977 26.4149C160.262 30.6207 160.85 36.7587 158.33 40.0107C157.503 41.0776 155.207 40.3184 154.019 39.6791" fill="url(#paint38_linear_1_7492)"/>
<path d="M152.481 29.22C154.294 30.9959 155.592 32.6738 156.511 34.2304C156.578 34.1441 156.651 34.0626 156.735 33.9921C157.31 33.5106 158.226 33.498 158.814 33.9638C159.319 34.3635 159.544 35.0146 159.707 35.6374C159.849 36.1823 159.963 36.7479 159.888 37.306C159.812 37.8641 159.518 38.4193 159.019 38.6794C158.804 38.7911 158.552 38.8272 158.311 38.7982C161.468 44.3037 153.253 49.4633 149.083 47.9282C143.434 45.8478 140.146 36.9586 140.146 36.9586L152.481 29.22Z" fill="url(#paint39_linear_1_7492)"/>
<path d="M157.789 35.0475C158.088 35.1935 158.357 35.402 158.574 35.6557C158.746 35.8575 158.887 36.0936 158.934 36.3547C158.981 36.6155 158.924 36.9035 158.745 37.0985C158.565 37.2935 158.254 37.3711 158.02 37.2452C157.839 37.1475 157.726 36.925 157.779 36.7261C157.839 36.5014 158.082 36.3651 158.314 36.3533C158.546 36.3419 158.771 36.4274 158.987 36.5114" stroke="black" stroke-width="0.25755" stroke-miterlimit="10" stroke-linecap="round" stroke-linejoin="round"/>
<path d="M151.006 39.3725C151.033 39.2838 151.105 39.1886 151.19 39.1471C151.281 39.1027 151.39 39.0823 151.489 39.1174C151.519 39.131 151.549 39.1449 151.579 39.1585C151.636 39.1947 151.681 39.2426 151.714 39.302C151.868 39.5209 152.023 39.7399 152.177 39.9588C152.231 40.0354 152.233 40.1724 152.207 40.2576C152.179 40.3463 152.107 40.4414 152.022 40.4829C151.931 40.5273 151.822 40.5477 151.724 40.5126L151.634 40.4715C151.576 40.4354 151.531 40.3878 151.498 40.328C151.344 40.1091 151.189 39.8902 151.035 39.6712C150.981 39.5946 150.979 39.4576 151.006 39.3725Z" fill="black"/>
<path d="M145.218 42.6829C145.246 42.5942 145.318 42.499 145.403 42.4575C145.494 42.4132 145.603 42.3928 145.702 42.4278C145.732 42.4414 145.762 42.4554 145.792 42.469C145.849 42.5051 145.894 42.553 145.927 42.6124C146.081 42.8314 146.236 43.0503 146.39 43.2693C146.444 43.3458 146.446 43.4828 146.42 43.568C146.392 43.6567 146.32 43.7519 146.235 43.7934C146.144 43.8377 146.035 43.8581 145.936 43.8231L145.847 43.7819C145.789 43.7458 145.744 43.6982 145.711 43.6385C145.557 43.4195 145.402 43.2006 145.248 42.9816C145.194 42.9054 145.192 42.7684 145.218 42.6829Z" fill="black"/>
<path d="M149.818 44.5936C149.824 44.5722 149.834 44.5521 149.85 44.5371C149.868 44.5214 149.89 44.5124 149.913 44.5078C149.956 44.4995 150.022 44.5031 150.043 44.5496C150.238 44.9968 150.777 45.1235 151.184 44.8838C151.186 44.8824 151.188 44.8809 151.191 44.8795C151.339 44.79 151.443 44.6437 151.47 44.4716C151.497 44.2971 151.437 44.1139 151.329 43.9769C151.273 43.9064 151.133 43.8377 151.177 43.7268C151.192 43.6871 151.231 43.6617 151.271 43.6467C151.336 43.622 151.4 43.6767 151.442 43.7193C151.492 43.7694 151.54 43.8309 151.581 43.8896C151.672 44.0205 151.726 44.1769 151.734 44.3364C151.744 44.531 151.684 44.7679 151.547 44.9135C151.395 45.0745 151.198 45.1882 150.982 45.2387C150.765 45.2891 150.537 45.2723 150.333 45.1839C150.153 45.1067 149.996 44.9772 149.887 44.8155C149.853 44.7657 149.822 44.7085 149.815 44.6473C149.813 44.6298 149.814 44.6112 149.818 44.5936Z" fill="black"/>
<path d="M148.823 42.2443C148.949 42.5326 149.075 42.821 149.201 43.1093C149.276 43.2796 149.355 43.4556 149.495 43.5773C149.635 43.6989 149.856 43.749 150.008 43.641" stroke="black" stroke-width="0.25755" stroke-miterlimit="10" stroke-linecap="round" stroke-linejoin="round"/>
<path d="M157.409 32.3759C156.896 31.5874 156.383 30.7989 155.87 30.0107C155.502 29.4448 155.115 28.8609 154.541 28.5053C154.256 28.3282 153.789 28.1872 153.367 28.188C153.002 27.5833 152.681 27.1018 152.501 26.9444C148.756 23.6688 139.693 25.3524 138.411 31.6607C137.264 37.3065 140.711 41.0436 140.711 41.0436C140.711 41.0436 141.916 40.4197 143.637 39.4927C144.003 39.296 143.211 36.8232 143.211 36.8232C143.211 36.8232 144.568 39.0566 144.917 38.8642C145.913 38.3143 147.711 37.3423 148.822 36.6958C149.172 36.4926 147.53 34.4015 147.53 34.4015C147.53 34.4015 149.757 36.0847 150.041 35.9134C151.542 35.0068 152.927 34.1203 153.92 33.393C154.154 33.6613 154.374 33.9253 154.55 34.1951C154.849 34.6537 155.743 37.0582 156.377 37.0432C156.945 37.0296 155.249 34.0058 157.643 33.5715C158.068 33.4942 157.644 32.7376 157.409 32.3759Z" fill="url(#paint40_linear_1_7492)"/>
<path d="M143.725 41.6525C143.531 41.2568 143.673 40.7281 144.04 40.4834C144.406 40.2386 144.949 40.3102 145.24 40.6415" stroke="black" stroke-width="0.348313" stroke-miterlimit="10" stroke-linecap="round" stroke-linejoin="round"/>
<path d="M149.505 38.4262C149.311 38.0309 149.454 37.5017 149.82 37.257C150.187 37.0123 150.73 37.0839 151.021 37.4152" stroke="black" stroke-width="0.348313" stroke-miterlimit="10" stroke-linecap="round" stroke-linejoin="round"/>
<path d="M146.029 64.7625L150.09 74.2777" stroke="black" stroke-width="0.357758" stroke-miterlimit="10" stroke-linecap="round" stroke-linejoin="round"/>
<path d="M175.895 65.2338L173.087 59.2693" stroke="black" stroke-width="0.357758" stroke-miterlimit="10" stroke-linecap="round" stroke-linejoin="round"/>
<path d="M49.2535 67.1016C49.6041 60.3962 52.0244 44.1647 66.4499 43.5798C80.597 43.0063 94.9374 49.8066 98.588 52.9169C105.467 58.7784 111.343 71.3808 111.343 71.3808L96.8825 80.8875L96.299 105.387H66.0055V68.3431C62.297 66.6634 54.6296 66.2394 49.2535 67.1016Z" fill="url(#paint41_linear_1_7492)"/>
<path opacity="0.4" d="M80.3663 95.4442C78.7285 94.2461 77.1583 92.9524 75.7108 91.5282C74.2651 90.1058 72.901 88.5524 71.8338 86.8223C69.6626 83.3027 68.7653 79.1716 68.1546 75.1311C67.5722 71.2795 67.271 67.3663 66.3734 63.5691C66.2864 63.8503 66.2517 64.1565 66.2199 64.4274C66.1619 64.9225 65.9365 68.3115 66.0059 68.343V105.387H96.1892C94.4513 104.224 92.6621 103.135 90.8687 102.065C87.3151 99.9459 83.7103 97.8906 80.3663 95.4442Z" fill="url(#paint42_linear_1_7492)"/>
<path d="M66.0926 65.8759C65.2429 65.2842 64.2058 64.9923 63.2008 64.7977C62.2192 64.6077 61.2221 64.5118 60.2257 64.4381C59.0913 64.354 57.9543 64.3004 56.8167 64.2825C54.3403 64.2435 51.8445 64.3834 49.4214 64.9211C49.3402 65.721 49.2873 66.4559 49.2533 67.1016C54.5932 66.2451 62.193 66.6587 65.9295 68.3105C65.9409 67.493 65.8475 66.6648 66.0926 65.8759Z" fill="url(#paint43_linear_1_7492)"/>
<path d="M107.808 70.5343C106.544 71.0291 105.317 71.6144 104.115 72.2444C103.035 72.8103 101.957 73.3928 100.934 74.0578C98.9083 75.3755 96.9467 77.0079 95.6824 79.0972C96.0745 79.7 96.5052 80.2757 96.9252 80.8592L111.343 71.3804C111.343 71.3804 111.04 70.7314 110.495 69.666C109.581 69.8907 108.685 70.1912 107.808 70.5343Z" fill="url(#paint44_linear_1_7492)"/>
<path d="M49.2535 67.1016V101.364C49.2535 103.585 51.0545 105.386 53.2762 105.386H70.5111C73.4261 105.386 70.2578 101.055 66.0055 100.743V68.3426C61.2359 66.293 55.2195 66.22 49.2535 67.1016Z" fill="url(#paint45_linear_1_7492)"/>
<path d="M95.6437 65.4131V79.3356" stroke="black" stroke-width="0.357758" stroke-miterlimit="10" stroke-linecap="round" stroke-linejoin="round"/>
<path d="M66.0062 68.3431C66.0062 66.0703 66.2048 63.8636 66.6015 63.0415" stroke="black" stroke-width="0.357758" stroke-miterlimit="10" stroke-linecap="round" stroke-linejoin="round"/>
<path d="M88.5536 52.8074C88.5536 52.8074 87.4657 56.4382 84.8122 56.5187C77.1147 56.752 79.746 47.1394 79.746 47.1394L88.5536 52.8074Z" fill="url(#paint46_linear_1_7492)"/>
<path opacity="0.5" d="M87.7337 54.545C88.2975 53.6581 88.5533 52.8074 88.5533 52.8074L79.7457 47.1394C79.7457 47.1394 79.1643 49.2645 79.3482 51.4919C81.6157 54.8934 86.7148 55.1696 87.7337 54.545Z" fill="url(#paint47_linear_1_7492)"/>
<path d="M96.2994 105.386C96.2994 105.386 94.6137 83.8091 97.6653 79.3357C105.407 67.9869 124.491 68.5364 134.517 68.9099C149.967 69.4855 154.847 77.9479 156.83 92.3613L141.018 93.5501C141.018 93.5501 141.8 105.387 141.449 105.387C141.097 105.387 96.2994 105.386 96.2994 105.386Z" fill="url(#paint48_linear_1_7492)"/>
<path opacity="0.4" d="M126.915 69.0512C127.545 69.2347 128.18 69.2909 128.832 69.3005C129.225 69.3063 129.606 69.3302 129.95 69.5399C130.225 69.7073 130.454 69.9584 130.628 70.2275C130.952 70.7301 131.234 71.2582 131.565 71.7569C131.898 72.2592 132.291 72.8642 132.839 73.155C133.44 73.4738 133.816 72.8881 134.032 72.3937C134.09 72.2595 134.302 72.2352 134.361 72.3848C134.672 73.1679 135.822 74.5617 136.636 73.54C136.726 73.4265 136.942 73.4541 136.957 73.6172C137.037 74.4998 138.48 74.732 138.847 73.9292C138.906 73.7997 139.12 73.7661 139.176 73.9203C139.401 74.5309 140.4 74.9885 141.012 74.7771C141.999 74.4361 141.837 72.8813 141.711 72.096C141.619 71.5222 141.469 70.9562 141.265 70.4121C141.181 70.1888 141.088 69.9592 140.975 69.7413C139.058 69.2791 136.915 68.9989 134.517 68.9099C132.133 68.8211 129.233 68.7242 126.098 68.7778C126.368 68.8755 126.639 68.9707 126.915 69.0512Z" fill="url(#paint49_linear_1_7492)"/>
<path opacity="0.4" d="M139.21 87.4189C139.198 88.1352 139.743 92.4798 139.743 92.4798C139.743 92.4798 138.982 92.3653 138.6 92.3206C135.428 91.9496 113.528 90.3976 102.048 94.0357C99.911 94.7129 97.8707 95.6631 95.8801 96.6917C95.9964 101.504 96.2998 105.387 96.2998 105.387C96.2998 105.387 141.097 105.387 141.449 105.387C141.731 105.387 141.284 97.7639 141.096 94.7544C140.457 92.3013 140.282 89.7308 139.21 87.4189Z" fill="url(#paint50_linear_1_7492)"/>
<path opacity="0.38" d="M118.552 79.8335C119.409 80.3534 120.457 80.5902 121.452 80.612C122.444 80.6338 123.444 80.392 124.293 79.8743C125.139 79.3584 125.801 78.5764 126.206 77.6755C126.698 76.5794 126.777 75.3591 126.832 74.1738C126.917 72.3278 126.729 70.4363 125.966 68.7795C122.237 68.8482 118.183 69.1369 114.254 69.9133C113.683 71.6448 114.192 73.6511 114.896 75.2614C115.668 77.0259 116.875 78.8172 118.552 79.8335Z" fill="url(#paint51_linear_1_7492)"/>
<path d="M106.921 100.649C107.244 95.3784 108.81 93.0347 121.58 93.0232C134.35 93.0118 141.019 93.5495 141.019 93.5495C146.83 92.4061 152.186 91.8927 156.83 92.3607C156.83 92.3607 157.742 103.236 154.908 106.042C152.074 108.849 107.351 105.386 107.351 105.386L106.921 100.649Z" fill="url(#paint52_linear_1_7492)"/>
<path opacity="0.3" d="M156.83 92.3608C152.921 91.9669 148.506 92.2702 143.74 93.0577C143.702 93.8394 143.601 94.6164 143.382 95.3706C143.031 96.578 142.346 97.6434 141.402 98.473C139.285 100.334 136.338 100.983 133.604 101.217C130.686 101.466 127.755 101.261 124.837 101.102C121.41 100.914 117.99 101.019 114.565 101.23C112.049 101.385 109.536 101.585 107.019 101.729L107.351 105.386C107.351 105.386 152.073 108.849 154.908 106.042C157.742 103.236 156.83 92.3608 156.83 92.3608Z" fill="url(#paint53_linear_1_7492)"/>
<path d="M139.255 86.7524C140.076 89.1294 140.784 91.4523 141.019 93.5498" stroke="black" stroke-width="0.357758" stroke-miterlimit="10" stroke-linecap="round" stroke-linejoin="round"/>
<path d="M110.637 85.2261V94.1994" stroke="black" stroke-width="0.357758" stroke-miterlimit="10" stroke-linecap="round" stroke-linejoin="round"/>
<path d="M116.819 75.3513C116.819 75.3513 117.806 78.6445 120.213 78.7175C127.194 78.9289 124.808 70.2107 124.808 70.2107L116.819 75.3513Z" fill="url(#paint54_linear_1_7492)"/>
<path opacity="0.5" d="M120.178 77.1426C121.422 77.0052 122.635 76.6235 123.762 76.0833C124.146 75.8994 124.584 75.6704 124.97 75.3824C125.569 72.998 124.808 70.2107 124.808 70.2107L116.819 75.3513C116.819 75.3513 117.12 76.3477 117.79 77.2567C118.587 77.2403 119.385 77.2303 120.178 77.1426Z" fill="url(#paint55_linear_1_7492)"/>
<path d="M218.023 110.999H3.25082C1.70102 110.999 0.444214 109.743 0.444214 108.193C0.444214 106.643 1.70066 105.386 3.25082 105.386H218.023C219.573 105.386 220.83 106.643 220.83 108.193C220.83 109.743 219.573 110.999 218.023 110.999Z" fill="url(#paint56_linear_1_7492)"/>
<path opacity="0.37" d="M218.023 105.386H216.977C217.065 105.658 217.114 105.948 217.114 106.249C217.114 107.799 215.857 109.056 214.307 109.056H0.580933C0.94513 110.183 2.0023 111 3.25088 111H218.023C219.573 111 220.83 109.743 220.83 108.193C220.83 106.643 219.573 105.386 218.023 105.386Z" fill="url(#paint57_linear_1_7492)"/>
<path d="M133.1 105.387H115.143C114.361 105.387 113.726 104.752 113.726 103.969C113.726 103.187 114.36 102.553 115.143 102.553H133.1C133.882 102.553 134.517 103.187 134.517 103.969C134.517 104.752 133.882 105.387 133.1 105.387Z" fill="url(#paint58_linear_1_7492)"/>
<path d="M115.804 105.387H77.6874C77.2867 105.387 76.9236 105.151 76.7611 104.784L66.0946 80.7604C65.7969 80.0903 66.2878 79.3354 67.0208 79.3354H105.138C105.538 79.3354 105.902 79.5716 106.064 79.9376L116.731 103.961C117.028 104.632 116.538 105.387 115.804 105.387Z" fill="url(#paint59_linear_1_7492)"/>
<path d="M116.794 105.319C116.404 105.493 115.946 105.318 115.772 104.928L104.792 80.3186C104.617 79.9283 104.793 79.4707 105.183 79.2969C105.573 79.1226 106.031 79.2979 106.205 79.6883L117.185 104.297C117.36 104.688 117.184 105.145 116.794 105.319Z" fill="url(#paint60_linear_1_7492)"/>
<path opacity="0.4" d="M94.6251 93.0235C95.9073 95.5879 94.868 97.6668 92.3032 97.6668C89.7388 97.6668 86.6202 95.5879 85.338 93.0235C84.0558 90.4591 85.0951 88.3801 87.6599 88.3801C90.2246 88.3801 93.3429 90.4587 94.6251 93.0235Z" fill="url(#paint61_linear_1_7492)"/>
<path d="M81.8571 35.2196C80.4575 37.4187 79.551 39.3996 78.9943 41.1713C78.9077 41.1004 78.8158 41.036 78.7149 40.9849C78.0269 40.6375 77.1078 40.8385 76.6281 41.4414C76.2163 41.9587 76.143 42.6624 76.1258 43.3235C76.1108 43.9017 76.1283 44.4941 76.3336 45.0347C76.539 45.5753 76.9629 46.0622 77.5232 46.206C77.764 46.2679 78.0244 46.245 78.2587 46.1598C76.3848 52.4034 86.7226 55.3531 90.0973 53.5053C94.8129 50.923 96.0007 40.084 96.0007 40.084L81.8571 35.2196Z" fill="url(#paint62_linear_1_7492)"/>
<path d="M85.1327 39.0329C85.3073 39.9438 86.0579 40.7172 86.9626 40.9197C87.8678 41.1218 88.8759 40.7416 89.4219 39.9917C89.4548 40.782 90.0526 41.5154 90.8203 41.7068C91.5877 41.8982 92.4603 41.5311 92.8599 40.8485C92.4925 41.2818 92.5433 41.9705 92.8796 42.4287C93.2159 42.887 93.7761 43.1371 94.3374 43.2255C95.6379 43.4297 97.0317 42.7919 97.7276 41.6742C98.9289 42.0026 100.319 41.1648 100.589 39.9488C100.859 38.7331 99.9553 37.3851 98.7278 37.1736C99.1375 36.2746 98.755 35.0933 97.8964 34.6046C97.0378 34.1159 95.8271 34.3903 95.263 35.2013C95.888 34.8486 96.0264 33.9291 95.6644 33.3095C95.3023 32.6899 94.5732 32.3582 93.8584 32.2935C93.1436 32.2287 92.4299 32.3911 91.7305 32.5528C91.4836 31.7032 90.767 31.007 89.9106 30.7844C89.0544 30.5619 88.0892 30.8213 87.4599 31.4431C87.1594 30.8145 86.4242 30.4256 85.7359 30.5308C85.0472 30.636 84.4619 31.2266 84.3624 31.916C83.5646 31.5264 82.7078 31.1265 81.827 31.2395C80.9462 31.3526 80.1066 32.2183 80.3702 33.0662C78.7685 33.0115 77.3218 34.2719 76.8005 35.7873C76.2789 37.3028 75.9805 40.9709 77.5797 40.86C80.0626 40.6882 78.5267 44.2969 79.5048 43.9993C80.3652 43.7374 80.1058 40.5745 80.7448 40.0439C81.2983 39.5846 81.837 39.5584 82.5332 39.6039C82.8062 39.6221 85.2658 39.727 85.1327 39.0329Z" fill="url(#paint63_linear_1_7492)"/>
<path d="M77.9066 42.2864C77.6408 42.5025 77.4201 42.7736 77.263 43.0781C77.1382 43.3199 77.0523 43.5893 77.0659 43.8612C77.0795 44.1331 77.2033 44.4079 77.4287 44.561C77.654 44.7141 77.9832 44.7191 78.1871 44.5388C78.3456 44.3989 78.4064 44.1499 78.3073 43.9632C78.1953 43.7525 77.9206 43.6723 77.6859 43.7149C77.4508 43.7575 77.2462 43.8956 77.0491 44.0304" stroke="black" stroke-width="0.264526" stroke-miterlimit="10" stroke-linecap="round" stroke-linejoin="round"/>
<path d="M85.7005 45.0307C85.6522 44.9485 85.5581 44.8701 85.4633 44.8483C85.3617 44.825 85.2476 44.83 85.1575 44.8884C85.1306 44.9091 85.1038 44.9298 85.077 44.9502C85.0279 44.9996 84.994 45.0583 84.975 45.1255C84.8716 45.3806 84.7682 45.6357 84.6652 45.8908C84.6291 45.9799 84.6591 46.1176 84.7053 46.1967C84.7536 46.279 84.8476 46.3573 84.9424 46.3791C85.044 46.4024 85.1582 46.3974 85.2483 46.3391L85.3285 46.2772C85.3778 46.2278 85.4118 46.1691 85.4304 46.1019C85.5338 45.8468 85.6372 45.5917 85.7402 45.3366C85.7764 45.2475 85.7467 45.1098 85.7005 45.0307Z" fill="black"/>
<path d="M92.2613 46.993C92.213 46.9107 92.1189 46.8324 92.0241 46.8106C91.9225 46.7873 91.8084 46.7923 91.7183 46.8506C91.6914 46.8714 91.6646 46.8921 91.6378 46.9125C91.5887 46.9623 91.5548 47.0206 91.5358 47.0878C91.4324 47.3429 91.3294 47.598 91.226 47.8531C91.1898 47.9422 91.2199 48.0799 91.266 48.159C91.3143 48.2412 91.4084 48.3196 91.5032 48.3414C91.6048 48.3647 91.719 48.3597 91.8091 48.3013L91.8896 48.2394C91.9386 48.1901 91.973 48.1318 91.9916 48.0641C92.095 47.8091 92.1984 47.554 92.3014 47.2989C92.3372 47.2098 92.3075 47.0721 92.2613 46.993Z" fill="black"/>
<path d="M88.1057 49.9768C88.0953 49.9564 88.0803 49.9389 88.0606 49.9278C88.0395 49.916 88.0152 49.9124 87.9912 49.9131C87.9465 49.9146 87.8806 49.9343 87.871 49.9851C87.7798 50.4781 87.2703 50.7303 86.8074 50.5854C86.8049 50.5847 86.802 50.5836 86.7995 50.5829C86.6306 50.5281 86.4922 50.4061 86.4249 50.2398C86.3569 50.0713 86.3752 49.8742 86.4514 49.7117C86.4907 49.628 86.6145 49.5271 86.5451 49.4262C86.5204 49.3901 86.4754 49.374 86.4321 49.3683C86.3612 49.359 86.3101 49.4284 86.2775 49.481C86.2392 49.5429 86.2053 49.6155 86.1784 49.6838C86.118 49.8359 86.1001 50.0051 86.1294 50.1664C86.1652 50.3632 86.2807 50.5864 86.4518 50.6999C86.641 50.8254 86.865 50.8934 87.0925 50.8934C87.3207 50.8934 87.5451 50.8233 87.7293 50.6873C87.891 50.5682 88.0173 50.4022 88.0896 50.2147C88.1117 50.1571 88.1296 50.0924 88.1221 50.0301C88.1196 50.0115 88.1142 49.9933 88.1057 49.9768Z" fill="black"/>
<path d="M88.5535 47.3945C88.4945 47.7122 88.4355 48.0303 88.3765 48.348C88.3418 48.5354 88.3038 48.73 88.1918 48.8846C88.0799 49.0391 87.8702 49.1404 87.6938 49.0681" stroke="black" stroke-width="0.264526" stroke-miterlimit="10" stroke-linecap="round" stroke-linejoin="round"/>
<path d="M92.3172 44.2493C90.9598 44.2493 89.7914 45.0675 89.2748 46.236C89.0491 46.0818 88.7464 45.9916 88.4309 45.9666C88.4877 45.7143 88.5203 45.4532 88.5203 45.1838C88.5203 43.2172 86.9204 41.6169 84.9538 41.6169C82.9872 41.6169 81.3873 43.2168 81.3873 45.1838C81.3873 47.1504 82.9872 48.7506 84.9538 48.7506C86.3562 48.7506 87.5683 47.9349 88.1507 46.7551C88.5257 46.7279 88.8208 46.8534 88.8645 46.9143C88.8924 47.0051 88.9514 47.077 89.0247 47.1257C89.0047 47.2731 88.9907 47.4226 88.9907 47.5754C88.9907 49.4096 90.483 50.9018 92.3172 50.9018C94.1514 50.9018 95.6436 49.4096 95.6436 47.5754C95.6436 45.7415 94.1514 44.2493 92.3172 44.2493ZM84.9538 47.9571C83.4248 47.9571 82.1808 46.7132 82.1808 45.1841C82.1808 43.6551 83.4248 42.4112 84.9538 42.4112C86.4829 42.4112 87.7268 43.6551 87.7268 45.1841C87.7268 46.7128 86.4829 47.9571 84.9538 47.9571ZM92.3172 50.162C90.8912 50.162 89.731 49.0018 89.731 47.5758C89.731 46.1497 90.8912 44.9895 92.3172 44.9895C93.7432 44.9895 94.9034 46.1497 94.9034 47.5758C94.9034 49.0018 93.7432 50.162 92.3172 50.162Z" fill="url(#paint64_linear_1_7492)"/>
<path d="M86.0986 41.4689C86.27 41.05 86.7734 40.7985 87.2113 40.9133C87.6491 41.0282 87.9647 41.494 87.9085 41.9433M94.3285 44.1832C94.3847 43.7342 94.0691 43.2681 93.6312 43.1532C93.1933 43.0384 92.69 43.2899 92.5186 43.7088" stroke="black" stroke-width="0.357758" stroke-miterlimit="10" stroke-linecap="round" stroke-linejoin="round"/>
<path d="M64.2002 101.46C66.4308 101.131 70.8409 103.924 69.1934 105.386M66.9378 105.386C68.357 103.576 63.5666 101.764 61.6998 101.764M64.5175 105.386C65.6194 104.35 63.8156 102.322 59.0803 102.322" stroke="black" stroke-width="0.382586" stroke-miterlimit="10" stroke-linecap="round" stroke-linejoin="round"/>
<path d="M137.896 80.9315C142.316 74.0121 150.09 74.2779 150.09 74.2779C153.324 70.6667 160.338 69.3802 165.573 70.574L165.97 71.9396C163.73 71.0402 154.474 70.7157 150.706 75.5003C150.706 75.5003 142.756 75.436 139.255 82.0022L137.896 80.9315Z" fill="white"/>
<path d="M149.478 86.225L139.255 82.002C141.244 78.4144 144.68 75.9513 150.706 75.5001C154.58 71.6203 159.817 70.7624 165.97 71.9394L171.598 77.6316L155.653 82.4614L149.478 86.225Z" fill="url(#paint65_linear_1_7492)"/>
<path d="M171.22 76.4522L165.574 70.5742L165.97 71.9398L171.598 77.6321L171.22 76.4522Z" fill="url(#paint66_linear_1_7492)"/>
<path d="M189.917 59.2693C193.348 67.7481 199.034 80.6818 186.658 85.074C174.464 89.4018 161.889 89.6604 154.149 87.0735C148.961 85.3391 147.463 84.2179 146.287 83.1621C144.741 81.7744 145.451 81.0163 146.453 81.4896C144.609 80.8467 145.424 79.3681 146.995 79.9709C146.02 79.3681 145.393 77.6434 148.059 78.3245C145.942 77.7342 147.359 76.0717 152.765 77.0481C154.017 77.2742 157.679 77.3607 157.679 77.3607C157.679 77.3607 155.426 73.7628 156.83 73.707C158.403 73.6443 159.63 75.3952 160.508 75.7973C164.014 77.404 172.645 76.2012 179.091 73.527L175.895 65.2345C180.08 62.39 184.616 60.1587 189.917 59.2693Z" fill="url(#paint67_linear_1_7492)"/>
<path d="M179.091 73.5267L181.967 72.5171" stroke="black" stroke-width="0.357758" stroke-miterlimit="10" stroke-linecap="round" stroke-linejoin="round"/>
<path d="M147.851 78.2749C150.047 78.955 152.181 79.2645 154.486 79.4977" stroke="black" stroke-width="0.357758" stroke-miterlimit="10" stroke-linecap="round" stroke-linejoin="round"/>
<path d="M146.954 79.9692C149.129 80.762 151.384 81.3373 153.673 81.6836" stroke="black" stroke-width="0.357758" stroke-miterlimit="10" stroke-linecap="round" stroke-linejoin="round"/>
<path d="M146.228 81.3801C148.417 82.3164 150.482 83.0161 152.947 83.7771" stroke="black" stroke-width="0.357758" stroke-miterlimit="10" stroke-linecap="round" stroke-linejoin="round"/>
<path d="M205.55 105.386H184.05V90.6358C184.05 89.5868 184.9 88.7368 185.949 88.7368H203.651C204.699 88.7368 205.55 89.5868 205.55 90.6358V105.386Z" fill="url(#paint68_linear_1_7492)"/>
<path opacity="0.26" d="M203.651 88.7366H198.767C199.816 88.7366 200.666 91.6383 200.666 92.6869C200.666 105.826 184.05 105.386 184.05 105.386H205.55V90.6355C205.55 89.587 204.7 88.7366 203.651 88.7366Z" fill="url(#paint69_linear_1_7492)"/>
<path d="M182.255 104.163H165.339V100.523H182.255C181.868 101.736 181.868 102.949 182.255 104.163Z" fill="white"/>
<path d="M182.926 99.9105C182.926 100.249 182.708 100.522 182.438 100.522H165.339V99.2983H182.438C182.708 99.2987 182.926 99.5727 182.926 99.9105ZM165.339 104.163V105.387H182.438C182.708 105.387 182.926 105.113 182.926 104.775C182.926 104.437 182.708 104.163 182.438 104.163H165.339V104.163Z" fill="url(#paint70_linear_1_7492)"/>
<path d="M166.811 104.163H145.119C144.471 104.163 143.947 103.369 143.947 102.391V102.295C143.947 101.316 144.471 100.523 145.119 100.523H166.811C166.391 101.555 166.316 102.736 166.811 104.163Z" fill="url(#paint71_linear_1_7492)"/>
<path d="M145.151 104.163C144.486 104.163 143.947 103.348 143.947 102.343C143.947 101.337 144.486 100.523 145.151 100.523H167.124C167.348 100.523 167.529 100.249 167.529 99.9108C167.529 99.5728 167.348 99.2991 167.124 99.2991H144.848C143.737 99.2991 142.836 100.662 142.836 102.343C142.836 104.024 143.737 105.387 144.848 105.387H167.124C167.348 105.387 167.529 105.113 167.529 104.775C167.529 104.437 167.348 104.163 167.124 104.163H145.151V104.163Z" fill="url(#paint72_linear_1_7492)"/>
<path d="M162.772 101.417H164.199V103.431L163.486 102.768L162.772 103.431V101.417Z" fill="url(#paint73_linear_1_7492)"/>
<path d="M147.32 102.782H148.747V104.796L148.033 104.133L147.32 104.796V102.782Z" fill="url(#paint74_linear_1_7492)"/>
<path d="M182.255 98.1565H165.339V94.5164H182.255C181.868 95.7295 181.868 96.943 182.255 98.1565Z" fill="white"/>
<path d="M182.926 93.9041C182.926 94.2422 182.708 94.5159 182.438 94.5159H165.339V93.292H182.438C182.708 93.2923 182.926 93.5664 182.926 93.9041ZM165.339 98.1564V99.3803H182.438C182.708 99.3803 182.926 99.1063 182.926 98.7686C182.926 98.4305 182.708 98.1568 182.438 98.1568H165.339V98.1564Z" fill="url(#paint75_linear_1_7492)"/>
<path d="M166.811 98.1565H145.119C144.471 98.1565 143.947 97.363 143.947 96.3846V96.2883C143.947 95.3095 144.471 94.5164 145.119 94.5164H166.811C166.391 95.5485 166.316 96.7298 166.811 98.1565Z" fill="url(#paint76_linear_1_7492)"/>
<path d="M145.151 98.1564C144.486 98.1564 143.947 97.3415 143.947 96.3362C143.947 95.3309 144.486 94.5163 145.151 94.5163H167.124C167.348 94.5163 167.529 94.2422 167.529 93.9045C167.529 93.5664 167.348 93.2927 167.124 93.2927H144.848C143.737 93.2927 142.836 94.6554 142.836 96.3365C142.836 98.0176 143.737 99.3803 144.848 99.3803H167.124C167.348 99.3803 167.529 99.1063 167.529 98.7686C167.529 98.4305 167.348 98.1568 167.124 98.1568H145.151V98.1564Z" fill="url(#paint77_linear_1_7492)"/>
<path d="M160.508 96.4182H161.935V98.432L161.221 97.7691L160.508 98.432V96.4182Z" fill="url(#paint78_linear_1_7492)"/>
<path d="M151.716 95.3293H153.143V97.3432L152.429 96.6802L151.716 97.3432V95.3293Z" fill="url(#paint79_linear_1_7492)"/>
<path d="M197.538 88.7366C199.697 88.7091 205.25 87.4022 205.531 85.1401C205.602 84.5695 204.825 84.2121 204.251 84.1788C203.677 84.1455 203.122 84.3645 202.588 84.5798C200.439 85.447 198.291 86.3143 196.142 87.1815C198.317 85.7375 200.492 84.2936 202.668 82.8497C203.758 82.126 204.986 81.1236 204.827 79.8245C204.679 78.6071 203.258 77.8694 202.045 78.0547C200.833 78.24 199.831 79.0847 198.985 79.9723C197.068 81.9836 195.58 84.4035 194.651 87.0226C195.404 83.7395 196.157 80.456 196.91 77.1725C197.132 76.2033 197.356 75.2066 197.208 74.2235C197.061 73.2404 196.455 72.2597 195.504 71.9675C194.446 71.6415 193.275 72.2758 192.659 73.1964C192.042 74.1165 191.865 75.2567 191.766 76.36C191.415 80.2331 191.827 84.1738 192.972 87.8905C192.172 84.6128 190.565 81.5353 188.331 79.0063C187.79 78.3928 187.191 77.7964 186.436 77.4794C185.682 77.1625 184.736 77.1807 184.119 77.7181C183.513 78.2454 183.357 79.1541 183.54 79.9362C183.723 80.7182 184.19 81.4008 184.672 82.043C186.61 84.6235 188.961 86.8924 191.609 88.737H197.538V88.7366Z" fill="url(#paint80_linear_1_7492)"/>
<path d="M213.881 31.1973H180.675C179.147 31.1973 177.909 29.9587 177.909 28.4311C177.909 26.9031 179.147 25.6649 180.675 25.6649H213.881C215.409 25.6649 216.647 26.9035 216.647 28.4311C216.647 29.9587 215.409 31.1973 213.881 31.1973Z" fill="url(#paint81_linear_1_7492)"/>
<path d="M183.179 39.003C182.294 39.003 181.576 38.2854 181.576 37.3999V31.1907H184.783V37.3999C184.783 38.2854 184.065 39.003 183.179 39.003ZM212.98 31.191H209.773V37.4003C209.773 38.2857 210.491 39.0034 211.376 39.0034C212.262 39.0034 212.98 38.2857 212.98 37.4003V31.191Z" fill="url(#paint82_linear_1_7492)"/>
<path d="M190.164 25.6578H185.589C185.328 25.6578 185.117 25.4468 185.117 25.186V2.37532C185.117 2.11452 185.329 1.90344 185.589 1.90344H190.164C190.425 1.90344 190.636 2.11452 190.636 2.37532V25.186C190.636 25.4464 190.424 25.6578 190.164 25.6578Z" fill="url(#paint83_linear_1_7492)"/>
<path d="M195.131 25.658H191.305C190.935 25.658 190.635 25.3586 190.635 24.989V4.56C190.635 4.19043 190.935 3.89099 191.305 3.89099H195.131C195.501 3.89099 195.8 4.19043 195.8 4.56V24.989C195.8 25.3586 195.501 25.658 195.131 25.658Z" fill="url(#paint84_linear_1_7492)"/>
<path d="M200.343 25.6579H196.422C196.079 25.6579 195.8 25.3796 195.8 25.0361V6.64131C195.8 6.29786 196.079 6.01917 196.422 6.01917H200.343C200.686 6.01917 200.964 6.2975 200.964 6.64131V25.0361C200.964 25.3792 200.686 25.6579 200.343 25.6579Z" fill="url(#paint85_linear_1_7492)"/>
<path d="M208.887 24.878L205.197 25.7162C204.73 25.8221 204.266 25.5298 204.159 25.0626L200.913 10.7691C200.807 10.3022 201.099 9.83749 201.567 9.73123L205.257 8.89301C205.724 8.78675 206.189 9.0794 206.295 9.54663L209.541 23.8401C209.647 24.3074 209.354 24.7721 208.887 24.878Z" fill="url(#paint86_linear_1_7492)"/>
<path d="M126.501 68.427C125.787 67.5044 128.321 65.6862 131.831 65.604C132.312 65.2684 134.158 65.3371 134.57 65.897C134.971 65.5528 137.011 65.9968 137.672 66.8983C138.398 66.39 140.68 67.9129 141.127 69.9926C141.691 72.6114 141.527 74.7504 140.456 74.4313C139.385 74.1118 139.206 71.1227 139.206 71.1227C139.206 71.1227 139.146 74.1275 138.276 74.0016C137.084 73.8292 136.769 70.3482 136.769 70.3482C136.769 70.3482 137.239 73.0074 136.28 73.2045C135.322 73.4016 133.899 69.4416 133.899 69.4416C133.899 69.4416 134.774 72.4225 133.346 72.5695C131.918 72.7165 132.014 69.2073 129.996 68.8009C128.177 68.4353 127.215 69.3497 126.501 68.427Z" fill="url(#paint87_linear_1_7492)"/>
<path d="M131.832 65.604C132.866 66.4186 133.611 68.2471 133.894 69.2785" stroke="black" stroke-width="0.342052" stroke-miterlimit="10" stroke-linecap="round" stroke-linejoin="round"/>
<path d="M134.57 65.897C135.685 66.9592 136.639 69.3518 136.769 70.3482" stroke="black" stroke-width="0.342052" stroke-miterlimit="10" stroke-linecap="round" stroke-linejoin="round"/>
<path d="M137.672 66.8982C138.146 67.6981 139.22 70.1123 139.207 71.1226" stroke="black" stroke-width="0.342052" stroke-miterlimit="10" stroke-linecap="round" stroke-linejoin="round"/>
<path d="M122.051 55.7938C123.637 55.0822 124.413 54.4304 126.5 55.7061C128.587 56.9819 129.197 62.6073 128.764 64.2762C128.331 65.9451 127.755 67.0917 127.755 67.0917L123.937 64.2633L122.051 55.7938Z" fill="url(#paint88_linear_1_7492)"/>
<path d="M123.693 58.5852C124.81 60.9403 125.464 63.0185 125.798 64.8449C125.893 64.7851 125.992 64.7326 126.098 64.6946C126.824 64.4349 127.711 64.7479 128.113 65.4055C128.457 65.9697 128.443 66.6773 128.379 67.3352C128.322 67.9109 128.232 68.4965 127.961 69.0078C127.691 69.519 127.21 69.9497 126.636 70.0231C126.389 70.0546 126.134 69.9998 125.912 69.8864C127 76.3135 116.377 77.9635 113.257 75.7125C108.896 72.5671 109.057 61.6644 109.057 61.6644L123.693 58.5852Z" fill="url(#paint89_linear_1_7492)"/>
<path d="M126.739 66.0859C126.976 66.3331 127.162 66.6297 127.28 66.951C127.374 67.2064 127.426 67.4841 127.379 67.7524C127.331 68.0207 127.175 68.2779 126.932 68.4021C126.69 68.5262 126.362 68.4904 126.182 68.2862C126.042 68.1277 126.013 67.8733 126.134 67.7001C126.271 67.5048 126.554 67.4594 126.782 67.5306C127.01 67.6018 127.196 67.7642 127.374 67.9223" stroke="black" stroke-width="0.264526" stroke-miterlimit="10" stroke-linecap="round" stroke-linejoin="round"/>
<path d="M118.666 67.846C118.724 67.7701 118.828 67.704 118.924 67.6943C119.028 67.6839 119.14 67.7029 119.223 67.7719C119.246 67.7959 119.27 67.8195 119.294 67.8435C119.337 67.8986 119.363 67.9608 119.374 68.0299C119.445 68.2957 119.516 68.5615 119.587 68.8273C119.612 68.92 119.565 69.0531 119.509 69.1257C119.451 69.2015 119.348 69.2677 119.251 69.2774C119.148 69.2878 119.035 69.2688 118.953 69.2001L118.881 69.1285C118.839 69.0735 118.812 69.0112 118.801 68.9422C118.731 68.6763 118.659 68.4105 118.589 68.1447C118.564 68.0517 118.61 67.919 118.666 67.846Z" fill="black"/>
<path d="M111.913 68.9825C111.971 68.9066 112.075 68.8404 112.171 68.8308C112.275 68.8204 112.387 68.8394 112.47 68.9084C112.494 68.9324 112.518 68.956 112.541 68.98C112.584 69.0351 112.611 69.0973 112.621 69.1664C112.692 69.4322 112.763 69.698 112.834 69.9638C112.859 70.0565 112.812 70.1895 112.757 70.2622C112.699 70.338 112.595 70.4042 112.499 70.4139C112.395 70.4242 112.282 70.4053 112.2 70.3362L112.128 70.2647C112.086 70.2096 112.059 70.1473 112.049 70.0783C111.978 69.8125 111.906 69.5467 111.836 69.2808C111.811 69.1882 111.857 69.0554 111.913 68.9825Z" fill="black"/>
<path d="M115.668 72.4569C115.681 72.438 115.697 72.4226 115.719 72.414C115.741 72.4051 115.766 72.4043 115.789 72.4079C115.833 72.4151 115.897 72.4423 115.9 72.4945C115.929 72.995 116.404 73.3084 116.881 73.2215C116.883 73.2211 116.886 73.2204 116.889 73.22C117.063 73.1864 117.216 73.0827 117.303 72.926C117.391 72.7671 117.397 72.5693 117.342 72.3986C117.313 72.3106 117.203 72.1951 117.284 72.1035C117.313 72.0709 117.36 72.0602 117.403 72.0598C117.474 72.0591 117.517 72.1346 117.543 72.1908C117.573 72.257 117.598 72.3331 117.616 72.404C117.657 72.5625 117.654 72.7324 117.605 72.8887C117.545 73.0794 117.403 73.2866 117.219 73.3782C117.016 73.4794 116.785 73.5191 116.56 73.4912C116.333 73.4629 116.119 73.3656 115.953 73.2079C115.808 73.0698 115.702 72.8891 115.654 72.6945C115.639 72.6344 115.629 72.5682 115.645 72.507C115.65 72.4898 115.657 72.4723 115.668 72.4569Z" fill="black"/>
<path d="M115.543 69.8391C115.562 70.1618 115.582 70.4845 115.601 70.8072C115.612 70.9979 115.625 71.1954 115.718 71.3625C115.81 71.5295 116.005 71.6562 116.189 71.6061" stroke="black" stroke-width="0.264526" stroke-miterlimit="10" stroke-linecap="round" stroke-linejoin="round"/>
<path d="M127.322 63.3762C127.107 62.4342 126.893 61.4923 126.678 60.5503C126.524 59.8741 126.359 59.174 125.932 58.6277C125.558 58.1487 124.605 57.5759 124.048 57.914L123.667 56.8969C123.517 53.1905 117.461 50.2422 111.829 51.9505C104.993 54.0244 105.084 59.668 106.632 60.7875C105.763 60.2837 103.825 61.996 105.253 64.8455C106.157 66.6479 107.874 68.343 109.794 68.9597C109.475 67.2811 109.243 65.5886 109.21 64.765C109.21 64.765 108.923 64.2967 109.505 63.8162C110.781 62.7619 114.192 62.6475 115.848 62.6453C117.504 62.6432 119.17 62.8546 120.808 62.611C121.61 62.4915 122.419 62.2367 123.124 61.835C123.38 62.6385 123.758 63.4016 123.921 64.1146C124.047 64.6627 124.055 67.2976 124.671 67.5079C125.224 67.6968 124.662 64.1801 127.124 64.6115C127.56 64.6881 127.421 63.8084 127.322 63.3762Z" fill="url(#paint90_linear_1_7492)"/>
<path d="M110.839 67.4588C110.792 67.0087 111.118 66.5493 111.558 66.4438C111.998 66.3383 112.496 66.6001 112.658 67.0223" stroke="black" stroke-width="0.357758" stroke-miterlimit="10" stroke-linecap="round" stroke-linejoin="round"/>
<path d="M117.556 66.4015C117.509 65.9514 117.834 65.4921 118.275 65.3862C118.715 65.2806 119.213 65.5425 119.375 65.9647" stroke="black" stroke-width="0.357758" stroke-miterlimit="10" stroke-linecap="round" stroke-linejoin="round"/>
<defs>
<linearGradient id="paint0_linear_1_7492" x1="36.5368" y1="37.7689" x2="142.925" y2="37.7689" gradientUnits="userSpaceOnUse">
<stop offset="0.0026" stop-color="#7973E7"/>
<stop offset="0.9947" stop-color="#448CFF"/>
</linearGradient>
<linearGradient id="paint1_linear_1_7492" x1="50.6768" y1="23.8115" x2="75.438" y2="23.8115" gradientUnits="userSpaceOnUse">
<stop stop-color="#68BEFF"/>
<stop offset="1" stop-color="#90D3FA"/>
</linearGradient>
<linearGradient id="paint2_linear_1_7492" x1="50.6769" y1="46.7217" x2="78.6914" y2="46.7217" gradientUnits="userSpaceOnUse">
<stop stop-color="#68BEFF"/>
<stop offset="1" stop-color="#90D3FA"/>
</linearGradient>
<linearGradient id="paint3_linear_1_7492" x1="85.6081" y1="50.472" x2="106.062" y2="50.472" gradientUnits="userSpaceOnUse">
<stop stop-color="#68BEFF"/>
<stop offset="1" stop-color="#90D3FA"/>
</linearGradient>
<linearGradient id="paint4_linear_1_7492" x1="50.6769" y1="59.2568" x2="78.6914" y2="59.2568" gradientUnits="userSpaceOnUse">
<stop stop-color="#68BEFF"/>
<stop offset="1" stop-color="#90D3FA"/>
</linearGradient>
<linearGradient id="paint5_linear_1_7492" x1="50.6769" y1="63.9176" x2="78.6914" y2="63.9176" gradientUnits="userSpaceOnUse">
<stop stop-color="#68BEFF"/>
<stop offset="1" stop-color="#90D3FA"/>
</linearGradient>
<linearGradient id="paint6_linear_1_7492" x1="132.093" y1="45.6135" x2="109.926" y2="45.6135" gradientUnits="userSpaceOnUse">
<stop stop-color="#68BEFF"/>
<stop offset="1" stop-color="#90D3FA"/>
</linearGradient>
<linearGradient id="paint7_linear_1_7492" x1="56.8651" y1="15.4028" x2="58.2649" y2="15.4028" gradientUnits="userSpaceOnUse">
<stop offset="0.0026" stop-color="#7973E7"/>
<stop offset="0.9947" stop-color="#448CFF"/>
</linearGradient>
<linearGradient id="paint8_linear_1_7492" x1="67.763" y1="21.5322" x2="69.1628" y2="21.5322" gradientUnits="userSpaceOnUse">
<stop offset="0.0026" stop-color="#7973E7"/>
<stop offset="0.9947" stop-color="#448CFF"/>
</linearGradient>
<linearGradient id="paint9_linear_1_7492" x1="61.2747" y1="25.575" x2="64.6275" y2="25.575" gradientUnits="userSpaceOnUse">
<stop stop-color="#68BEFF"/>
<stop offset="1" stop-color="#90D3FA"/>
</linearGradient>
<linearGradient id="paint10_linear_1_7492" x1="116.685" y1="23.8343" x2="120.503" y2="23.8343" gradientUnits="userSpaceOnUse">
<stop offset="0.0026" stop-color="#9AB8FF"/>
<stop offset="0.9947" stop-color="#65D1FF"/>
</linearGradient>
<linearGradient id="paint11_linear_1_7492" x1="107.316" y1="23.8343" x2="129.872" y2="23.8343" gradientUnits="userSpaceOnUse">
<stop stop-color="#68BEFF"/>
<stop offset="1" stop-color="#90D3FA"/>
</linearGradient>
<linearGradient id="paint12_linear_1_7492" x1="127.695" y1="15.4254" x2="130.309" y2="15.4254" gradientUnits="userSpaceOnUse">
<stop offset="0.0026" stop-color="#9AB8FF"/>
<stop offset="0.9947" stop-color="#65D1FF"/>
</linearGradient>
<linearGradient id="paint13_linear_1_7492" x1="106.323" y1="15.9349" x2="108.937" y2="15.9349" gradientUnits="userSpaceOnUse">
<stop offset="0.0026" stop-color="#9AB8FF"/>
<stop offset="0.9947" stop-color="#65D1FF"/>
</linearGradient>
<linearGradient id="paint14_linear_1_7492" x1="117.287" y1="37.3441" x2="119.901" y2="37.3441" gradientUnits="userSpaceOnUse">
<stop offset="0.0026" stop-color="#9AB8FF"/>
<stop offset="0.9947" stop-color="#65D1FF"/>
</linearGradient>
<linearGradient id="paint15_linear_1_7492" x1="80.8112" y1="13.7882" x2="102.468" y2="13.7882" gradientUnits="userSpaceOnUse">
<stop stop-color="#68BEFF"/>
<stop offset="1" stop-color="#90D3FA"/>
</linearGradient>
<linearGradient id="paint16_linear_1_7492" x1="80.8112" y1="22.0929" x2="102.45" y2="22.0929" gradientUnits="userSpaceOnUse">
<stop stop-color="#68BEFF"/>
<stop offset="1" stop-color="#90D3FA"/>
</linearGradient>
<linearGradient id="paint17_linear_1_7492" x1="37.7511" y1="102.343" x2="54.6671" y2="102.343" gradientUnits="userSpaceOnUse">
<stop offset="0.0055" stop-color="#D2E7FF"/>
<stop offset="1" stop-color="#F7F7F7"/>
</linearGradient>
<linearGradient id="paint18_linear_1_7492" x1="37.7511" y1="102.343" x2="55.3384" y2="102.343" gradientUnits="userSpaceOnUse">
<stop stop-color="#492B97"/>
<stop offset="1" stop-color="#87007A"/>
</linearGradient>
<linearGradient id="paint19_linear_1_7492" x1="15.2475" y1="102.343" x2="39.9411" y2="102.343" gradientUnits="userSpaceOnUse">
<stop stop-color="#8724AD"/>
<stop offset="1" stop-color="#495BCA"/>
</linearGradient>
<linearGradient id="paint20_linear_1_7492" x1="35.898" y1="101.76" x2="35.898" y2="105.457" gradientUnits="userSpaceOnUse">
<stop stop-color="#FFAAC6"/>
<stop offset="1" stop-color="#FF7CD8"/>
</linearGradient>
<linearGradient id="paint21_linear_1_7492" x1="20.4456" y1="101.76" x2="20.4456" y2="105.458" gradientUnits="userSpaceOnUse">
<stop stop-color="#FFAAC6"/>
<stop offset="1" stop-color="#FF7CD8"/>
</linearGradient>
<linearGradient id="paint22_linear_1_7492" x1="37.7511" y1="96.3364" x2="54.6671" y2="96.3364" gradientUnits="userSpaceOnUse">
<stop offset="0.0055" stop-color="#D2E7FF"/>
<stop offset="1" stop-color="#F7F7F7"/>
</linearGradient>
<linearGradient id="paint23_linear_1_7492" x1="37.7511" y1="96.3362" x2="55.3384" y2="96.3362" gradientUnits="userSpaceOnUse">
<stop stop-color="#8434F8"/>
<stop offset="1" stop-color="#C200DB"/>
</linearGradient>
<linearGradient id="paint24_linear_1_7492" x1="15.2475" y1="96.3362" x2="39.9411" y2="96.3362" gradientUnits="userSpaceOnUse">
<stop stop-color="#C238DB"/>
<stop offset="1" stop-color="#846FF8"/>
</linearGradient>
<linearGradient id="paint25_linear_1_7492" x1="33.5736" y1="95.3886" x2="33.6784" y2="98.9515" gradientUnits="userSpaceOnUse">
<stop stop-color="#FFD452"/>
<stop offset="1" stop-color="#FFAB20"/>
</linearGradient>
<linearGradient id="paint26_linear_1_7492" x1="24.8412" y1="94.843" x2="24.8412" y2="97.882" gradientUnits="userSpaceOnUse">
<stop stop-color="#FFD452"/>
<stop offset="1" stop-color="#FFAB20"/>
</linearGradient>
<linearGradient id="paint27_linear_1_7492" x1="37.7511" y1="90.2487" x2="54.6671" y2="90.2487" gradientUnits="userSpaceOnUse">
<stop offset="0.0055" stop-color="#D2E7FF"/>
<stop offset="1" stop-color="#F7F7F7"/>
</linearGradient>
<linearGradient id="paint28_linear_1_7492" x1="37.7511" y1="90.2487" x2="55.3384" y2="90.2487" gradientUnits="userSpaceOnUse">
<stop stop-color="#CF58C3"/>
<stop offset="1" stop-color="#CF2AD5"/>
</linearGradient>
<linearGradient id="paint29_linear_1_7492" x1="15.2475" y1="90.2488" x2="39.9411" y2="90.2488" gradientUnits="userSpaceOnUse">
<stop stop-color="#FFAAC6"/>
<stop offset="1" stop-color="#FF7CD8"/>
</linearGradient>
<linearGradient id="paint30_linear_1_7492" x1="21.8722" y1="89.237" x2="21.8722" y2="92.7538" gradientUnits="userSpaceOnUse">
<stop stop-color="#C238DB"/>
<stop offset="1" stop-color="#846FF8"/>
</linearGradient>
<linearGradient id="paint31_linear_1_7492" x1="171.882" y1="80.6067" x2="172.35" y2="101.213" gradientUnits="userSpaceOnUse">
<stop stop-color="#8724AD"/>
<stop offset="1" stop-color="#495BCA"/>
</linearGradient>
<linearGradient id="paint32_linear_1_7492" x1="150.426" y1="22.6715" x2="156.916" y2="37.1591" gradientUnits="userSpaceOnUse">
<stop stop-color="#F75C00"/>
<stop offset="1" stop-color="#F73300"/>
</linearGradient>
<linearGradient id="paint33_linear_1_7492" x1="157.043" y1="45.9742" x2="172.87" y2="91.8543" gradientUnits="userSpaceOnUse">
<stop stop-color="#FFAAC6"/>
<stop offset="1" stop-color="#FF7CD8"/>
</linearGradient>
<linearGradient id="paint34_linear_1_7492" x1="153.121" y1="38.2314" x2="171.867" y2="92.5736" gradientUnits="userSpaceOnUse">
<stop stop-color="#FFAAC6"/>
<stop offset="1" stop-color="#FF7CD8"/>
</linearGradient>
<linearGradient id="paint35_linear_1_7492" x1="153.801" y1="54.2349" x2="158.23" y2="43.5238" gradientUnits="userSpaceOnUse">
<stop stop-color="#D738DB"/>
<stop offset="0.9987" stop-color="#9F6FD8"/>
</linearGradient>
<linearGradient id="paint36_linear_1_7492" x1="152.21" y1="36.8399" x2="157.115" y2="48.6999" gradientUnits="userSpaceOnUse">
<stop stop-color="#FFD0BF"/>
<stop offset="1" stop-color="#FFB490"/>
</linearGradient>
<linearGradient id="paint37_linear_1_7492" x1="151.964" y1="36.9504" x2="156.859" y2="48.7852" gradientUnits="userSpaceOnUse">
<stop stop-color="#FFD0BF"/>
<stop offset="1" stop-color="#FFB490"/>
</linearGradient>
<linearGradient id="paint38_linear_1_7492" x1="147.28" y1="27.5115" x2="152.239" y2="35.4119" gradientUnits="userSpaceOnUse">
<stop stop-color="#FF7504"/>
<stop offset="1" stop-color="#FF4C01"/>
</linearGradient>
<linearGradient id="paint39_linear_1_7492" x1="148.423" y1="33.2652" x2="157.884" y2="52.2505" gradientUnits="userSpaceOnUse">
<stop stop-color="#FFD0BF"/>
<stop offset="1" stop-color="#FFB490"/>
</linearGradient>
<linearGradient id="paint40_linear_1_7492" x1="144.505" y1="27.2541" x2="148.619" y2="36.125" gradientUnits="userSpaceOnUse">
<stop stop-color="#FF7504"/>
<stop offset="1" stop-color="#FF4C01"/>
</linearGradient>
<linearGradient id="paint41_linear_1_7492" x1="82.1753" y1="48.8491" x2="77.1665" y2="102.744" gradientUnits="userSpaceOnUse">
<stop stop-color="#FFD452"/>
<stop offset="1" stop-color="#FFAB20"/>
</linearGradient>
<linearGradient id="paint42_linear_1_7492" x1="84.535" y1="49.0684" x2="79.5263" y2="102.963" gradientUnits="userSpaceOnUse">
<stop stop-color="#FFD452"/>
<stop offset="1" stop-color="#FFAB20"/>
</linearGradient>
<linearGradient id="paint43_linear_1_7492" x1="59.5218" y1="46.7438" x2="54.5131" y2="100.638" gradientUnits="userSpaceOnUse">
<stop stop-color="#FFBB52"/>
<stop offset="1" stop-color="#FF9220"/>
</linearGradient>
<linearGradient id="paint44_linear_1_7492" x1="105.762" y1="51.0412" x2="100.753" y2="104.936" gradientUnits="userSpaceOnUse">
<stop stop-color="#FFBB52"/>
<stop offset="1" stop-color="#FF9220"/>
</linearGradient>
<linearGradient id="paint45_linear_1_7492" x1="60.4472" y1="66.3046" x2="60.4472" y2="100.956" gradientUnits="userSpaceOnUse">
<stop stop-color="#FFD0BF"/>
<stop offset="1" stop-color="#FFB490"/>
</linearGradient>
<linearGradient id="paint46_linear_1_7492" x1="84.1655" y1="49.9238" x2="82.5931" y2="54.8654" gradientUnits="userSpaceOnUse">
<stop stop-color="#FFD0BF"/>
<stop offset="1" stop-color="#FFB490"/>
</linearGradient>
<linearGradient id="paint47_linear_1_7492" x1="79.3123" y1="50.9749" x2="88.5535" y2="50.9749" gradientUnits="userSpaceOnUse">
<stop stop-color="#FFD0BF"/>
<stop offset="1" stop-color="#FFB490"/>
</linearGradient>
<linearGradient id="paint48_linear_1_7492" x1="126.419" y1="109.059" x2="126.219" y2="71.5937" gradientUnits="userSpaceOnUse">
<stop offset="0.0026" stop-color="#7973E7"/>
<stop offset="0.9947" stop-color="#448CFF"/>
</linearGradient>
<linearGradient id="paint49_linear_1_7492" x1="134.155" y1="109.018" x2="133.955" y2="71.5521" gradientUnits="userSpaceOnUse">
<stop offset="0.0026" stop-color="#7973E7"/>
<stop offset="0.9947" stop-color="#448CFF"/>
</linearGradient>
<linearGradient id="paint50_linear_1_7492" x1="118.756" y1="109.1" x2="118.556" y2="71.6346" gradientUnits="userSpaceOnUse">
<stop offset="0.0026" stop-color="#7973E7"/>
<stop offset="0.9947" stop-color="#448CFF"/>
</linearGradient>
<linearGradient id="paint51_linear_1_7492" x1="120.625" y1="109.09" x2="120.425" y2="71.6244" gradientUnits="userSpaceOnUse">
<stop offset="0.0026" stop-color="#7973E7"/>
<stop offset="0.9947" stop-color="#448CFF"/>
</linearGradient>
<linearGradient id="paint52_linear_1_7492" x1="128.798" y1="96.2579" x2="145.421" y2="109.462" gradientUnits="userSpaceOnUse">
<stop stop-color="#FFD0BF"/>
<stop offset="1" stop-color="#FFB490"/>
</linearGradient>
<linearGradient id="paint53_linear_1_7492" x1="128.798" y1="96.2576" x2="145.421" y2="109.462" gradientUnits="userSpaceOnUse">
<stop stop-color="#FFD0BF"/>
<stop offset="1" stop-color="#FFB490"/>
</linearGradient>
<linearGradient id="paint54_linear_1_7492" x1="120.752" y1="72.546" x2="122.013" y2="77.3466" gradientUnits="userSpaceOnUse">
<stop stop-color="#FFD0BF"/>
<stop offset="1" stop-color="#FFB490"/>
</linearGradient>
<linearGradient id="paint55_linear_1_7492" x1="120.752" y1="72.546" x2="122.013" y2="77.3466" gradientUnits="userSpaceOnUse">
<stop stop-color="#FFD0BF"/>
<stop offset="1" stop-color="#FFB490"/>
</linearGradient>
<linearGradient id="paint56_linear_1_7492" x1="0.4445" y1="108.193" x2="220.83" y2="108.193" gradientUnits="userSpaceOnUse">
<stop offset="0.0047" stop-color="#7D94FF"/>
<stop offset="0.9947" stop-color="#8CAAFF"/>
</linearGradient>
<linearGradient id="paint57_linear_1_7492" x1="0.581076" y1="108.193" x2="220.83" y2="108.193" gradientUnits="userSpaceOnUse">
<stop offset="0.0047" stop-color="#7D94FF"/>
<stop offset="0.9947" stop-color="#8CAAFF"/>
</linearGradient>
<linearGradient id="paint58_linear_1_7492" x1="109.538" y1="103.969" x2="134.95" y2="103.969" gradientUnits="userSpaceOnUse">
<stop stop-color="#C238DB"/>
<stop offset="1" stop-color="#846FF8"/>
</linearGradient>
<linearGradient id="paint59_linear_1_7492" x1="115.859" y1="110.264" x2="76.5996" y2="81.5131" gradientUnits="userSpaceOnUse">
<stop stop-color="#846FF8"/>
<stop offset="0.9993" stop-color="#C96CDB"/>
</linearGradient>
<linearGradient id="paint60_linear_1_7492" x1="117.929" y1="107.788" x2="104.847" y2="78.6119" gradientUnits="userSpaceOnUse">
<stop stop-color="#E370FF"/>
<stop offset="1" stop-color="#A5A7FF"/>
</linearGradient>
<linearGradient id="paint61_linear_1_7492" x1="96.1007" y1="99.5504" x2="85.5264" y2="88.2712" gradientUnits="userSpaceOnUse">
<stop stop-color="#C238DB"/>
<stop offset="1" stop-color="#846FF8"/>
</linearGradient>
<linearGradient id="paint62_linear_1_7492" x1="87.7028" y1="38.2398" x2="81.5632" y2="54.8618" gradientUnits="userSpaceOnUse">
<stop stop-color="#FFD0BF"/>
<stop offset="1" stop-color="#FFB490"/>
</linearGradient>
<linearGradient id="paint63_linear_1_7492" x1="76.3845" y1="37.2654" x2="100.637" y2="37.2654" gradientUnits="userSpaceOnUse">
<stop stop-color="#19285A"/>
<stop offset="0.9986" stop-color="#401CBE"/>
</linearGradient>
<linearGradient id="paint64_linear_1_7492" x1="81.3871" y1="46.2597" x2="95.6437" y2="46.2597" gradientUnits="userSpaceOnUse">
<stop offset="0.0026" stop-color="#7973E7"/>
<stop offset="0.9947" stop-color="#448CFF"/>
</linearGradient>
<linearGradient id="paint65_linear_1_7492" x1="148.104" y1="71.5339" x2="152.249" y2="76.2224" gradientUnits="userSpaceOnUse">
<stop stop-color="#FFD452"/>
<stop offset="1" stop-color="#FFAB20"/>
</linearGradient>
<linearGradient id="paint66_linear_1_7492" x1="165.574" y1="74.1032" x2="171.598" y2="74.1032" gradientUnits="userSpaceOnUse">
<stop offset="0.0055" stop-color="#D2E7FF"/>
<stop offset="1" stop-color="#F7F7F7"/>
</linearGradient>
<linearGradient id="paint67_linear_1_7492" x1="170.022" y1="73.2217" x2="183.04" y2="86.7495" gradientUnits="userSpaceOnUse">
<stop stop-color="#FFD0BF"/>
<stop offset="1" stop-color="#FFB490"/>
</linearGradient>
<linearGradient id="paint68_linear_1_7492" x1="206.29" y1="107.535" x2="186.22" y2="90.1418" gradientUnits="userSpaceOnUse">
<stop offset="0.0026" stop-color="#7973E7"/>
<stop offset="0.9947" stop-color="#448CFF"/>
</linearGradient>
<linearGradient id="paint69_linear_1_7492" x1="205.719" y1="107.041" x2="193.355" y2="96.3252" gradientUnits="userSpaceOnUse">
<stop offset="0.0026" stop-color="#7973E7"/>
<stop offset="0.9947" stop-color="#448CFF"/>
</linearGradient>
<linearGradient id="paint70_linear_1_7492" x1="165.339" y1="102.343" x2="182.926" y2="102.343" gradientUnits="userSpaceOnUse">
<stop offset="0.0053" stop-color="#44C7FF"/>
<stop offset="0.9974" stop-color="#79AEE7"/>
</linearGradient>
<linearGradient id="paint71_linear_1_7492" x1="143.947" y1="102.343" x2="166.811" y2="102.343" gradientUnits="userSpaceOnUse">
<stop offset="0.0055" stop-color="#D2E7FF"/>
<stop offset="1" stop-color="#F7F7F7"/>
</linearGradient>
<linearGradient id="paint72_linear_1_7492" x1="142.835" y1="102.343" x2="167.529" y2="102.343" gradientUnits="userSpaceOnUse">
<stop stop-color="#C238DB"/>
<stop offset="1" stop-color="#846FF8"/>
</linearGradient>
<linearGradient id="paint73_linear_1_7492" x1="163.486" y1="101.331" x2="163.486" y2="106.383" gradientUnits="userSpaceOnUse">
<stop stop-color="#FF7504"/>
<stop offset="1" stop-color="#FF4C01"/>
</linearGradient>
<linearGradient id="paint74_linear_1_7492" x1="148.033" y1="101.331" x2="148.033" y2="106.383" gradientUnits="userSpaceOnUse">
<stop stop-color="#FF7504"/>
<stop offset="1" stop-color="#FF4C01"/>
</linearGradient>
<linearGradient id="paint75_linear_1_7492" x1="165.339" y1="96.3362" x2="182.926" y2="96.3362" gradientUnits="userSpaceOnUse">
<stop stop-color="#FF7504"/>
<stop offset="1" stop-color="#FF4C01"/>
</linearGradient>
<linearGradient id="paint76_linear_1_7492" x1="143.947" y1="96.3364" x2="166.811" y2="96.3364" gradientUnits="userSpaceOnUse">
<stop offset="0.0055" stop-color="#D2E7FF"/>
<stop offset="1" stop-color="#F7F7F7"/>
</linearGradient>
<linearGradient id="paint77_linear_1_7492" x1="142.835" y1="96.3362" x2="167.529" y2="96.3362" gradientUnits="userSpaceOnUse">
<stop stop-color="#FF7504"/>
<stop offset="1" stop-color="#FF4C01"/>
</linearGradient>
<linearGradient id="paint78_linear_1_7492" x1="161.221" y1="95.1601" x2="161.221" y2="99.5814" gradientUnits="userSpaceOnUse">
<stop offset="0.0053" stop-color="#448CFF"/>
<stop offset="0.9974" stop-color="#7973E7"/>
</linearGradient>
<linearGradient id="paint79_linear_1_7492" x1="152.429" y1="95.1599" x2="152.429" y2="99.5813" gradientUnits="userSpaceOnUse">
<stop offset="0.0053" stop-color="#448CFF"/>
<stop offset="0.9974" stop-color="#7973E7"/>
</linearGradient>
<linearGradient id="paint80_linear_1_7492" x1="194.677" y1="77.7368" x2="194.013" y2="94.5017" gradientUnits="userSpaceOnUse">
<stop stop-color="#5EA438"/>
<stop offset="1" stop-color="#09790F"/>
</linearGradient>
<linearGradient id="paint81_linear_1_7492" x1="197.278" y1="37.007" x2="197.278" y2="27.0977" gradientUnits="userSpaceOnUse">
<stop offset="0.0026" stop-color="#ACAEFF"/>
<stop offset="0.9947" stop-color="#77C7FF"/>
</linearGradient>
<linearGradient id="paint82_linear_1_7492" x1="197.278" y1="27.8409" x2="197.278" y2="41.5075" gradientUnits="userSpaceOnUse">
<stop offset="0.0026" stop-color="#ACAEFF"/>
<stop offset="0.9947" stop-color="#77C7FF"/>
</linearGradient>
<linearGradient id="paint83_linear_1_7492" x1="187.876" y1="25.6577" x2="187.876" y2="1.90319" gradientUnits="userSpaceOnUse">
<stop offset="0.0026" stop-color="#799EE7"/>
<stop offset="0.9947" stop-color="#44B7FF"/>
</linearGradient>
<linearGradient id="paint84_linear_1_7492" x1="193.218" y1="25.6579" x2="193.218" y2="3.89124" gradientUnits="userSpaceOnUse">
<stop offset="0.0026" stop-color="#A2BDFF"/>
<stop offset="0.9947" stop-color="#6DD6FF"/>
</linearGradient>
<linearGradient id="paint85_linear_1_7492" x1="198.382" y1="25.6578" x2="198.382" y2="6.01913" gradientUnits="userSpaceOnUse">
<stop offset="0.0026" stop-color="#799EE7"/>
<stop offset="0.9947" stop-color="#44B7FF"/>
</linearGradient>
<linearGradient id="paint86_linear_1_7492" x1="205.227" y1="25.7379" x2="205.227" y2="8.87147" gradientUnits="userSpaceOnUse">
<stop offset="0.0026" stop-color="#A2BDFF"/>
<stop offset="0.9947" stop-color="#6DD6FF"/>
</linearGradient>
<linearGradient id="paint87_linear_1_7492" x1="133.554" y1="66.4437" x2="134.091" y2="71.9841" gradientUnits="userSpaceOnUse">
<stop stop-color="#FFD0BF"/>
<stop offset="1" stop-color="#FFB490"/>
</linearGradient>
<linearGradient id="paint88_linear_1_7492" x1="121.655" y1="47.293" x2="124.197" y2="55.3755" gradientUnits="userSpaceOnUse">
<stop stop-color="#9E511C"/>
<stop offset="1" stop-color="#843D00"/>
</linearGradient>
<linearGradient id="paint89_linear_1_7492" x1="117.371" y1="59.1434" x2="121.262" y2="78.2427" gradientUnits="userSpaceOnUse">
<stop stop-color="#FFD0BF"/>
<stop offset="1" stop-color="#FFB490"/>
</linearGradient>
<linearGradient id="paint90_linear_1_7492" x1="105.314" y1="52.2885" x2="111.441" y2="57.7637" gradientUnits="userSpaceOnUse">
<stop stop-color="#9E511C"/>
<stop offset="1" stop-color="#843D00"/>
</linearGradient>
</defs>
</svg>
