<svg width="40" height="40" viewBox="0 0 40 40" fill="none" xmlns="http://www.w3.org/2000/svg">
<rect width="40" height="40" rx="4" fill="#E8EDFB"/>
<path d="M20 33.3334C12.6362 33.3334 6.66669 27.3638 6.66669 20.0001C6.66669 12.6363 12.6362 6.66675 20 6.66675C27.3638 6.66675 33.3334 12.6363 33.3334 20.0001C33.3334 27.3638 27.3638 33.3334 20 33.3334ZM20 30.6667C25.8911 30.6667 30.6667 25.8911 30.6667 20.0001C30.6667 14.109 25.8911 9.33341 20 9.33341C14.109 9.33341 9.33335 14.109 9.33335 20.0001C9.33335 25.8911 14.109 30.6667 20 30.6667ZM21.3334 20.0001H26.6667V22.6667H18.6667V13.3334H21.3334V20.0001Z" fill="#7530F7"/>
</svg>
