<svg width="40" height="40" viewBox="0 0 40 40" fill="none" xmlns="http://www.w3.org/2000/svg">
<rect width="40" height="40" rx="4" fill="#E8EDFB"/>
<path d="M13 7.33325C16.1296 7.33325 18.6666 9.87031 18.6666 12.9999V18.6666H13C9.87037 18.6666 7.33331 16.1295 7.33331 12.9999C7.33331 9.87031 9.87037 7.33325 13 7.33325ZM16 15.9999V12.9999C16 11.3431 14.6568 9.99992 13 9.99992C11.3431 9.99992 9.99998 11.3431 9.99998 12.9999C9.99998 14.6568 11.3431 15.9999 13 15.9999H16ZM13 21.3333H18.6666V26.9999C18.6666 30.1295 16.1296 32.6666 13 32.6666C9.87037 32.6666 7.33331 30.1295 7.33331 26.9999C7.33331 23.8703 9.87037 21.3333 13 21.3333ZM13 23.9999C11.3431 23.9999 9.99998 25.3431 9.99998 26.9999C9.99998 28.6567 11.3431 29.9999 13 29.9999C14.6568 29.9999 16 28.6567 16 26.9999V23.9999H13ZM27 7.33325C30.1296 7.33325 32.6666 9.87031 32.6666 12.9999C32.6666 16.1295 30.1296 18.6666 27 18.6666H21.3333V12.9999C21.3333 9.87031 23.8704 7.33325 27 7.33325ZM27 15.9999C28.6568 15.9999 30 14.6568 30 12.9999C30 11.3431 28.6568 9.99992 27 9.99992C25.3432 9.99992 24 11.3431 24 12.9999V15.9999H27ZM21.3333 21.3333H27C30.1296 21.3333 32.6666 23.8703 32.6666 26.9999C32.6666 30.1295 30.1296 32.6666 27 32.6666C23.8704 32.6666 21.3333 30.1295 21.3333 26.9999V21.3333ZM24 23.9999V26.9999C24 28.6567 25.3432 29.9999 27 29.9999C28.6568 29.9999 30 28.6567 30 26.9999C30 25.3431 28.6568 23.9999 27 23.9999H24Z" fill="#7530F7"/>
</svg>
