<svg width="40" height="41" viewBox="0 0 40 41" fill="none" xmlns="http://www.w3.org/2000/svg">
<rect y="0.5" width="40" height="40" rx="4" fill="#E8EDFB"/>
<path d="M22.6666 24.0026V26.7885C21.8325 26.4937 20.935 26.3333 20 26.3333C15.5817 26.3333 12 29.915 12 34.3333H9.33331C9.33331 28.4422 14.1089 23.6666 20 23.6666C20.9208 23.6666 21.8144 23.7833 22.6666 24.0026ZM20 22.3333C15.58 22.3333 12 18.7533 12 14.3333C12 9.91325 15.58 6.33325 20 6.33325C24.42 6.33325 28 9.91325 28 14.3333C28 18.7533 24.42 22.3333 20 22.3333ZM20 19.6666C22.9466 19.6666 25.3333 17.2799 25.3333 14.3333C25.3333 11.3866 22.9466 8.99992 20 8.99992C17.0533 8.99992 14.6666 11.3866 14.6666 14.3333C14.6666 17.2799 17.0533 19.6666 20 19.6666ZM27.7238 31.5522L32.4378 26.8382L34.3234 28.7238L27.7238 35.3234L23.0098 30.6094L24.8954 28.7238L27.7238 31.5522Z" fill="#7530F7"/>
</svg>
