<svg width="48" height="48" viewBox="0 0 48 48" fill="none" xmlns="http://www.w3.org/2000/svg">
<path d="M23.773 18.592C24.6147 18.592 25.297 14.43 25.297 9.29601C25.297 4.16197 24.6147 0 23.773 0C22.9314 0 22.249 4.16197 22.249 9.29601C22.249 14.43 22.9314 18.592 23.773 18.592Z" fill="#7530F7"/>
<path d="M35.088 14.614C31.458 18.244 28.032 20.705 27.437 20.11C26.842 19.515 29.302 16.09 32.933 12.459C36.563 8.82898 39.989 6.36798 40.584 6.96298C41.178 7.55798 38.718 10.984 35.088 14.614Z" fill="#7530F7"/>
<path d="M38.25 25.297C33.116 25.297 28.954 24.615 28.954 23.773C28.954 22.931 33.116 22.249 38.25 22.249C43.384 22.249 47.546 22.931 47.546 23.773C47.547 24.615 43.384 25.297 38.25 25.297Z" fill="#7530F7"/>
<path d="M32.933 35.088C29.303 31.458 26.842 28.032 27.437 27.437C28.032 26.842 31.458 29.302 35.088 32.933C38.718 36.564 41.179 39.989 40.584 40.584C39.988 41.179 36.563 38.718 32.933 35.088Z" fill="#7530F7"/>
<path d="M23.773 47.547C24.6147 47.547 25.297 43.385 25.297 38.251C25.297 33.117 24.6147 28.955 23.773 28.955C22.9314 28.955 22.249 33.117 22.249 38.251C22.249 43.385 22.9314 47.547 23.773 47.547Z" fill="#7530F7"/>
<path d="M12.458 32.933C16.088 29.303 19.514 26.842 20.109 27.437C20.704 28.032 18.244 31.458 14.613 35.088C10.983 38.718 7.557 41.179 6.962 40.584C6.368 39.988 8.828 36.563 12.458 32.933Z" fill="#7530F7"/>
<path d="M9.29602 22.249C14.43 22.249 18.592 22.931 18.592 23.773C18.592 24.615 14.43 25.297 9.29602 25.297C4.16202 25.297 0 24.615 0 23.773C0 22.932 4.16202 22.249 9.29602 22.249Z" fill="#7530F7"/>
<path d="M14.614 12.4588C18.244 16.0888 20.705 19.5148 20.11 20.1098C19.515 20.7048 16.09 18.2448 12.459 14.6138C8.82898 10.9838 6.36798 7.55776 6.96298 6.96276C7.55798 6.36776 10.983 8.82776 14.614 12.4588Z" fill="#7530F7"/>
<path d="M30.796 11.022C28.804 15.754 26.5599 19.325 25.7839 18.998C25.0079 18.671 25.9949 14.571 27.9869 9.83902C29.9789 5.10702 32.2229 1.536 32.9989 1.863C33.7739 2.19 32.788 6.29002 30.796 11.022Z" fill="#7530F7"/>
<path d="M37.7551 19.722C33.0001 21.659 28.8891 22.598 28.5711 21.818C28.2531 21.039 31.8501 18.836 36.6051 16.899C41.3601 14.962 45.4711 14.023 45.7891 14.803C46.1071 15.583 42.5101 17.785 37.7551 19.722Z" fill="#7530F7"/>
<path d="M45.6895 33.0193C46.0161 32.2436 42.4453 29.9995 37.7137 28.007C32.9822 26.0145 28.8817 25.0281 28.5551 25.8037C28.2284 26.5794 31.7993 28.8235 36.5308 30.816C41.2623 32.8085 45.3628 33.795 45.6895 33.0193Z" fill="#7530F7"/>
<path d="M27.824 37.756C25.887 33.001 24.949 28.89 25.728 28.572C26.507 28.254 28.71 31.851 30.647 36.606C32.584 41.361 33.522 45.472 32.743 45.79C31.963 46.107 29.761 42.51 27.824 37.756Z" fill="#7530F7"/>
<path d="M16.75 36.525C18.742 31.793 20.986 28.222 21.762 28.549C22.538 28.876 21.551 32.976 19.559 37.708C17.567 42.44 15.323 46.011 14.547 45.684C13.771 45.357 14.758 41.257 16.75 36.525Z" fill="#7530F7"/>
<path d="M9.79098 27.824C14.546 25.887 18.657 24.948 18.975 25.728C19.293 26.508 15.696 28.71 10.941 30.647C6.18598 32.584 2.07499 33.523 1.75699 32.743C1.43899 31.964 5.03598 29.761 9.79098 27.824Z" fill="#7530F7"/>
<path d="M11.0221 16.751C15.7541 18.743 19.3251 20.987 18.9981 21.763C18.6711 22.539 14.5711 21.552 9.83908 19.56C5.10708 17.568 1.53607 15.324 1.86307 14.548C2.19007 13.772 6.29006 14.758 11.0221 16.751Z" fill="#7530F7"/>
<path d="M19.7221 9.79098C21.6591 14.546 22.597 18.657 21.818 18.975C21.038 19.293 18.8361 15.696 16.8991 10.941C14.9621 6.18598 14.024 2.07499 14.803 1.75699C15.583 1.43899 17.7851 5.03598 19.7221 9.79098Z" fill="#7530F7"/>
<path d="M27.735 23.773C27.735 25.961 25.961 27.735 23.773 27.735C21.585 27.735 19.811 25.961 19.811 23.773C19.811 21.585 21.585 19.811 23.773 19.811C25.961 19.811 27.735 21.585 27.735 23.773Z" fill="#7530F7"/>
</svg>
