<svg width="32" height="32" viewBox="0 0 32 32" fill="none" xmlns="http://www.w3.org/2000/svg">
<path d="M15.9021 12.436C16.4648 12.436 16.9211 9.65211 16.9211 6.218C16.9211 2.7839 16.4648 0 15.9021 0C15.3393 0 14.8831 2.7839 14.8831 6.218C14.8831 9.65211 15.3393 12.436 15.9021 12.436Z" fill="#C0B1FF"/>
<path d="M23.4711 9.775C21.0431 12.203 18.751 13.849 18.353 13.451C17.955 13.053 19.601 10.761 22.029 8.33299C24.458 5.90499 26.7491 4.259 27.1471 4.657C27.5451 5.056 25.8991 7.347 23.4711 9.775Z" fill="#C0B1FF"/>
<path d="M25.586 16.922C22.152 16.922 19.368 16.466 19.368 15.903C19.368 15.34 22.152 14.884 25.586 14.884C29.02 14.884 31.804 15.34 31.804 15.903C31.804 16.466 29.021 16.922 25.586 16.922Z" fill="#C0B1FF"/>
<path d="M22.029 23.471C19.601 21.043 17.955 18.751 18.353 18.353C18.751 17.955 21.0421 19.601 23.4711 22.029C25.8991 24.457 27.5451 26.749 27.1471 27.147C26.7491 27.545 24.458 25.899 22.029 23.471Z" fill="#C0B1FF"/>
<path d="M14.8831 25.587C14.8831 22.153 15.3391 19.369 15.9021 19.369C16.4651 19.369 16.9211 22.153 16.9211 25.587C16.9211 29.021 16.4651 31.805 15.9021 31.805C15.3391 31.805 14.8831 29.021 14.8831 25.587Z" fill="#C0B1FF"/>
<path d="M8.334 22.029C10.762 19.601 13.054 17.955 13.452 18.353C13.85 18.751 12.204 21.042 9.77601 23.471C7.34801 25.899 5.056 27.545 4.658 27.147C4.26 26.749 5.905 24.458 8.334 22.029Z" fill="#C0B1FF"/>
<path d="M6.21799 14.883C9.65199 14.883 12.436 15.339 12.436 15.902C12.436 16.465 9.65199 16.921 6.21799 16.921C2.78399 16.921 0 16.465 0 15.902C0 15.339 2.78399 14.883 6.21799 14.883Z" fill="#C0B1FF"/>
<path d="M9.77501 8.33424C12.203 10.7622 13.849 13.0543 13.451 13.4523C13.053 13.8503 10.762 12.2042 8.33302 9.77624C5.90402 7.34824 4.25903 5.05625 4.65703 4.65825C5.05503 4.25925 7.34701 5.90524 9.77501 8.33424Z" fill="#C0B1FF"/>
<path d="M20.6 7.37299C19.267 10.538 17.766 12.927 17.247 12.708C16.728 12.49 17.388 9.74699 18.721 6.58099C20.054 3.41599 21.555 1.02699 22.074 1.24599C22.592 1.46499 21.932 4.20699 20.6 7.37299Z" fill="#C0B1FF"/>
<path d="M25.255 13.193C22.074 14.489 19.324 15.116 19.112 14.595C18.9 14.074 21.306 12.6 24.486 11.305C27.666 10.009 30.417 9.38197 30.629 9.90297C30.842 10.424 28.436 11.897 25.255 13.193Z" fill="#C0B1FF"/>
<path d="M24.432 20.6C21.267 19.267 18.8779 17.766 19.0969 17.247C19.3159 16.728 22.058 17.388 25.224 18.72C28.389 20.053 30.7779 21.554 30.5589 22.073C30.3399 22.592 27.597 21.933 24.432 20.6Z" fill="#C0B1FF"/>
<path d="M18.612 25.256C17.316 22.076 16.688 19.325 17.21 19.113C17.731 18.901 19.204 21.307 20.5 24.487C21.796 27.667 22.423 30.418 21.902 30.63C21.381 30.842 19.908 28.436 18.612 25.256Z" fill="#C0B1FF"/>
<path d="M11.205 24.432C12.538 21.267 14.039 18.878 14.558 19.097C15.077 19.315 14.417 22.059 13.084 25.224C11.751 28.389 10.25 30.778 9.731 30.559C9.212 30.34 9.872 27.597 11.205 24.432Z" fill="#C0B1FF"/>
<path d="M6.549 18.612C9.729 17.316 12.48 16.688 12.692 17.21C12.904 17.731 10.498 19.204 7.31798 20.5C4.13798 21.796 1.38698 22.424 1.17498 21.902C0.961979 21.381 3.369 19.908 6.549 18.612Z" fill="#C0B1FF"/>
<path d="M7.37202 11.205C10.537 12.538 12.926 14.039 12.707 14.558C12.488 15.077 9.746 14.417 6.58 13.084C3.415 11.751 1.02601 10.25 1.24501 9.731C1.46401 9.212 4.20702 9.872 7.37202 11.205Z" fill="#C0B1FF"/>
<path d="M13.192 6.549C14.488 9.729 15.115 12.48 14.594 12.692C14.073 12.904 12.6 10.498 11.304 7.31799C10.008 4.13699 9.381 1.38699 9.902 1.17499C10.423 0.962988 11.897 3.369 13.192 6.549Z" fill="#C0B1FF"/>
<path d="M18.553 15.902C18.553 17.366 17.366 18.552 15.902 18.552C14.438 18.552 13.252 17.365 13.252 15.902C13.252 14.438 14.439 13.252 15.902 13.252C17.366 13.252 18.553 14.439 18.553 15.902Z" fill="#C0B1FF"/>
</svg>
