<svg width="220" height="47" viewBox="0 0 220 47" fill="none" xmlns="http://www.w3.org/2000/svg">
<rect width="220" height="47" fill="url(#paint0_linear_72_437)"/>
<path d="M24 10H40C40.5523 10 41 10.4477 41 11V27C41 27.5523 40.5523 28 40 28H24C23.4477 28 23 27.5523 23 27V11C23 10.4477 23.4477 10 24 10ZM31.0026 23L38.0737 15.9289L36.6595 14.5147L31.0026 20.1716L28.1742 17.3431L26.76 18.7574L31.0026 23Z" fill="white"/>
<path d="M55.2445 16.3636C55.1848 15.8598 54.9429 15.4688 54.5186 15.1903C54.0944 14.9119 53.574 14.7727 52.9576 14.7727C52.5068 14.7727 52.1124 14.8456 51.7743 14.9915C51.4396 15.1373 51.1777 15.3378 50.9888 15.593C50.8032 15.8482 50.7104 16.1383 50.7104 16.4631C50.7104 16.7348 50.775 16.9685 50.9043 17.1641C51.0369 17.3563 51.2059 17.517 51.4114 17.6463C51.6169 17.7723 51.8323 17.8767 52.0577 17.9595C52.2831 18.0391 52.4902 18.1037 52.6792 18.1534L53.7132 18.4318C53.9784 18.5014 54.2734 18.5975 54.5982 18.7202C54.9263 18.8428 55.2395 19.0102 55.5378 19.2223C55.8394 19.4311 56.088 19.6996 56.2836 20.0277C56.4791 20.3558 56.5769 20.7585 56.5769 21.2358C56.5769 21.786 56.4327 22.2831 56.1444 22.7273C55.8593 23.1714 55.4417 23.5244 54.8915 23.7862C54.3446 24.0481 53.6801 24.179 52.8979 24.179C52.1687 24.179 51.5373 24.0613 51.0037 23.826C50.4734 23.5907 50.0558 23.2625 49.7509 22.8416C49.4493 22.4207 49.2786 21.9318 49.2388 21.375H50.5115C50.5447 21.7595 50.6739 22.0777 50.8993 22.3295C51.128 22.5781 51.4164 22.7637 51.7644 22.8864C52.1157 23.0057 52.4935 23.0653 52.8979 23.0653C53.3685 23.0653 53.7911 22.9891 54.1657 22.8366C54.5402 22.6809 54.8368 22.4654 55.0556 22.1903C55.2743 21.9119 55.3837 21.5871 55.3837 21.2159C55.3837 20.8778 55.2892 20.6027 55.1003 20.3906C54.9114 20.1785 54.6628 20.0062 54.3546 19.8736C54.0463 19.741 53.7132 19.625 53.3553 19.5256L52.1025 19.1676C51.307 18.9389 50.6773 18.6125 50.2132 18.1882C49.7492 17.764 49.5172 17.2088 49.5172 16.5227C49.5172 15.9527 49.6713 15.4555 49.9796 15.0312C50.2911 14.6037 50.7087 14.2723 51.2324 14.0369C51.7594 13.7983 52.3477 13.679 52.9973 13.679C53.6536 13.679 54.2369 13.7966 54.7473 14.032C55.2578 14.264 55.6621 14.5821 55.9604 14.9865C56.262 15.3909 56.4211 15.8499 56.4377 16.3636H55.2445ZM61.5472 24.1591C60.8313 24.1591 60.2148 23.9901 59.6978 23.652C59.1808 23.3139 58.783 22.8482 58.5046 22.255C58.2262 21.6617 58.087 20.9839 58.087 20.2216C58.087 19.446 58.2295 18.7616 58.5146 18.1683C58.8029 17.5717 59.204 17.1061 59.7177 16.7713C60.2347 16.4332 60.8379 16.2642 61.5273 16.2642C62.0643 16.2642 62.5482 16.3636 62.979 16.5625C63.4099 16.7614 63.7629 17.0398 64.038 17.3977C64.3131 17.7557 64.4838 18.1733 64.5501 18.6506H63.3768C63.2873 18.3026 63.0884 17.9943 62.7802 17.7259C62.4753 17.4541 62.0643 17.3182 61.5472 17.3182C61.0898 17.3182 60.6888 17.4375 60.3441 17.6761C60.0027 17.9115 59.7359 18.2446 59.5437 18.6754C59.3548 19.103 59.2603 19.6051 59.2603 20.1818C59.2603 20.7718 59.3531 21.2855 59.5387 21.723C59.7276 22.1605 59.9928 22.5002 60.3342 22.7422C60.6789 22.9841 61.0832 23.1051 61.5472 23.1051C61.8522 23.1051 62.1289 23.0521 62.3775 22.946C62.6261 22.84 62.8365 22.6875 63.0089 22.4886C63.1812 22.2898 63.3039 22.0511 63.3768 21.7727H64.5501C64.4838 22.2235 64.3197 22.6295 64.0579 22.9908C63.7994 23.3487 63.4563 23.6338 63.0288 23.8459C62.6045 24.0547 62.1107 24.1591 61.5472 24.1591ZM67.4386 19.4062V24H66.2653V13.8182H67.4386V17.5568H67.538C67.717 17.1624 67.9854 16.8492 68.3434 16.6172C68.7047 16.3819 69.1853 16.2642 69.7852 16.2642C70.3055 16.2642 70.7612 16.3686 71.1523 16.5774C71.5434 16.7829 71.8467 17.0994 72.0621 17.527C72.2809 17.9512 72.3903 18.4915 72.3903 19.1477V24H71.217V19.2273C71.217 18.6207 71.0595 18.1518 70.7447 17.8203C70.4331 17.4856 70.0006 17.3182 69.4471 17.3182C69.0626 17.3182 68.7179 17.3994 68.413 17.5618C68.1114 17.7242 67.8728 17.9612 67.6971 18.2727C67.5247 18.5843 67.4386 18.9621 67.4386 19.4062ZM77.639 24.1591C76.9496 24.1591 76.3448 23.995 75.8244 23.6669C75.3074 23.3388 74.903 22.8797 74.6113 22.2898C74.323 21.6998 74.1788 21.0104 74.1788 20.2216C74.1788 19.4261 74.323 18.7318 74.6113 18.1385C74.903 17.5452 75.3074 17.0845 75.8244 16.7564C76.3448 16.4283 76.9496 16.2642 77.639 16.2642C78.3284 16.2642 78.9316 16.4283 79.4487 16.7564C79.969 17.0845 80.3734 17.5452 80.6618 18.1385C80.9534 18.7318 81.0993 19.4261 81.0993 20.2216C81.0993 21.0104 80.9534 21.6998 80.6618 22.2898C80.3734 22.8797 79.969 23.3388 79.4487 23.6669C78.9316 23.995 78.3284 24.1591 77.639 24.1591ZM77.639 23.1051C78.1627 23.1051 78.5936 22.9709 78.9316 22.7024C79.2697 22.4339 79.5199 22.081 79.6824 21.6435C79.8448 21.206 79.926 20.732 79.926 20.2216C79.926 19.7112 79.8448 19.2356 79.6824 18.7947C79.5199 18.3539 79.2697 17.9976 78.9316 17.7259C78.5936 17.4541 78.1627 17.3182 77.639 17.3182C77.1154 17.3182 76.6845 17.4541 76.3464 17.7259C76.0083 17.9976 75.7581 18.3539 75.5957 18.7947C75.4333 19.2356 75.3521 19.7112 75.3521 20.2216C75.3521 20.732 75.4333 21.206 75.5957 21.6435C75.7581 22.081 76.0083 22.4339 76.3464 22.7024C76.6845 22.9709 77.1154 23.1051 77.639 23.1051ZM84.0636 13.8182V24H82.8903V13.8182H84.0636ZM88.4597 24.179C87.9758 24.179 87.5366 24.0878 87.1422 23.9055C86.7478 23.7199 86.4346 23.4531 86.2026 23.1051C85.9706 22.7538 85.8546 22.3295 85.8546 21.8324C85.8546 21.3949 85.9408 21.0402 86.1131 20.7685C86.2855 20.4934 86.5158 20.2779 86.8042 20.1222C87.0925 19.9664 87.4107 19.8504 87.7587 19.7741C88.11 19.6946 88.463 19.6316 88.8176 19.5852C89.2817 19.5256 89.6578 19.4808 89.9462 19.451C90.2379 19.4179 90.45 19.3632 90.5826 19.2869C90.7185 19.2107 90.7864 19.0781 90.7864 18.8892V18.8494C90.7864 18.3589 90.6522 17.9777 90.3837 17.706C90.1185 17.4342 89.7159 17.2983 89.1756 17.2983C88.6155 17.2983 88.1763 17.4209 87.8581 17.6662C87.54 17.9115 87.3162 18.1733 87.187 18.4517L86.0733 18.054C86.2722 17.59 86.5373 17.2287 86.8688 16.9702C87.2035 16.7083 87.5681 16.526 87.9625 16.4233C88.3603 16.3172 88.7514 16.2642 89.1358 16.2642C89.3811 16.2642 89.6628 16.294 89.981 16.3537C90.3025 16.41 90.6124 16.5277 90.9107 16.7067C91.2123 16.8857 91.4625 17.1558 91.6614 17.517C91.8603 17.8783 91.9597 18.3622 91.9597 18.9688V24H90.7864V22.9659H90.7267C90.6472 23.1316 90.5146 23.3089 90.329 23.4979C90.1434 23.6868 89.8965 23.8475 89.5882 23.9801C89.28 24.1127 88.9038 24.179 88.4597 24.179ZM88.6387 23.125C89.1027 23.125 89.4938 23.0339 89.812 22.8516C90.1335 22.6693 90.3754 22.4339 90.5378 22.1456C90.7035 21.8572 90.7864 21.554 90.7864 21.2358V20.1619C90.7367 20.2216 90.6273 20.2763 90.4583 20.326C90.2926 20.3724 90.1003 20.4138 89.8816 20.4503C89.6661 20.4834 89.4557 20.5133 89.2502 20.5398C89.048 20.563 88.8839 20.5829 88.758 20.5994C88.4531 20.6392 88.168 20.7038 87.9029 20.7933C87.641 20.8795 87.4289 21.0104 87.2665 21.1861C87.1074 21.3584 87.0279 21.5937 87.0279 21.892C87.0279 22.2997 87.1787 22.608 87.4803 22.8168C87.7852 23.0223 88.1713 23.125 88.6387 23.125ZM94.1012 24V16.3636H95.2347V17.517H95.3143C95.4535 17.1392 95.7054 16.8326 96.07 16.5973C96.4345 16.362 96.8455 16.2443 97.3029 16.2443C97.3891 16.2443 97.4968 16.246 97.6261 16.2493C97.7553 16.2526 97.8531 16.2576 97.9194 16.2642V17.4574C97.8796 17.4474 97.7885 17.4325 97.646 17.4126C97.5067 17.3894 97.3593 17.3778 97.2035 17.3778C96.8323 17.3778 96.5008 17.4557 96.2092 17.6115C95.9208 17.764 95.6921 17.9761 95.5231 18.2479C95.3574 18.5163 95.2745 18.8229 95.2745 19.1676V24H94.1012ZM104.719 18.0739L103.665 18.3722C103.599 18.1965 103.501 18.0258 103.372 17.8601C103.246 17.6911 103.074 17.5518 102.855 17.4425C102.636 17.3331 102.356 17.2784 102.015 17.2784C101.547 17.2784 101.158 17.3861 100.846 17.6016C100.538 17.8137 100.384 18.0838 100.384 18.4119C100.384 18.7036 100.49 18.9339 100.702 19.103C100.914 19.272 101.246 19.4129 101.697 19.5256L102.83 19.804C103.513 19.9697 104.022 20.2232 104.356 20.5646C104.691 20.9027 104.858 21.3385 104.858 21.8722C104.858 22.3097 104.733 22.7008 104.481 23.0455C104.232 23.3902 103.884 23.6619 103.437 23.8608C102.989 24.0597 102.469 24.1591 101.876 24.1591C101.097 24.1591 100.452 23.9901 99.9416 23.652C99.4312 23.3139 99.108 22.8201 98.9721 22.1705L100.086 21.892C100.192 22.303 100.392 22.6113 100.687 22.8168C100.986 23.0223 101.375 23.125 101.856 23.125C102.403 23.125 102.837 23.009 103.158 22.777C103.483 22.5417 103.645 22.2599 103.645 21.9318C103.645 21.6667 103.553 21.4446 103.367 21.2656C103.181 21.0833 102.896 20.9474 102.512 20.858L101.239 20.5597C100.54 20.3939 100.026 20.1371 99.698 19.7891C99.3732 19.4377 99.2108 18.9986 99.2108 18.4716C99.2108 18.0407 99.3317 17.6596 99.5737 17.3281C99.819 16.9967 100.152 16.7365 100.573 16.5476C100.997 16.3587 101.478 16.2642 102.015 16.2642C102.77 16.2642 103.364 16.4299 103.795 16.7614C104.229 17.0928 104.537 17.5303 104.719 18.0739ZM107.798 19.4062V24H106.625V13.8182H107.798V17.5568H107.897C108.076 17.1624 108.345 16.8492 108.703 16.6172C109.064 16.3819 109.545 16.2642 110.145 16.2642C110.665 16.2642 111.121 16.3686 111.512 16.5774C111.903 16.7829 112.206 17.0994 112.422 17.527C112.64 17.9512 112.75 18.4915 112.75 19.1477V24H111.576V19.2273C111.576 18.6207 111.419 18.1518 111.104 17.8203C110.792 17.4856 110.36 17.3182 109.806 17.3182C109.422 17.3182 109.077 17.3994 108.772 17.5618C108.471 17.7242 108.232 17.9612 108.056 18.2727C107.884 18.5843 107.798 18.9621 107.798 19.4062ZM114.896 24V16.3636H116.069V24H114.896ZM115.493 15.0909C115.264 15.0909 115.067 15.013 114.901 14.8572C114.739 14.7015 114.657 14.5142 114.657 14.2955C114.657 14.0767 114.739 13.8894 114.901 13.7337C115.067 13.5779 115.264 13.5 115.493 13.5C115.721 13.5 115.917 13.5779 116.079 13.7337C116.245 13.8894 116.328 14.0767 116.328 14.2955C116.328 14.5142 116.245 14.7015 116.079 14.8572C115.917 15.013 115.721 15.0909 115.493 15.0909ZM118.218 26.8636V16.3636H119.352V17.5767H119.491C119.577 17.4441 119.697 17.2751 119.849 17.0696C120.005 16.8608 120.227 16.6752 120.515 16.5128C120.807 16.3471 121.201 16.2642 121.699 16.2642C122.342 16.2642 122.908 16.425 123.399 16.7464C123.889 17.0679 124.272 17.5237 124.547 18.1136C124.822 18.7036 124.96 19.3996 124.96 20.2017C124.96 21.0104 124.822 21.7114 124.547 22.3047C124.272 22.8946 123.891 23.352 123.404 23.6768C122.917 23.9983 122.355 24.1591 121.718 24.1591C121.228 24.1591 120.835 24.0779 120.54 23.9155C120.245 23.7498 120.018 23.5625 119.859 23.3537C119.7 23.1416 119.577 22.9659 119.491 22.8267H119.392V26.8636H118.218ZM119.372 20.1818C119.372 20.7585 119.456 21.2673 119.625 21.7081C119.794 22.1456 120.041 22.4886 120.366 22.7372C120.691 22.9825 121.089 23.1051 121.559 23.1051C122.05 23.1051 122.459 22.9759 122.787 22.7173C123.119 22.4555 123.367 22.1042 123.533 21.6634C123.702 21.2192 123.787 20.7254 123.787 20.1818C123.787 19.6449 123.704 19.161 123.538 18.7301C123.376 18.2959 123.129 17.9529 122.797 17.701C122.469 17.4458 122.056 17.3182 121.559 17.3182C121.082 17.3182 120.681 17.4392 120.356 17.6811C120.031 17.9197 119.786 18.2545 119.62 18.6854C119.455 19.1129 119.372 19.6117 119.372 20.1818ZM131.264 24H129.971L133.71 13.8182H134.983L138.721 24H137.429L134.386 15.429H134.306L131.264 24ZM131.741 20.0227H136.951V21.1165H131.741V20.0227ZM140.148 26.8636V16.3636H141.282V17.5767H141.421C141.507 17.4441 141.626 17.2751 141.779 17.0696C141.935 16.8608 142.157 16.6752 142.445 16.5128C142.737 16.3471 143.131 16.2642 143.628 16.2642C144.271 16.2642 144.838 16.425 145.328 16.7464C145.819 17.0679 146.202 17.5237 146.477 18.1136C146.752 18.7036 146.89 19.3996 146.89 20.2017C146.89 21.0104 146.752 21.7114 146.477 22.3047C146.202 22.8946 145.821 23.352 145.333 23.6768C144.846 23.9983 144.284 24.1591 143.648 24.1591C143.158 24.1591 142.765 24.0779 142.47 23.9155C142.175 23.7498 141.948 23.5625 141.789 23.3537C141.63 23.1416 141.507 22.9659 141.421 22.8267H141.321V26.8636H140.148ZM141.301 20.1818C141.301 20.7585 141.386 21.2673 141.555 21.7081C141.724 22.1456 141.971 22.4886 142.296 22.7372C142.621 22.9825 143.018 23.1051 143.489 23.1051C143.98 23.1051 144.389 22.9759 144.717 22.7173C145.048 22.4555 145.297 22.1042 145.463 21.6634C145.632 21.2192 145.716 20.7254 145.716 20.1818C145.716 19.6449 145.633 19.161 145.468 18.7301C145.305 18.2959 145.058 17.9529 144.727 17.701C144.399 17.4458 143.986 17.3182 143.489 17.3182C143.012 17.3182 142.611 17.4392 142.286 17.6811C141.961 17.9197 141.716 18.2545 141.55 18.6854C141.384 19.1129 141.301 19.6117 141.301 20.1818ZM148.679 26.8636V16.3636H149.813V17.5767H149.952C150.038 17.4441 150.158 17.2751 150.31 17.0696C150.466 16.8608 150.688 16.6752 150.976 16.5128C151.268 16.3471 151.662 16.2642 152.159 16.2642C152.802 16.2642 153.369 16.425 153.86 16.7464C154.35 17.0679 154.733 17.5237 155.008 18.1136C155.283 18.7036 155.421 19.3996 155.421 20.2017C155.421 21.0104 155.283 21.7114 155.008 22.3047C154.733 22.8946 154.352 23.352 153.865 23.6768C153.377 23.9983 152.816 24.1591 152.179 24.1591C151.689 24.1591 151.296 24.0779 151.001 23.9155C150.706 23.7498 150.479 23.5625 150.32 23.3537C150.161 23.1416 150.038 22.9659 149.952 22.8267H149.853V26.8636H148.679ZM149.833 20.1818C149.833 20.7585 149.917 21.2673 150.086 21.7081C150.255 22.1456 150.502 22.4886 150.827 22.7372C151.152 22.9825 151.55 23.1051 152.02 23.1051C152.511 23.1051 152.92 22.9759 153.248 22.7173C153.58 22.4555 153.828 22.1042 153.994 21.6634C154.163 21.2192 154.248 20.7254 154.248 20.1818C154.248 19.6449 154.165 19.161 153.999 18.7301C153.837 18.2959 153.59 17.9529 153.258 17.701C152.93 17.4458 152.517 17.3182 152.02 17.3182C151.543 17.3182 151.142 17.4392 150.817 17.6811C150.492 17.9197 150.247 18.2545 150.081 18.6854C149.916 19.1129 149.833 19.6117 149.833 20.1818ZM157.211 24V16.3636H158.344V17.517H158.424C158.563 17.1392 158.815 16.8326 159.179 16.5973C159.544 16.362 159.955 16.2443 160.412 16.2443C160.498 16.2443 160.606 16.246 160.735 16.2493C160.865 16.2526 160.962 16.2576 161.029 16.2642V17.4574C160.989 17.4474 160.898 17.4325 160.755 17.4126C160.616 17.3894 160.469 17.3778 160.313 17.3778C159.942 17.3778 159.61 17.4557 159.319 17.6115C159.03 17.764 158.801 17.9761 158.632 18.2479C158.467 18.5163 158.384 18.8229 158.384 19.1676V24H157.211ZM165.289 24.1591C164.6 24.1591 163.995 23.995 163.475 23.6669C162.958 23.3388 162.553 22.8797 162.262 22.2898C161.973 21.6998 161.829 21.0104 161.829 20.2216C161.829 19.4261 161.973 18.7318 162.262 18.1385C162.553 17.5452 162.958 17.0845 163.475 16.7564C163.995 16.4283 164.6 16.2642 165.289 16.2642C165.979 16.2642 166.582 16.4283 167.099 16.7564C167.619 17.0845 168.024 17.5452 168.312 18.1385C168.604 18.7318 168.75 19.4261 168.75 20.2216C168.75 21.0104 168.604 21.6998 168.312 22.2898C168.024 22.8797 167.619 23.3388 167.099 23.6669C166.582 23.995 165.979 24.1591 165.289 24.1591ZM165.289 23.1051C165.813 23.1051 166.244 22.9709 166.582 22.7024C166.92 22.4339 167.17 22.081 167.333 21.6435C167.495 21.206 167.576 20.732 167.576 20.2216C167.576 19.7112 167.495 19.2356 167.333 18.7947C167.17 18.3539 166.92 17.9976 166.582 17.7259C166.244 17.4541 165.813 17.3182 165.289 17.3182C164.766 17.3182 164.335 17.4541 163.997 17.7259C163.659 17.9976 163.408 18.3539 163.246 18.7947C163.084 19.2356 163.002 19.7112 163.002 20.2216C163.002 20.732 163.084 21.206 163.246 21.6435C163.408 22.081 163.659 22.4339 163.997 22.7024C164.335 22.9709 164.766 23.1051 165.289 23.1051ZM176.512 16.3636L173.688 24H172.494L169.671 16.3636H170.943L173.051 22.4489H173.131L175.239 16.3636H176.512ZM180.988 24.1591C180.253 24.1591 179.618 23.9967 179.084 23.6719C178.554 23.3438 178.145 22.8864 177.856 22.2997C177.571 21.7098 177.429 21.0237 177.429 20.2415C177.429 19.4593 177.571 18.7699 177.856 18.1733C178.145 17.5734 178.546 17.1061 179.059 16.7713C179.577 16.4332 180.18 16.2642 180.869 16.2642C181.267 16.2642 181.66 16.3305 182.047 16.4631C182.435 16.5956 182.788 16.8111 183.106 17.1094C183.425 17.4044 183.678 17.7955 183.867 18.2827C184.056 18.7699 184.15 19.3698 184.15 20.0824V20.5795H178.264V19.5653H182.957C182.957 19.1345 182.871 18.75 182.699 18.4119C182.53 18.0739 182.288 17.8071 181.973 17.6115C181.661 17.416 181.293 17.3182 180.869 17.3182C180.402 17.3182 179.997 17.4342 179.656 17.6662C179.318 17.8949 179.058 18.1932 178.876 18.5611C178.693 18.929 178.602 19.3234 178.602 19.7443V20.4205C178.602 20.9972 178.702 21.486 178.9 21.8871C179.103 22.2848 179.383 22.5881 179.741 22.7969C180.099 23.0024 180.515 23.1051 180.988 23.1051C181.297 23.1051 181.575 23.062 181.824 22.9759C182.076 22.8864 182.293 22.7538 182.475 22.5781C182.657 22.3991 182.798 22.1771 182.898 21.9119L184.031 22.2301C183.912 22.6146 183.711 22.9527 183.43 23.2443C183.148 23.5327 182.8 23.758 182.385 23.9205C181.971 24.0795 181.506 24.1591 180.988 24.1591ZM188.819 24.1591C188.182 24.1591 187.621 23.9983 187.133 23.6768C186.646 23.352 186.265 22.8946 185.99 22.3047C185.715 21.7114 185.577 21.0104 185.577 20.2017C185.577 19.3996 185.715 18.7036 185.99 18.1136C186.265 17.5237 186.648 17.0679 187.138 16.7464C187.629 16.425 188.196 16.2642 188.839 16.2642C189.336 16.2642 189.729 16.3471 190.017 16.5128C190.309 16.6752 190.531 16.8608 190.683 17.0696C190.839 17.2751 190.96 17.4441 191.046 17.5767H191.145V13.8182H192.319V24H191.185V22.8267H191.046C190.96 22.9659 190.837 23.1416 190.678 23.3537C190.519 23.5625 190.292 23.7498 189.997 23.9155C189.702 24.0779 189.309 24.1591 188.819 24.1591ZM188.978 23.1051C189.448 23.1051 189.846 22.9825 190.171 22.7372C190.496 22.4886 190.743 22.1456 190.912 21.7081C191.081 21.2673 191.165 20.7585 191.165 20.1818C191.165 19.6117 191.082 19.1129 190.917 18.6854C190.751 18.2545 190.506 17.9197 190.181 17.6811C189.856 17.4392 189.455 17.3182 188.978 17.3182C188.481 17.3182 188.066 17.4458 187.735 17.701C187.407 17.9529 187.16 18.2959 186.994 18.7301C186.832 19.161 186.751 19.6449 186.751 20.1818C186.751 20.7254 186.833 21.2192 186.999 21.6634C187.168 22.1042 187.417 22.4555 187.745 22.7173C188.076 22.9759 188.487 23.1051 188.978 23.1051Z" fill="white"/>
<defs>
<linearGradient id="paint0_linear_72_437" x1="105.5" y1="-2.62966e-07" x2="104.651" y2="47.0027" gradientUnits="userSpaceOnUse">
<stop stop-opacity="0"/>
<stop offset="1" stop-color="#0B0B0B"/>
</linearGradient>
</defs>
</svg>
