<svg width="188" height="134" viewBox="0 0 188 134" fill="none" xmlns="http://www.w3.org/2000/svg">
<g opacity="0.5">
<path d="M113.675 15.1964C101.215 10.9413 87.5943 11.7026 75.5997 17.1327C62.8236 22.9167 43.9774 33.726 40.3603 48.3469C34.7891 70.8673 57.1616 83.0659 70.6867 76.567C84.2118 70.068 86.4544 56.7252 99.4695 62.8167C112.485 68.9082 126.059 80.4237 138.703 69.9048C153.807 57.3383 149.062 27.2815 113.675 15.1964Z" fill="#CCCCCC"/>
</g>
<path d="M61.7149 20.0302C61.1096 19.747 60.7261 19.2578 60.6194 18.6022C60.439 17.494 60.9399 16.5562 61.3918 15.9641C62.7059 14.2429 65.2067 13.8757 66.9653 15.1457C67.7977 15.7468 68.1253 16.5438 67.9125 17.4509C67.5093 19.1692 64.9799 20.376 62.9875 20.3069C62.4957 20.2903 62.0678 20.1953 61.7149 20.0302ZM66.1783 15.074C64.6358 14.3522 62.7247 14.7769 61.6614 16.1698C61.25 16.7086 60.7933 17.5586 60.9542 18.5477C61.1465 19.7288 62.3183 19.9448 62.9998 19.9685C64.8229 20.0318 67.2222 18.912 67.5832 17.3737C67.7649 16.5996 67.4905 15.9424 66.7674 15.4205C66.5792 15.2849 66.3817 15.1694 66.1783 15.074Z" fill="#CCCCCC"/>
<g opacity="0.5">
<path d="M51.1621 17.0482C49.3614 16.5794 47.9026 17.9494 47.9026 17.9494C47.9026 17.9494 47.0429 15.4363 45.3635 15.3824C43.1349 15.311 42.2707 17.3976 42.2707 17.3976C42.2707 17.3976 41.6479 13.8564 38.6323 14.4731C36.428 14.924 35.2212 17.9494 35.2212 17.9494C35.2212 17.9494 32.6744 16.4227 30.946 17.9494C29.2176 19.476 28.7174 20.9277 28.7174 20.9277H54.5719C54.5719 20.9277 54.2605 17.8546 51.1621 17.0482Z" fill="#CCCCCC"/>
</g>
<g opacity="0.5">
<path d="M183.382 32.7015C181.758 32.2788 180.443 33.5141 180.443 33.5141C180.443 33.5141 179.667 31.2482 178.153 31.1995C176.144 31.135 175.365 33.0165 175.365 33.0165C175.365 33.0165 174.803 29.8235 172.084 30.3795C170.097 30.7859 169.009 33.5141 169.009 33.5141C169.009 33.5141 166.712 32.1377 165.154 33.5141C163.595 34.8905 163.145 36.1995 163.145 36.1995H186.457C186.457 36.1998 186.176 33.4288 183.382 32.7015Z" fill="#CCCCCC"/>
</g>
<path d="M120.603 74.696C121.067 74.7793 121.514 74.9127 121.913 75.0937C123.131 75.6452 123.693 76.5483 123.454 77.5717C123.199 78.665 122.379 79.342 121.736 79.717C119.865 80.8086 117.413 80.1961 116.27 78.3522C115.729 77.4796 115.73 76.6177 116.272 75.8599C117.073 74.7401 118.953 74.4008 120.603 74.696ZM119.062 79.861C119.898 80.0106 120.787 79.8785 121.565 79.4244C122.151 79.0828 122.897 78.4707 123.124 77.4945C123.396 76.329 122.395 75.6831 121.774 75.4019C120.112 74.6496 117.467 74.7715 116.548 76.0568C116.085 76.7037 116.089 77.4157 116.558 78.1735C117.13 79.0954 118.058 79.6813 119.062 79.861Z" fill="#CCCCCC"/>
<path d="M135.249 21.9235C134.056 22.5035 132.513 22.3527 131.27 21.5226C130.074 20.7242 129.445 19.4694 129.588 18.1667C129.794 16.2942 131.744 16.0409 132.133 16.0091C134.292 15.8333 136.238 17.4449 136.472 19.6018C136.583 20.6227 136.21 21.3996 135.394 21.8486C135.346 21.8749 135.298 21.8998 135.249 21.9235ZM131.053 16.6459C130.534 16.8983 130.018 17.3602 129.925 18.2036C129.796 19.3786 130.369 20.514 131.458 21.2407C132.648 22.0354 134.129 22.1594 135.23 21.5518C135.927 21.1686 136.232 20.5247 136.135 19.6385C135.921 17.6622 134.138 16.1856 132.161 16.3468C131.998 16.3601 131.524 16.4169 131.053 16.6459Z" fill="#CCCCCC"/>
<path d="M94.8263 134C146.017 134 187.516 132.707 187.516 131.112C187.516 129.518 146.017 128.225 94.8263 128.225C43.6353 128.225 2.13678 129.518 2.13678 131.112C2.13678 132.707 43.6353 134 94.8263 134Z" fill="#CCCCCC"/>
<path d="M53.0579 129.704C53.0579 129.704 47.3077 125.66 49.4951 123.511C51.4197 121.621 54.2715 128.569 54.2715 128.569C54.2715 128.569 54.17 123.357 57.2187 123.664C60.2674 123.972 55.8974 129.703 55.8974 129.703H53.0579V129.704Z" fill="#CCCCCC"/>
<path d="M117.732 129.704C117.732 129.704 111.982 125.66 114.17 123.511C116.094 121.621 118.946 128.569 118.946 128.569C118.946 128.569 118.844 123.357 121.893 123.664C124.942 123.972 120.572 129.703 120.572 129.703H117.732V129.704Z" fill="#CCCCCC"/>
<path d="M13.8076 129.922C13.8076 129.922 11.2024 126.193 13.8076 124.988C16.4129 123.783 21.1471 129.499 21.1471 129.499C21.1471 129.499 20.9862 125.679 23.6285 126.662C26.2707 127.645 26.9821 129.921 26.9821 129.921H13.8076V129.922Z" fill="#CCCCCC"/>
<path d="M87.3298 128.994C87.3298 128.994 89.935 125.265 87.3298 124.061C84.7245 122.856 79.9903 128.572 79.9903 128.572C79.9903 128.572 80.1512 124.752 77.509 125.735C74.8667 126.717 74.1553 128.994 74.1553 128.994H87.3298V128.994Z" fill="#CCCCCC"/>
<path d="M163.234 129.571C163.234 129.571 165.84 125.842 163.234 124.638C160.629 123.433 155.895 129.149 155.895 129.149C155.895 129.149 156.056 125.329 153.414 126.311C150.771 127.294 150.06 129.571 150.06 129.571H163.234V129.571Z" fill="#CCCCCC"/>
<path d="M42.0964 22.771C42.0964 22.771 44.3354 23.8113 45.7082 27.055C47.0811 30.2983 50.7159 38.2626 52.6691 38.1322C54.6223 38.0018 59.0822 35.5691 59.0822 35.5691C61.3594 35.2785 63.2776 50.3001 61.0007 50.5907C61.0007 50.5907 59.7848 52.0563 53.7037 49.7051C47.6225 47.3539 45.4487 46.4913 44.1164 39.4895C42.7838 32.4877 42.0964 22.771 42.0964 22.771Z" fill="#2B2F36"/>
<path d="M52.1608 38.1229C51.1802 39.0448 50.6128 40.3051 50.5681 41.6497C50.5642 41.7672 50.7465 41.7672 50.7504 41.6497C50.7938 40.3508 51.3434 39.1418 52.29 38.2517C52.3756 38.1712 52.2465 38.0424 52.1608 38.1229Z" fill="#747D86"/>
<path d="M34.3659 122.001L32.4543 127.183L29.3151 127.177V121.469L34.3659 122.001Z" fill="#DE7E49"/>
<path d="M35.1614 131.575H28.0311C28.0311 131.575 27.8754 131.276 28.0531 130.478C28.0804 130.354 28.1158 130.218 28.1618 130.069C28.1644 130.061 28.166 130.054 28.1683 130.046C28.2348 129.826 28.3114 129.555 28.3928 129.262C28.7195 128.068 29.1036 126.508 29.1036 126.508C29.1036 126.508 30.2899 123.968 31.6776 124.603C32.8951 125.159 32.6064 126.751 32.6064 126.751C32.6064 126.751 32.7258 127.685 33.6487 128.51C34.2196 129.019 34.7873 129.413 35.0605 130.046C35.1114 130.165 35.1516 130.291 35.1805 130.427C35.1837 130.444 35.187 130.461 35.1896 130.478C35.247 130.784 35.2434 131.142 35.1614 131.575Z" fill="#2B2F36"/>
<path d="M35.1614 131.575H28.0311C28.0311 131.575 27.8754 131.276 28.0531 130.479H35.1899C35.247 130.784 35.2434 131.142 35.1614 131.575Z" fill="#747D86"/>
<path d="M67.2885 31.4679C67.2885 31.4679 61.2563 34.8099 57.8118 37.0012C56.1042 38.0824 56.1402 44.1399 57.8387 44.1399C63.2769 41.1045 68.6772 33.5415 68.6772 33.5415C69.1612 33.0971 67.7721 31.0235 67.2885 31.4679Z" fill="#DE7E49"/>
<path d="M66.6356 32.1153C66.6356 32.1153 66.6187 30.7873 67.3486 29.8981C68.0785 29.0089 68.4665 28.1214 69.0468 27.4943C69.6272 26.8676 69.4822 27.9851 69.294 28.5797C69.1059 29.1744 68.8979 29.8498 69.3206 29.8676C69.7433 29.8858 73.2257 28.0464 73.7999 28.1441C74.3741 28.2417 73.8732 28.7173 73.8732 28.7173C73.8732 28.7173 74.656 28.3108 74.9291 28.5911C75.2023 28.8714 74.7614 29.2762 74.7614 29.2762C74.7614 29.2762 75.2934 29.0219 75.3658 29.4241C75.4381 29.8264 72.6107 31.7828 72.7323 31.9836C72.854 32.1841 74.0938 30.6082 74.4977 30.8778C74.9016 31.1473 73.9092 31.887 73.1881 32.565C72.467 33.2429 71.5337 33.7406 70.6185 33.8158C69.7031 33.8911 68.1366 34.5328 67.5287 33.7007C66.9214 32.8689 66.6356 32.1153 66.6356 32.1153Z" fill="#DE7E49"/>
<path d="M74.7602 29.1621C73.8334 29.6513 72.9208 30.1713 72.0271 30.7189C71.9217 30.7835 72.0394 30.9356 72.1439 30.8717C73.0237 30.3326 73.9219 29.8213 74.8341 29.3396C74.9431 29.2818 74.8698 29.1041 74.7602 29.1621Z" fill="#A3562C"/>
<path d="M73.8199 28.703C73.0845 29.0093 72.3919 29.3937 71.7431 29.8556C71.6422 29.9276 71.7593 30.0798 71.8599 30.0081C72.4953 29.5556 73.174 29.1799 73.8942 28.8802C74.0087 28.8328 73.9344 28.6557 73.8199 28.703Z" fill="#A3562C"/>
<path d="M72.4201 31.5552C72.2401 30.7718 71.8888 30.0588 71.3723 29.4421C71.2929 29.3474 71.1401 29.4641 71.2199 29.5589C71.7146 30.1493 72.0575 30.8308 72.23 31.5818C72.2573 31.7018 72.448 31.6762 72.4201 31.5552Z" fill="#A3562C"/>
<path d="M70.9324 30.6967C69.737 30.6594 68.6963 31.3221 68.2279 32.4248C68.1795 32.5386 68.3573 32.6116 68.4056 32.4974C68.838 31.4795 69.8025 30.8527 70.9093 30.8874C71.0319 30.8913 71.0563 30.7006 70.9324 30.6967Z" fill="#A3562C"/>
<path d="M46.9978 46.7949C46.9978 46.7949 52.2118 51.0825 60.7681 52.6354C69.3244 54.1883 65.1559 61.2689 69.4295 73.4075C71.2102 78.4649 77.3277 85.0927 77.3277 85.0927C77.3277 85.0927 70.4725 91.434 60.1313 89.1421C49.7902 86.8503 49.9371 85.0278 43.2996 84.889C36.6624 84.7498 34.124 63.1841 34.124 63.1841L46.9978 46.7949Z" fill="#2B2F36"/>
<path d="M77.3273 85.093C77.3273 85.093 73.1458 85.3707 65.7947 77.3178C58.1379 68.9302 62.2947 58.9303 52.0389 60.3982C44.8762 61.4233 42.2674 75.2728 37.7479 76.7034C33.2284 78.134 41.5317 85.6769 48.7748 88.4875C64.5551 94.6112 77.3676 85.6442 77.3273 85.093Z" fill="#745423"/>
<path d="M21.3619 91.4672C21.3619 91.4672 21.7447 94.7995 27.2845 92.2374C32.8242 89.6756 33.9943 84.0447 43.2426 84.6049C43.2426 84.6049 43.9488 75.1526 36.4568 75.853C28.9649 76.5534 22.5113 87.1962 21.3619 91.4672Z" fill="#745423"/>
<path d="M36.2775 54.2536C36.2775 54.2536 45.0177 89.3963 44.6771 94.2476C44.3368 99.0993 35.0243 122.795 35.0243 122.795L27.786 121.878C28.9292 105.707 30.7942 94.2742 31.6862 92.0038C31.6862 92.0038 21.7389 64.4004 22.087 58.5678C22.4354 52.7351 36.2775 54.2536 36.2775 54.2536Z" fill="#97722F"/>
<path d="M43.6908 94.4567C42.549 94.9426 41.2893 94.9783 40.1176 94.5764C39.9693 94.5255 39.9054 94.7603 40.053 94.8109C41.2913 95.2359 42.6112 95.1788 43.8138 94.6669C43.9572 94.6056 43.8333 94.396 43.6908 94.4567Z" fill="#745423"/>
<path d="M29.4969 121.033C29.4376 121.033 29.3636 121.001 29.3276 120.91C29.1265 120.404 29.8229 113.046 30.5801 106.807C31.1786 101.873 32.3013 93.5718 33.2061 92.3721L28.7751 78.8376C28.7472 78.7526 28.7936 78.6608 28.8789 78.6332C28.9639 78.605 29.0554 78.6517 29.0836 78.7367L33.5435 92.3592C33.5636 92.4201 33.5454 92.4876 33.4974 92.5304C32.8969 93.0677 31.9299 98.3926 30.911 106.774C30.0701 113.692 29.5096 120.162 29.6247 120.771C29.6455 120.797 29.6585 120.83 29.6591 120.867C29.6614 120.956 29.5907 121.03 29.5011 121.033C29.4998 121.033 29.4982 121.033 29.4969 121.033Z" fill="#745423"/>
<path d="M35.99 121.156L35.36 123.186L27.2845 122.113L27.8136 119.751L35.99 121.156Z" fill="#745423"/>
<path d="M57.1124 94.3381L55.1556 98.7262L51.3242 97.8857L52.0709 93.3032L57.1124 94.3381Z" fill="#DE7E49"/>
<path d="M49.3214 102.721L51.8925 103.659C51.8925 103.659 52.5131 103.572 52.8051 103.72C53.0957 103.868 54.0809 104.456 54.0809 104.456L60.9088 106.946C60.9588 106.64 60.9841 106.361 60.9899 106.107C60.9967 105.797 60.9731 105.524 60.9244 105.283C60.7531 104.438 60.2656 103.982 59.6521 103.713C58.7179 103.305 56.4412 100.2 56.4412 100.2C56.4412 100.2 55.4888 99.4198 55.8534 98.2364C55.9897 97.7926 55.5407 97.0264 55.2504 96.871C54.6587 96.5531 54.1672 96.822 53.849 97.413L53.4798 98.0998L52.1196 97.3491C52.1196 97.3491 50.9216 96.0759 50.7312 96.8191C50.6228 97.2434 50.2044 99.1564 49.8316 100.659C49.745 101.01 49.6626 101.341 49.5903 101.632L49.5909 101.632C49.4307 102.277 49.3214 102.721 49.3214 102.721Z" fill="#2B2F36"/>
<path d="M49.3214 102.721L51.8925 103.659C51.8925 103.659 52.5131 103.572 52.8051 103.72C53.0957 103.868 54.0809 104.456 54.0809 104.456L60.9088 106.946C60.9588 106.64 60.9841 106.361 60.9899 106.106L49.5912 101.632C49.4307 102.277 49.3214 102.721 49.3214 102.721Z" fill="#747D86"/>
<path d="M45.0817 53.0563C45.0817 53.0563 64.7532 51.1128 67.1005 55.5892C70.1573 61.4189 58.1141 95.0389 58.1141 95.0389L50.2429 92.5225C50.2429 92.5225 54.0549 68.593 54.3371 65.4586C54.3371 65.4586 39.8586 68.9712 34.6578 67.5056C29.4571 66.0396 32.7202 56.4926 32.7202 56.4926L45.0817 53.0563Z" fill="#97722F"/>
<path d="M66.55 55.2679C65.9758 56.0098 65.221 56.5551 64.3315 56.8564C64.1839 56.9064 64.2474 57.1416 64.396 57.091C65.3238 56.7766 66.1215 56.2154 66.7216 55.4401C66.8167 55.3175 66.6457 55.1439 66.55 55.2679Z" fill="#745423"/>
<path d="M59.1658 93.6415L58.2328 95.8786L49.5772 93.4375L50.0057 90.7278L59.1658 93.6415Z" fill="#745423"/>
<path d="M52.1567 91.0104C53.3083 83.8675 54.5475 76.7389 55.5262 69.5694C55.8143 67.4592 56.0806 65.3464 56.3083 63.2287C56.3164 63.1547 56.2233 63.0843 56.1542 63.1116C51.9682 64.7527 47.4519 65.4349 42.9678 65.1018C42.8118 65.0901 42.8124 65.3334 42.9678 65.3451C47.4708 65.6795 52.0149 64.9944 56.2188 63.3461C56.1675 63.3072 56.1163 63.2679 56.0647 63.2287C55.2498 70.8037 54.0015 78.3288 52.7597 85.8431C52.4788 87.5436 52.1959 89.2441 51.9215 90.9459C51.8975 91.0987 52.1317 91.1649 52.1567 91.0104Z" fill="#745423"/>
<path d="M53.2081 52.6405C53.2081 52.6405 45.7096 54.3857 46.3675 61.9192C47.4497 74.3125 38.0019 77.3177 38.0019 77.3177L35.0246 70.1116L36.9152 54.9875C36.9152 54.9875 48.1666 49.4896 53.2081 52.6405Z" fill="#2B2F36"/>
<path d="M22.6573 49.0195L22.0873 58.5678C22.4464 62.0843 43.847 55.6171 52.6693 52.4662C48.8881 49.9457 46.7863 47.7378 46.1142 43.7909C44.7108 35.0701 43.9774 23.4716 42.0965 22.7699C40.0885 22.0205 38.7958 21.6945 37.7483 21.4564C36.4591 21.1631 35.5427 21.0019 34.1241 20.3479C33.8957 20.2428 33.6654 20.128 33.4322 20.0034C32.847 19.6917 28.5253 20.2513 28.5253 20.2513C28.5253 20.2513 28.321 20.4096 27.9674 20.6817C27.2861 21.2069 26.0495 22.1584 24.6556 23.2247C22.6482 24.7617 20.3132 26.5374 18.8349 27.6245C16.9336 29.0243 20.5854 40.4862 22.6573 49.0195Z" fill="#2B2F36"/>
<path d="M33.2987 29.3388C33.8608 32.8125 34.4234 36.2868 35.0919 39.7419C35.7449 43.1147 36.4586 46.505 37.4646 49.7927C37.8999 51.2149 38.4413 52.628 39.2848 53.863C39.6653 54.4206 40.089 55.0636 40.7812 55.2423C41.2941 55.3747 41.8453 55.2803 42.351 55.1609C43.1269 54.9779 43.8808 54.7054 44.637 54.456C47.4304 53.5344 50.2621 52.8901 53.2083 52.7324C53.325 52.7263 53.3257 52.5436 53.2083 52.5501C50.6319 52.688 48.109 53.1726 45.6475 53.9389C44.7953 54.2042 43.9538 54.5037 43.1 54.7645C42.5138 54.9435 41.8952 55.132 41.2759 55.122C40.6787 55.1119 40.2817 54.8449 39.9109 54.3956C38.9318 53.2096 38.3054 51.7768 37.8263 50.3277C36.7911 47.1985 36.1115 43.926 35.466 40.6983C34.7088 36.9125 34.0918 33.1012 33.4748 29.2908C33.4557 29.1747 33.2802 29.2237 33.2987 29.3388Z" fill="#747D86"/>
<path d="M43.9382 28.8946C44.6068 33.3649 45.275 37.8347 45.9433 42.3049C46.113 43.4397 46.2826 44.5747 46.4523 45.7095C46.4695 45.8253 46.6453 45.776 46.6281 45.6608C45.9595 41.1906 45.2913 36.7207 44.623 32.2505C44.4533 31.1158 44.2837 29.9811 44.114 28.846C44.0968 28.7305 43.921 28.7798 43.9382 28.8946Z" fill="#747D86"/>
<path d="M24.6552 23.2267C27.3607 26.3487 33.3831 29.1411 33.3831 29.1411C34.5007 27.7962 37.0634 23.2001 37.7482 21.4581C37.3609 21.3699 37.0073 21.2936 36.6638 21.2122C35.8635 21.0231 35.1164 20.8067 34.1241 20.3496C33.8957 20.2445 33.6654 20.1297 33.4321 20.0051C32.8469 19.6934 28.5253 20.253 28.5253 20.253C28.5253 20.253 28.3209 20.4113 27.9673 20.6834C27.4155 21.1091 26.4991 21.8143 25.4292 22.6334C25.1791 22.8261 24.9199 23.0243 24.6552 23.2267Z" fill="#F1F1F1"/>
<path d="M35.7774 21.0318C35.3872 21.9871 34.9087 22.8977 34.3391 23.7583C34.3056 23.8086 34.2492 23.8216 34.1953 23.7959C33.8216 23.6188 33.4476 23.4414 33.0739 23.2643C32.9519 23.2065 33.0583 23.0252 33.18 23.0829C33.5537 23.26 33.9277 23.4375 34.3014 23.6146C34.2534 23.6273 34.2057 23.6396 34.1577 23.6522C34.7167 22.8072 35.1916 21.9138 35.575 20.976C35.6256 20.8524 35.8287 20.9065 35.7774 21.0318Z" fill="#CCCCCC"/>
<path d="M26.433 21.8826C27.7409 22.7782 29.0123 23.7637 30.3948 24.5433C30.3468 24.5559 30.2992 24.5682 30.2511 24.5809C30.5139 24.2374 30.7932 23.9058 31.0446 23.5539C31.1225 23.4449 31.3048 23.5496 31.226 23.6599C30.9742 24.0119 30.6952 24.3434 30.4325 24.687C30.3974 24.7327 30.3433 24.7554 30.2888 24.7246C28.9062 23.9451 27.6349 22.9599 26.3269 22.0639C26.2163 21.988 26.3211 21.806 26.433 21.8826Z" fill="#CCCCCC"/>
<path d="M33.4255 23.2286L32.0105 22.0377L30.8449 23.8034L32.6859 25.2282L33.4255 23.2286Z" fill="#2B2F36"/>
<path d="M32.9207 23.8816L33.9043 25.9769L33.053 27.4471L31.4275 26.6228L31.9404 24.1444L32.9207 23.8816Z" fill="#2B2F36"/>
<path d="M24.6552 23.2251C27.3607 26.3471 33.3832 29.1395 33.3832 29.1395C34.5007 27.7946 37.0635 23.1985 37.7483 21.4565C37.3609 21.3682 37.0073 21.292 36.6638 21.2106L33.0536 27.4465C33.0536 27.4465 27.3834 24.7374 25.4293 22.6321C25.1791 22.8244 24.92 23.0227 24.6552 23.2251Z" fill="#97722F"/>
<path d="M22.9871 10.1845C23.0027 11.9113 23.8214 13.4749 24.0544 15.1653C24.2321 16.4564 24.0096 17.8685 22.9822 18.7638C22.8648 18.8664 22.6919 18.6947 22.8103 18.5919C23.9901 17.5642 24.0054 15.9134 23.6849 14.4993C23.3582 13.0587 22.7577 11.6832 22.7441 10.1848C22.7425 10.0281 22.9858 10.0278 22.9871 10.1845Z" fill="#97722F"/>
<path d="M22.4565 18.5932C22.4565 18.8622 22.6744 19.0802 22.9434 19.0802C23.2123 19.0802 23.4303 18.8622 23.4303 18.5932C23.4303 18.3243 23.2123 18.1063 22.9434 18.1063C22.6744 18.1063 22.4565 18.3243 22.4565 18.5932Z" fill="#97722F"/>
<path d="M22.9884 18.5154C22.9884 18.5154 23.259 20.0164 22.7909 20.6921L21.1857 19.8175C21.1857 19.8175 21.538 19.037 22.9884 18.5154Z" fill="#97722F"/>
<path d="M33.2069 13.1663C33.2037 13.1108 34.1217 11.6621 35.0047 12.4462C35.8877 13.2302 35.333 15.1594 33.4171 14.8269L33.2069 13.1663Z" fill="#A3562C"/>
<path d="M28.6789 21.2117C28.6789 21.2117 30.1101 22.4337 31.894 22.1904C33.6779 21.9471 34.0581 21.0459 34.0581 21.0459C33.6519 20.1928 33.6221 20.1185 33.3992 19.276C33.177 18.4374 33.0563 17.8117 33.0563 17.8117L29.5801 16.9562L28.701 16.7399C29.062 18.7865 29.0915 19.604 28.6789 21.2117Z" fill="#DE7E49"/>
<path d="M28.917 16.9327C28.917 16.9327 29.8811 19.0676 33.0378 19.2704C33.1686 19.2788 33.2893 19.2811 33.3996 19.2752C33.1773 18.4366 33.0567 17.8109 33.0567 17.8109L29.5804 16.9554L28.917 16.9327Z" fill="#2B2F36"/>
<path d="M26.5723 11.7143L26.6427 12.2333C26.6427 12.2333 27.0972 14.7026 27.9958 16.1906C28.9855 17.8295 32.1302 19.3486 33.7746 17.5959C35.0154 16.273 34.7676 11.3493 34.7676 11.3493L34.6674 10.6116C34.4192 8.78593 32.6451 7.80592 30.8174 7.57268C30.7889 7.56911 30.846 7.57592 30.8174 7.57268C28.1762 7.27067 26.2142 9.08016 26.5723 11.7143Z" fill="#DE7E49"/>
<path d="M33.976 12.6808C33.7525 12.3547 33.3765 12.2243 32.995 12.3165C32.6907 12.3901 32.561 11.921 32.8656 11.8474C33.4696 11.7014 34.0464 11.9249 34.3961 12.4352C34.5738 12.6941 34.1521 12.9377 33.976 12.6808Z" fill="#2B2F36"/>
<path d="M30.6034 13.0657C30.7569 12.7014 31.0991 12.4983 31.4913 12.5116C31.804 12.5223 31.8371 12.037 31.5238 12.026C30.9025 12.0046 30.3829 12.3394 30.1425 12.9093C30.0208 13.199 30.4828 13.3528 30.6034 13.0657Z" fill="#2B2F36"/>
<path d="M31.6652 13.8378C31.5241 13.5533 31.2314 13.4326 30.9288 13.5345C30.8172 13.5721 30.7695 13.396 30.8801 13.3587C31.2538 13.2325 31.6467 13.3918 31.8225 13.7457C31.8747 13.8505 31.7174 13.9432 31.6652 13.8378Z" fill="#2B2F36"/>
<path d="M33.9162 13.2774C33.6521 13.2301 33.4189 13.4228 33.4062 13.6884C33.4007 13.8052 33.2184 13.8059 33.2239 13.6884C33.2424 13.2962 33.5805 13.0328 33.9649 13.1013C34.08 13.122 34.031 13.2982 33.9162 13.2774Z" fill="#2B2F36"/>
<path d="M32.1862 12.6238C32.1142 13.3131 32.4752 13.8954 33.1137 14.1537C33.1004 14.1027 33.0867 14.0521 33.0734 14.0012C32.834 14.2124 32.5833 14.4047 32.3169 14.5812C32.2196 14.6458 32.3108 14.8038 32.4091 14.7389C32.6884 14.5536 32.9511 14.3522 33.2022 14.1303C33.259 14.08 33.2201 14.0015 33.162 13.9778C32.5979 13.7498 32.3059 13.2233 32.3685 12.6241C32.3808 12.5073 32.1982 12.508 32.1862 12.6238Z" fill="#2B2F36"/>
<path d="M31.2973 15.2499C31.9383 15.2992 32.638 15.2113 33.5895 15.1185C33.5895 15.1185 33.56 16.0927 32.6643 16.2591C31.7687 16.4259 31.2973 15.2499 31.2973 15.2499Z" fill="#F1F1F1"/>
<path d="M28.46 13.8121C28.4483 13.7576 27.177 12.6067 26.5353 13.598C25.8937 14.5897 26.9434 16.3006 28.701 15.4685L28.46 13.8121Z" fill="#DE7E49"/>
<path d="M27.8172 15.8098C28.1309 15.8257 28.5014 15.7812 28.7437 15.5632C28.8313 15.4844 28.7018 15.3559 28.6146 15.4341C28.4102 15.6177 28.0787 15.6404 27.8169 15.6271C27.6998 15.6213 27.7001 15.8036 27.8172 15.8098Z" fill="#2B2F36"/>
<path d="M26.8146 14.1735C27.2678 14.3396 27.6474 14.6377 27.9169 15.0381C27.9821 15.135 28.1404 15.0436 28.0746 14.9459C27.7768 14.5041 27.3632 14.181 26.863 13.9977C26.7527 13.9572 26.705 14.1336 26.8146 14.1735Z" fill="#2B2F36"/>
<path d="M32.0613 16.7555C32.4305 16.9803 32.9534 17.0293 33.2662 16.6844C33.3353 16.6082 33.2224 16.4943 33.1526 16.5712C32.8873 16.8638 32.4513 16.8054 32.1421 16.617C32.0539 16.5631 31.9731 16.7016 32.0613 16.7555Z" fill="#A3562C"/>
<path d="M26.88 13.2755C26.88 13.2755 28.0754 12.9537 28.4653 13.8867L28.9642 13.6875C28.9642 13.6875 28.1552 12.0882 28.4546 11.3901C28.754 10.692 31.2856 12.0321 31.1539 11.0641C31.1539 11.0641 35.0733 11.7081 34.6188 10.33C34.4602 9.84925 34.6808 8.019 32.0233 7.48504C28.8523 6.84825 24.8882 8.76966 26.88 13.2755Z" fill="#2B2F36"/>
<path d="M38.5788 7.95861L30.4296 3.25549L21.0931 10.7059L31.2711 11.4767L38.5788 7.95861Z" fill="#2B2F36"/>
<path d="M34.4027 9.28053C34.4027 9.28053 34.4104 7.84053 33.5894 6.94844C33.5894 6.94844 28.9171 5.5944 25.7805 9.3425C25.5453 10.2719 25.9391 11.1565 26.5298 12.0272C26.5298 12.0272 30.0239 7.0743 34.4027 9.28053Z" fill="#464C54"/>
<path d="M34.152 9.45383L34.7875 12.3711C34.7875 12.3711 35.0337 11.4849 35.0058 10.8277C34.9296 9.03276 34.152 9.45383 34.152 9.45383Z" fill="#2B2F36"/>
<path d="M38.5306 53.0552C38.5306 53.0552 39.8282 57.9789 42.8613 67.5233C44.4123 72.4042 40.731 75.8178 40.731 75.8178C40.731 75.8178 22.6131 85.2354 21.3619 91.4671C21.3619 91.4671 21.7352 74.1238 22.0788 62.8419C22.4188 51.6661 21.7833 45.8603 20.5149 40.7323C19.2461 35.6042 38.5306 53.0552 38.5306 53.0552Z" fill="#2B2F36"/>
<path d="M22.331 41.8226C24.354 47.0581 25.0816 52.6715 25.2668 58.2524C25.3609 61.0925 25.3567 63.9427 25.1792 66.7792C24.9953 69.7225 24.6641 72.6537 24.4373 75.5934C24.1837 78.8818 24.0678 82.1901 24.4328 85.4749C24.4454 85.5904 24.6281 85.5917 24.6151 85.4749C23.9569 79.5508 24.8714 73.6282 25.298 67.7235C25.5043 64.8692 25.5419 62.0089 25.4744 59.1484C25.4096 56.3826 25.225 53.6161 24.8273 50.8769C24.3763 47.7701 23.6393 44.7049 22.5065 41.7736C22.465 41.6659 22.2885 41.713 22.331 41.8226Z" fill="#747D86"/>
<path d="M24.4449 38.0853C23.266 39.7991 22.1121 41.5275 21.0144 43.2948C20.9524 43.3948 21.1101 43.4866 21.172 43.387C22.2698 41.6196 23.4237 39.8916 24.6025 38.1775C24.6694 38.0805 24.5114 37.9893 24.4449 38.0853Z" fill="#747D86"/>
<path d="M18.8348 27.6263C18.8348 27.6263 10.1062 38.8564 9.05223 45.6862C7.99794 52.5161 9.88723 57.8677 9.88723 57.8677C11.3788 60.5897 21.9467 54.7989 20.4551 52.0769C20.4551 52.0769 18.9143 46.8683 21.3622 41.9891L18.8348 27.6263Z" fill="#2B2F36"/>
<path d="M20.1944 45.3359C19.3052 44.1765 18.0041 43.4372 16.5524 43.2682C16.4359 43.2546 16.4369 43.4372 16.5524 43.4505C17.9327 43.6114 19.1911 44.3251 20.0371 45.428C20.1075 45.5201 20.2658 45.4293 20.1944 45.3359Z" fill="#747D86"/>
<path d="M12.666 56.4036C15.5457 62.3095 20.6472 66.9491 20.6472 66.9491C21.0121 67.4285 22.9176 65.8474 22.5527 65.368C22.5527 65.368 20.2384 58.141 18.6019 53.3763C18.0014 52.1984 12.0652 55.2257 12.666 56.4036Z" fill="#DE7E49"/>
<path d="M12.7607 75.2726C11.8719 76.1945 16.5445 80.6991 17.4333 79.7768C17.4333 79.7768 21.8847 73.8566 25.7626 69.2576C29.6128 64.691 35.3343 61.2563 35.4141 61.2083C35.415 61.208 35.415 61.208 35.415 61.208C35.415 61.208 35.415 61.208 35.415 61.2073C34.9242 60.1547 34.2469 59.2123 33.4245 58.4194C32.6022 57.6266 31.6351 56.984 30.5646 56.5321C30.5646 56.5321 30.5643 56.5334 30.5637 56.5347C30.5319 56.5915 29.8837 57.7632 28.7895 59.3975C27.4125 61.4548 25.3279 64.245 22.8741 66.473C18.4201 70.5166 12.7607 75.2726 12.7607 75.2726Z" fill="#B49346"/>
<path d="M30.5647 56.5321C30.5647 56.5321 30.5644 56.5334 30.5638 56.5347C30.5462 56.5937 30.2935 57.5578 32.2081 59.4033C34.1539 61.279 35.3765 61.2106 35.4142 61.2083C35.4151 61.208 35.4151 61.208 35.4151 61.208C35.4151 61.208 35.4151 61.208 35.4151 61.2073C34.9243 60.1547 34.247 59.2123 33.4246 58.4194C32.6023 57.6269 31.6353 56.9843 30.5647 56.5321Z" fill="#97722F"/>
<path d="M31.5809 58.2556C31.2763 57.8819 31.2789 57.7596 31.3221 57.6892C31.347 57.6484 31.3899 57.624 31.4431 57.6202C31.444 57.6202 31.445 57.6202 31.446 57.6202C31.8187 57.5997 33.007 58.6462 33.8452 59.733C33.8709 59.766 33.8647 59.8137 33.8316 59.8397C33.7985 59.8653 33.7508 59.8591 33.7249 59.8261C32.7436 58.5538 31.6675 57.7557 31.4622 57.77C31.459 57.7703 31.456 57.7707 31.4534 57.7713C31.4479 58.0412 33.127 59.6963 33.9944 60.1891C34.2553 60.3373 34.3143 60.3036 34.3146 60.3032C34.3159 60.3019 34.3201 60.2932 34.3201 60.2711C34.3179 59.6369 32.4785 57.8878 31.8489 57.6795C31.809 57.6662 31.7876 57.6234 31.8005 57.5835C31.8138 57.5436 31.8563 57.5222 31.8966 57.5352C32.2109 57.6393 32.838 58.1217 33.4219 58.7082C33.7372 59.0251 34.4703 59.8115 34.472 60.2705C34.4723 60.3905 34.4042 60.4327 34.3633 60.4473C34.3497 60.4521 34.3344 60.4551 34.3175 60.4564C33.8254 60.4898 32.1136 58.9096 31.5809 58.2556Z" fill="#745423"/>
<path d="M26.6763 68.2286C26.6763 68.2286 26.3204 69.3134 25.5331 69.8668C24.677 70.4686 21.8038 67.7135 22.2561 66.8389C22.7005 65.9799 23.8505 65.5406 23.8505 65.5406C23.5556 65.8196 23.3152 66.0869 23.0881 66.2774C23.0881 66.2774 23.1219 66.9359 24.2119 67.9866C25.3018 69.0377 26.0097 68.9647 26.0097 68.9647L26.6763 68.2286Z" fill="#D0BC70"/>
<path d="M25.1421 69.4929L24.8829 69.1341L25.3208 69.0715C25.3543 69.0666 26.1442 68.955 26.9808 68.942C28.2476 68.9226 28.9087 69.1338 29.0611 69.607C29.1432 69.8617 29.0381 70.0992 28.7867 70.2263C28.2774 70.4842 27.1822 70.2935 26.8588 70.2289C26.4747 70.152 25.594 69.9434 25.2242 69.5869C25.193 69.5564 25.1655 69.5253 25.1421 69.4929ZM26.9934 69.4766C26.7291 69.4805 26.4666 69.4955 26.233 69.5133C26.6337 69.646 27.1615 69.7634 27.673 69.8069C28.2044 69.852 28.4581 69.792 28.5418 69.7514C28.4931 69.6826 28.2404 69.4581 26.9934 69.4766Z" fill="#D0BC70"/>
<path d="M25.4686 71.1263C25.3441 70.7201 25.079 69.7255 25.3016 69.2655L25.4943 68.8672L25.7573 69.223C25.7771 69.25 26.2504 69.8923 26.6588 70.6228C27.2771 71.7284 27.405 72.4106 27.0608 72.7694C26.8755 72.9624 26.6167 72.9825 26.3854 72.8219C26.3477 72.796 26.3111 72.7652 26.2754 72.7304C25.8621 72.3324 25.5575 71.4166 25.4686 71.1263ZM26.1943 70.8879C26.0655 70.6569 25.9276 70.4327 25.8011 70.2358C25.8744 70.6517 26.0214 71.1717 26.2261 71.6427C26.4386 72.1319 26.6118 72.3269 26.6871 72.3811C26.725 72.3058 26.8025 71.9765 26.1943 70.8879Z" fill="#D0BC70"/>
<path d="M22.9356 64.8656C22.9356 64.8656 24.7999 66.9589 25.9554 67.3677C27.1109 67.7764 28.1604 68.337 27.8454 68.6432C27.5301 68.9494 26.9812 68.941 26.9812 68.941C26.9812 68.941 26.9792 69.632 26.7548 69.8091C26.5303 69.9865 25.8756 69.9531 25.8756 69.9531C25.8756 69.9531 26.1407 70.8517 25.8049 70.9893C25.4692 71.1268 24.8087 71.2647 24.8087 71.2647C24.8087 71.2647 24.8295 71.6643 24.3834 71.9472C23.9374 72.2301 22.1554 73.6831 20.1854 68.2066C19.7585 67.0202 22.9356 64.8656 22.9356 64.8656Z" fill="#DE7E49"/>
<path d="M18.9994 65.558L20.211 68.1989L23.8793 65.7552L21.9294 63.7803C21.5154 63.2599 18.5855 65.0376 18.9994 65.558Z" fill="#DE7E49"/>
<path d="M22.9359 64.8659C22.9359 64.8659 24.3434 63.8041 25.3731 63.9848L23.6823 65.7833L22.9359 64.8659Z" fill="#DE7E49"/>
<path d="M109.795 12.0374C109.509 13.7405 108.455 15.1565 107.96 16.7895C107.583 18.0368 107.581 19.4665 108.455 20.5117C108.556 20.6314 108.753 20.489 108.652 20.3686C107.648 19.1687 107.892 17.5356 108.43 16.1894C108.978 14.8175 109.787 13.5533 110.035 12.0754C110.061 11.9213 109.821 11.883 109.795 12.0374Z" fill="#97722F"/>
<path d="M108.488 20.2644C108.488 20.2644 107.986 21.7044 108.342 22.4453L110.065 21.8332C110.065 21.8332 109.839 21.007 108.488 20.2644Z" fill="#97722F"/>
<path d="M107.965 20.5724C108.044 20.8293 108.317 20.9733 108.574 20.8942C108.831 20.815 108.975 20.5422 108.896 20.2853C108.817 20.0284 108.544 19.8843 108.287 19.9635C108.03 20.0426 107.886 20.3155 107.965 20.5724Z" fill="#97722F"/>
<path d="M75.3006 79.1076C75.3006 79.1076 75.0482 82.5982 79.8324 82.5171C84.6166 82.436 90.4548 79.2737 99.4552 83.0848C108.456 86.8958 112.188 85.9057 112.082 84.4631C111.976 83.0205 99.7796 70.4352 88.3466 70.7596C76.9135 71.084 75.3006 79.1076 75.3006 79.1076Z" fill="#745423"/>
<path d="M118.197 90.6561L126.353 88.4878C127.489 89.9255 128.086 91.0269 126.884 92.2628L119.987 95.4821L118.197 90.6561Z" fill="#9E5536"/>
<path d="M126.995 88.0074C126.411 87.9986 125.84 88.203 125.411 88.5984C125.264 88.734 125.167 88.8628 125.203 88.9481C125.312 89.2131 126.643 90.7443 126.862 91.1618C127.082 91.5793 125.238 92.8 125.235 93.0287C125.231 93.2574 126.059 93.1526 126.921 93.3914C127.783 93.6301 129.935 97.0863 130.704 98.5282C131.473 99.9702 131.608 95.9986 131.556 94.4651C131.504 92.9314 131.459 90.9733 131.459 90.9733C131.459 90.9733 129.137 90.1477 129.141 89.8843C129.145 89.6209 131.447 89.6556 131.45 89.2041C131.454 88.7525 131.468 88.0752 131.468 88.0752L126.995 88.0074Z" fill="#2B2F36"/>
<path d="M95.1596 118.02L97.4508 126.142C96.0303 127.3 94.9383 127.913 93.6842 126.731L90.3611 119.883L95.1596 118.02Z" fill="#9E5536"/>
<path d="M97.936 126.778C97.936 126.194 97.7229 125.626 97.3209 125.203C97.1831 125.058 97.053 124.964 96.9683 125C96.7049 125.113 95.1938 126.467 94.7799 126.693C94.366 126.919 93.1174 125.094 92.8887 125.094C92.66 125.094 92.7771 125.92 92.5513 126.785C92.3255 127.651 88.9025 129.855 87.4722 130.646C86.0419 131.436 90.0152 131.512 91.5479 131.436C93.0804 131.361 95.0378 131.286 95.0378 131.286C95.0378 131.286 95.8284 128.952 96.0918 128.952C96.3552 128.952 96.3552 131.254 96.8068 131.251C97.2583 131.248 97.936 131.251 97.936 131.251V126.778Z" fill="#2B2F36"/>
<path d="M85.1954 59.0444C85.1954 59.0444 80.1351 81.1807 81.5809 94.4343C83.0268 107.688 88.779 123.592 88.779 123.592L97.9361 120.098C97.9361 120.098 91.5815 100.579 91.6418 90.5788C91.7021 80.5786 94.1121 64.215 94.1121 64.215L85.1954 59.0444Z" fill="#97722F"/>
<path d="M104.379 76.5167C104.379 76.5167 104.541 89.4755 105.352 90.6183C106.163 91.7608 121.974 88.7608 121.974 88.7608L124.083 95.0382C124.083 95.0382 109.001 100.032 102.108 100.68C95.216 101.329 93.9052 76.1116 93.9052 76.1116L104.379 76.5167Z" fill="#97722F"/>
<path d="M107.35 93.1628C107.281 93.1628 107.214 93.1624 107.148 93.1615C105.251 93.1371 104.189 92.7702 103.899 92.0403C102.766 89.183 102.753 81.1801 102.753 80.8412C102.753 80.7516 102.825 80.679 102.915 80.679C103.004 80.679 103.077 80.7516 103.077 80.8412C103.077 80.9236 103.09 89.1211 104.201 91.921C104.464 92.584 105.649 92.838 107.298 92.8384C111.214 92.8387 117.747 91.4065 120.78 90.6175C120.867 90.5948 120.956 90.6471 120.978 90.7337C121.001 90.8203 120.949 90.9088 120.862 90.9316C120.823 90.9416 116.899 91.9579 112.887 92.611C110.635 92.9772 108.773 93.1628 107.35 93.1628Z" fill="#745423"/>
<path d="M122.24 95.6395C122.169 95.6395 122.104 95.5921 122.084 95.5201L120.368 89.2625C120.344 89.1762 120.395 89.087 120.481 89.0633C120.568 89.0393 120.657 89.0905 120.68 89.1768L122.397 95.4345C122.42 95.5208 122.37 95.61 122.283 95.6337C122.269 95.6375 122.255 95.6395 122.24 95.6395Z" fill="#745423"/>
<path d="M85.3188 93.733C84.1322 94.19 83.0117 94.2627 81.7741 93.9753C81.5905 93.9325 81.668 93.6499 81.8523 93.6924C83.0386 93.9678 84.1059 93.8874 85.241 93.4501C85.4171 93.3823 85.4933 93.6658 85.3188 93.733Z" fill="#745423"/>
<path d="M91.8757 68.681C91.4498 74.7216 90.5901 80.7237 90.1924 86.7669C90.0357 89.1463 89.8933 91.5777 90.1801 93.9529C90.6556 97.8895 91.4355 101.791 92.3493 105.648C93.3702 109.956 94.5808 114.216 95.8415 118.459C95.8953 118.641 95.6124 118.718 95.5586 118.537C93.305 110.951 91.1928 103.285 90.084 95.4348C89.9092 94.1972 89.7681 92.97 89.7438 91.7198C89.7191 90.4368 89.7635 89.1525 89.8326 87.8714C89.9968 84.8364 90.304 81.8097 90.6161 78.7867C90.9632 75.421 91.3447 72.0567 91.5824 68.681C91.5957 68.4939 91.889 68.4922 91.8757 68.681Z" fill="#745423"/>
<path d="M88.2074 121.343C88.2223 121.343 88.2375 121.341 88.2528 121.336L97.3541 118.236C97.4277 118.211 97.467 118.131 97.4417 118.058C97.4167 117.984 97.3369 117.945 97.2636 117.97L88.1623 121.07C88.0887 121.095 88.0494 121.175 88.0747 121.248C88.0942 121.306 88.149 121.343 88.2074 121.343Z" fill="#745423"/>
<path d="M75.7457 78.7873C72.6061 83.1141 86.2967 48.2991 87.9184 41.4066C89.54 34.5141 89.8978 28.613 90.6754 24.5253C91.3664 20.8927 93.5288 20.7327 96.1308 19.9389C96.3968 19.8588 96.6677 19.7703 96.9425 19.6713C97.0041 19.6493 97.0657 19.6266 97.128 19.6032C100.162 18.459 101.438 19.9097 101.438 19.9097C101.438 19.9097 102.455 20.4758 103.994 21.2281C104.296 21.3757 104.618 21.5304 104.957 21.6904C105.747 22.0618 106.625 22.4566 107.544 22.8378C110.866 24.2161 108.19 28.1894 106.001 33.3791C103.811 38.5685 103.93 45.9443 105.271 49.6603C112.086 68.5419 111.677 80.4901 112.082 84.4633C112.487 88.4365 83.4157 68.2184 75.7457 78.7873Z" fill="#2B2F36"/>
<path d="M100.339 49.04C99.8879 52.4582 101.754 55.9867 104.83 57.5425C104.935 57.5954 105.027 57.438 104.922 57.3848C101.897 55.8543 100.078 52.3998 100.521 49.0397C100.537 48.9242 100.354 48.9252 100.339 49.04Z" fill="#747D86"/>
<path d="M97.2048 30.719C95.8504 36.5698 94.7063 42.4697 93.7999 48.4068C92.8916 54.3566 92.2175 60.3453 91.8568 66.3541C91.6566 69.6863 91.5554 73.0241 91.5722 76.3624C91.5729 76.4799 91.7552 76.4799 91.7546 76.3624C91.7241 70.4363 92.0663 64.5122 92.6726 58.6182C93.2935 52.5802 94.1918 46.571 95.3145 40.6063C95.9344 37.3127 96.6247 34.0327 97.3806 30.7677C97.4072 30.6532 97.2314 30.6045 97.2048 30.719Z" fill="#747D86"/>
<path d="M104.957 21.6904C103.026 26.1622 97.2929 30.7437 97.2929 30.7437C96.1034 26.7889 96.0865 21.825 96.1309 19.9389C96.397 19.8588 96.6678 19.7703 96.9426 19.6713C97.0042 19.6493 97.0659 19.6266 97.1281 19.6032C100.162 18.459 101.438 19.9097 101.438 19.9097C101.438 19.9097 102.455 20.4758 103.994 21.2281C104.296 21.3757 104.618 21.5304 104.957 21.6904Z" fill="#97722F"/>
<path d="M103.994 21.2281C103.753 21.7082 103.312 22.3414 102.772 23.0369C100.864 25.4939 97.7111 28.7301 97.7111 28.7301C97.2894 26.8165 97.099 24.3151 97.012 22.3804C96.9569 21.147 96.9449 20.144 96.9423 19.6713C97.0039 19.6493 97.0655 19.6266 97.1278 19.6032C100.162 18.459 101.437 19.9097 101.437 19.9097C101.437 19.9097 102.455 20.4755 103.994 21.2281Z" fill="#F1F1F1"/>
<path d="M103.994 21.2284C103.753 21.7085 103.312 22.3418 102.772 23.0373C101.452 24.0014 99.7885 24.8902 98.6493 24.3491C97.8577 23.9728 97.3445 23.205 97.012 22.3804C96.9569 21.147 96.9449 20.144 96.9423 19.6713C97.0039 19.6493 97.0655 19.6266 97.1278 19.6032C100.162 18.459 101.437 19.9097 101.437 19.9097C101.437 19.9097 102.455 20.4758 103.994 21.2284Z" fill="#9E5536"/>
<path d="M105.274 21.8372C105.274 21.8372 112.782 23.8501 115.22 22.3715C117.658 20.8929 117.029 17.0948 118.48 17.2655C119.93 17.4361 122.315 22.6362 122.575 26.6519C122.835 30.6676 122.153 29.2062 118.703 30.6381C115.03 32.1628 106.205 34.8491 104.548 33.0215C102.891 31.1938 105.274 21.8372 105.274 21.8372Z" fill="#2B2F36"/>
<path d="M113.925 22.8782C113.082 24.1703 112.811 25.744 113.165 27.2446C113.192 27.3588 113.368 27.3105 113.341 27.196C112.997 25.7401 113.265 24.2229 114.082 22.9704C114.146 22.8718 113.989 22.7803 113.925 22.8782Z" fill="#747D86"/>
<path d="M105.807 33.5024C105.14 33.5348 104.548 33.3454 103.941 33.0846C103.834 33.0388 103.741 33.1958 103.849 33.2422C104.483 33.5147 105.109 33.7187 105.807 33.6847C105.924 33.6792 105.924 33.4965 105.807 33.5024Z" fill="#747D86"/>
<path d="M120.422 26.5116C119.585 26.8188 117.23 20.4 118.068 20.0931C119.534 16.1173 121.245 8.8514 121.245 8.8514C121.219 8.34924 123.489 8.38654 123.749 8.85465C123.749 8.85465 123.153 22.806 120.726 26.1493C120.635 26.2742 120.533 26.3948 120.422 26.5116Z" fill="#9E5536"/>
<path d="M126.475 8.23501C126.494 9.06287 125.77 9.15533 124.704 9.89657C124.004 10.3835 123.038 11.5958 122.234 11.0777C121.429 10.5596 120.93 10.0023 120.93 10.0023C120.93 10.0023 120.259 9.19912 120.595 8.18505C120.595 8.18505 121.007 6.68017 121.398 6.48261C121.789 6.28473 122.296 6.75348 122.296 6.75348C122.669 6.62794 124.524 3.54843 125.054 3.44138C125.054 3.44138 125.657 3.34698 125.382 4.12002C125.108 4.89306 124.128 6.33728 124.128 6.33728C124.128 6.33728 126.111 4.05547 126.672 4.10867C126.833 4.12391 126.934 4.28871 126.869 4.52357C126.774 4.86322 126.395 5.18307 126.165 5.45038C125.761 5.92011 125.191 6.64448 125.044 6.89005C125.044 6.89005 125.529 6.77035 125.852 7.00262C126.176 7.23456 125.856 7.67672 125.856 7.67672C125.856 7.67672 126.463 7.72441 126.475 8.23501Z" fill="#9E5536"/>
<path d="M122.506 8.61248C122.566 8.63032 122.622 8.64362 122.672 8.65206C122.831 8.67833 122.965 8.65498 123.06 8.58556C123.143 8.52522 123.193 8.43406 123.209 8.31501C123.226 8.18947 123.209 8.05419 123.16 7.91276C123.141 7.85015 123.112 7.78819 123.09 7.74147C122.871 7.28959 122.438 6.91296 122.419 6.89707C122.386 6.86917 122.336 6.87241 122.307 6.90518C122.279 6.93826 122.282 6.98855 122.315 7.01709C122.32 7.02066 122.742 7.38885 122.947 7.81057C122.967 7.85242 122.993 7.90692 123.009 7.96174C123.051 8.08242 123.065 8.19304 123.052 8.29328C123.042 8.36789 123.013 8.42336 122.966 8.45742C122.907 8.50121 122.814 8.51451 122.698 8.49505C122.654 8.48791 122.605 8.47591 122.554 8.46066C122.127 8.32182 121.619 7.89978 121.262 7.38691C121.237 7.3509 121.188 7.34214 121.152 7.36712C121.116 7.3921 121.107 7.4414 121.132 7.47741C121.514 8.02532 122.04 8.46001 122.506 8.61216C122.506 8.61248 122.506 8.61248 122.506 8.61248Z" fill="#5D341E"/>
<path d="M124.621 9.54665C124.916 9.63554 125.329 9.45322 125.384 9.4276C125.424 9.40943 125.442 9.36207 125.423 9.32249C125.405 9.28292 125.358 9.26507 125.318 9.28357C125.162 9.35558 124.72 9.50383 124.561 9.33222C124.336 9.0886 124.89 8.4557 125.102 8.25295C125.131 8.22505 125.134 8.17964 125.11 8.14752C125.085 8.11541 125.04 8.10665 125.006 8.12773C124.804 8.24971 124.232 8.51896 124.011 8.30518C123.975 8.27014 123.96 8.22797 123.963 8.17283C123.983 7.83351 124.672 7.24083 124.935 7.041C124.97 7.01473 124.977 6.96477 124.951 6.93006C124.924 6.89535 124.874 6.88821 124.84 6.91481C124.737 6.99299 123.833 7.69077 123.805 8.16342C123.799 8.26398 123.832 8.35254 123.901 8.41905C124.102 8.61303 124.446 8.54361 124.712 8.44337C124.47 8.73987 124.202 9.17716 124.445 9.44025C124.494 9.49248 124.555 9.52654 124.621 9.54665Z" fill="#5D341E"/>
<path d="M124.281 6.81502C124.299 6.82021 124.318 6.81956 124.335 6.8121C124.375 6.79491 124.394 6.74852 124.377 6.70829C124.37 6.69175 124.197 6.29663 123.675 6.06729C123.636 6.04847 123.588 6.06793 123.57 6.10784C123.553 6.14806 123.571 6.19477 123.611 6.21229C124.073 6.41536 124.23 6.76701 124.231 6.77058C124.241 6.79264 124.26 6.80853 124.281 6.81502Z" fill="#5D341E"/>
<path d="M123.875 6.96724C123.867 6.97146 123.446 7.23552 123.018 7.77889C123.044 7.83338 123.068 7.88691 123.084 7.94141C123.518 7.3828 123.952 7.10933 123.959 7.10511C123.997 7.07981 124.007 7.03342 123.986 6.99384C123.961 6.95686 123.915 6.94616 123.875 6.96724Z" fill="#5D341E"/>
<path d="M122.091 10.1477C122.087 10.183 122.113 10.2174 122.146 10.2275L122.164 10.233C122.208 10.2327 122.244 10.2005 122.247 10.1584C122.29 9.53196 122.462 9.00416 122.684 8.57401C122.637 8.56622 122.585 8.5539 122.53 8.53735C122.308 8.97724 122.137 9.51184 122.091 10.1477Z" fill="#5D341E"/>
<path d="M95.3152 16.5034C98.7843 17.668 104.711 21.2467 106.257 20.6005C106.989 20.6005 107.228 19.4791 106.901 18.9737C105.256 16.4353 106.554 15.4225 107.038 13.2688C107.522 11.1152 105.717 8.92028 105.717 8.92028L102.644 8.35291C100.449 7.94708 98.4817 7.72325 97.8627 9.86947C97.8478 9.91975 97.7051 10.9315 97.6126 11.5515C97.3051 13.6143 96.1463 13.7833 95.0447 14.5463C94.2969 15.0641 94.453 16.214 95.3152 16.5034Z" fill="#2B2F36"/>
<path d="M95.3726 6.1641L104.5 3.88293L111.429 13.6129L101.431 11.5559L95.3726 6.1641Z" fill="#2B2F36"/>
<path d="M97.7198 20.0337C97.5187 22.4404 100.916 22.6204 102.57 20.9608C102.117 18.0117 102.788 17.5108 103.308 15.0642L99.0875 15.7536L98.9652 16.1461L98.1542 18.8058L97.7198 20.0337Z" fill="#9E5536"/>
<path d="M98.1542 18.8072C100.606 19.1121 102.442 16.4436 102.442 16.4436L98.9652 16.1475L98.1542 18.8072Z" fill="#2B2F36"/>
<path d="M99.1737 13.0014C99.1899 12.9485 98.642 11.3311 97.6033 11.8825C96.5646 12.434 96.6486 14.4307 98.5804 14.5588L99.1737 13.0014Z" fill="#5D341E"/>
<path d="M97.204 14.8195C97.4842 14.8195 97.7113 14.5924 97.7113 14.3122C97.7113 14.032 97.4842 13.8048 97.204 13.8048C96.9237 13.8048 96.6966 14.032 96.6966 14.3122C96.6966 14.5924 96.9237 14.8195 97.204 14.8195Z" fill="#F1F1F1"/>
<path d="M105.615 12.7588L105.425 13.2441C105.425 13.2441 104.406 15.5265 103.187 16.755C101.844 18.1084 97.2657 18.2408 97.1035 15.4091C97.0373 14.2533 98.0819 10.6119 98.0819 10.6119L98.0423 9.79054C98.7112 8.08226 100.46 7.61286 102.283 7.81691C102.312 7.82015 102.283 7.81691 102.311 7.82534C104.615 8.54745 106.58 10.2943 105.615 12.7588Z" fill="#9E5536"/>
<path d="M99.4455 7.63633C99.4455 7.63633 100.051 10.6578 103.215 12.2519L103.533 13.797L104.933 14.5742C104.933 14.5742 108.629 9.18403 103.673 7.54712L99.4455 7.63633Z" fill="#2B2F36"/>
<path d="M99.1925 15.9157C98.8635 16.0208 98.4483 15.9601 98.2705 15.6338C98.2313 15.5614 98.3403 15.4946 98.3799 15.5672C98.5307 15.8443 98.8801 15.8813 99.1558 15.7934C99.2343 15.7681 99.2707 15.8907 99.1925 15.9157Z" fill="#5D341E"/>
<path d="M100.074 14.6413C99.3438 14.5654 98.9844 14.494 98.0531 14.2971C98.0531 14.2971 97.9509 15.3582 98.842 15.5282C99.7837 15.7079 100.074 14.6413 100.074 14.6413Z" fill="#F1F1F1"/>
<path d="M102.571 15.8087C102.736 16.018 102.973 16.139 103.222 16.2214C103.31 16.2506 103.251 16.3819 103.164 16.3531C102.891 16.2629 102.635 16.1234 102.455 15.8947C102.397 15.8217 102.513 15.7361 102.571 15.8087Z" fill="#2B2F36"/>
<path d="M103.069 12.1923C103.069 12.1923 102.51 13.9645 103.789 14.2749C105.067 14.5854 104.666 11.8273 103.069 12.1923Z" fill="#2B2F36"/>
<path d="M99.2009 11.4838C98.8765 11.3692 98.2666 11.2671 97.9364 11.9337C97.9364 11.9337 98.6361 11.6726 98.9589 11.8782C99.0666 11.9467 99.1574 11.9499 99.2295 11.9194C99.4225 11.837 99.3988 11.5538 99.2009 11.4838Z" fill="#2B2F36"/>
<path d="M101.092 12.0823C101.427 12.1602 101.996 12.4015 101.916 13.1415C101.916 13.1415 101.467 12.5452 101.084 12.5452C100.956 12.5452 100.878 12.4992 100.834 12.4346C100.715 12.2611 100.888 12.0349 101.092 12.0823Z" fill="#2B2F36"/>
<path d="M99.0621 14.0954C98.9595 13.8878 98.8749 13.6727 98.775 13.4638C98.7532 13.418 98.7909 13.3749 98.833 13.3655C98.9852 13.3317 99.2801 13.3045 99.3819 13.1958C99.4656 13.1066 99.5162 12.9285 99.5707 12.8198C99.7034 12.5561 99.8361 12.2921 99.9684 12.0283C100.01 11.9459 100.142 12.0033 100.1 12.0867C99.9422 12.401 99.7842 12.7154 99.6262 13.0297C99.5853 13.1112 99.5483 13.2406 99.4822 13.3064C99.3459 13.4417 99.0238 13.4703 98.8502 13.5089C98.8697 13.4761 98.8888 13.4433 98.9083 13.4106C99.0082 13.6192 99.0929 13.8346 99.1954 14.0422C99.2369 14.1249 99.1029 14.1778 99.0621 14.0954Z" fill="#2B2F36"/>
<path d="M100.564 13.189C100.518 13.3048 100.575 13.4355 100.691 13.4809C100.807 13.5263 100.938 13.4692 100.983 13.3534C101.028 13.2376 100.971 13.1069 100.856 13.0618C100.74 13.0161 100.609 13.0732 100.564 13.189Z" fill="#2B2F36"/>
<path d="M98.4692 12.5389C98.4237 12.6548 98.4808 12.7855 98.5966 12.8309C98.7125 12.8763 98.8432 12.8192 98.8886 12.7034C98.934 12.5876 98.8769 12.4569 98.7611 12.4118C98.645 12.366 98.5142 12.4231 98.4692 12.5389Z" fill="#2B2F36"/>
<path d="M103.241 14.2384C103.265 14.1884 104.679 13.4741 105.067 14.5842C105.455 15.6943 104.179 17.1077 102.674 15.8899L103.241 14.2384Z" fill="#9E5536"/>
<path d="M103.962 16.469C103.962 16.7493 103.735 16.9764 103.455 16.9764C103.175 16.9764 102.947 16.7493 102.947 16.469C102.947 16.1887 103.174 15.9617 103.455 15.9617C103.735 15.962 103.962 16.1891 103.962 16.469Z" fill="#F1F1F1"/>
<path d="M104.81 15.061C104.318 15.1178 103.877 15.3202 103.512 15.6527C103.443 15.715 103.358 15.5989 103.426 15.5372C103.809 15.1888 104.278 14.9777 104.792 14.9183C104.884 14.9076 104.902 15.0503 104.81 15.061Z" fill="#2B2F36"/>
<path d="M102.978 8.73132C102.978 8.73132 99.8474 10.7951 97.9461 11.4183C97.9461 11.4183 97.3304 9.49852 98.7963 8.04944C101.086 5.78676 103.867 7.57549 104.58 8.15649L102.978 8.73132Z" fill="#2B2F36"/>
<path d="M98.3824 8.54586C98.3824 8.54586 99.1914 7.27876 100.226 6.64716C100.226 6.64716 105.312 6.54692 107.297 11.0129C107.515 11.6338 107.578 12.9457 106.967 13.5562C106.967 13.5562 103.199 7.62879 98.3824 8.54586Z" fill="#464C54"/>
<path d="M92.9587 21.2416C92.9587 21.2416 84.0284 23.0738 81.6321 21.5284C79.2357 19.9829 79.9702 16.2037 78.5156 16.3341C77.061 16.4645 74.5333 21.5965 74.1622 25.6034C73.791 29.6104 74.5128 28.1685 77.9219 29.6951C81.5519 31.321 89.2009 33.4795 90.9076 31.6986C92.6142 29.9176 92.9587 21.2416 92.9587 21.2416Z" fill="#2B2F36"/>
<path d="M81.7697 21.8896C82.3945 23.2099 82.7617 24.6229 82.8593 26.0801C82.8671 26.1966 83.0498 26.1976 83.0417 26.0801C82.9417 24.5898 82.5661 23.1472 81.927 21.7974C81.8771 21.6913 81.7197 21.7838 81.7697 21.8896Z" fill="#747D86"/>
<path d="M89.6308 32.1074C89.941 30.0591 90.3163 28.0216 90.7562 25.9974C90.7812 25.8828 90.6053 25.8339 90.5804 25.949C90.1405 27.9733 89.7651 30.0108 89.455 32.059C89.4375 32.1736 89.613 32.2232 89.6308 32.1074Z" fill="#747D86"/>
<path d="M76.3179 25.5212C77.1461 25.8515 79.677 19.5004 78.8489 19.1702C77.4929 15.1551 75.9838 7.84479 75.9838 7.84479C76.024 7.3436 73.7536 7.31797 73.4804 7.77862C73.4804 7.77862 73.6903 21.741 76.024 25.1501C76.1113 25.2779 76.2099 25.4015 76.3179 25.5212Z" fill="#9E5536"/>
<path d="M64.3216 10.7772C63.2375 10.9501 62.3613 5.45541 63.4454 5.28251C63.4454 5.28251 69.7916 5.05543 74.9272 4.58408C80.0267 4.11598 85.2479 1.77674 85.3205 1.7443C85.3215 1.74365 85.3215 1.74365 85.3215 1.74365C85.3215 1.74365 85.3215 1.74365 85.3222 1.74398C85.8217 2.60525 86.1523 3.54374 86.3064 4.51077C86.4605 5.4778 86.4381 6.47305 86.2311 7.44754C86.2311 7.44754 86.2302 7.44722 86.2285 7.44689C86.1727 7.44138 85.0315 7.32265 83.3453 7.29053C81.2231 7.24998 78.2389 7.34762 75.4689 7.98053C70.4414 9.12954 64.3216 10.7772 64.3216 10.7772Z" fill="#B49346"/>
<path d="M86.2312 7.44701C86.2312 7.44701 86.2302 7.44669 86.2286 7.44636C86.1787 7.42982 85.3768 7.13461 85.0177 4.88329C84.6527 2.59532 85.3005 1.76907 85.3206 1.74345C85.3216 1.7428 85.3216 1.7428 85.3216 1.7428C85.3216 1.7428 85.3216 1.7428 85.3223 1.74312C85.8218 2.6044 86.1524 3.54288 86.3065 4.50991C86.4609 5.47727 86.4385 6.47252 86.2312 7.44701Z" fill="#97722F"/>
<path d="M85.3131 2.88467C85.3222 2.87364 85.3316 2.86423 85.342 2.8571C85.3721 2.83568 85.4354 2.80811 85.5197 2.86748C85.8419 3.09391 86.0352 3.99508 86.1033 4.37203C86.2295 5.07014 86.2613 5.7478 86.1802 6.01997C86.1698 6.05468 86.1335 6.07415 86.0991 6.06377C86.0647 6.05339 86.0449 6.01738 86.0553 5.98267C86.2175 5.43768 85.8895 3.2866 85.4445 2.97388C85.4292 2.96317 85.4208 2.96188 85.4192 2.9622C85.4188 2.9622 85.366 2.98718 85.3423 3.24345C85.2635 4.09532 85.6041 6.08745 85.7964 6.21591C85.7984 6.21429 85.8 6.21234 85.8016 6.21007C85.9122 6.07253 85.8788 4.92448 85.4655 3.61067C85.4548 3.57628 85.474 3.53963 85.508 3.52892C85.5424 3.51822 85.5791 3.53736 85.5898 3.57142C85.9431 4.69384 86.0962 6.04301 85.8989 6.29474C85.8986 6.29539 85.898 6.29604 85.8976 6.29669C85.8688 6.33237 85.8308 6.35054 85.7899 6.34794C85.7192 6.3434 85.632 6.28533 85.5184 5.88795C85.3199 5.19276 85.0477 3.21426 85.3131 2.88467Z" fill="#745423"/>
<path d="M76.0998 4.44539C76.0998 4.44539 75.1623 4.16381 74.3873 4.44604C73.5445 4.75292 74.073 8.12471 74.9093 8.23533C75.7313 8.344 76.6039 7.75068 76.6039 7.75068C76.263 7.82107 75.9574 7.85903 75.7121 7.92553C75.7121 7.92553 75.2658 7.57907 75.0611 6.29705C74.8567 5.01503 75.2551 4.55309 75.2551 4.55309L76.0998 4.44539Z" fill="#D0BC70"/>
<path d="M74.892 7.77238C74.892 7.77238 75.1622 8.69789 75.8379 8.71119C76.5136 8.72481 76.9597 8.39392 77.5949 8.24178C78.23 8.08964 77.6837 7.40029 77.0242 7.46777C76.3647 7.53524 74.892 7.77238 74.892 7.77238Z" fill="#9E5536"/>
<path d="M71.9439 4.82477C71.4758 5.73665 72.1787 8.17385 72.5615 8.39412C73.136 8.72468 73.4916 8.33702 73.4916 8.33702C73.4916 8.33702 73.5957 8.74382 74.1144 8.66629C74.6331 8.58843 74.6545 8.14822 74.6545 8.14822C74.6545 8.14822 75.0396 8.5083 75.2826 8.44505C75.6968 8.33702 75.8931 7.80469 75.8931 7.80469C75.8931 7.80469 76.2668 8.14466 76.4861 7.92374C76.8575 7.54971 76.2198 6.54797 76.3943 5.80931C76.5688 5.07066 76.5902 4.72356 76.5049 4.38197C76.4199 4.04037 75.5859 4.11661 75.4392 4.38716C75.4049 4.45074 75.0743 4.09812 74.7483 4.13704C74.3188 4.18862 74.1258 4.50686 74.1258 4.50686C74.1258 4.50686 73.6311 4.14094 73.2625 4.23826C72.894 4.33525 72.7613 4.63921 72.7613 4.63921C72.7613 4.63921 72.4116 4.25285 71.9439 4.82477Z" fill="#9E5536"/>
<path d="M76.1656 8.61993C75.2959 8.79478 74.4272 8.75748 73.5746 8.51191C73.4617 8.47947 73.4134 8.65529 73.5263 8.68773C74.4093 8.94206 75.3134 8.9771 76.2139 8.79576C76.3291 8.77273 76.2804 8.59658 76.1656 8.61993Z" fill="#5D341E"/>
<path d="M73.4949 8.36902C73.189 7.53629 72.9473 6.6828 72.9447 5.78876C72.9444 5.67133 72.7621 5.67133 72.7624 5.78876C72.765 6.69869 73.0073 7.56905 73.3191 8.41735C73.3593 8.52668 73.5358 8.47964 73.4949 8.36902Z" fill="#5D341E"/>
<path d="M74.6612 8.11781C74.2836 7.25718 74.1049 6.19511 74.1707 5.25922C74.1792 5.14211 73.9965 5.14243 73.9884 5.25922C73.92 6.22657 74.1146 7.32271 74.5036 8.20961C74.5509 8.31699 74.7083 8.22421 74.6612 8.11781Z" fill="#5D341E"/>
<path d="M75.9623 7.83805C75.6865 7.07312 75.5266 6.23325 75.5049 5.42096C75.5016 5.30385 75.3193 5.3032 75.3226 5.42096C75.3446 6.24915 75.5055 7.1075 75.7864 7.88671C75.826 7.99603 76.0022 7.94867 75.9623 7.83805Z" fill="#5D341E"/>
<path d="M73.3606 8.4735C73.8368 8.79627 74.3922 8.74761 74.7098 8.24447C74.6682 8.2555 74.6264 8.26621 74.5849 8.27724C75.0981 8.65321 75.6823 8.51859 75.9746 7.9723C76.0301 7.86882 75.8724 7.77669 75.8169 7.88017C75.5681 8.34503 75.1 8.4297 74.6767 8.1199C74.6358 8.09006 74.5761 8.11439 74.5518 8.15267C74.2819 8.58022 73.8336 8.57438 73.4524 8.31649C73.3554 8.24999 73.2639 8.40797 73.3606 8.4735Z" fill="#5D341E"/>
<path d="M152.509 11.8304C153.199 13.4134 153.089 15.1749 153.566 16.8135C153.93 18.0647 154.71 19.2633 156.013 19.6617C156.162 19.7071 156.25 19.4803 156.1 19.4346C154.604 18.9775 153.916 17.4765 153.632 16.0544C153.343 14.6056 153.33 13.1049 152.731 11.7311C152.668 11.5877 152.446 11.6867 152.509 11.8304Z" fill="#97722F"/>
<path d="M155.906 19.4382C155.906 19.4382 156.271 20.9191 156.974 21.3451L158.083 19.8918C158.083 19.8918 157.443 19.3231 155.906 19.4382Z" fill="#97722F"/>
<path d="M155.635 19.9812C155.842 20.1532 156.149 20.1249 156.321 19.9183C156.493 19.7117 156.465 19.4048 156.258 19.2325C156.052 19.0606 155.745 19.0885 155.572 19.2955C155.4 19.5021 155.429 19.8093 155.635 19.9812Z" fill="#97722F"/>
<path d="M154.328 19.7136C153.926 19.3833 153.465 19.0739 152.938 18.7816C150.294 17.3137 150.964 15.8095 150.38 13.6808C149.796 11.5521 147.171 10.4624 147.171 10.4624L144.192 11.4048C142.063 12.0779 140.221 12.8042 140.683 14.9897C140.693 15.041 141.043 16.0012 141.252 16.5919C141.252 16.5919 141.423 17.555 140.315 18.6421C139.207 19.7292 139.382 20.5457 140.031 22.0431C140.68 23.5405 140.558 24.2298 139.341 25.0674C138.125 25.905 138.234 27.4586 138.49 28.4324C139.091 30.7159 138.744 29.623 137.557 32.6084C136.371 35.5938 138.011 36.7474 139.039 36.8249C140.066 36.9025 149.434 29.8111 153.713 32.1354C157.991 34.4597 160.64 28.1891 159.397 25.8106C158.153 23.4322 155.333 24.0112 154.91 22.7428C154.488 21.4744 155.718 20.6456 154.328 19.7136Z" fill="#5D341E"/>
<path d="M140.501 27.4982C140.501 27.4982 137.45 36.5132 133.504 41.9728C130.899 45.5762 132.693 53.487 139.288 52.6221C145.883 51.7573 145.72 42.4594 145.72 42.4594L140.501 27.4982Z" fill="#2B2F36"/>
<path d="M170.049 94.5187C170.049 94.5187 167.803 99.4639 165.857 98.1666C163.413 96.5371 161.451 93.5446 150.316 94.4636C139.18 95.3826 136.532 95.1471 134.507 93.591C132.483 92.0348 155.474 83.5979 164.911 87.382C169.91 89.3864 170.049 94.5187 170.049 94.5187Z" fill="#745423"/>
<path d="M147.31 72.371C145.612 73.5524 142.952 80.2636 139.419 89.8992C138.501 92.4032 144.369 126.248 144.369 126.248C145.491 127.16 146.458 127.467 147.558 126.032C147.558 126.032 148.277 116.914 148.43 108.44C148.583 99.9675 148.017 94.7706 148.017 94.7706L153.424 77.9895L147.31 72.371Z" fill="#DE7E49"/>
<path d="M139.703 94.5611C140.741 94.9984 141.871 95.0694 142.957 94.7749C143.108 94.734 143.044 94.4991 142.893 94.5403C141.845 94.8245 140.768 94.748 139.768 94.3266C139.624 94.2659 139.561 94.5011 139.703 94.5611Z" fill="#A3562C"/>
<path d="M149.157 126.778V131.251C149.157 131.251 148.48 131.248 148.028 131.251C147.577 131.253 147.577 128.952 147.313 128.952C147.05 128.952 146.259 131.286 146.259 131.286C146.259 131.286 144.302 131.361 142.769 131.436C141.237 131.511 137.264 131.436 138.694 130.646C139.303 130.31 140.272 129.717 141.203 129.081C141.32 129.001 141.436 128.92 141.552 128.84C142.67 128.051 143.656 127.236 143.773 126.785C143.998 125.92 144.181 125.065 144.409 125.065C144.598 125.065 145.184 126.335 145.717 126.643C145.719 126.644 145.721 126.646 145.723 126.647C145.834 126.71 145.93 126.732 146.001 126.693C146.415 126.467 147.406 124.635 147.67 124.522C147.754 124.486 148.404 125.058 148.542 125.203C148.945 125.626 149.157 126.195 149.157 126.778Z" fill="#2B2F36"/>
<path d="M146.001 126.693C145.722 127.258 144.92 127.982 144.004 128.593C142.894 129.333 141.915 129.351 141.552 128.84C142.67 128.051 143.656 127.237 143.773 126.786C143.998 125.92 144.181 125.066 144.409 125.066C144.599 125.066 145.468 126.385 146.001 126.693Z" fill="#DE7E49"/>
<path d="M153.41 73.0303C152.146 74.6669 151.623 81.8672 151.146 92.1185C151.022 94.7825 166.668 123.769 166.668 123.769C168.633 125.662 169.853 125.33 169.722 122.249C169.722 122.249 167.705 115.227 165.308 107.1C162.91 98.9714 160.81 94.1839 160.81 94.1839L160.929 76.5539L153.41 73.0303Z" fill="#DE7E49"/>
<path d="M151.586 93.3446C152.775 93.7543 154.067 93.6219 155.15 92.9855C155.285 92.9063 155.162 92.6958 155.027 92.7756C153.997 93.3809 152.78 93.4993 151.651 93.1103C151.503 93.0588 151.439 93.2936 151.586 93.3446Z" fill="#A3562C"/>
<path d="M171.562 123.73L172.59 128.083C172.59 128.083 171.93 128.235 171.492 128.342C171.053 128.449 170.524 126.209 170.267 126.27C170.198 126.286 170.113 126.6 170.026 127.048C169.661 128.945 168.152 130.407 166.244 130.707C166.224 130.71 166.203 130.714 166.182 130.717C164.667 130.961 161.058 130.998 162.268 129.9C162.783 129.433 163.59 128.633 164.35 127.8C164.446 127.695 164.54 127.59 164.634 127.485C165.541 126.46 166.313 125.441 166.323 124.975C166.344 124.081 166.325 123.208 166.547 123.155C166.731 123.112 167.593 124.213 168.183 124.39C168.185 124.39 168.187 124.391 168.189 124.392C168.312 124.428 168.41 124.427 168.47 124.373C168.822 124.058 169.365 122.047 169.595 121.877C169.669 121.822 170.433 122.229 170.601 122.338C171.09 122.657 171.427 123.162 171.562 123.73Z" fill="#2B2F36"/>
<path d="M168.47 124.377C168.328 124.991 167.714 125.881 166.963 126.685C166.053 127.66 165.104 127.903 164.634 127.489C165.54 126.464 166.312 125.445 166.323 124.979C166.343 124.085 166.324 123.212 166.547 123.159C166.731 123.116 167.88 124.2 168.47 124.377Z" fill="#DE7E49"/>
<path d="M166.857 97.9776C167.136 82.6595 149.372 93.0153 137.21 94.3288C125.048 95.6422 143.212 54.0097 142.901 45.6853C142.59 37.3609 139.059 31.7475 140.501 27.4992C140.712 26.8796 141.754 25.9642 142.834 25.1454C143.194 24.8739 143.557 24.6118 143.896 24.375C144.793 23.7498 145.514 23.3015 145.514 23.3015L150.17 22.8564C150.17 22.8564 150.463 22.97 150.954 23.1549C151.238 23.2619 151.588 23.394 151.984 23.5416C153.536 24.1197 155.807 24.9443 157.671 25.5347C160.833 26.5361 159.009 33.1042 158.279 39.064C157.549 45.0229 164.198 60.8632 170.101 75.706C175.777 89.977 166.808 100.677 166.857 97.9776Z" fill="#2B2F36"/>
<path d="M142.831 47.1192C142.771 48.6098 142.445 50.0621 141.868 51.4369C141.822 51.545 141.999 51.5923 142.043 51.4856C142.628 50.0956 142.953 48.6257 143.014 47.1192C143.019 47.0018 142.836 47.0021 142.831 47.1192Z" fill="#747D86"/>
<path d="M141.068 62.8754C141.163 65.467 141.092 69.1645 138.066 70.1189C137.955 70.1539 138.003 70.3304 138.115 70.2947C139.347 69.9061 140.24 68.8982 140.732 67.73C141.375 66.2044 141.31 64.4958 141.251 62.8754C141.246 62.7583 141.064 62.7577 141.068 62.8754Z" fill="#747D86"/>
<path d="M159.627 61.8984C159.375 63.5622 159.652 65.3127 160.679 66.681C161.634 67.9529 163.093 68.6689 164.669 68.7548C164.787 68.7613 164.786 68.5787 164.669 68.5725C163.124 68.4879 161.695 67.7696 160.777 66.5087C159.823 65.1968 159.564 63.5262 159.802 61.9467C159.82 61.8319 159.644 61.7826 159.627 61.8984Z" fill="#747D86"/>
<path d="M148.372 33.6185C149.69 41.2097 149.785 48.9748 148.688 56.5995C147.63 63.9497 145.677 71.2159 145.714 78.6874C145.733 82.6389 146.318 86.6089 147.843 90.2733C147.887 90.38 148.064 90.3333 148.018 90.225C145.195 83.4399 145.649 75.8966 146.778 68.7946C147.381 64.9972 148.169 61.2312 148.748 57.4293C149.31 53.7347 149.624 50.01 149.633 46.272C149.643 42.0159 149.276 37.763 148.548 33.5698C148.528 33.4547 148.352 33.5037 148.372 33.6185Z" fill="#747D86"/>
<path d="M140.326 32.5417C140.642 33.9989 140.959 35.4564 141.275 36.9136C141.3 37.0284 141.476 36.9798 141.451 36.8649C141.135 35.4077 140.818 33.9502 140.501 32.493C140.477 32.3785 140.301 32.4268 140.326 32.5417Z" fill="#747D86"/>
<path d="M148.251 33.2573C145.221 29.43 143.519 26.3246 142.834 25.1454C143.194 24.8739 143.557 24.6118 143.896 24.375C144.793 23.7498 145.513 23.3015 145.513 23.3015L150.17 22.8564C150.17 22.8564 150.463 22.97 150.954 23.1549C151.237 23.2619 151.588 23.394 151.984 23.5416C151.662 27.7029 148.251 33.2573 148.251 33.2573Z" fill="#97722F"/>
<path d="M150.954 23.1546C150.935 23.5925 150.835 24.1307 150.683 24.7237C149.95 27.5706 147.999 31.6492 147.999 31.6492C147.03 30.2488 145.781 27.9816 144.84 26.1977C144.464 25.4841 144.136 24.8476 143.896 24.375C144.793 23.7498 145.513 23.3015 145.513 23.3015L150.169 22.8564C150.169 22.8564 150.463 22.9697 150.954 23.1546Z" fill="#F1F1F1"/>
<path d="M150.954 23.1546C150.935 23.5925 150.835 24.1307 150.683 24.7237C150.013 25.7624 148.985 26.9461 147.724 27.0856C146.706 27.1982 145.673 26.7411 144.841 26.1977C144.464 25.4841 144.137 24.8476 143.896 24.375C144.793 23.7498 145.514 23.3015 145.514 23.3015L150.17 22.8564C150.17 22.8564 150.463 22.9697 150.954 23.1546Z" fill="#DE7E49"/>
<path d="M158.618 26.1398C158.618 26.1398 167.273 36.0991 171.219 41.5591C173.823 45.1625 172.03 53.0732 165.435 52.2084C158.84 51.3435 157.343 43.0876 157.343 43.0876L158.618 26.1398Z" fill="#2B2F36"/>
<path d="M159.083 31.3097C158.317 34.205 157.858 37.1713 157.713 40.1626C157.707 40.28 157.89 40.2797 157.895 40.1626C158.04 37.1868 158.497 34.2377 159.259 31.3581C159.289 31.2445 159.113 31.1962 159.083 31.3097Z" fill="#747D86"/>
<path d="M166.578 43.3742C168.112 43.3612 168.073 48.2658 166.539 48.2787C162.761 48.6489 159.137 47.7954 159.137 47.7954C158.406 47.8016 158.386 45.536 159.118 45.5295L166.578 43.3742Z" fill="#DE7E49"/>
<path d="M136.744 12.8881L143.731 6.5863L154.418 11.922L144.625 14.802L136.744 12.8881Z" fill="#2B2F36"/>
<path d="M145.332 24.0297C146.285 26.2489 148.033 25.6633 150.169 22.8547C148.639 20.047 148.621 19.4219 147.93 17.0178L144.529 19.6088L144.605 20.013L145.139 22.7421L145.332 24.0297Z" fill="#DE7E49"/>
<path d="M145.138 22.7413C147.446 21.8587 147.813 18.6406 147.813 18.6406L144.605 20.0125L145.138 22.7413Z" fill="#2B2F36"/>
<path d="M143.312 17.1399C143.301 17.0854 142.058 15.915 141.4 16.8898C140.742 17.8643 141.754 19.5878 143.519 18.7937L143.312 17.1399Z" fill="#A3562C"/>
<path d="M148.884 13.8968L148.944 14.4148C148.944 14.4148 149.116 16.9088 148.617 18.5658C148.067 20.3912 144.087 22.6591 142.614 20.2352C142.013 19.2461 141.224 15.5408 141.224 15.5408L140.803 14.8343C140.592 13.0121 141.916 11.7762 143.621 11.0995C143.647 11.0888 143.621 11.0995 143.649 11.0943C146.022 10.6489 148.578 11.2679 148.884 13.8968Z" fill="#DE7E49"/>
<path d="M141.031 12.2744C141.031 12.2744 142.985 14.6574 146.527 14.5786L147.534 15.7935L149.135 15.8217C151.862 15.8344 150 9.32759 144.722 10.21L141.031 12.2744Z" fill="#5D341E"/>
<path d="M144.697 19.7018C144.455 19.949 144.061 20.0907 143.75 19.8857C143.681 19.8403 143.746 19.73 143.815 19.7754C144.079 19.949 144.405 19.8176 144.607 19.6106C144.664 19.5516 144.754 19.6431 144.697 19.7018Z" fill="#A3562C"/>
<path d="M144.876 18.1642C144.196 18.4399 143.845 18.546 142.931 18.8094C142.931 18.8094 143.339 19.794 144.206 19.5257C145.121 19.2422 144.876 18.1642 144.876 18.1642Z" fill="#F1F1F1"/>
<path d="M147.881 18.0226C148.125 18.1297 148.392 18.1252 148.65 18.0807C148.741 18.0651 148.751 18.2088 148.661 18.2244C148.377 18.2731 148.086 18.2698 147.819 18.1527C147.734 18.1154 147.796 17.9853 147.881 18.0226Z" fill="#2B2F36"/>
<path d="M146.369 14.5939C146.369 14.5939 146.709 16.4206 147.983 16.0942C149.258 15.7672 147.608 13.5211 146.369 14.5939Z" fill="#5D341E"/>
<path d="M142.622 15.7843C142.282 15.8355 141.695 16.0318 141.717 16.7756C141.717 16.7756 142.212 16.2164 142.594 16.2462C142.721 16.2563 142.803 16.2164 142.852 16.1554C142.983 15.9922 142.829 15.7531 142.622 15.7843Z" fill="#2B2F36"/>
<path d="M144.573 15.4255C144.905 15.3369 145.522 15.2824 145.799 15.9731C145.799 15.9731 145.122 15.6581 144.784 15.8378C144.671 15.8978 144.58 15.8939 144.511 15.8576C144.324 15.7606 144.37 15.4797 144.573 15.4255Z" fill="#2B2F36"/>
<path d="M143.727 18.1584C143.539 18.0231 143.364 17.8729 143.177 17.7357C143.137 17.7058 143.15 17.6497 143.182 17.6218C143.301 17.5206 143.548 17.3581 143.587 17.2144C143.619 17.0963 143.58 16.9153 143.577 16.7936C143.571 16.4984 143.564 16.2032 143.557 15.908C143.554 15.8159 143.698 15.8045 143.7 15.8976C143.708 16.2493 143.717 16.6009 143.725 16.9526C143.727 17.0437 143.755 17.1751 143.728 17.2643C143.671 17.4479 143.4 17.6244 143.265 17.7399C143.267 17.7019 143.268 17.664 143.27 17.6257C143.456 17.7629 143.633 17.9131 143.82 18.0484C143.895 18.1026 143.802 18.2122 143.727 18.1584Z" fill="#2B2F36"/>
<path d="M144.772 16.824C144.787 16.9476 144.899 17.0362 145.022 17.0219C145.146 17.0076 145.234 16.8957 145.22 16.7721C145.206 16.6485 145.094 16.56 144.97 16.5746C144.846 16.5885 144.758 16.7004 144.772 16.824Z" fill="#2B2F36"/>
<path d="M142.618 17.2327C142.632 17.3563 142.744 17.4448 142.867 17.4302C142.991 17.416 143.079 17.3041 143.065 17.1805C143.051 17.0569 142.939 16.9683 142.815 16.9829C142.691 16.9972 142.603 17.1091 142.618 17.2327Z" fill="#2B2F36"/>
<path d="M147.483 16.3207C147.481 16.2652 148.394 14.9703 149.258 15.7679C150.122 16.5656 149.659 18.4131 147.758 18.0449L147.483 16.3207Z" fill="#DE7E49"/>
<path d="M149.254 16.3106C148.846 16.5915 148.552 16.9772 148.385 17.4427C148.354 17.53 148.225 17.4674 148.255 17.3808C148.43 16.8932 148.745 16.4864 149.171 16.1925C149.247 16.1399 149.33 16.258 149.254 16.3106Z" fill="#2B2F36"/>
<path d="M144.665 11.5821C144.665 11.5821 142.87 14.8744 141.485 16.318C141.485 16.318 140.039 14.9123 140.653 12.9445C141.611 9.87152 144.907 10.144 145.809 10.3221L144.665 11.5821Z" fill="#5D341E"/>
<path d="M140.52 13.5771C140.52 13.5771 140.639 12.0787 141.256 11.0348C141.256 11.0348 145.699 8.5574 149.548 11.5678C150.032 12.0135 150.705 13.1418 150.452 13.9677C150.452 13.9677 144.341 10.5051 140.52 13.5771Z" fill="#464C54"/>
<path d="M157.989 35.0452H142.777V46.8026H157.989V35.0452Z" fill="white"/>
<path d="M155.926 36.8243H145.019C144.886 36.8243 144.778 36.7162 144.778 36.5826V36.5378C144.778 36.4045 144.886 36.2961 145.019 36.2961H155.926C156.059 36.2961 156.167 36.4042 156.167 36.5378V36.5826C156.167 36.7162 156.059 36.8243 155.926 36.8243Z" fill="#CCCCCC"/>
<path d="M155.926 38.1225H145.019C144.886 38.1225 144.777 38.0145 144.777 37.8808V37.836C144.777 37.7027 144.885 37.5944 145.019 37.5944H155.926C156.059 37.5944 156.167 37.7024 156.167 37.836V37.8808C156.167 38.0145 156.059 38.1225 155.926 38.1225Z" fill="#CCCCCC"/>
<path d="M147.059 44.5866H144.383C144.249 44.5866 144.141 44.4786 144.141 44.345V44.3005C144.141 44.1672 144.249 44.0588 144.383 44.0588H147.059C147.192 44.0588 147.301 44.1669 147.301 44.3005V44.3453C147.301 44.4783 147.193 44.5866 147.059 44.5866Z" fill="#CCCCCC"/>
<path d="M147.059 45.8843H144.383C144.249 45.8843 144.141 45.7763 144.141 45.6426V45.5979C144.141 45.4645 144.249 45.3562 144.383 45.3562H147.059C147.192 45.3562 147.301 45.4642 147.301 45.5979V45.6426C147.301 45.7763 147.193 45.8843 147.059 45.8843Z" fill="#CCCCCC"/>
<path d="M151.985 47.9067L150.934 47.3841L150.355 47.096L149.772 47.3779L148.717 47.8889L149.029 44.9806L149.202 43.3739L150.375 43.5445L151.548 43.3866L151.704 44.9956L151.985 47.9067Z" fill="#97722F"/>
<path d="M153.241 42.5549L153.239 42.5562C153.055 42.732 152.971 42.987 153.014 43.2377L153.014 43.2393C153.087 43.6662 152.791 44.0682 152.362 44.1262L152.36 44.1266C152.108 44.1606 151.889 44.318 151.776 44.546C151.584 44.9346 151.108 45.0865 150.727 44.8808C150.502 44.7598 150.233 44.7585 150.007 44.8769C149.624 45.0783 149.149 44.9213 148.961 44.5308C148.851 44.3014 148.634 44.1418 148.382 44.1048L148.381 44.1045C147.952 44.0419 147.661 43.6364 147.738 43.2105L147.739 43.2088C147.784 42.9587 147.702 42.7025 147.521 42.525L147.519 42.5237C147.209 42.221 147.212 41.7221 147.525 41.423L147.527 41.4217C147.71 41.2459 147.795 40.9906 147.752 40.7402L147.752 40.7386C147.679 40.3116 147.975 39.9097 148.404 39.8516L148.406 39.8513C148.658 39.8173 148.877 39.6599 148.989 39.4319C149.181 39.0433 149.658 38.8914 150.039 39.0971C150.263 39.2181 150.533 39.2194 150.758 39.101C151.142 38.8995 151.617 39.0565 151.805 39.4471C151.915 39.6765 152.132 39.8361 152.384 39.8731L152.385 39.8734C152.813 39.936 153.105 40.3415 153.028 40.7674L153.027 40.769C152.982 41.0192 153.064 41.2754 153.245 41.4529L153.247 41.4542C153.556 41.7568 153.553 42.2558 153.241 42.5549Z" fill="#97722F"/>
<path d="M149.65 44.5299C149.522 44.5292 149.409 44.4575 149.353 44.3427L149.353 44.342C149.18 43.982 148.84 43.7322 148.445 43.6744L148.443 43.6741C148.354 43.6611 148.276 43.6134 148.223 43.5398C148.17 43.4662 148.15 43.3766 148.166 43.2877L148.166 43.2855C148.237 42.8936 148.11 42.493 147.824 42.214L147.823 42.2127C147.758 42.1491 147.723 42.0644 147.723 41.9739C147.724 41.8834 147.76 41.7991 147.825 41.7365L147.827 41.7352C148.115 41.4591 148.247 41.0598 148.181 40.6666L148.18 40.6643C148.165 40.5758 148.186 40.4862 148.24 40.4136C148.294 40.3406 148.373 40.2939 148.462 40.2816H148.463C148.859 40.228 149.202 39.9821 149.379 39.6237C149.435 39.5092 149.55 39.4384 149.678 39.4391C149.732 39.4394 149.784 39.4527 149.832 39.479C150.005 39.5721 150.199 39.6217 150.395 39.6227C150.591 39.6237 150.787 39.5763 150.96 39.4852C151.009 39.4595 151.061 39.4469 151.115 39.4469C151.243 39.4475 151.357 39.5195 151.412 39.6347C151.586 39.9948 151.925 40.2446 152.32 40.3023L152.322 40.3026C152.411 40.3156 152.489 40.3633 152.542 40.4369C152.595 40.5106 152.615 40.6001 152.599 40.689L152.599 40.69C152.528 41.0831 152.655 41.4838 152.94 41.7628L152.943 41.7647C153.006 41.8273 153.042 41.912 153.041 42.0025C153.041 42.093 153.005 42.1773 152.939 42.2399L152.938 42.2409C152.65 42.517 152.518 42.9163 152.584 43.3095L152.585 43.3118C152.6 43.4006 152.579 43.4898 152.525 43.5628C152.471 43.6358 152.392 43.6825 152.303 43.6949L152.3 43.6952C151.904 43.7494 151.563 43.9949 151.386 44.3527C151.33 44.4673 151.215 44.538 151.087 44.5373C151.033 44.537 150.981 44.5237 150.933 44.4974C150.76 44.4043 150.566 44.3547 150.37 44.3537C150.174 44.3527 149.978 44.4001 149.805 44.4913C149.757 44.5172 149.704 44.5299 149.65 44.5299Z" fill="#B49346"/>
<path d="M136.285 43.0135C135.765 44.4568 140.406 46.0431 140.926 44.5998C142.525 41.158 143.451 37.647 143.451 37.647C143.698 36.959 141.036 35.9994 140.788 36.6874L136.285 43.0135Z" fill="#DE7E49"/>
<path d="M140.788 36.6859C140.788 36.6859 142.949 33.306 144.876 33.4993C145.634 33.5752 146.168 34.2532 147.531 34.4926C148.686 34.6954 148.767 35.0451 148.767 35.0451H145.721C145.983 35.243 144.538 36.4692 143.45 37.6454C142.343 38.8428 140.788 36.6859 140.788 36.6859Z" fill="#DE7E49"/>
<path d="M159.583 47.545C159.583 47.545 156.557 49.1089 154.728 48.4722C152.899 47.8354 152.295 46.7175 152.295 46.7175L154.728 46.7379C154.728 46.7379 157.077 46.4109 158.505 45.6236C159.933 44.8363 159.583 47.545 159.583 47.545Z" fill="#DE7E49"/>
<path d="M144.247 35.7498C144.247 35.7498 145.763 36.7237 146.209 36.8249C146.655 36.9261 145.829 35.9931 145.829 35.9931C145.829 35.9931 147.055 37.063 147.42 36.9965C147.785 36.93 146.923 35.7498 146.923 35.7498C146.923 35.7498 148.322 37.1691 148.545 36.9864C148.806 36.773 147.723 35.2837 147.723 35.2837C147.723 35.2837 148.403 35.4053 149.092 35.2837C149.781 35.162 147.723 34.5301 147.723 34.5301C147.723 34.5301 144.166 33.9656 144.247 35.7498Z" fill="#DE7E49"/>
<path d="M158.944 45.4802C158.944 45.4802 158.376 44.8324 157.485 44.6702C156.593 44.508 155.559 44.2445 155.214 44.6702C154.87 45.0958 156.43 45.2752 156.573 45.6417C156.714 46.0083 155.848 46.529 155.848 46.529C155.848 46.529 158.336 46.432 158.944 45.4802Z" fill="#DE7E49"/>
<path d="M49.502 9.45057C49.502 10.0144 49.0449 10.4714 48.4811 10.4714C47.9173 10.4714 47.4602 10.0144 47.4602 9.45057C47.4602 8.88677 47.9173 8.42969 48.4811 8.42969C49.0449 8.42969 49.502 8.88677 49.502 9.45057Z" fill="#B49346"/>
<path d="M174.027 56.1616C174.027 56.5587 173.705 56.8805 173.308 56.8805C172.911 56.8805 172.589 56.5587 172.589 56.1616C172.589 55.7646 172.911 55.4427 173.308 55.4427C173.705 55.4427 174.027 55.7646 174.027 56.1616Z" fill="#745423"/>
<path d="M128.38 78.9685C128.777 78.9685 129.099 78.6466 129.099 78.2496C129.099 77.8526 128.777 77.5308 128.38 77.5308C127.983 77.5308 127.661 77.8526 127.661 78.2496C127.661 78.6466 127.983 78.9685 128.38 78.9685Z" fill="#745423"/>
<path d="M92.2894 6.64001C92.2894 7.03707 91.9676 7.35887 91.5706 7.35887C91.1735 7.35887 90.8517 7.03707 90.8517 6.64001C90.8517 6.24295 91.1735 5.92114 91.5706 5.92114C91.9676 5.92114 92.2894 6.24295 92.2894 6.64001Z" fill="#745423"/>
<path d="M57.0276 12.7904C57.0276 13.1875 56.7058 13.5093 56.3088 13.5093C55.9117 13.5093 55.5899 13.1875 55.5899 12.7904C55.5899 12.3933 55.9117 12.0715 56.3088 12.0715C56.7055 12.0715 57.0276 12.3933 57.0276 12.7904Z" fill="#745423"/>
<path d="M169.49 60.0734C169.49 60.6372 169.033 61.0943 168.47 61.0943C167.906 61.0943 167.449 60.6372 167.449 60.0734C167.449 59.5096 167.906 59.0525 168.47 59.0525C169.033 59.0525 169.49 59.5096 169.49 60.0734Z" fill="#B49346"/>
<path d="M5.53361 59.0446C5.53361 59.6084 5.07653 60.0654 4.51273 60.0654C3.94893 60.0654 3.49185 59.6084 3.49185 59.0446C3.49185 58.4808 3.94893 58.0237 4.51273 58.0237C5.07653 58.024 5.53361 58.4808 5.53361 59.0446Z" fill="#B49346"/>
<path d="M8.73236 21.7991C9.21358 21.7991 9.60369 21.409 9.60369 20.9277C9.60369 20.4465 9.21358 20.0564 8.73236 20.0564C8.25113 20.0564 7.86102 20.4465 7.86102 20.9277C7.86102 21.409 8.25113 21.7991 8.73236 21.7991Z" fill="#97722F"/>
<path d="M114.427 0.871698C114.427 1.35278 114.037 1.74303 113.556 1.74303C113.075 1.74303 112.684 1.3531 112.684 0.871698C112.684 0.390616 113.074 0.000366211 113.556 0.000366211C114.037 0.000366211 114.427 0.390291 114.427 0.871698Z" fill="#97722F"/>
<path d="M125.254 41.7122C125.254 42.1932 124.864 42.5835 124.383 42.5835C123.902 42.5835 123.512 42.1936 123.512 41.7122C123.512 41.2311 123.902 40.8408 124.383 40.8408C124.864 40.8408 125.254 41.2307 125.254 41.7122Z" fill="#97722F"/>
<path d="M166.597 20.6924C166.597 21.1735 166.207 21.5637 165.725 21.5637C165.244 21.5637 164.854 21.1738 164.854 20.6924C164.854 20.211 165.244 19.821 165.725 19.821C166.206 19.821 166.597 20.2113 166.597 20.6924Z" fill="#97722F"/>
<path d="M74.8229 52.2748C74.8229 52.7559 74.4329 53.1461 73.9515 53.1461C73.4705 53.1461 73.0802 52.7562 73.0802 52.2748C73.0802 51.7937 73.4705 51.4034 73.9515 51.4034C74.4326 51.4034 74.8229 51.7937 74.8229 52.2748Z" fill="#97722F"/>
<path d="M1.71425 52.2745C1.71425 52.6141 1.43883 52.8895 1.09919 52.8895C0.759543 52.8895 0.484131 52.6141 0.484131 52.2745C0.484131 51.9348 0.759543 51.6594 1.09919 51.6594C1.43883 51.6594 1.71425 51.9348 1.71425 52.2745Z" fill="#97722F"/>
</svg>
