<svg width="162" height="180" viewBox="0 0 162 180" fill="none" xmlns="http://www.w3.org/2000/svg">
<path d="M26.2989 180L4.22168 95.8062H75.4441L26.2989 180Z" fill="#8453FF"/>
<path d="M48.6458 95.8062H14.8007L31.7424 149.76H43.9504L65.1092 113.512L48.6458 95.8062Z" fill="#A185FF"/>
<path d="M121.381 124.887H36.3182L0.633118 0H85.6964L121.381 124.887Z" fill="#E8EDFB"/>
<path d="M40.9454 38.9491H18.4732L9.04602 5.95605H31.5182L40.9454 38.9491Z" fill="#B9C3EF"/>
<path d="M79.1303 10.1988H39.7546L38.6158 5.95605H77.9915L79.1303 10.1988Z" fill="#B9C3EF"/>
<path d="M81.6395 18.8009H42.2638L41.1244 14.5581H80.5001L81.6395 18.8009Z" fill="#B9C3EF"/>
<path d="M84.1481 27.4034H44.7725L43.6337 23.1606H83.0093L84.1481 27.4034Z" fill="#B9C3EF"/>
<path d="M86.6574 36.0052H47.2817L46.1429 31.7625H85.5179L86.6574 36.0052Z" fill="#B9C3EF"/>
<path d="M89.166 44.6073H49.7909L48.6515 40.3645H88.0272L89.166 44.6073Z" fill="#B9C3EF"/>
<path d="M91.6752 53.2093H52.2995L51.1607 48.9666H90.5364L91.6752 53.2093Z" fill="#B9C3EF"/>
<path d="M137.082 143.046H52.0184L16.3333 18.1592H101.397L137.082 143.046Z" fill="#DCE1FF"/>
<path d="M57.8489 58.3568H35.3766L25.9495 25.3638H48.4217L57.8489 58.3568Z" fill="#B9C3EF"/>
<path d="M96.0338 29.6065H56.6581L55.5193 25.3638H94.895L96.0338 29.6065Z" fill="#B9C3EF"/>
<path d="M98.5431 38.2086H59.1674L58.028 33.9658H97.4036L98.5431 38.2086Z" fill="#B9C3EF"/>
<path d="M101.052 46.8111H61.676L60.5372 42.5684H99.9128L101.052 46.8111Z" fill="#B9C3EF"/>
<path d="M103.561 55.4129H64.1852L63.0464 51.1702H102.421L103.561 55.4129Z" fill="#B9C3EF"/>
<path d="M106.069 64.015H66.6944L65.555 59.7722H104.931L106.069 64.015Z" fill="#B9C3EF"/>
<path d="M108.579 72.617H69.203L68.0642 68.3743H107.44L108.579 72.617Z" fill="#B9C3EF"/>
<path d="M139.548 114.894L117.096 36.3191H32.0329L67.718 161.206H123.645L139.548 114.894Z" fill="white"/>
<path d="M75.3784 76.5126H52.9062L43.4791 43.5195H65.9513L75.3784 76.5126Z" fill="#DCE1FF"/>
<path d="M113.563 47.7623H74.1877L73.0489 43.5195H112.425L113.563 47.7623Z" fill="#DCE1FF"/>
<path d="M116.073 56.3641H76.6968L75.5574 52.1213H114.933L116.073 56.3641Z" fill="#DCE1FF"/>
<path d="M118.581 64.9666H79.2054L78.0667 60.7239H117.442L118.581 64.9666Z" fill="#DCE1FF"/>
<path d="M121.09 73.5687H81.7147L80.5759 69.3259H119.951L121.09 73.5687Z" fill="#DCE1FF"/>
<path d="M123.599 82.1707H84.2239L83.0845 77.928H122.46L123.599 82.1707Z" fill="#DCE1FF"/>
<path d="M126.108 90.7728H86.7325L85.5938 86.53H124.969L126.108 90.7728Z" fill="#DCE1FF"/>
<path d="M90.6985 93.1493L87.4731 86.947H59.8096L57.6015 93.1493L26.2988 180H130.064L161.367 93.1493H90.6985Z" fill="#7530F7"/>
<path d="M78.5563 138.452H81.5225L80.8195 140.542H77.8532L75.8223 146.58H73.524L78.4436 131.956H84.5232L83.8201 134.045H80.0388L78.5563 138.452Z" fill="white"/>
<path d="M89.3932 131.955H91.6915L86.7719 146.579H84.4737L89.3932 131.955Z" fill="white"/>
<path d="M97.1244 131.955H99.4226L95.2055 144.49H98.9869L98.2838 146.579H92.2042L97.1244 131.955Z" fill="white"/>
<path d="M108.195 138.118H111.35L110.647 140.208H107.492L106.051 144.491H110.02L109.318 146.58H103.051L107.97 131.956H114.238L113.534 134.045H109.565L108.195 138.118Z" fill="white"/>
<path d="M122.569 131.787C124.805 131.787 125.504 133.125 124.716 135.465L124.562 135.924H122.389L122.593 135.318C122.944 134.273 122.661 133.876 121.929 133.876C121.198 133.876 120.647 134.273 120.295 135.318C119.282 138.326 123.585 138.891 122.179 143.069C121.392 145.408 119.773 146.746 117.516 146.746C115.26 146.746 114.54 145.408 115.327 143.069L115.629 142.17H117.802L117.451 143.215C117.1 144.26 117.433 144.636 118.164 144.636C118.895 144.636 119.481 144.26 119.833 143.215C120.844 140.207 116.543 139.642 117.948 135.464C118.735 133.125 120.334 131.787 122.569 131.787Z" fill="white"/>
</svg>
