<svg width="271" height="180" viewBox="0 0 271 180" fill="none" xmlns="http://www.w3.org/2000/svg">
<g clip-path="url(#clip0_1_7823)">
<mask id="mask0_1_7823" style="mask-type:luminance" maskUnits="userSpaceOnUse" x="71" y="0" width="129" height="180">
<path d="M199.291 0H71.3756V180H199.291V0Z" fill="white"/>
</mask>
<g mask="url(#mask0_1_7823)">
<path d="M96.3927 78.7917C88.5966 80.6479 83.1163 87.6434 83.1804 95.657L83.5872 146.582L77.7994 193.608H98.057L101.849 168.046C103.989 153.612 104.131 138.953 102.27 124.481L99.758 104.951L96.3927 78.7917Z" fill="#F9F0DF"/>
<path d="M88.6747 149.067C90.4491 147.992 92.3352 146.48 94.0923 144.608C95.852 142.74 97.4796 140.516 98.8018 138.12C100.121 135.723 101.132 133.159 101.772 130.673C102.416 128.188 102.687 125.786 102.647 123.712C101.845 125.629 100.967 127.793 99.9535 130.037C98.9433 132.283 97.8007 134.61 96.5526 136.88C95.2998 139.148 93.9429 141.357 92.5836 143.41C91.2267 145.467 89.867 147.365 88.6747 149.067Z" fill="#E5D3B7"/>
<path d="M94.5531 133.867C97.391 126.543 99.4016 114.245 99.0441 106.399C96.2058 113.723 94.1952 126.021 94.5531 133.867Z" fill="#E5D3B7"/>
<path d="M148.344 65.552C142.623 61.5005 133.796 60.9216 133.796 60.9216V69.1267L152.498 73.959L148.344 65.552Z" fill="#E5D3B7"/>
<path d="M115.095 73.959L133.797 69.1267V60.9216C133.797 60.9216 124.97 61.5005 119.249 65.552L115.095 73.959Z" fill="#E5D3B7"/>
<path d="M159.263 193.608H102.542L106.016 177.633L159.263 177.547V193.608Z" fill="black"/>
<path d="M171.201 78.7919L133.797 69.127L96.3927 78.7919L103.292 132.434C104.478 141.655 104.852 150.963 104.41 160.251L103.338 182.757C122.792 191.074 144.801 191.074 164.255 182.757L163.184 160.251C162.741 150.964 163.115 141.655 164.301 132.434L171.201 78.7919Z" fill="#7A97E2"/>
<path d="M155.572 144.503C152.289 142.522 148.547 140.239 144.682 137.647C140.814 135.059 136.824 132.165 132.978 129.086C129.138 126.001 125.446 122.734 122.081 119.521C118.711 116.311 115.671 113.154 113.024 110.379C114.933 113.701 117.484 117.351 120.584 120.943C123.677 124.538 127.316 128.071 131.256 131.234C135.199 134.393 139.437 137.178 143.619 139.417C147.798 141.663 151.915 143.36 155.572 144.503Z" fill="#597BC6"/>
<path d="M129.045 122.573C132.128 124.148 136.514 125.403 141.005 125.829C145.495 126.275 150.041 125.888 153.368 124.936C149.936 124.463 145.57 124.128 141.212 123.697C136.853 123.282 132.505 122.769 129.045 122.573Z" fill="#597BC6"/>
<path d="M146.311 78.1228C145.441 80.4679 143.783 82.8306 141.429 84.5737C139.1 86.3204 136.085 87.4422 133.07 87.3345C130.056 87.2175 127.133 85.8744 124.94 83.9592C122.722 82.0458 121.244 79.5664 120.552 77.1631C120.609 78.4112 120.9 79.7698 121.475 81.1094C122.048 82.4486 122.901 83.7651 124.005 84.9304C125.108 86.0961 126.462 87.1131 127.997 87.8551C129.53 88.5978 131.249 89.0611 133.003 89.1309C134.758 89.1921 136.507 88.858 138.09 88.2313C139.677 87.6056 141.103 86.6926 142.289 85.6119C143.477 84.5319 144.426 83.2824 145.096 81.9896C145.77 80.6968 146.161 79.3634 146.311 78.1228Z" fill="#597BC6"/>
<path d="M157.625 179.609C154.264 180.588 150.398 181.577 146.232 182.282C142.069 182.995 137.613 183.428 133.148 183.482C128.682 183.525 124.217 183.189 120.04 182.567C115.86 181.952 111.973 181.047 108.592 180.141C111.656 181.823 115.448 183.365 119.672 184.415C123.892 185.474 128.534 186.041 133.175 185.995C137.816 185.94 142.445 185.273 146.64 184.123C150.841 182.981 154.598 181.358 157.625 179.609Z" fill="#597BC6"/>
<path d="M153.024 177.633C149.416 178.22 144.759 178.974 140.064 179.388C135.369 179.822 130.653 179.915 126.998 179.984C130.562 180.787 135.395 181.139 140.182 180.696C144.97 180.275 149.662 179.062 153.024 177.633Z" fill="#597BC6"/>
<path d="M135.325 67.6787C132.039 69.2462 128.197 69.523 124.681 68.5985V74.0892C124.681 79.1238 128.762 83.2052 133.797 83.2052C138.831 83.2052 142.913 79.1238 142.913 74.0892V59.5928C141.454 63.0772 138.741 66.0497 135.325 67.6787Z" fill="#F2C6C3"/>
<path d="M135.325 67.6787C138.741 66.0497 141.455 63.0775 142.913 59.5927V58.2812H124.681V68.5985C128.197 69.523 132.039 69.2461 135.325 67.6787Z" fill="#131B2C"/>
<path d="M112.589 50.5037C111.417 48.767 110.79 46.719 110.79 44.6234V30.1014C109.878 31.3106 109.034 32.0277 108.122 33.237C108.852 29.7522 109.698 25.9657 111.532 22.9143C113.367 19.863 116.512 17.3599 120.071 17.2713C117.894 15.2039 115.33 12.8736 113.154 10.8057C116.143 10.0814 119.464 11.322 121.369 13.7376C121.13 11.1812 121.026 8.49202 120.787 5.9353C122.97 7.3159 124.681 11.2903 123.523 15.3057C130.174 10.4727 139.756 9.75346 146.814 13.968C153.872 18.1825 158.026 26.7984 156.926 34.9452L154.489 32.5605V48.4344L143.926 56.1459L112.589 50.5037Z" fill="#D04748"/>
<path d="M115.934 54.7694C118.29 52.7297 118.547 49.1658 116.507 46.8094C114.467 44.453 110.903 44.1963 108.547 46.2361C106.19 48.2759 105.934 51.8397 107.973 54.1961C110.013 56.5525 113.577 56.8092 115.934 54.7694Z" fill="#E79C9B"/>
<path d="M114.901 50.5033C114.901 51.975 113.708 53.1681 112.237 53.1681C110.765 53.1681 109.572 51.975 109.572 50.5033C109.572 49.0317 110.765 47.8386 112.237 47.8386C113.708 47.8386 114.901 49.0317 114.901 50.5033Z" fill="#E58080"/>
<path d="M142.913 46.273V35.6152C138.481 35.0997 133.292 32.6096 130.489 29.1381C131.719 31.3085 133.054 33.4448 134.285 35.6152C130.61 35.5162 126.833 34.6806 123.907 32.4558C120.981 30.2314 119.089 26.4154 119.872 22.824C117.55 25.182 115.702 28.0102 114.816 31.1991C113.583 27.3442 117.587 22.572 117.864 22.248C114.394 25.6374 112.237 30.3653 112.237 35.5994V46.8857C112.237 57.1947 120.594 65.5517 130.903 65.5517C139.447 65.5517 146.646 59.8083 148.861 51.9729L146.488 51.1989C144.356 50.5037 142.913 48.5158 142.913 46.273Z" fill="#F2C6C3"/>
<path d="M153.016 55.7194C155.9 54.5379 157.28 51.2421 156.099 48.3581C154.917 45.474 151.622 44.0938 148.738 45.2753C145.854 46.4568 144.473 49.7525 145.655 52.6366C146.836 55.5206 150.132 56.9008 153.016 55.7194Z" fill="#F2C6C3"/>
<path d="M153.535 50.5041C153.535 51.9758 152.342 53.1688 150.871 53.1688C149.399 53.1688 148.206 51.9758 148.206 50.5041C148.206 49.0324 149.399 47.8394 150.871 47.8394C152.342 47.8394 153.535 49.0324 153.535 50.5041Z" fill="#E79C9B"/>
<path d="M117.208 34.4071C115.049 35.0223 113.361 36.4832 112.396 38.3271L123.363 35.2019C121.572 34.1435 119.367 33.7918 117.208 34.4071Z" fill="#D04748"/>
<path d="M136.669 35.2461C138.85 35.7789 140.593 37.1746 141.627 38.9804L130.549 36.2746C132.299 35.1485 134.489 34.7133 136.669 35.2461Z" fill="#D04748"/>
<path d="M134.325 53.6958C129.84 53.8891 125.354 54.0824 120.87 54.2758C121.267 56.3656 122.658 58.2732 124.571 59.2042C126.483 60.1351 128.835 60.1063 130.725 59.1296C132.614 58.1526 133.978 55.795 134.325 53.6958Z" fill="white"/>
<path d="M121.317 41.594C121.317 42.543 120.547 43.3123 119.598 43.3123C118.649 43.3123 117.88 42.543 117.88 41.594C117.88 40.6451 118.649 39.8757 119.598 39.8757C120.547 39.8757 121.317 40.6451 121.317 41.594Z" fill="#131B2C"/>
<path d="M136.088 41.594C136.088 42.543 135.318 43.3123 134.369 43.3123C133.42 43.3123 132.651 42.543 132.651 41.594C132.651 40.6451 133.42 39.8757 134.369 39.8757C135.318 39.8757 136.088 40.6451 136.088 41.594Z" fill="#131B2C"/>
<path d="M128.219 51.1909C127.67 51.0782 127.077 50.9702 126.451 50.868C125.827 50.7578 125.153 50.7006 124.56 50.4936C124.262 50.3881 123.997 50.2441 123.782 50.0411C123.565 49.8409 123.407 49.5875 123.358 49.3337C123.241 48.8293 123.639 48.2879 124.084 47.6978C124.99 46.4659 125.521 44.9849 125.671 43.5765C125.829 42.1639 125.604 40.8283 125.185 39.7908C125.344 40.8999 125.35 42.1801 125.075 43.4829C124.804 44.7833 124.258 46.1001 123.433 47.2237C123.225 47.5124 122.985 47.8152 122.8 48.1921C122.614 48.5618 122.499 49.0478 122.622 49.5036C122.867 50.4108 123.675 50.9065 124.389 51.0728C125.121 51.2449 125.791 51.206 126.422 51.219C127.056 51.2211 127.659 51.2118 128.219 51.1909Z" fill="#E79C9B"/>
<path d="M139.006 54.4831C141.163 54.4831 142.912 52.734 142.912 50.5764C142.912 48.4188 141.163 46.6697 139.006 46.6697C136.848 46.6697 135.099 48.4188 135.099 50.5764C135.099 52.734 136.848 54.4831 139.006 54.4831Z" fill="#F4B7B5"/>
<path d="M118.704 50.1022C119.039 52.2337 118.152 54.1435 116.723 54.3682C115.295 54.5928 113.865 53.047 113.529 50.9154C113.194 48.7839 114.081 46.8737 115.51 46.6491C116.939 46.4248 118.369 47.9706 118.704 50.1022Z" fill="#F4B7B5"/>
<path d="M137.568 25.3678C139.727 26.8524 142.296 27.2848 144.671 26.7819L133.708 19.241C134.088 21.6389 135.41 23.8832 137.568 25.3678Z" fill="#BC3139"/>
<path d="M142.467 20.1594C144.315 20.7127 146.214 20.5352 147.91 19.79C144.749 18.5091 141.468 17.526 138.124 16.8582C139.13 18.413 140.619 19.6057 142.467 20.1594Z" fill="#BC3139"/>
<path d="M128.732 107.876L124.681 189.702L104.124 187.593C101.006 187.273 98.3435 185.201 97.2675 182.257C96.6976 180.698 96.6152 179.002 97.0306 177.395L97.4054 175.946C102.471 156.358 103.748 135.982 101.167 115.915L96.3923 78.792L115.094 73.9597L128.732 107.876Z" fill="#23386B"/>
<path d="M102.018 124.379C103.307 141.686 101.76 159.107 97.4053 175.946L97.0306 177.395C96.6148 179.002 96.6976 180.697 97.2674 182.257C98.3435 185.201 101.006 187.272 104.124 187.593L124.681 189.702L126.006 162.933C119.911 149.022 111.808 135.99 102.018 124.379Z" fill="#182949"/>
<path d="M115.095 73.9596L119.249 65.5525L128.732 107.876L115.095 73.9596Z" fill="#F9F0DF"/>
<path d="M152.499 73.9596L148.344 65.5525L138.861 107.876L152.499 73.9596Z" fill="#F9F0DF"/>
<path d="M138.861 107.876L142.912 189.702L163.469 187.593C166.587 187.273 169.25 185.201 170.326 182.257C170.895 180.698 170.978 179.002 170.562 177.395L170.188 175.946C165.122 156.358 163.845 135.982 166.426 115.915L171.201 78.792L152.499 73.9597L138.861 107.876Z" fill="#23386B"/>
<path d="M150.436 156.75L165.301 171.614L167.48 169.434L152.616 154.57L150.436 156.75Z" fill="#E5D3B7"/>
<path d="M117.483 69.1277L128.732 107.877L116.36 71.3996L117.483 69.1277Z" fill="#23386B"/>
<path d="M150.11 69.1277L138.861 107.877L151.233 71.3996L150.11 69.1277Z" fill="#23386B"/>
<path d="M106.016 89.282C107.586 92.2538 110.307 95.7184 113.523 98.6704C116.729 101.634 120.405 104.062 123.495 105.384C121.2 102.925 118.064 100.034 114.932 97.1408C111.792 94.2568 108.655 91.3682 106.016 89.282Z" fill="#182949"/>
<path d="M144.866 106.415C148.008 103.821 152.038 98.7648 153.866 95.123C150.724 97.7176 146.695 102.773 144.866 106.415Z" fill="#182949"/>
<path d="M158.939 95.062C158.973 97.9733 159.717 101.723 161.066 105.26C162.403 108.801 164.334 112.101 166.239 114.302C165.384 111.516 164.054 108.073 162.751 104.621C161.436 101.173 160.147 97.7138 158.939 95.062Z" fill="#182949"/>
<path d="M156.536 105.259C157.138 107.097 158.476 109.31 160.259 111.121C162.03 112.943 164.213 114.329 166.039 114.971C164.627 113.644 162.811 112.026 161.115 110.283C159.41 108.55 157.832 106.699 156.536 105.259Z" fill="#182949"/>
<path d="M150.934 161.556C153.075 164.329 157.306 167.934 160.383 169.607C158.242 166.835 154.012 163.23 150.934 161.556Z" fill="#182949"/>
<path d="M153.62 168.576C154.585 169.739 156.464 171.229 157.816 171.904C156.851 170.741 154.972 169.251 153.62 168.576Z" fill="#182949"/>
<path d="M114.975 154.567L100.111 169.431L102.291 171.611L117.155 156.747L114.975 154.567Z" fill="#E5D3B7"/>
<path d="M104.011 175.094C108.485 172.547 114.596 167.13 117.662 162.995C113.189 165.542 107.077 170.959 104.011 175.094Z" fill="black"/>
<path d="M109.45 175.044C111.642 173.809 114.641 171.176 116.149 169.161C113.957 170.396 110.958 173.03 109.45 175.044Z" fill="black"/>
<path d="M171.201 78.7917C177.97 80.9312 183.006 86.6311 184.296 93.6122L192.227 136.544C193.476 143.305 192.89 150.278 190.531 156.736L177.061 193.608H155.031L172.72 144.556L165.337 109.028C163.164 98.5705 165.276 87.6787 171.201 78.7917Z" fill="#F9F0DF"/>
<path d="M171.87 131.088C172.507 132.83 173.472 134.749 174.728 136.655C175.982 138.562 177.525 140.453 179.25 142.164C180.976 143.874 182.88 145.401 184.798 146.638C186.714 147.877 188.642 148.825 190.39 149.448C187.68 146.907 184.172 143.828 180.866 140.534C177.543 137.256 174.434 133.775 171.87 131.088Z" fill="#E5D3B7"/>
<path d="M170.221 108.059C170.637 112.564 172.185 118.273 174.557 123.638C176.912 129.011 180.077 134.007 183.119 137.356C181.687 133.061 179.427 127.773 177.119 122.51C174.796 117.254 172.422 112.016 170.221 108.059Z" fill="#E5D3B7"/>
</g>
<mask id="mask1_1_7823" style="mask-type:luminance" maskUnits="userSpaceOnUse" x="0" y="0" width="271" height="180">
<path d="M270.333 0H0.333252V180H270.333V0Z" fill="white"/>
</mask>
<g mask="url(#mask1_1_7823)">
<path d="M48.3018 67.8909C48.4307 66.8628 48.1859 65.7734 47.607 64.9141C47.3745 64.5689 47.0886 64.2614 46.7672 63.9968C46.3312 64.0497 45.9719 64.3946 45.9219 64.85L45.618 67.6152C46.472 67.9277 47.4029 68.0313 48.3018 67.8909Z" fill="#DD9B9B"/>
<path d="M57.8627 81.0396L55.0655 79.8095L54.2555 79.605L55.1659 80.0247C55.8802 80.3541 56.2708 81.1735 56.1012 81.986L55.721 83.8073C55.5785 84.4902 55.0676 85.0233 54.4214 85.163L53.3242 85.4006C53.8526 85.6476 54.1151 86.2797 53.9329 86.8665L53.349 88.7443C53.2021 89.217 52.7986 89.5493 52.3316 89.582L51.4907 89.6411C51.9911 89.9067 52.2096 90.5389 51.9925 91.0922L51.4417 92.4969C51.2563 92.97 50.7995 93.2598 50.3218 93.2072L49.4293 93.1093C49.8354 93.3858 49.9582 93.956 49.7076 94.3999L49.0009 95.6523C48.9404 95.7593 48.8612 95.8493 48.7712 95.9227L50.9273 96.1596C51.2786 96.1981 51.6203 96.0278 51.8006 95.724L52.499 94.5486C52.7467 94.1317 52.62 93.5935 52.2128 93.3307L53.1053 93.4286C53.583 93.4812 54.0373 93.2112 54.2198 92.7666L54.7613 91.4468C54.9748 90.9266 54.7523 90.3301 54.2504 90.0763L55.0907 90.0259C55.5569 89.9982 55.9583 89.6875 56.1019 89.2433L56.6732 87.4778C56.8518 86.9263 56.5854 86.3287 56.0558 86.0925L57.151 85.8755C57.7957 85.7477 58.3026 85.2487 58.4408 84.6061L58.8095 82.8925C58.974 82.1289 58.5784 81.3542 57.8627 81.0396Z" fill="#B76C6C"/>
<path d="M49.7079 94.4006C49.9585 93.9564 49.8358 93.3861 49.4297 93.11L50.3221 93.2079C50.7998 93.2605 51.2563 92.9707 51.4421 92.4976L51.9929 91.0929C52.2099 90.5392 51.9914 89.9074 51.491 89.6418L52.332 89.5827C52.7986 89.55 53.2025 89.2177 53.3493 88.745L53.9333 86.8672C54.1158 86.2804 53.853 85.6479 53.3245 85.4013L54.4218 85.1637C55.068 85.0237 55.5785 84.4909 55.7214 83.808L56.1016 81.9867C56.2711 81.1742 55.8805 80.3548 55.1663 80.0254L54.2558 79.6057L48.1171 78.0566C46.509 77.6509 45.8765 75.7047 46.9385 74.431L49.2209 71.6932C49.9297 70.8429 50.321 69.773 50.3275 68.666C50.3293 68.3744 50.3311 68.063 50.3329 67.7458C50.3441 65.8238 48.9008 64.2038 46.9903 63.9939C46.9144 63.9856 46.8402 63.9885 46.7675 63.9975C47.089 64.2618 47.3748 64.5696 47.6074 64.9148C48.1862 65.7745 48.431 66.8635 48.3022 67.8916C47.4032 68.032 46.4723 67.9284 45.6184 67.6159L45.6122 67.6728C44.8487 70.0182 43.3122 72.0352 41.2541 73.3946L40.5621 73.8518C39.8317 74.3342 39.1751 74.9203 38.6128 75.5913C36.6698 77.9104 33.6962 79.1053 30.6884 78.7752L-7.05649 71.496L-14.9048 86.8208L30.6758 89.3055C32.8862 89.5482 34.9296 90.5968 36.4153 92.2514C37.901 93.9056 39.9444 94.9546 42.1548 95.1973L48.7716 95.9238C48.8616 95.8503 48.9408 95.7603 49.0013 95.6534L49.7079 94.4006Z" fill="#C97F7D"/>
<path d="M-1.9765 90.0491C-0.925661 88.5396 0.228139 86.4192 1.15226 84.198C2.08142 81.9793 2.77802 79.6674 3.1121 77.8591C2.35718 79.5367 1.46258 81.7457 0.542418 83.9435C-0.373062 86.1435 -1.31446 88.3326 -1.9765 90.0491Z" fill="#BC7171"/>
<path d="M2.18256 88.982C2.87304 88.0125 3.58836 86.6052 4.05852 85.1116C4.53588 83.6201 4.7634 82.0581 4.75872 80.8679C4.47972 82.0257 4.119 83.5197 3.651 84.9824C3.18912 86.4468 2.62248 87.8753 2.18256 88.982Z" fill="#BC7171"/>
<path d="M5.48413 89.6612C6.52021 87.3251 7.72585 83.3921 8.17693 80.8765C7.14085 83.2129 5.93521 87.1459 5.48413 89.6612Z" fill="#BC7171"/>
<path d="M9.52875 89.4038C10.3125 88.1921 11.1124 86.4569 11.6315 84.632C12.1585 82.8097 12.4005 80.9143 12.3785 79.4714C12.0559 80.879 11.6506 82.6988 11.1333 84.4891C10.6228 86.2812 10.0018 88.0391 9.52875 89.4038Z" fill="#BC7171"/>
<path d="M12.0574 90.4227C13.0377 88.4078 14.2163 84.9986 14.6897 82.8083C13.7091 84.8233 12.5308 88.2325 12.0574 90.4227Z" fill="#BC7171"/>
<path d="M15.4493 89.2256C15.9925 87.8785 16.6013 85.6209 16.809 84.1831C16.2654 85.5302 15.6566 87.7878 15.4493 89.2256Z" fill="#BC7171"/>
<path d="M18.0312 89.8075C18.8945 88.3632 19.9953 85.8881 20.4907 84.28C19.6271 85.7247 18.5262 88.1994 18.0312 89.8075Z" fill="#BC7171"/>
</g>
<mask id="mask2_1_7823" style="mask-type:luminance" maskUnits="userSpaceOnUse" x="0" y="0" width="271" height="180">
<path d="M270.333 0H0.333252V180H270.333V0Z" fill="white"/>
</mask>
<g mask="url(#mask2_1_7823)">
<path d="M70.0713 26.1734C70.598 25.3321 70.8244 24.2873 70.6682 23.3074C70.6056 22.9136 70.481 22.5313 70.3086 22.172C69.9082 22.042 69.4575 22.1968 69.2304 22.5723L67.8516 24.8518C68.4672 25.4671 69.234 25.9329 70.0713 26.1734Z" fill="#FFDDDC"/>
<path d="M73.0742 41.4505L71.1406 39.2538L70.5196 38.7498L71.1413 39.4816C71.6288 40.0558 71.6378 40.9252 71.1629 41.5624L70.0981 42.9913C69.6988 43.527 69.04 43.784 68.4226 43.645L67.3736 43.4089C67.7332 43.8366 67.7062 44.4918 67.3109 44.9277L66.0466 46.3234C65.7284 46.6744 65.2438 46.8008 64.8251 46.641L64.0706 46.353C64.3982 46.7857 64.333 47.4229 63.9212 47.816L62.8765 48.8139C62.5247 49.1502 62.011 49.2175 61.6172 48.9795L60.8813 48.5346C61.1225 48.9385 60.9994 49.4832 60.6027 49.7679L59.4838 50.5711C59.3881 50.6398 59.2833 50.6859 59.1753 50.7133L60.9526 51.7882C61.2424 51.9636 61.6078 51.9531 61.8872 51.762L62.9679 51.0225C63.3509 50.7601 63.4582 50.2417 63.2102 49.8493L63.946 50.2942C64.3399 50.5322 64.8435 50.4811 65.1812 50.1686L66.1838 49.2405C66.5791 48.8748 66.6266 48.2667 66.2929 47.8441L67.0431 48.1393C67.4593 48.3031 67.933 48.1951 68.2372 47.8671L69.4454 46.5639C69.823 46.1568 69.8324 45.5304 69.4677 45.1117L70.5063 45.3648C71.1179 45.5138 71.7595 45.2848 72.1385 44.7823L73.1498 43.4424C73.6001 42.8448 73.5688 42.0124 73.0742 41.4505Z" fill="#F4B7B5"/>
<path d="M60.6023 49.7682C60.999 49.4834 61.1221 48.9384 60.8809 48.5348L61.6168 48.9797C62.0106 49.2177 62.524 49.1504 62.8761 48.8142L63.9208 47.8162C64.3326 47.4231 64.3974 46.7859 64.0702 46.3532L64.8248 46.6412C65.2434 46.801 65.728 46.675 66.0462 46.3237L67.3105 44.928C67.7055 44.4916 67.7325 43.8364 67.3732 43.4091L68.4222 43.6453C69.04 43.7842 69.6984 43.5272 70.0977 42.9915L71.1625 41.5627C71.6374 40.9255 71.6284 40.0561 71.1409 39.4819L70.5192 38.75L65.8115 34.929C64.5781 33.9282 64.8132 31.9824 66.2496 31.3041L69.3363 29.8465C70.2949 29.3936 71.0661 28.6225 71.5182 27.6631C71.6374 27.4107 71.7645 27.1407 71.8941 26.8657C72.6789 25.2007 72.0788 23.2113 70.5034 22.2584C70.4408 22.2206 70.3752 22.1932 70.3083 22.1716C70.4811 22.5309 70.6053 22.9132 70.6679 23.3071C70.8241 24.287 70.5977 25.3321 70.071 26.173C69.2337 25.9326 68.4669 25.4667 67.8509 24.8511L67.8225 24.8979C66.2133 26.6274 64.0651 27.7599 61.7295 28.1106L60.944 28.2286C60.1149 28.3532 59.3081 28.5973 58.5492 28.9537C55.9263 30.1849 52.8612 30.0232 50.3819 28.5235L47.7924 26.9571L42.603 35.5366L46.1245 37.6667C47.9465 38.7691 49.2987 40.5039 49.9222 42.5401C50.5457 44.5762 51.8975 46.3114 53.7198 47.4134L59.1745 50.7128C59.2822 50.6854 59.3873 50.639 59.4831 50.5706L60.6023 49.7682Z" fill="#F2C6C3"/>
<path d="M34.1747 35.5916L41.3416 37.6238L48.6586 25.527L42.5116 21.8086L34.1747 35.5916Z" fill="#F9F0DF"/>
<path d="M-8.68042 13.3283L32.5165 38.3321L42.5116 21.8085L1.31426 -3.19531L-8.68042 13.3283Z" fill="#00726F"/>
<path d="M24.8492 29.3606C24.4799 29.9708 23.6861 30.1667 23.0755 29.7973C22.4653 29.4279 22.2698 28.6341 22.6388 28.0236C23.0078 27.4134 23.802 27.2179 24.4126 27.5869C25.0228 27.9563 25.2182 28.7504 24.8492 29.3606Z" fill="#00947F"/>
<path d="M28.7808 31.7395C28.4115 32.3497 27.6177 32.5452 27.0071 32.1762C26.3969 31.8069 26.2014 31.013 26.5704 30.4025C26.9398 29.7923 27.7336 29.5968 28.3441 29.9658C28.9547 30.3348 29.1502 31.129 28.7808 31.7395Z" fill="#00947F"/>
<path d="M47.7932 26.958L43.9156 36.331L42.6038 35.5372L47.7932 26.958Z" fill="#131B2C"/>
</g>
<mask id="mask3_1_7823" style="mask-type:luminance" maskUnits="userSpaceOnUse" x="0" y="0" width="271" height="180">
<path d="M270.333 0H0.333252V180H270.333V0Z" fill="white"/>
</mask>
<g mask="url(#mask3_1_7823)">
<path d="M212.664 64.8361C212.536 63.8518 212.766 62.8078 213.317 61.9823C213.539 61.6508 213.811 61.3549 214.118 61.1003C214.536 61.1493 214.881 61.478 214.931 61.9139L215.233 64.5607C214.417 64.8634 213.526 64.9667 212.664 64.8361Z" fill="#FFDDDC"/>
<path d="M203.562 77.4677L206.236 76.2779L207.01 76.0789L206.14 76.4846C205.458 76.8028 205.087 77.5894 205.252 78.3667L205.624 80.1094C205.764 80.7628 206.255 81.2711 206.874 81.4025L207.926 81.6257C207.421 81.8644 207.172 82.471 207.349 83.0323L207.916 84.8283C208.059 85.2801 208.447 85.5969 208.894 85.6264L209.7 85.6793C209.221 85.936 209.015 86.5423 209.225 87.0715L209.758 88.4143C209.938 88.8664 210.376 89.1422 210.834 89.09L211.688 88.9924C211.3 89.2588 211.185 89.8053 211.426 90.2297L212.108 91.4264C212.167 91.5286 212.243 91.6143 212.329 91.6845L210.265 91.9199C209.929 91.9585 209.601 91.7965 209.427 91.5063L208.754 90.3835C208.515 89.9853 208.634 89.4694 209.023 89.216L208.169 89.3135C207.712 89.3657 207.275 89.1091 207.099 88.6839L206.575 87.4221C206.368 86.9249 206.579 86.3525 207.058 86.1074L206.253 86.0631C205.807 86.0383 205.421 85.7423 205.282 85.3175L204.727 83.6291C204.554 83.1014 204.806 82.5283 205.313 82.3L204.263 82.0966C203.645 81.9767 203.158 81.5012 203.023 80.8863L202.663 79.2469C202.502 78.5157 202.878 77.7723 203.562 77.4677Z" fill="#F4B7B5"/>
<path d="M211.426 90.2301C211.185 89.8057 211.3 89.2592 211.688 88.9928L210.834 89.0904C210.376 89.1426 209.938 88.8668 209.758 88.4147L209.225 87.0719C209.015 86.5427 209.221 85.9364 209.7 85.6797L208.894 85.6268C208.447 85.5973 208.059 85.2805 207.916 84.8287L207.349 83.0327C207.172 82.4714 207.421 81.8648 207.926 81.6261L206.874 81.4029C206.255 81.2715 205.764 80.7632 205.624 80.1098L205.252 78.3671C205.087 77.5898 205.458 76.8032 206.14 76.485L207.01 76.0793L212.883 74.5705C214.421 74.1752 215.019 72.309 213.997 71.0933L211.8 68.4807C211.117 67.6693 210.738 66.6465 210.728 65.586C210.725 65.307 210.722 65.0085 210.719 64.7047C210.7 62.864 212.076 61.3067 213.904 61.0979C213.977 61.0896 214.048 61.0921 214.118 61.1004C213.811 61.3549 213.539 61.6508 213.317 61.9824C212.766 62.8079 212.536 63.8519 212.664 64.8361C213.525 64.9668 214.416 64.8635 215.233 64.5611L215.239 64.6154C215.98 66.8586 217.459 68.7839 219.436 70.0773L220.101 70.5122C220.802 70.9712 221.433 71.5296 221.975 72.17C223.845 74.3833 226.698 75.5151 229.577 75.1865L232.584 74.8434L233.721 84.8057L229.632 85.2726C227.516 85.5141 225.563 86.5268 224.147 88.1173C222.732 89.7078 220.779 90.7205 218.663 90.962L212.329 91.6849C212.243 91.6151 212.167 91.529 212.108 91.4268L211.426 90.2301Z" fill="#F2C6C3"/>
<path d="M241.359 88.3704L233.998 87.2277L232.394 73.1813L239.532 72.3662L241.359 88.3704Z" fill="#F9F0DF"/>
<path d="M289.594 86.0157L241.722 91.5532L239.532 72.3663L287.404 66.8291L289.594 86.0157Z" fill="#23386B"/>
<path d="M252.433 86.5985C252.514 87.3073 253.154 87.816 253.863 87.7354C254.572 87.6544 255.08 87.0143 255 86.3054C254.919 85.5966 254.279 85.0879 253.57 85.1686C252.861 85.2499 252.352 85.89 252.433 86.5985Z" fill="#182949"/>
<path d="M247.868 87.1196C247.949 87.8284 248.589 88.3371 249.297 88.2565C250.006 88.1755 250.515 87.5354 250.434 86.8269C250.353 86.1181 249.713 85.6094 249.005 85.69C248.296 85.7707 247.787 86.4108 247.868 87.1196Z" fill="#182949"/>
<path d="M232.584 74.8428L232.197 84.9789L233.721 84.8051L232.584 74.8428Z" fill="#131B2C"/>
</g>
<mask id="mask4_1_7823" style="mask-type:luminance" maskUnits="userSpaceOnUse" x="0" y="0" width="271" height="180">
<path d="M270.333 0H0.333252V180H270.333V0Z" fill="white"/>
</mask>
<g mask="url(#mask4_1_7823)">
<path d="M85.5111 146.542C84.6589 146.033 83.6099 145.828 82.6332 146.004C82.2408 146.075 81.861 146.207 81.5053 146.387C81.384 146.79 81.5478 147.238 81.928 147.457L84.2356 148.789C84.8382 148.16 85.2879 147.384 85.5111 146.542Z" fill="#FFDDDC"/>
<path d="M100.723 143.224L98.5669 145.202L98.0758 145.834L98.7947 145.197C99.3585 144.698 100.228 144.671 100.874 145.133L102.325 146.168C102.869 146.556 103.139 147.209 103.013 147.83L102.799 148.883C103.219 148.515 103.875 148.528 104.319 148.914L105.741 150.149C106.098 150.46 106.234 150.943 106.083 151.364L105.811 152.124C106.237 151.788 106.875 151.84 107.277 152.244L108.297 153.268C108.64 153.613 108.718 154.125 108.488 154.523L108.058 155.268C108.457 155.018 109.004 155.13 109.297 155.521L110.123 156.623C110.193 156.717 110.242 156.821 110.272 156.928L111.31 155.129C111.479 154.836 111.461 154.471 111.264 154.195L110.502 153.13C110.232 152.752 109.712 152.656 109.324 152.912L109.754 152.167C109.984 151.768 109.922 151.266 109.603 150.935L108.654 149.951C108.281 149.564 107.672 149.529 107.256 149.871L107.536 149.115C107.691 148.696 107.573 148.224 107.239 147.927L105.912 146.746C105.496 146.377 104.87 146.38 104.459 146.754L104.691 145.71C104.827 145.095 104.585 144.459 104.075 144.09L102.714 143.107C102.106 142.669 101.275 142.718 100.723 143.224Z" fill="#CE7467"/>
<path d="M109.297 155.521C109.004 155.13 108.456 155.019 108.058 155.268L108.488 154.523C108.718 154.125 108.64 153.613 108.296 153.268L107.277 152.244C106.875 151.84 106.237 151.788 105.811 152.125L106.083 151.364C106.234 150.942 106.098 150.46 105.74 150.15L104.319 148.915C103.874 148.529 103.219 148.515 102.799 148.884L103.013 147.83C103.139 147.21 102.868 146.556 102.325 146.168L100.874 145.133C100.227 144.671 99.3581 144.698 98.7944 145.198L98.0754 145.834L94.3523 150.62C93.3771 151.874 91.4273 151.679 90.7192 150.257L89.1978 147.201C88.7252 146.252 87.9382 145.497 86.9698 145.064C86.7149 144.951 86.4424 144.829 86.1648 144.705C84.484 143.955 82.5072 144.596 81.5874 146.19C81.5507 146.254 81.5248 146.32 81.5046 146.387C81.8603 146.207 82.2401 146.075 82.6325 146.004C83.6092 145.828 84.6582 146.033 85.5104 146.542C85.2872 147.384 84.8375 148.16 84.2349 148.789L84.2824 148.816C86.0446 150.389 87.2214 152.513 87.6207 154.841L87.755 155.624C87.8964 156.45 88.1574 157.252 88.5293 158.003C89.8145 160.6 89.7166 163.668 88.2683 166.178L86.756 168.799L95.441 173.81L97.4976 170.245C98.5618 168.4 100.269 167.013 102.291 166.347C104.314 165.682 106.021 164.294 107.085 162.45L110.271 156.928C110.242 156.821 110.193 156.717 110.122 156.623L109.297 155.521Z" fill="#DA8272"/>
<path d="M95.6696 182.236L97.5534 175.029L85.3077 167.963L81.717 174.186L95.6696 182.236Z" fill="white"/>
<path d="M74.2978 225.543L98.4441 183.837L81.717 174.187L57.5707 215.892L74.2978 225.543Z" fill="#E15874"/>
<path d="M86.7562 168.799L96.2073 172.481L95.4409 173.81L86.7562 168.799Z" fill="#131B2C"/>
</g>
<mask id="mask5_1_7823" style="mask-type:luminance" maskUnits="userSpaceOnUse" x="0" y="0" width="271" height="180">
<path d="M270.333 0H0.333252V180H270.333V0Z" fill="white"/>
</mask>
<g mask="url(#mask5_1_7823)">
<path d="M49.9013 115.409C49.5049 114.556 48.7917 113.836 47.9321 113.454C47.5868 113.3 47.2185 113.201 46.8438 113.153C46.5338 113.404 46.4237 113.842 46.6047 114.216L47.7038 116.49C48.5113 116.319 49.2774 115.95 49.9013 115.409Z" fill="#D04748"/>
<path d="M63.5928 120.915L60.8481 121.317L60.1267 121.55L61.0296 121.434C61.7377 121.343 62.4332 121.785 62.6942 122.492L63.2796 124.076C63.4992 124.67 63.3631 125.327 62.9336 125.746L62.2039 126.457C62.7295 126.393 63.236 126.753 63.3786 127.292L63.8343 129.018C63.9492 129.452 63.7987 129.902 63.4556 130.152L62.8371 130.603C63.3501 130.566 63.8228 130.947 63.9225 131.478L64.176 132.824C64.2613 133.277 64.0496 133.72 63.6569 133.91L62.9232 134.265C63.3685 134.282 63.7382 134.661 63.7595 135.123L63.8196 136.428C63.8246 136.539 63.807 136.647 63.7735 136.746L65.5461 135.889C65.8352 135.75 66.0156 135.454 66.008 135.133L65.9785 133.893C65.9681 133.453 65.6113 133.099 65.1714 133.094L65.9051 132.739C66.2978 132.549 66.5174 132.122 66.4433 131.692L66.2237 130.416C66.1373 129.913 65.6786 129.561 65.1703 129.608L65.7924 129.164C66.1376 128.918 66.2964 128.486 66.1931 128.075L65.7819 126.442C65.6534 125.931 65.1606 125.6 64.6393 125.674L65.3773 124.979C65.8118 124.57 65.9612 123.942 65.7578 123.381L65.2153 121.885C64.973 121.218 64.2951 120.813 63.5928 120.915Z" fill="#F4B7B5"/>
<path d="M63.7591 135.124C63.7379 134.662 63.3685 134.282 62.9229 134.266L63.6565 133.911C64.0493 133.721 64.261 133.278 64.1757 132.824L63.9222 131.478C63.8225 130.948 63.3498 130.567 62.8368 130.604L63.4553 130.153C63.7984 129.903 63.9489 129.453 63.834 129.019L63.3783 127.293C63.2357 126.753 62.7292 126.393 62.2036 126.458L62.9333 125.747C63.3628 125.327 63.4989 124.671 63.2793 124.077L62.6939 122.493C62.4329 121.786 61.7374 121.344 61.0293 121.435L60.1264 121.551L54.6576 123.318C53.2252 123.781 51.8006 122.589 52.0033 121.097L52.4397 117.891C52.575 116.895 52.3605 115.884 51.832 115.029C51.6927 114.804 51.544 114.563 51.3928 114.318C50.4751 112.834 48.584 112.284 47.013 113.043C46.9507 113.073 46.8949 113.111 46.8431 113.153C47.2179 113.202 47.5858 113.301 47.9314 113.454C48.791 113.836 49.5042 114.556 49.9006 115.409C49.2767 115.951 48.5106 116.32 47.7031 116.491L47.7258 116.538C48.2687 118.71 48.0592 121.002 47.1307 123.04L46.8186 123.725C46.4892 124.448 46.2664 125.215 46.1573 126.002C45.7804 128.723 44.0686 131.075 41.5961 132.27L-6.07727 154.781L-0.429951 166.462L46.6624 140.378C48.4796 139.499 50.5569 139.321 52.4973 139.878C54.4373 140.434 56.5149 140.256 58.3321 139.378L63.7725 136.747C63.8063 136.648 63.8239 136.54 63.8185 136.429L63.7591 135.124Z" fill="#F2C6C3"/>
</g>
<mask id="mask6_1_7823" style="mask-type:luminance" maskUnits="userSpaceOnUse" x="0" y="0" width="271" height="180">
<path d="M270.333 0H0.333252V180H270.333V0Z" fill="white"/>
</mask>
<g mask="url(#mask6_1_7823)">
<path d="M221.382 115.409C221.778 114.556 222.491 113.836 223.351 113.454C223.696 113.3 224.065 113.201 224.439 113.153C224.749 113.404 224.859 113.842 224.678 114.216L223.579 116.49C222.771 116.319 222.005 115.95 221.382 115.409Z" fill="#A2ADFD"/>
<path d="M207.69 120.915L210.435 121.317L211.156 121.55L210.254 121.434C209.545 121.343 208.85 121.785 208.589 122.492L208.004 124.076C207.784 124.67 207.92 125.327 208.35 125.746L209.08 126.457C208.554 126.393 208.047 126.753 207.905 127.292L207.449 129.018C207.334 129.452 207.484 129.902 207.827 130.152L208.446 130.603C207.933 130.566 207.46 130.947 207.361 131.478L207.107 132.824C207.022 133.277 207.234 133.72 207.627 133.91L208.36 134.265C207.915 134.282 207.546 134.661 207.524 135.123L207.464 136.428C207.459 136.539 207.476 136.647 207.51 136.746L205.737 135.889C205.449 135.75 205.268 135.454 205.275 135.133L205.305 133.893C205.315 133.453 205.672 133.099 206.112 133.094L205.378 132.739C204.985 132.549 204.766 132.122 204.84 131.692L205.059 130.416C205.146 129.913 205.605 129.561 206.113 129.608L205.491 129.164C205.146 128.918 204.987 128.486 205.09 128.075L205.501 126.442C205.63 125.931 206.123 125.6 206.644 125.674L205.906 124.979C205.472 124.57 205.322 123.942 205.526 123.381L206.068 121.885C206.31 121.218 206.988 120.813 207.69 120.915Z" fill="#E29191"/>
<path d="M207.524 135.124C207.545 134.662 207.914 134.282 208.36 134.266L207.626 133.911C207.233 133.721 207.022 133.278 207.107 132.824L207.36 131.478C207.46 130.948 207.933 130.567 208.446 130.604L207.827 130.153C207.484 129.903 207.334 129.453 207.448 129.019L207.905 127.293C208.047 126.753 208.554 126.393 209.079 126.458L208.349 125.747C207.92 125.327 207.784 124.671 208.003 124.077L208.589 122.493C208.85 121.786 209.545 121.344 210.253 121.435L211.156 121.551L216.624 123.318C218.057 123.781 219.481 122.589 219.279 121.097L218.842 117.891C218.707 116.895 218.921 115.884 219.45 115.029C219.589 114.804 219.738 114.563 219.89 114.318C220.807 112.834 222.698 112.284 224.269 113.043C224.332 113.073 224.387 113.111 224.439 113.153C224.065 113.202 223.697 113.301 223.351 113.454C222.491 113.836 221.778 114.556 221.382 115.409C222.006 115.951 222.772 116.32 223.579 116.491L223.557 116.538C223.014 118.71 223.224 121.002 224.152 123.04L224.464 123.725C224.793 124.448 225.016 125.215 225.125 126.002C225.502 128.723 227.214 131.075 229.686 132.27L277.359 154.781L271.712 166.462L224.62 140.378C222.802 139.499 220.725 139.321 218.785 139.878C216.845 140.434 214.767 140.256 212.95 139.378L207.51 136.747C207.476 136.648 207.458 136.54 207.464 136.429L207.524 135.124Z" fill="#EA9F9E"/>
</g>
<mask id="mask7_1_7823" style="mask-type:luminance" maskUnits="userSpaceOnUse" x="0" y="0" width="271" height="180">
<path d="M270.333 0H0.333252V180H270.333V0Z" fill="white"/>
</mask>
<g mask="url(#mask7_1_7823)">
<path d="M182.433 169.109C179.133 173.64 169.773 173.688 169.773 173.688L168.815 170.883L181.706 166.125L182.433 169.109Z" fill="#E59500"/>
<path d="M186.491 147.991C187.449 147.596 188.564 147.546 189.546 147.879C189.94 148.012 190.312 148.207 190.651 148.448C190.715 148.883 190.477 149.32 190.051 149.488L187.463 150.508C186.937 149.767 186.592 148.896 186.491 147.991Z" fill="#DD9B9B"/>
<path d="M171.29 142.226L173.213 144.601L173.623 145.328L172.979 144.561C172.473 143.958 171.58 143.797 170.841 144.174L169.184 145.02C168.562 145.337 168.182 145.97 168.217 146.631L168.277 147.752C167.9 147.307 167.221 147.22 166.702 147.55L165.044 148.607C164.627 148.873 164.412 149.35 164.503 149.809L164.668 150.636C164.28 150.223 163.613 150.179 163.136 150.534L161.925 151.434C161.518 151.738 161.358 152.255 161.535 152.702L161.864 153.537C161.491 153.218 160.908 153.249 160.546 153.608L159.523 154.619C159.436 154.705 159.37 154.805 159.323 154.912L158.527 152.894C158.398 152.565 158.472 152.191 158.718 151.937L159.668 150.954C160.005 150.605 160.558 150.586 160.919 150.91L160.589 150.075C160.413 149.628 160.554 149.118 160.935 148.825L162.066 147.955C162.512 147.613 163.146 147.67 163.523 148.088L163.35 147.264C163.254 146.807 163.448 146.338 163.839 146.082L165.392 145.067C165.878 144.749 166.524 144.849 166.891 145.298L166.812 144.185C166.766 143.529 167.114 142.909 167.698 142.607L169.254 141.8C169.947 141.44 170.798 141.618 171.29 142.226Z" fill="#B76C6C"/>
<path d="M160.545 153.608C160.907 153.249 161.49 153.218 161.863 153.537L161.534 152.702C161.357 152.255 161.517 151.738 161.924 151.434L163.135 150.534C163.612 150.179 164.279 150.223 164.667 150.636L164.502 149.809C164.411 149.35 164.626 148.873 165.043 148.607L166.701 147.55C167.219 147.22 167.898 147.307 168.276 147.752L168.216 146.631C168.181 145.97 168.561 145.337 169.183 145.02L170.84 144.174C171.579 143.797 172.472 143.958 172.978 144.561L173.622 145.328L176.731 150.844C177.546 152.288 179.59 152.387 180.539 151.027L182.58 148.105C183.214 147.198 184.143 146.539 185.21 146.241C185.491 146.163 185.791 146.079 186.096 145.994C187.948 145.478 189.89 146.444 190.595 148.232C190.623 148.303 190.64 148.375 190.65 148.448C190.311 148.207 189.939 148.012 189.544 147.879C188.563 147.546 187.448 147.596 186.49 147.991C186.59 148.895 186.936 149.766 187.462 150.508L187.408 150.529C185.347 151.883 183.804 153.895 183.034 156.239L182.775 157.027C182.502 157.858 182.109 158.646 181.61 159.365C179.884 161.85 179.513 165.033 180.623 167.848L197.573 202.348L184.853 213.951L170.466 170.629C169.65 168.56 168.101 166.865 166.114 165.866C164.127 164.868 162.578 163.173 161.762 161.104L159.321 154.911C159.368 154.805 159.434 154.705 159.521 154.619L160.545 153.608Z" fill="#C97F7D"/>
<path d="M182.433 169.109C177.889 169.034 173.224 170.732 169.773 173.688L168.815 170.883C172.612 168.231 177.097 166.576 181.706 166.125L182.433 169.109Z" fill="#EFB900"/>
</g>
<mask id="mask8_1_7823" style="mask-type:luminance" maskUnits="userSpaceOnUse" x="0" y="0" width="271" height="180">
<path d="M270.333 0H0.333252V180H270.333V0Z" fill="white"/>
</mask>
<g mask="url(#mask8_1_7823)">
<path d="M188.661 27.4648C187.977 26.6869 187.567 25.6483 187.563 24.6118C187.561 24.1953 187.625 23.7806 187.742 23.381C188.133 23.1797 188.624 23.2633 188.921 23.6117L190.726 25.7282C190.195 26.4669 189.483 27.076 188.661 27.4648Z" fill="#FFDDDC"/>
<path d="M188.141 43.7137L189.764 41.1242L190.319 40.5L189.801 41.359C189.396 42.0325 189.533 42.93 190.13 43.5067L191.468 44.7995C191.97 45.2844 192.691 45.4381 193.304 45.1908L194.346 44.7707C194.048 45.2718 194.186 45.9425 194.666 46.3255L196.204 47.5506C196.591 47.8588 197.112 47.907 197.516 47.6719L198.245 47.2482C197.981 47.7493 198.155 48.3948 198.646 48.7307L199.891 49.5832C200.31 49.8701 200.85 49.8532 201.216 49.5414L201.899 48.9589C201.719 49.4158 201.938 49.9565 202.394 50.1829L203.683 50.8219C203.793 50.8766 203.909 50.9065 204.025 50.9166L202.374 52.3242C202.105 52.5535 201.727 52.6046 201.407 52.4545L200.169 51.8746C199.729 51.669 199.532 51.1528 199.721 50.7064L199.038 51.2888C198.672 51.6006 198.144 51.6326 197.744 51.3673L196.554 50.5796C196.085 50.2693 195.934 49.6508 196.206 49.1591L195.483 49.5896C195.082 49.8283 194.575 49.797 194.207 49.5104L192.742 48.3714C192.285 48.0154 192.169 47.3713 192.475 46.8788L191.447 47.3148C190.842 47.5715 190.142 47.4437 189.667 46.9897L188.399 45.7794C187.834 45.2394 187.726 44.3765 188.141 43.7137Z" fill="#F4B7B5"/>
<path d="M202.395 50.1832C201.938 49.9567 201.719 49.4157 201.9 48.9592L201.216 49.5417C200.851 49.8534 200.31 49.8703 199.891 49.5834L198.646 48.7309C198.155 48.3951 197.981 47.7496 198.246 47.2485L197.517 47.6722C197.112 47.9073 196.592 47.8594 196.205 47.5509L194.667 46.3258C194.186 45.9427 194.048 45.2721 194.346 44.7709L193.305 45.1911C192.692 45.4384 191.97 45.2843 191.468 44.7997L190.13 43.507C189.533 42.9303 189.396 42.0328 189.802 41.3592L190.319 40.5003L194.526 35.7691C195.629 34.5297 195.058 32.5648 193.464 32.1076L190.038 31.1255C188.974 30.8206 188.049 30.1557 187.421 29.2434C187.256 29.0033 187.08 28.7466 186.9 28.4853C185.81 26.9016 186.094 24.7506 187.556 23.5032C187.614 23.4535 187.678 23.4143 187.742 23.3808C187.625 23.7801 187.562 24.1951 187.563 24.6117C187.567 25.6481 187.977 26.6863 188.661 27.4647C189.483 27.0759 190.195 26.4667 190.726 25.7284L190.763 25.7719C192.713 27.2829 195.117 28.0882 197.583 28.0558L198.412 28.045C199.288 28.0335 200.16 28.1494 201.002 28.3884C203.913 29.215 207.044 28.5324 209.346 26.569L241.713 -4.85254L263.588 -2.1151L215.274 35.2738C213.582 36.7167 212.481 38.7323 212.182 40.9355C211.883 43.1387 210.782 45.1547 209.09 46.5972L204.025 50.9165C203.91 50.9064 203.794 50.8765 203.684 50.8218L202.395 50.1832Z" fill="#F2C6C3"/>
<path d="M205.909 26.6994L217.353 36.6591L226.183 30.1168L215.2 18.7549L205.909 26.6994Z" fill="#F9F0DF"/>
<path d="M215.2 18.7549C214.951 15.358 216.294 12.0377 218.837 9.77113L239.013 -7.73999L267.093 9.53674e-06L234.609 27.3665C232.786 28.9375 230.497 29.8649 228.095 30.0049L226.183 30.1165L215.2 18.7549Z" fill="#5249D9"/>
<path d="M208.255 24.693L219.497 35.0708L220.724 34.1614L209.758 23.4082L208.255 24.693Z" fill="#5249D9"/>
<path d="M212.808 20.8008L211.294 22.095L222.745 32.6646L223.976 31.7523L212.808 20.8008Z" fill="#5249D9"/>
<path d="M218.019 21.4628C219.677 18.8608 221.4 14.2787 221.867 11.2288C220.209 13.8308 218.486 18.4129 218.019 21.4628Z" fill="#3535B7"/>
<path d="M220.565 22.0405C223.223 21.7612 226.582 20.8248 229.749 19.4305C232.919 18.0445 235.883 16.2074 237.888 14.4409C235.338 15.2484 232.198 16.5545 229.084 17.9164C225.974 19.2854 222.886 20.711 220.565 22.0405Z" fill="#3535B7"/>
<path d="M223.518 24.0452C224.589 24.6658 226.116 25.2152 227.697 25.5068C229.277 25.8041 230.9 25.8419 232.122 25.6486C230.925 25.3314 229.381 25.0438 227.838 24.754C226.294 24.4685 224.75 24.1809 223.518 24.0452Z" fill="#3535B7"/>
</g>
</g>
<defs>
<clipPath id="clip0_1_7823">
<rect width="270" height="180" fill="white" transform="translate(0.333252)"/>
</clipPath>
</defs>
</svg>
