<svg width="168" height="180" viewBox="0 0 168 180" fill="none" xmlns="http://www.w3.org/2000/svg">
<path d="M148.07 154.833C144.675 158.683 141.463 161.165 138.925 163.127C109.095 186.184 73.7982 179.463 66.2966 177.822C55.2191 175.398 33.8065 170.713 18.3256 151.101C-5.09577 121.43 -1.44871 74.6832 16.7184 43.8253C20.0415 38.1808 37.5949 6.85283 73.272 1.82885C94.8635 -1.21161 120.032 4.92067 138.259 21.3708C176.518 55.901 173.794 125.658 148.07 154.833Z" fill="url(#paint0_linear_1_7657)"/>
<path d="M45.8894 118.506C45.8894 118.506 46.402 95.2883 36.4753 89.0743C26.5487 82.8603 7.67463 78.9753 6.96719 45.6373C6.55294 26.1198 6.1047 17.5863 5.80421 13.8654C5.68702 12.4139 6.8843 11.2424 8.21335 11.512C17.6147 13.4199 48.1556 21.273 54.5588 43.7293C62.1498 70.3517 45.8894 118.506 45.8894 118.506Z" fill="#BDD0FB"/>
<path opacity="0.5" d="M15.4841 20.7875C25.804 30.7026 37.737 48.2503 44.0975 65.798C44.9139 68.6899 47.3021 74.84 48.3391 85.7671C49.2654 94.8804 48.8049 104.51 47.6818 110.885C47.6108 111.288 47.2499 111.553 46.8758 111.476C46.2326 111.345 46.3181 110.6 46.3239 110.623C47.6066 99.7318 47.0742 86.1759 44.135 73.9445C40.3799 58.9258 32.0046 44.3647 23.3417 32.0148L22.4503 30.7987C15.7386 21.5133 14.3257 21.4449 14.9531 20.7976C15.1014 20.6448 15.3333 20.6434 15.4841 20.7875Z" fill="white"/>
<path d="M61.8419 163.144C63.1849 163.854 49.1274 144.81 44.7238 114.901C42.6487 100.807 42.6217 83.1486 35.169 76.3435C28.9664 70.68 7.8597 74.2556 0.953615 75.6144C0.0906485 75.7841 -0.19984 76.9585 0.471858 77.5663C3.78375 80.5626 10.8684 87.6302 12.7143 94.753C15.1475 104.141 23.433 110.113 30.8506 111.729C38.2682 113.345 42.3945 114.913 46.0081 127.692C49.6217 140.472 58.0257 161.129 61.8419 163.144Z" fill="#91B3FA"/>
<path opacity="0.5" d="M10.6666 79.5812C19.4777 79.9788 28.9358 84.3087 33.7354 92.4307L34.1884 93.2058C35.2347 95.0231 41.1644 107.942 44.4578 118.651C44.4988 118.784 44.4317 118.928 44.3077 118.973C44.0972 119.048 43.9918 118.798 44.0119 118.82C41.7173 112.77 38.4217 105.1 35.797 99.3645C32.9822 93.1056 31.0124 88.8668 24.592 84.8067C17.4459 80.4342 10.6188 79.984 10.6393 79.9886C10.5352 79.9771 10.4593 79.8768 10.4699 79.7646C10.4802 79.6567 10.5673 79.577 10.6666 79.5812Z" fill="white"/>
<path d="M55.8156 165.65C56.6126 166.102 51.3263 156.3 50.9207 147.665C50.5151 139.029 48.7066 124.29 41.7938 115.473C34.8811 106.656 27.3109 105.852 17.7721 113.867C9.82308 120.547 4.8647 123.918 1.9568 124.544C1.23676 124.699 0.869291 125.575 1.2197 126.27C3.08482 129.97 8.3578 138.469 17.2115 137.871C28.505 137.108 42.1919 129.199 46.3634 135.796C50.535 142.394 49.9993 146.086 50.1275 149.212C50.2556 152.339 50.5413 162.654 55.8156 165.65Z" fill="#BDD0FB"/>
<path opacity="0.5" d="M20.9766 124.454C24.4364 120.881 30.071 117.37 34.9955 118.024C41.4026 119.136 45.6707 123.745 47.9988 130.607C48.9089 133.52 49.2833 135.075 49.8214 138.646C49.8643 138.931 49.4738 139.017 49.4089 138.738C49.0173 137.061 48.6295 135.305 48.0494 133.488C44.6723 121.768 37.4633 120.19 37.1828 119.95C36.6379 120.008 33.3338 117.343 25.494 121.888C24.03 122.747 22.6049 123.726 21.267 124.807L21.2596 124.813C21.1628 124.891 21.0255 124.87 20.9529 124.766C20.8858 124.669 20.8976 124.535 20.9766 124.454Z" fill="white"/>
<path d="M49.2155 13.9629C45.4803 14.3129 42.6166 17.6828 42.6059 21.7218C42.5409 46.4221 42.4336 131.62 43.928 161.775C44.0863 164.97 46.5176 167.48 49.4872 167.514C64.1748 167.684 106.423 167.997 130.408 166.345C135.404 166 139.291 161.543 139.285 156.151C139.256 130.227 138.871 57.3201 135.575 23.9952C135.18 20.0024 132.2 16.8858 128.484 16.5739C112.465 15.2293 69.9263 12.0226 49.2155 13.9629Z" fill="url(#paint1_linear_1_7657)"/>
<path d="M48.5017 28.195C48.2133 49.3239 47.392 119.611 48.8257 145.553C49.0352 149.344 51.7692 152.338 55.1452 152.465C69.045 152.987 104.689 153.996 124.999 151.589C128.656 151.155 131.451 147.74 131.549 143.605C132.057 122.043 133.429 56.579 132.036 30.9274C131.813 26.8352 128.911 23.57 125.273 23.3059C110.223 22.2135 71.5764 19.694 54.3051 21.2434C51.0629 21.5343 48.5516 24.537 48.5017 28.195Z" fill="#C0B1FF"/>
<path d="M82.0852 17.6366C82.0971 18.2203 82.5292 18.6917 83.0709 18.7095C85.7455 18.797 93.2797 19.0455 96.6473 19.1762C97.3113 19.202 97.8187 18.5475 97.6786 17.8478C97.6671 17.8258 97.5808 16.9287 96.7304 16.865C94.4524 16.6943 87.5798 16.2343 83.0382 16.5165C82.1056 16.5746 82.0549 17.7171 82.0852 17.6366Z" fill="url(#paint2_linear_1_7657)"/>
<path d="M74.1083 72.718C85.2059 72.718 94.2024 63.0264 94.2024 51.0712C94.2024 39.1159 85.2059 29.4243 74.1083 29.4243C63.0106 29.4243 54.0142 39.1159 54.0142 51.0712C54.0142 63.0264 63.0106 72.718 74.1083 72.718Z" fill="white"/>
<mask id="mask0_1_7657" style="mask-type:luminance" maskUnits="userSpaceOnUse" x="56" y="31" width="37" height="40">
<path d="M74.1083 70.3494C83.9916 70.3494 92.0037 61.7183 92.0037 51.0712C92.0037 40.4241 83.9916 31.793 74.1083 31.793C64.2249 31.793 56.2129 40.4241 56.2129 51.0712C56.2129 61.7183 64.2249 70.3494 74.1083 70.3494Z" fill="white"/>
</mask>
<g mask="url(#mask0_1_7657)">
<path d="M74.1859 54.5957C78.5172 54.5957 82.0284 50.8132 82.0284 46.1472C82.0284 41.4812 78.5172 37.6987 74.1859 37.6987C69.8547 37.6987 66.3435 41.4812 66.3435 46.1472C66.3435 50.8132 69.8547 54.5957 74.1859 54.5957Z" fill="#671EE3"/>
</g>
<mask id="mask1_1_7657" style="mask-type:luminance" maskUnits="userSpaceOnUse" x="56" y="31" width="37" height="40">
<path d="M74.1083 70.3494C83.9916 70.3494 92.0037 61.7183 92.0037 51.0712C92.0037 40.4241 83.9916 31.793 74.1083 31.793C64.2249 31.793 56.2129 40.4241 56.2129 51.0712C56.2129 61.7183 64.2249 70.3494 74.1083 70.3494Z" fill="white"/>
</mask>
<g mask="url(#mask1_1_7657)">
<path d="M62.2738 71.5174H87.2588C88.7906 71.5174 89.7084 69.3849 88.8836 67.7578C86.7613 63.5713 82.3211 57.4209 74.6312 57.6985C67.2197 57.966 62.8269 63.5215 60.6185 67.5058C59.681 69.1971 60.6371 71.5174 62.2738 71.5174Z" fill="#671EE3"/>
</g>
<g opacity="0.8">
<path d="M124.947 43.9178L101.978 43.54C101.581 43.5335 101.261 43.1784 101.267 42.751L101.32 39.0354C101.326 38.608 101.656 38.2636 102.052 38.2701L125.022 38.6479C125.419 38.6543 125.739 39.0094 125.733 39.4369L125.68 43.1525C125.674 43.5799 125.344 43.9242 124.947 43.9178Z" fill="white"/>
<path d="M124.803 54.7122L101.834 54.3344C101.437 54.3279 101.117 53.9729 101.123 53.5454L101.176 49.8298C101.182 49.4024 101.512 49.058 101.908 49.0645L124.878 49.4423C125.275 49.4488 125.594 49.8039 125.588 50.2313L125.536 53.9469C125.53 54.3744 125.2 54.7187 124.803 54.7122Z" fill="white"/>
<path d="M124.642 65.5066L101.672 65.1289C101.275 65.1223 100.955 64.7673 100.961 64.3399L101.014 60.6243C101.02 60.1969 101.35 59.8525 101.746 59.859L124.716 60.2367C125.113 60.2432 125.433 60.5983 125.427 61.0257L125.374 64.7413C125.368 65.1688 125.038 65.5131 124.642 65.5066Z" fill="white"/>
</g>
<path d="M104.765 27.4324C104.687 27.4005 104.629 27.3229 104.622 27.229C104.601 26.9193 104.585 26.6038 104.575 26.2915C104.571 26.1632 104.666 26.0575 104.787 26.0553C105.081 26.0482 105.002 26.3637 105.06 27.202C105.069 27.3301 104.978 27.44 104.857 27.4474C104.825 27.4494 104.794 27.444 104.765 27.4324Z" fill="#BDD0FB"/>
<path d="M104.663 23.3709C104.716 22.7769 104.793 22.178 104.891 21.5909C104.912 21.4648 105.025 21.3822 105.145 21.4064C105.47 21.4742 105.258 21.6715 105.099 23.4221C105.088 23.5496 104.981 23.6415 104.86 23.6274C104.738 23.6129 104.651 23.4968 104.663 23.3709ZM105.537 18.7595C105.705 18.1879 105.896 17.6128 106.1 17.0703C106.21 16.7786 106.613 16.9683 106.508 17.2477C106.305 17.7887 106.12 18.3436 105.957 18.903C105.921 19.0251 105.798 19.0918 105.683 19.0522C105.565 19.012 105.502 18.8803 105.537 18.7595ZM107.275 14.4444C107.547 13.9257 107.842 13.412 108.152 12.9175C108.313 12.6627 108.678 12.925 108.519 13.1786C108.215 13.663 107.926 14.1664 107.659 14.6746C107.519 14.942 107.135 14.711 107.275 14.4444ZM109.838 10.9365C109.747 10.8515 109.736 10.7047 109.815 10.6086C110.183 10.1613 110.572 9.72391 110.973 9.30851C111.179 9.09506 111.488 9.42942 111.282 9.64287C110.89 10.0498 110.508 10.4785 110.148 10.9166C110.069 11.0129 109.93 11.0217 109.838 10.9365ZM113.01 7.74097C112.936 7.63811 112.954 7.49258 113.05 7.41583C113.498 7.05834 113.964 6.71547 114.437 6.39663C114.68 6.23331 114.919 6.6254 114.676 6.78963C114.213 7.10205 113.756 7.43797 113.318 7.78825C113.222 7.86494 113.084 7.84383 113.01 7.74097ZM116.859 5.42256C116.807 5.40165 116.763 5.3608 116.737 5.30418C116.684 5.188 116.73 5.04962 116.839 4.99533C117.347 4.74221 117.871 4.50759 118.395 4.29771C118.508 4.25258 118.635 4.31329 118.68 4.43349C118.724 4.55362 118.668 4.68753 118.556 4.73266C118.042 4.93819 117.528 5.16833 117.03 5.41632C116.975 5.44418 116.913 5.44451 116.859 5.42256ZM121 3.88808C120.934 3.86139 120.882 3.80223 120.863 3.72489C120.833 3.60001 120.905 3.47481 121.022 3.4452C121.569 3.30747 122.128 3.19104 122.684 3.09921C122.803 3.07921 122.917 3.16603 122.937 3.29305C122.958 3.41975 122.877 3.53858 122.758 3.55826C122.213 3.64833 121.665 3.76242 121.13 3.89736C121.085 3.90866 121.04 3.90438 121 3.88808ZM125.219 3.07298C125.214 2.94466 125.308 2.83803 125.429 2.83453C125.992 2.81855 126.564 2.82621 127.129 2.85719C127.419 2.87401 127.402 3.33695 127.112 3.32117C126.559 3.29078 125.999 3.28344 125.448 3.29903C125.327 3.30253 125.224 3.20149 125.219 3.07298ZM139.274 8.11963C137.96 7.0386 137.664 7.05614 137.845 6.76307C137.91 6.65618 138.046 6.62768 138.148 6.6984C138.622 7.02945 139.09 7.38479 139.54 7.75435C139.77 7.9439 139.505 8.30957 139.274 8.11963ZM129.623 3.38182C129.643 3.25558 129.756 3.17175 129.875 3.19467C130.431 3.30111 130.991 3.43195 131.539 3.58384C131.821 3.66203 131.716 4.1112 131.434 4.03321C130.897 3.88444 130.348 3.75606 129.804 3.65177C129.683 3.62852 129.603 3.50676 129.623 3.38182ZM135.547 5.65276C134.06 4.87838 133.771 4.958 133.89 4.63006C133.966 4.42206 134.2 4.49986 134.174 4.50103C134.702 4.72428 135.228 4.97176 135.736 5.23625C135.845 5.2932 135.892 5.43262 135.839 5.54756C135.79 5.65737 135.663 5.7114 135.547 5.65276Z" fill="#BDD0FB"/>
<path d="M141.931 10.7087C141.427 10.1289 141.115 9.93251 141.324 9.71127C141.409 9.62146 141.548 9.62211 141.634 9.71432C142.178 10.2912 142.45 10.5213 142.241 10.7248C142.178 10.7859 142.014 10.8033 141.931 10.7087Z" fill="#BDD0FB"/>
<path d="M147.799 27.6403C147.711 27.6045 147.651 27.5117 147.656 27.4078C147.671 27.1026 147.681 26.7937 147.684 26.4894C147.685 26.3612 147.785 26.2601 147.906 26.2635C148.027 26.2673 148.124 26.3736 148.123 26.5021C148.119 26.8126 148.11 27.1278 148.094 27.4393C148.088 27.5673 147.984 27.664 147.863 27.6553C147.841 27.6537 147.819 27.6485 147.799 27.6403Z" fill="#BDD0FB"/>
<path d="M118.213 47.1492C117.648 46.9004 117.087 46.6236 116.544 46.3261C116.436 46.2668 116.392 46.1265 116.447 46.0127C116.6 45.6923 116.725 45.9928 118.376 46.7207C118.488 46.7702 118.543 46.9063 118.498 47.0247C118.419 47.2314 118.186 47.1501 118.213 47.1492ZM120.88 47.882C120.963 47.5334 121.155 47.7998 122.901 48.1323C123.021 48.1544 123.102 48.276 123.082 48.4021C123.062 48.5284 122.95 48.6123 122.83 48.5896C122.233 48.4758 121.63 48.3335 121.039 48.1665C120.921 48.1329 120.851 48.0052 120.88 47.882ZM113.986 44.6823C113.486 44.3095 112.994 43.9094 112.524 43.493C112.43 43.4101 112.417 43.2635 112.494 43.1655C112.711 42.8895 112.769 43.2109 114.235 44.3036C114.335 44.378 114.36 44.5231 114.291 44.6277C114.222 44.7321 114.086 44.7564 113.986 44.6823ZM125.718 48.9197C125.632 48.8849 125.572 48.7955 125.575 48.6934C125.578 48.5652 125.678 48.4656 125.799 48.4709C126.395 48.4969 126.998 48.4961 127.592 48.4688C127.713 48.4633 127.816 48.5626 127.823 48.6907C127.831 48.819 127.738 48.9273 127.617 48.9329C127.012 48.9608 126.396 48.9616 125.788 48.935C125.763 48.934 125.74 48.9286 125.718 48.9197ZM130.444 48.5695C130.375 48.5413 130.32 48.477 130.305 48.3943C130.281 48.2682 130.359 48.1472 130.477 48.1241C131.061 48.0111 131.647 47.8701 132.219 47.7049C132.336 47.6712 132.457 47.7445 132.491 47.8683C132.524 47.9921 132.457 48.1197 132.341 48.1533C131.756 48.3219 131.158 48.4658 130.563 48.5812C130.522 48.5892 130.481 48.5844 130.444 48.5695ZM134.968 47.1283C134.915 47.1064 134.869 47.0626 134.844 47.0023C134.795 46.8841 134.845 46.7478 134.956 46.6977C135.5 46.4518 136.041 46.1782 136.564 45.8845C136.671 45.8249 136.804 45.8684 136.862 45.9819C136.92 46.0955 136.881 46.2359 136.774 46.2957C136.241 46.5954 135.689 46.8745 135.133 47.1255C135.079 47.15 135.02 47.1493 134.968 47.1283ZM139.074 44.6722C139.035 44.6564 139 44.6288 138.973 44.5905C138.901 44.4861 138.922 44.341 139.02 44.2665C139.499 43.9002 139.969 43.5075 140.417 43.0993C140.508 43.0162 140.647 43.0279 140.727 43.126C140.807 43.2237 140.797 43.3703 140.706 43.4533C140.249 43.87 139.769 44.2708 139.28 44.6446C139.218 44.6918 139.141 44.6994 139.074 44.6722ZM142.494 41.2747C142.237 41.0341 142.54 40.986 143.589 39.4791C143.76 39.2336 144.115 39.5128 143.944 39.7585C143.586 40.2726 143.202 40.7767 142.804 41.2564C142.725 41.3516 142.586 41.3608 142.494 41.2747ZM145.229 37.2082C144.929 37.0329 145.212 36.9172 145.92 35.1961C146.034 34.9171 146.438 35.1063 146.322 35.3868C146.081 35.9742 145.813 36.5567 145.526 37.1181C145.468 37.2319 145.333 37.2699 145.229 37.2082ZM147.026 32.5872C146.92 32.544 146.86 32.4215 146.891 32.3046C147.053 31.6972 147.191 31.0777 147.303 30.4632C147.326 30.3376 147.441 30.2569 147.56 30.283C147.679 30.3098 147.757 30.4321 147.734 30.5577C147.62 31.1848 147.478 31.8169 147.314 32.4366C147.281 32.5596 147.16 32.6298 147.044 32.5933C147.038 32.5916 147.032 32.5895 147.026 32.5872Z" fill="#BDD0FB"/>
<path d="M110.353 41.2866C109.834 40.6831 109.572 40.4409 109.79 40.2481C110.017 40.0475 110.144 40.3586 110.675 40.9768C110.757 41.0724 110.752 41.2193 110.663 41.3048C110.574 41.3903 110.435 41.3822 110.353 41.2866Z" fill="#BDD0FB"/>
<path d="M112.751 35.4144L115.869 34.9985C116.819 36.2022 117.955 37.2571 119.25 38.1061C119.372 41.3449 119.167 41.5812 119.489 41.6966L123.082 42.9862C123.187 43.0238 123.302 42.9872 123.368 42.8949L125.261 40.2633C126.769 40.4203 128.263 40.3092 129.69 39.9587L131.959 42.3076C132.038 42.3898 132.157 42.4105 132.256 42.3589L135.619 40.5937C135.718 40.5421 135.773 40.4296 135.758 40.3137L135.318 37.0054C136.44 36.0176 137.419 34.8307 138.202 33.4717L141.348 33.4591C141.458 33.4587 141.555 33.3841 141.589 33.2735L142.753 29.4875C142.787 29.3768 142.75 29.2544 142.662 29.1828L140.148 27.1389C140.273 25.544 140.146 23.9601 139.793 22.4429C141.881 20.0832 142.174 20.0811 142.021 19.7624C140.279 16.2741 140.378 15.9772 140.037 16.0226L136.919 16.4385C135.969 15.2348 134.833 14.1799 133.538 13.3309C133.416 10.0941 133.621 9.85584 133.3 9.74032C129.709 8.5252 129.623 8.25908 129.42 8.54208L127.527 11.1738C126.019 11.0167 124.525 11.1277 123.098 11.4783C120.865 9.25938 120.836 8.91885 120.532 9.07808C117.233 10.888 116.983 10.7659 117.03 11.1233L117.47 14.4316C116.348 15.4193 115.369 16.6063 114.586 17.9653C111.583 18.0437 111.305 17.8178 111.199 18.1635C110.11 21.9311 109.854 22.033 110.126 22.2542L112.64 24.2981C112.515 25.8928 112.642 27.4769 112.995 28.9941C110.915 31.3458 110.613 31.3541 110.767 31.6746C112.509 35.1629 112.41 35.4599 112.751 35.4144Z" fill="#91B3FA"/>
<path d="M122.719 25.4029C122.853 23.2597 124.61 21.6575 126.637 21.8315C128.663 22.0062 130.203 23.8909 130.069 26.0342C129.935 28.1775 128.178 29.7796 126.152 29.6057C124.125 29.4317 122.586 27.5457 122.719 25.4029ZM126.593 22.5262C124.949 22.3848 123.487 23.6725 123.376 25.4592C123.266 27.2195 124.531 28.7685 126.195 28.9109C127.859 29.0537 129.302 27.7379 129.412 25.9777C129.522 24.2148 128.254 22.6685 126.593 22.5262Z" fill="white"/>
<path d="M123.188 35.0003C122.678 34.7925 122.184 34.5393 121.717 34.245C121.576 34.1565 121.519 33.9762 121.573 33.8211C121.58 33.8025 121.588 33.7844 121.597 33.7668C121.688 33.6018 121.89 33.5486 122.047 33.6473C122.585 33.9859 123.16 34.2658 123.756 34.4804C128.25 36.0929 133.081 33.6565 134.702 29.0325C134.743 28.9145 134.783 28.7949 134.82 28.674C136.321 23.789 133.769 18.5218 129.169 16.8692C124.574 15.2204 119.605 17.804 118.105 22.6755C117.214 25.5756 117.993 27.5218 117.888 27.8203C117.775 28.1429 117.332 28.1052 117.259 27.7683C116.859 25.9276 116.948 23.9423 117.606 22.0653C120.446 13.9668 131.144 13.4735 134.872 21.2615C136.019 23.6581 136.223 26.3704 135.446 28.8987C135.406 29.0295 135.363 29.159 135.318 29.2873C134.495 31.6359 132.888 33.5294 130.758 34.6473C128.512 35.826 125.953 36.001 123.554 35.1398C123.431 35.096 123.309 35.0494 123.188 35.0003Z" fill="white"/>
<path d="M149.47 18.1835C150.043 18.8148 150.714 19.3524 151.466 19.7651L151.625 21.6469C151.642 21.8558 151.803 21.7622 153.778 22.3257C153.961 22.374 153.929 22.196 154.885 20.6717C155.729 20.6818 156.554 20.5411 157.334 20.2683L158.683 21.4787C158.832 21.613 158.884 21.4244 160.651 20.3182C160.704 20.2839 160.73 20.2174 160.717 20.1526L160.348 18.3041C160.934 17.6868 161.433 16.9643 161.816 16.1547C163.482 15.9535 163.644 16.0662 163.69 15.8658C164.152 13.6757 164.29 13.6065 164.131 13.4959L162.658 12.4707C162.667 11.5621 162.536 10.6727 162.283 9.83284L163.407 8.38011C163.531 8.21907 163.356 8.1629 162.33 6.25976C162.233 6.08716 162.145 6.23482 160.46 6.5862C159.887 5.95475 159.216 5.41732 158.465 5.00458L158.306 3.12268C158.288 2.91364 158.127 3.00741 156.152 2.44388C155.971 2.3957 156.006 2.5659 155.045 4.09791C154.202 4.08765 153.376 4.2285 152.596 4.50124L151.248 3.29087C151.201 3.2484 151.133 3.24301 151.081 3.27729L149.279 4.45131C149.227 4.48559 149.2 4.55209 149.213 4.61696L149.583 6.46542C148.996 7.08272 148.497 7.80522 148.114 8.61486C146.448 8.81604 146.286 8.70337 146.241 8.9037C145.778 11.093 145.64 11.1628 145.799 11.2737L147.273 12.2987C147.263 13.2074 147.394 14.0968 147.647 14.9366C146.601 16.3481 146.412 16.3921 146.511 16.5692L147.601 18.5097C147.698 18.6833 147.794 18.533 149.47 18.1835Z" fill="#91B3FA"/>
<path d="M152.768 12.399C152.761 11.091 153.738 10.026 154.952 10.0184C156.166 10.0105 157.155 11.0626 157.162 12.3707C157.169 13.6755 156.189 14.7436 154.978 14.7514C153.767 14.759 152.776 13.7041 152.768 12.399ZM153.423 12.3947C153.428 13.3108 154.124 14.0515 154.974 14.0461C156.34 14.0372 157.024 12.2409 156.049 11.2032C155.079 10.1704 153.415 10.9142 153.423 12.3947Z" fill="white"/>
<path d="M144.198 16.755C144.094 16.4577 144 16.1518 143.917 15.8457C143.883 15.721 143.95 15.5907 144.066 15.5544C144.357 15.4632 144.338 15.8224 144.607 16.5891C144.649 16.7106 144.592 16.8462 144.479 16.892C144.367 16.9377 144.241 16.8771 144.198 16.755Z" fill="#BDD0FB"/>
<path d="M143.466 12.7402C143.45 12.1161 143.476 11.4631 143.554 10.8057C143.59 10.4965 144.023 10.5575 143.987 10.8651C143.786 12.5683 144.056 12.9577 143.691 12.9686C143.569 12.9721 143.47 12.8693 143.466 12.7402ZM144.409 8.06913C144.297 8.02069 144.243 7.8838 144.288 7.76321C144.511 7.16565 144.78 6.5818 145.087 6.02801C145.236 5.76131 145.61 6.00242 145.462 6.26951C145.166 6.80219 144.907 7.36378 144.693 7.93861C144.614 8.15017 144.382 8.07043 144.409 8.06913ZM146.965 3.9448C146.936 3.93317 146.91 3.91493 146.887 3.89005C146.802 3.79758 146.803 3.64874 146.889 3.55751C147.315 3.1047 147.778 2.68461 148.263 2.30901C148.361 2.23343 148.498 2.25752 148.568 2.36284C148.638 2.4683 148.616 2.61532 148.518 2.69091C148.051 3.05242 147.606 3.45666 147.196 3.89233C147.133 3.95883 147.042 3.97629 146.965 3.9448ZM150.83 1.25442C150.774 1.23156 150.727 1.18403 150.704 1.11896C150.66 0.997851 150.716 0.861677 150.829 0.815052C151.387 0.583159 151.967 0.397308 152.552 0.262691C152.67 0.235742 152.786 0.316589 152.811 0.443672C152.836 0.570626 152.761 0.695501 152.643 0.722645C152.08 0.852001 151.523 1.03071 150.986 1.25371C150.934 1.2754 150.879 1.2741 150.83 1.25442ZM155.231 0.225351C155.236 0.0956705 155.338 -0.00524366 155.459 0.000211125C156.058 0.0273552 156.659 0.105347 157.244 0.231911C157.526 0.291589 157.442 0.754269 157.158 0.692968C156.595 0.571145 156.017 0.496206 155.44 0.470166C155.317 0.464127 155.226 0.3525 155.231 0.225351Z" fill="#BDD0FB"/>
<path d="M160.579 2.10401C159.889 1.66594 159.596 1.63763 159.726 1.35255C159.779 1.23592 159.907 1.18592 160.018 1.24469C160.282 1.38379 160.545 1.53665 160.801 1.69893C160.905 1.76484 160.939 1.909 160.878 2.02096C160.818 2.13103 160.685 2.17077 160.579 2.10401Z" fill="#BDD0FB"/>
<path d="M165.819 10.031C165.662 9.18198 165.486 8.93054 165.77 8.84437C165.886 8.80904 166.006 8.88184 166.039 9.00671C166.119 9.31172 166.189 9.62524 166.247 9.93851C166.271 10.0658 166.194 10.1898 166.076 10.2152C165.959 10.2409 165.843 10.1585 165.819 10.031Z" fill="#BDD0FB"/>
<path d="M151.964 24.109C152.053 23.7305 152.335 24.0917 153.905 24.2525C154.192 24.2812 154.152 24.7501 153.864 24.7207C153.277 24.6606 152.69 24.5509 152.121 24.3948C152.006 24.3637 151.933 24.2365 151.964 24.109ZM156.482 24.435C156.464 24.3067 156.545 24.1867 156.665 24.167C158.236 23.9066 158.484 23.5286 158.595 23.9022C158.631 24.026 158.568 24.1581 158.453 24.1975C157.892 24.3892 157.313 24.5354 156.731 24.6318C156.612 24.6514 156.501 24.5634 156.482 24.435ZM160.755 22.8254C160.563 22.4932 160.997 22.5266 162.194 21.4137C162.413 21.2109 162.698 21.5665 162.479 21.7699C162.033 22.1844 161.554 22.5648 161.056 22.9001C160.954 22.9689 160.819 22.9356 160.755 22.8254ZM164.098 19.5345C163.799 19.3096 164.212 19.1572 164.909 17.6288C165.036 17.3499 165.428 17.5564 165.301 17.8359C165.042 18.4045 164.739 18.9564 164.402 19.4765C164.332 19.5831 164.196 19.6086 164.098 19.5345ZM165.804 14.8163C166.127 13.1402 165.885 12.7554 166.249 12.7754C166.37 12.7819 166.462 12.8924 166.456 13.0221C166.426 13.6572 166.351 14.293 166.231 14.9118C166.207 15.0389 166.092 15.1207 165.973 15.0943C165.856 15.068 165.78 14.9437 165.804 14.8163Z" fill="#BDD0FB"/>
<path d="M149.442 23.2568C149.183 23.1036 148.926 22.9378 148.679 22.7639C148.578 22.6928 148.55 22.5472 148.616 22.4384C148.782 22.1648 148.984 22.4497 149.652 22.8444C149.757 22.9069 149.796 23.0498 149.738 23.1636C149.679 23.2792 149.545 23.3183 149.442 23.2568Z" fill="#BDD0FB"/>
<path d="M152.638 17.5976C152.452 17.5009 152.401 17.2852 152.476 17.1199C152.555 16.9448 152.753 16.8725 152.914 16.9575C153.215 17.116 153.535 17.2409 153.865 17.3285C153.937 17.3322 155.643 17.919 157.462 16.7375C161.068 14.387 160.234 8.47061 156.137 7.38491C153.78 6.76008 151.393 8.15657 150.556 10.5446C149.713 12.9496 150.918 14.0756 150.24 14.2999C150.068 14.3574 149.884 14.2529 149.831 14.0666C149.544 13.0625 149.516 11.9899 149.75 10.9645C150.461 7.85084 153.394 5.93135 156.294 6.70002C159.414 7.52693 161.215 11.1236 160.057 14.4263C159.123 17.0901 156.443 18.7382 153.709 18.0134C153.709 18.0134 153.709 18.0134 153.709 18.0134C153.339 17.9151 152.979 17.7754 152.638 17.5976Z" fill="white"/>
<path d="M104.499 146.907H79.508C78.6905 146.907 78.0217 146.186 78.0217 145.306V137.65C78.0217 136.769 78.6905 136.049 79.508 136.049H104.499C105.317 136.049 105.986 136.769 105.986 137.65V145.306C105.986 146.186 105.317 146.907 104.499 146.907Z" fill="url(#paint3_linear_1_7657)"/>
<g opacity="0.8">
<path d="M123.209 96.7323H66.8244C66.376 96.7323 66.0091 96.3371 66.0091 95.854V91.6321C66.0091 91.1491 66.376 90.7539 66.8244 90.7539H123.209C123.657 90.7539 124.024 91.1491 124.024 91.6321V95.854C124.024 96.337 123.657 96.7323 123.209 96.7323Z" fill="white"/>
<path d="M58.5675 97.3493C60.4256 97.3493 61.9319 95.7266 61.9319 93.725C61.9319 91.7233 60.4256 90.1006 58.5675 90.1006C56.7094 90.1006 55.2031 91.7233 55.2031 93.725C55.2031 95.7266 56.7094 97.3493 58.5675 97.3493Z" fill="white"/>
<path d="M123.209 107.951H66.8244C66.376 107.951 66.0091 107.555 66.0091 107.072V102.85C66.0091 102.367 66.376 101.972 66.8244 101.972H123.209C123.657 101.972 124.024 102.367 124.024 102.85V107.072C124.024 107.555 123.657 107.951 123.209 107.951Z" fill="white"/>
<path d="M59.8589 108.293C61.5756 107.527 62.3908 105.407 61.6797 103.557C60.9686 101.708 59.0005 100.83 57.2838 101.596C55.5671 102.362 54.7519 104.482 55.463 106.331C56.1741 108.181 58.1422 109.059 59.8589 108.293Z" fill="white"/>
<path d="M123.209 119.169H66.8244C66.376 119.169 66.0091 118.774 66.0091 118.291V114.069C66.0091 113.586 66.376 113.19 66.8244 113.19H123.209C123.657 113.19 124.024 113.586 124.024 114.069V118.291C124.024 118.774 123.657 119.169 123.209 119.169Z" fill="white"/>
<path d="M58.5675 119.786C60.4256 119.786 61.9319 118.163 61.9319 116.161C61.9319 114.16 60.4256 112.537 58.5675 112.537C56.7094 112.537 55.2031 114.16 55.2031 116.161C55.2031 118.163 56.7094 119.786 58.5675 119.786Z" fill="white"/>
<path d="M123.209 130.387H66.8244C66.376 130.387 66.0091 129.992 66.0091 129.509V125.287C66.0091 124.804 66.376 124.409 66.8244 124.409H123.209C123.657 124.409 124.024 124.804 124.024 125.287V129.509C124.024 129.992 123.657 130.387 123.209 130.387Z" fill="white"/>
<path d="M59.8592 130.73C61.5759 129.964 62.3911 127.844 61.68 125.995C60.9689 124.145 59.0008 123.267 57.2841 124.033C55.5674 124.799 54.7522 126.919 55.4633 128.769C56.1744 130.618 58.1425 131.496 59.8592 130.73Z" fill="white"/>
</g>
<path d="M39.9469 38.405L38.8176 39.3449L38.8147 39.3473C38.7342 39.4143 38.6187 39.3983 38.5564 39.3116C38.4942 39.2249 38.5091 39.1004 38.5896 39.0334C38.5902 39.0329 38.5917 39.0317 38.5923 39.0312L39.7432 38.1094C39.8189 38.0487 39.926 38.0657 39.9823 38.1473C40.038 38.2279 40.0232 38.3415 39.9498 38.4027L39.9469 38.405Z" fill="white"/>
<path d="M36.0061 41.863C35.2925 42.535 34.592 43.2231 33.9012 43.9219C33.8034 44.0209 33.6496 44.0157 33.5577 43.9103C33.4658 43.8049 33.4706 43.6393 33.5685 43.5402C33.569 43.5397 33.5705 43.5382 33.571 43.5377C34.2752 42.8451 34.9937 42.1693 35.7224 41.507C35.8143 41.4234 35.9517 41.4359 36.0293 41.535C36.1061 41.633 36.0953 41.779 36.0061 41.863Z" fill="white"/>
<path d="M31.2972 46.6837C30.6379 47.4167 29.9913 48.1626 29.3577 48.921C29.2514 49.0482 29.0694 49.0585 28.9514 48.944C28.8333 48.8295 28.8237 48.6335 28.9299 48.5063C28.9305 48.5056 28.9321 48.5038 28.9327 48.5032C29.5806 47.7486 30.2415 47.0071 30.9146 46.2789C31.0191 46.1658 31.1888 46.1655 31.2938 46.278C31.3978 46.3896 31.3989 46.5705 31.2972 46.6837Z" fill="white"/>
<path d="M26.98 51.9072C26.3811 52.6971 25.7961 53.4989 25.2255 54.3123C25.1148 54.4701 24.9064 54.5014 24.7598 54.3821C24.6134 54.2629 24.5843 54.0384 24.695 53.8806C24.6956 53.8798 24.6973 53.8775 24.6978 53.8767C25.2839 53.0646 25.8842 52.2646 26.4982 51.4772C26.6093 51.3347 26.8066 51.3162 26.939 51.4359C27.0701 51.5546 27.088 51.7648 26.98 51.9072Z" fill="white"/>
<path d="M23.0984 57.5069C22.5665 58.3496 22.05 59.2033 21.5496 60.0677C21.4394 60.2581 21.2068 60.3162 21.03 60.1975C20.8533 60.0788 20.7993 59.8282 20.9096 59.6378C20.9101 59.6369 20.9117 59.634 20.9124 59.6331C21.4291 58.767 21.9618 57.9123 22.5098 57.0693C22.6232 56.895 22.8461 56.8527 23.0079 56.9747C23.1682 57.0957 23.2081 57.333 23.0984 57.5069Z" fill="white"/>
<path d="M19.6981 63.4515C19.2384 64.3411 18.7957 65.2408 18.3709 66.15C18.269 66.368 18.0224 66.4558 17.82 66.3461C17.6176 66.2363 17.5362 65.9706 17.6381 65.7526L17.6396 65.7493C18.0768 64.833 18.5318 63.9267 19.0038 63.031C19.1123 62.825 19.3555 62.7528 19.5468 62.8697C19.737 62.986 19.8042 63.246 19.6981 63.4515Z" fill="white"/>
<path d="M16.8216 69.7025C16.4436 70.635 16.0842 71.5761 15.7438 72.525C15.6567 72.7679 15.4034 72.8887 15.178 72.7948C14.9525 72.7011 14.8404 72.4281 14.9275 72.1853L14.9288 72.1816C15.2812 71.2231 15.6528 70.2729 16.043 69.3319C16.1389 69.1007 16.3906 68.997 16.6052 69.1003C16.8188 69.203 16.915 69.4721 16.8216 69.7025Z" fill="white"/>
<path d="M14.5274 76.2225C14.2373 77.1902 13.9668 78.1648 13.7165 79.1451C13.6484 79.4118 13.3926 79.5685 13.1451 79.4951C12.8975 79.4218 12.752 79.1462 12.8201 78.8795L12.8211 78.8754C13.0828 77.8832 13.3647 76.8973 13.6666 75.9186C13.7456 75.6629 14.0019 75.5245 14.2392 75.6095C14.4754 75.694 14.6037 75.968 14.5274 76.2225Z" fill="white"/>
<path d="M12.8513 82.9536C12.6531 83.9474 12.4753 84.9459 12.3178 85.948C12.2725 86.2368 12.0184 86.4312 11.7505 86.3824C11.4824 86.3335 11.302 86.0598 11.3473 85.7711L11.348 85.7667C11.5158 84.7507 11.7042 83.7388 11.9132 82.7319C11.971 82.4531 12.2278 82.2776 12.4866 82.34C12.7441 82.4021 12.9065 82.6763 12.8513 82.9536Z" fill="white"/>
<path d="M11.8378 89.8287C11.74 90.8407 11.6589 91.8549 11.5931 92.8704C11.5731 93.1787 11.325 93.4112 11.0387 93.3897C10.7525 93.3682 10.5366 93.1008 10.5566 92.7925L10.557 92.7877C10.6316 91.7607 10.7216 90.7349 10.8287 89.7107C10.8601 89.4106 11.1114 89.1948 11.3899 89.2286C11.6669 89.2622 11.8666 89.5306 11.8378 89.8287Z" fill="white"/>
<path d="M11.414 96.7923C11.386 97.8099 11.3763 98.8279 11.3752 99.8458C11.3749 100.17 11.1307 100.433 10.8297 100.432C10.5287 100.432 10.285 100.169 10.2853 99.8445V99.8441C10.287 98.8137 10.3101 97.7836 10.3449 96.7543C10.3557 96.4363 10.6035 96.1878 10.8987 96.1994C11.1928 96.2109 11.4225 96.4761 11.414 96.7923Z" fill="white"/>
<path d="M11.4507 103.77C11.4901 104.786 11.5453 105.802 11.6168 106.816C11.6401 107.145 11.4116 107.432 11.1065 107.457C10.8014 107.482 10.5353 107.235 10.5121 106.907L10.512 106.905C10.4421 105.877 10.3889 104.848 10.3516 103.818C10.3397 103.491 10.5761 103.215 10.8797 103.202C11.1832 103.19 11.4388 103.443 11.4507 103.77Z" fill="white"/>
<path d="M11.9765 110.719C12.0917 111.728 12.2246 112.734 12.3761 113.737C12.4261 114.068 12.2178 114.379 11.9109 114.433C11.604 114.487 11.3147 114.263 11.2647 113.932L11.2645 113.93C11.1132 112.911 10.9809 111.889 10.8664 110.865C10.8296 110.535 11.0482 110.235 11.3547 110.195C11.6613 110.155 11.9395 110.389 11.9765 110.719Z" fill="white"/>
<path d="M13.0557 117.585C13.257 118.576 13.4786 119.563 13.7215 120.543C13.803 120.872 13.6216 121.209 13.3164 121.297C13.0112 121.385 12.6976 121.19 12.6162 120.861L12.6157 120.859C12.3708 119.86 12.1477 118.854 11.9453 117.844C11.879 117.514 12.0741 117.188 12.3807 117.117C12.6874 117.046 12.9894 117.254 13.0557 117.585Z" fill="white"/>
<path d="M14.7674 124.287C15.0675 125.248 15.3906 126.199 15.738 127.14C15.8566 127.461 15.7111 127.825 15.4129 127.953C15.1146 128.081 14.7767 127.924 14.6581 127.603L14.6575 127.601C14.3045 126.638 13.9768 125.664 13.6729 124.682C13.572 124.357 13.7354 124.004 14.0378 123.896C14.3402 123.787 14.6666 123.962 14.7674 124.287Z" fill="white"/>
<path d="M17.2007 130.71C17.6122 131.618 18.0494 132.513 18.5131 133.392C18.6743 133.697 18.5752 134.085 18.2919 134.258C18.0087 134.432 17.6482 134.325 17.4872 134.02L17.4864 134.019C17.0124 133.115 16.566 132.195 16.1463 131.262C16.0051 130.948 16.1269 130.57 16.4183 130.418C16.7096 130.266 17.0594 130.396 17.2007 130.71Z" fill="white"/>
<path d="M20.4332 136.69C20.9653 137.521 21.5243 138.331 22.1097 139.118C22.3167 139.396 22.2752 139.802 22.017 140.025C21.7587 140.248 21.3817 140.203 21.1747 139.925L21.1736 139.924C20.572 139.11 19.9982 138.274 19.4525 137.417C19.2666 137.125 19.3356 136.726 19.6066 136.526C19.8776 136.325 20.2472 136.398 20.4332 136.69Z" fill="white"/>
<path d="M24.4974 142.031C25.1497 142.753 25.8272 143.449 26.5283 144.115C26.7802 144.355 26.8041 144.769 26.5817 145.04C26.3595 145.312 25.9752 145.337 25.7233 145.098L25.7221 145.097C24.9994 144.406 24.3015 143.685 23.63 142.937C23.3979 142.679 23.4043 142.267 23.6441 142.017C23.8842 141.767 24.2655 141.772 24.4974 142.031Z" fill="white"/>
<path d="M29.3454 146.54C29.7236 146.836 30.1071 147.125 30.4955 147.405C30.8828 147.688 31.2819 147.951 31.6753 148.224L31.6936 148.236C31.9758 148.432 32.0574 148.837 31.8759 149.141C31.6945 149.445 31.3208 149.534 31.0386 149.339C30.6314 149.059 30.2186 148.789 29.8176 148.499C29.4155 148.211 29.0184 147.914 28.6265 147.61C28.3519 147.397 28.2898 146.984 28.4877 146.688C28.6857 146.392 29.0688 146.326 29.3435 146.539L29.3454 146.54Z" fill="white"/>
<path d="M34.8319 150.104C35.6718 150.548 36.5273 150.958 37.3959 151.333C37.7011 151.465 37.8492 151.839 37.7269 152.168C37.6045 152.496 37.2599 152.657 36.9547 152.525C36.0573 152.141 35.1729 151.722 34.3044 151.266C34.006 151.11 33.8819 150.723 34.027 150.401C34.1722 150.08 34.5316 149.946 34.83 150.102L34.8319 150.104Z" fill="white"/>
<path d="M40.8062 152.609C41.7044 152.895 42.6124 153.147 43.5277 153.365C43.8421 153.44 44.0407 153.775 43.9713 154.114C43.9018 154.453 43.5926 154.667 43.2782 154.592C42.3361 154.372 41.4006 154.117 40.4745 153.826C40.1624 153.728 39.9833 153.376 40.0743 153.04C40.1653 152.704 40.492 152.51 40.804 152.609L40.8062 152.609Z" fill="white"/>
<path d="M47.0893 154.041C48.0195 154.175 48.9541 154.276 49.891 154.348C50.2055 154.372 50.4425 154.666 50.4202 155.005C50.3979 155.343 50.1271 155.599 49.8125 155.575C48.8525 155.505 47.8941 155.405 46.9392 155.272C46.6236 155.228 46.4008 154.917 46.4417 154.577C46.4825 154.237 46.7714 153.997 47.0871 154.041L47.0893 154.041Z" fill="white"/>
<path d="M53.5134 154.478C54.4538 154.475 55.3944 154.444 56.3342 154.388C56.6422 154.369 56.9059 154.623 56.9231 154.955C56.9403 155.287 56.7065 155.571 56.3985 155.589C55.44 155.651 54.4797 155.686 53.5188 155.693C53.2073 155.695 52.9531 155.425 52.9511 155.09C52.949 154.754 53.1998 154.48 53.5113 154.478L53.5134 154.478Z" fill="white"/>
<path d="M59.952 154.046C60.8876 153.926 61.8209 153.783 62.7512 153.618C63.049 153.565 63.3301 153.783 63.3791 154.103C63.4281 154.424 63.2284 154.727 62.9307 154.78C61.9855 154.951 61.0364 155.1 60.0843 155.226C59.7819 155.266 59.5065 155.034 59.4695 154.709C59.4324 154.383 59.6476 154.086 59.95 154.046L59.952 154.046Z" fill="white"/>
<path d="M66.3252 152.888C67.2477 152.673 68.1665 152.439 69.0812 152.186C69.3563 152.11 69.6364 152.289 69.7069 152.585C69.777 152.88 69.6137 153.179 69.3423 153.258C68.4179 153.525 67.4887 153.774 66.5549 154.003C66.2693 154.073 65.985 153.881 65.9201 153.573C65.855 153.265 66.0338 152.959 66.3194 152.889C66.3203 152.889 66.3242 152.888 66.3252 152.888Z" fill="white"/>
<path d="M72.5882 151.123C73.4917 150.825 74.3905 150.51 75.2845 150.179C75.5337 150.086 75.8053 150.229 75.891 150.497C75.9761 150.764 75.8458 151.054 75.6001 151.149C74.6997 151.495 73.7938 151.825 72.8825 152.138C72.623 152.227 72.3454 152.072 72.2627 151.793C72.1798 151.513 72.3232 151.214 72.5828 151.125C72.5837 151.125 72.5872 151.123 72.5882 151.123Z" fill="white"/>
<path d="M78.7073 148.822C79.5879 148.45 80.4631 148.063 81.3323 147.662C81.5558 147.558 81.8145 147.67 81.9104 147.91C82.0056 148.149 81.9042 148.426 81.6842 148.531C80.8106 148.947 79.9307 149.349 79.045 149.735C78.8115 149.837 78.5454 149.716 78.4509 149.464C78.3562 149.213 78.4689 148.926 78.7025 148.824C78.7033 148.824 78.7065 148.822 78.7073 148.822Z" fill="white"/>
<path d="M84.6545 146.036C85.5077 145.596 86.3521 145.138 87.1937 144.668C87.3913 144.557 87.6348 144.64 87.7372 144.853C87.8389 145.065 87.7634 145.325 87.5689 145.437C86.7276 145.92 85.8782 146.393 85.0217 146.848C84.8141 146.959 84.5626 146.867 84.4599 146.644C84.3572 146.42 84.4423 146.149 84.6498 146.039C84.6505 146.038 84.6537 146.036 84.6545 146.036Z" fill="white"/>
<path d="M90.3854 142.771C91.2014 142.257 92.0075 141.724 92.803 141.172C92.9662 141.059 93.1839 141.11 93.2889 141.286C93.3928 141.46 93.3475 141.691 93.1887 141.806C92.3944 142.378 91.5888 142.933 90.7724 143.469C90.5945 143.586 90.3624 143.525 90.254 143.333C90.1455 143.142 90.2018 142.892 90.3797 142.775C90.3809 142.774 90.384 142.772 90.3854 142.771Z" fill="white"/>
<path d="M95.8173 138.958C96.5846 138.361 97.3406 137.747 98.0846 137.116C98.2117 137.009 98.3959 137.032 98.4961 137.169C98.595 137.305 98.5743 137.5 98.451 137.609C97.7113 138.259 96.9592 138.893 96.195 139.511C96.0542 139.624 95.8545 139.593 95.7489 139.442C95.6433 139.29 95.6719 139.075 95.8127 138.961C95.8139 138.96 95.8163 138.958 95.8173 138.958Z" fill="white"/>
<path d="M100.895 134.604C101.608 133.932 102.306 133.242 102.997 132.543C103.09 132.448 103.237 132.453 103.325 132.554C103.412 132.653 103.409 132.808 103.32 132.903C102.642 133.627 101.947 134.33 101.241 135.022C101.134 135.126 100.97 135.117 100.873 135.003C100.777 134.889 100.785 134.711 100.891 134.607C100.892 134.606 100.894 134.604 100.895 134.604Z" fill="white"/>
<path d="M105.593 129.768L106.571 128.648L106.573 128.645C106.638 128.571 106.746 128.567 106.815 128.637C106.882 128.705 106.886 128.82 106.825 128.894L105.868 130.045C105.799 130.128 105.68 130.135 105.602 130.061C105.525 129.986 105.518 129.858 105.588 129.774C105.589 129.773 105.589 129.772 105.59 129.771L105.593 129.768Z" fill="white"/>
<path d="M100.285 85.0482H56.0585C55.6606 85.0482 55.3351 84.6975 55.3351 84.2689V79.8491C55.3351 79.4205 55.6606 79.0698 56.0585 79.0698H100.285C100.683 79.0698 101.008 79.4205 101.008 79.8491V84.2689C101.008 84.6975 100.683 85.0482 100.285 85.0482Z" fill="white"/>
<path d="M101.979 110.935L110.763 124.656L115.613 112.349L101.979 110.935Z" fill="#5519BE"/>
<path d="M154.212 60.5076L140.623 118.565C140.363 119.676 139.694 120.626 138.77 121.195C137.846 121.764 136.747 121.904 135.726 121.582L82.1309 104.688C81.5173 104.494 81.0739 103.919 81.01 103.234C80.9462 102.548 81.2746 101.89 81.8404 101.569L154.212 60.5076Z" fill="#7530F7"/>
<path d="M101.984 110.934L154.212 60.5076L110.626 113.689L112.911 117.606L101.984 110.934Z" fill="#5519BE"/>
<path d="M115.761 115.281L110.763 124.656L110.626 113.689L115.761 115.281Z" fill="#7530F7"/>
<defs>
<linearGradient id="paint0_linear_1_7657" x1="188.727" y1="232.808" x2="27.4027" y2="46.8254" gradientUnits="userSpaceOnUse">
<stop stop-color="#DAE3FE"/>
<stop offset="1" stop-color="#E9EFFD"/>
</linearGradient>
<linearGradient id="paint1_linear_1_7657" x1="125.028" y1="220.099" x2="68.4796" y2="44.4509" gradientUnits="userSpaceOnUse">
<stop stop-color="#09005D"/>
<stop offset="1" stop-color="#1A0F91"/>
</linearGradient>
<linearGradient id="paint2_linear_1_7657" x1="94.3355" y1="-41.1921" x2="90.2081" y2="6.06078" gradientUnits="userSpaceOnUse">
<stop stop-color="#09005D"/>
<stop offset="1" stop-color="#1A0F91"/>
</linearGradient>
<linearGradient id="paint3_linear_1_7657" x1="78.9349" y1="131.843" x2="145.356" y2="174.038" gradientUnits="userSpaceOnUse">
<stop stop-color="#E1473D"/>
<stop offset="1" stop-color="#E9605A"/>
</linearGradient>
</defs>
</svg>
